<?xml version="1.0" encoding="UTF-8" standalone="no"?>
<!-- Created with Inkscape (http://www.inkscape.org/) -->

<svg
   width="30.48mm"
   height="128.5mm"
   viewBox="0 0 30.48 128.5"
   version="1.1"
   id="svg3066"
   inkscape:version="1.4 (86a8ad7, 2024-10-11)"
   sodipodi:docname="G8Pad.svg"
   xmlns:inkscape="http://www.inkscape.org/namespaces/inkscape"
   xmlns:sodipodi="http://sodipodi.sourceforge.net/DTD/sodipodi-0.dtd"
   xmlns:xlink="http://www.w3.org/1999/xlink"
   xmlns="http://www.w3.org/2000/svg"
   xmlns:svg="http://www.w3.org/2000/svg">
  <sodipodi:namedview
     id="namedview3068"
     pagecolor="#4c4c4c"
     bordercolor="#000000"
     borderopacity="0.25"
     inkscape:showpageshadow="2"
     inkscape:pageopacity="0"
     inkscape:pagecheckerboard="0"
     inkscape:deskcolor="#d1d1d1"
     inkscape:document-units="mm"
     showgrid="false"
     inkscape:zoom="3.659624"
     inkscape:cx="34.703019"
     inkscape:cy="374.49202"
     inkscape:window-width="2560"
     inkscape:window-height="1369"
     inkscape:window-x="-8"
     inkscape:window-y="-8"
     inkscape:window-maximized="1"
     inkscape:current-layer="Design" />
  <defs
     id="defs3063">
    <linearGradient
       id="linearGradient17"
       inkscape:collect="always">
      <stop
         style="stop-color:#18181b;stop-opacity:1;"
         offset="0"
         id="stop16" />
      <stop
         style="stop-color:#515151;stop-opacity:1;"
         offset="1"
         id="stop17" />
    </linearGradient>
    <linearGradient
       id="linearGradient15"
       inkscape:collect="always">
      <stop
         style="stop-color:#18181b;stop-opacity:1;"
         offset="0"
         id="stop14" />
      <stop
         style="stop-color:#515151;stop-opacity:1;"
         offset="1"
         id="stop15" />
    </linearGradient>
    <linearGradient
       id="linearGradient13"
       inkscape:collect="always">
      <stop
         style="stop-color:#18181b;stop-opacity:1;"
         offset="0"
         id="stop12" />
      <stop
         style="stop-color:#515151;stop-opacity:1;"
         offset="1"
         id="stop13" />
    </linearGradient>
    <linearGradient
       id="linearGradient11"
       inkscape:collect="always">
      <stop
         style="stop-color:#18181b;stop-opacity:1;"
         offset="0"
         id="stop10" />
      <stop
         style="stop-color:#515151;stop-opacity:1;"
         offset="1"
         id="stop11" />
    </linearGradient>
    <linearGradient
       id="linearGradient10"
       inkscape:collect="always">
      <stop
         style="stop-color:#18181b;stop-opacity:1;"
         offset="0"
         id="stop8" />
      <stop
         style="stop-color:#515151;stop-opacity:1;"
         offset="1"
         id="stop9" />
    </linearGradient>
    <linearGradient
       id="linearGradient8"
       inkscape:collect="always">
      <stop
         style="stop-color:#18181b;stop-opacity:1;"
         offset="0"
         id="stop1" />
      <stop
         style="stop-color:#515151;stop-opacity:1;"
         offset="1"
         id="stop2" />
    </linearGradient>
    <inkscape:path-effect
       effect="fillet_chamfer"
       id="path-effect25495"
       is_visible="true"
       lpeversion="1"
       nodesatellites_param="F,0,0,1,0,2.1166667,0,1 @ F,0,0,1,0,2.1166667,0,1 @ F,0,0,1,0,2.1166667,0,1 @ F,0,0,1,0,2.1166667,0,1"
       unit="px"
       method="auto"
       mode="F"
       radius="8"
       chamfer_steps="1"
       flexible="false"
       use_knot_distance="true"
       apply_no_radius="true"
       apply_with_radius="true"
       only_selected="false"
       hide_knots="false" />
    <inkscape:path-effect
       effect="fillet_chamfer"
       id="path-effect25491"
       is_visible="true"
       lpeversion="1"
       nodesatellites_param="F,0,0,1,0,2.1166667,0,1 @ F,0,0,1,0,2.1166667,0,1 @ F,0,0,1,0,2.1166667,0,1 @ F,0,0,1,0,2.1166667,0,1"
       unit="px"
       method="auto"
       mode="F"
       radius="8"
       chamfer_steps="1"
       flexible="false"
       use_knot_distance="true"
       apply_no_radius="true"
       apply_with_radius="true"
       only_selected="false"
       hide_knots="false" />
    <inkscape:path-effect
       effect="fillet_chamfer"
       id="path-effect25481"
       is_visible="true"
       lpeversion="1"
       nodesatellites_param="F,0,0,1,0,2.1166667,0,1 @ F,0,0,1,0,2.1166667,0,1 @ F,0,0,1,0,2.1166667,0,1 @ F,0,0,1,0,2.1166667,0,1"
       unit="px"
       method="auto"
       mode="F"
       radius="8"
       chamfer_steps="1"
       flexible="false"
       use_knot_distance="true"
       apply_no_radius="true"
       apply_with_radius="true"
       only_selected="false"
       hide_knots="false" />
    <inkscape:path-effect
       effect="fillet_chamfer"
       id="path-effect25477"
       is_visible="true"
       lpeversion="1"
       nodesatellites_param="F,0,0,1,0,2.1166667,0,1 @ F,0,0,1,0,2.1166667,0,1 @ F,0,0,1,0,2.1166667,0,1 @ F,0,0,1,0,2.1166667,0,1"
       unit="px"
       method="auto"
       mode="F"
       radius="8"
       chamfer_steps="1"
       flexible="false"
       use_knot_distance="true"
       apply_no_radius="true"
       apply_with_radius="true"
       only_selected="false"
       hide_knots="false" />
    <inkscape:path-effect
       effect="fillet_chamfer"
       id="path-effect25467"
       is_visible="true"
       lpeversion="1"
       nodesatellites_param="F,0,0,1,0,2.1166667,0,1 @ F,0,0,1,0,2.1166667,0,1 @ F,0,0,1,0,2.1166667,0,1 @ F,0,0,1,0,2.1166667,0,1"
       unit="px"
       method="auto"
       mode="F"
       radius="8"
       chamfer_steps="1"
       flexible="false"
       use_knot_distance="true"
       apply_no_radius="true"
       apply_with_radius="true"
       only_selected="false"
       hide_knots="false" />
    <inkscape:path-effect
       effect="fillet_chamfer"
       id="path-effect25463"
       is_visible="true"
       lpeversion="1"
       nodesatellites_param="F,0,0,1,0,2.1166667,0,1 @ F,0,0,1,0,2.1166667,0,1 @ F,0,0,1,0,2.1166667,0,1 @ F,0,0,1,0,2.1166667,0,1"
       unit="px"
       method="auto"
       mode="F"
       radius="8"
       chamfer_steps="1"
       flexible="false"
       use_knot_distance="true"
       apply_no_radius="true"
       apply_with_radius="true"
       only_selected="false"
       hide_knots="false" />
    <inkscape:path-effect
       effect="fillet_chamfer"
       id="path-effect25453"
       is_visible="true"
       lpeversion="1"
       nodesatellites_param="F,0,0,1,0,2.1166667,0,1 @ F,0,0,1,0,2.1166667,0,1 @ F,0,0,1,0,2.1166667,0,1 @ F,0,0,1,0,2.1166667,0,1"
       unit="px"
       method="auto"
       mode="F"
       radius="8"
       chamfer_steps="1"
       flexible="false"
       use_knot_distance="true"
       apply_no_radius="true"
       apply_with_radius="true"
       only_selected="false"
       hide_knots="false" />
    <inkscape:path-effect
       effect="fillet_chamfer"
       id="path-effect25449"
       is_visible="true"
       lpeversion="1"
       nodesatellites_param="F,0,0,1,0,2.1166667,0,1 @ F,0,0,1,0,2.1166667,0,1 @ F,0,0,1,0,2.1166667,0,1 @ F,0,0,1,0,2.1166667,0,1"
       unit="px"
       method="auto"
       mode="F"
       radius="8"
       chamfer_steps="1"
       flexible="false"
       use_knot_distance="true"
       apply_no_radius="true"
       apply_with_radius="true"
       only_selected="false"
       hide_knots="false" />
    <inkscape:path-effect
       effect="fillet_chamfer"
       id="path-effect6506"
       is_visible="true"
       lpeversion="1"
       nodesatellites_param="F,0,0,1,0,2.1166667,0,1 @ F,0,0,1,0,2.1166667,0,1 @ F,0,0,1,0,2.1166667,0,1 @ F,0,0,1,0,2.1166667,0,1"
       unit="px"
       method="auto"
       mode="F"
       radius="8"
       chamfer_steps="1"
       flexible="false"
       use_knot_distance="true"
       apply_no_radius="true"
       apply_with_radius="true"
       only_selected="false"
       hide_knots="false" />
    <rect
       x="-51.782536"
       y="469.13434"
       width="344.70166"
       height="71.104378"
       id="rect6338" />
    <inkscape:path-effect
       effect="fillet_chamfer"
       id="path-effect6506-3"
       is_visible="true"
       lpeversion="1"
       nodesatellites_param="F,0,0,1,0,2.1166667,0,1 @ F,0,0,1,0,2.1166667,0,1 @ F,0,0,1,0,2.1166667,0,1 @ F,0,0,1,0,2.1166667,0,1"
       unit="px"
       method="auto"
       mode="F"
       radius="8"
       chamfer_steps="1"
       flexible="false"
       use_knot_distance="true"
       apply_no_radius="true"
       apply_with_radius="true"
       only_selected="false"
       hide_knots="false" />
    <inkscape:path-effect
       effect="fillet_chamfer"
       id="path-effect6506-9"
       is_visible="true"
       lpeversion="1"
       nodesatellites_param="F,0,0,1,0,2.1166667,0,1 @ F,0,0,1,0,2.1166667,0,1 @ F,0,0,1,0,2.1166667,0,1 @ F,0,0,1,0,2.1166667,0,1"
       unit="px"
       method="auto"
       mode="F"
       radius="8"
       chamfer_steps="1"
       flexible="false"
       use_knot_distance="true"
       apply_no_radius="true"
       apply_with_radius="true"
       only_selected="false"
       hide_knots="false" />
    <inkscape:path-effect
       effect="fillet_chamfer"
       id="path-effect6506-2"
       is_visible="true"
       lpeversion="1"
       nodesatellites_param="F,0,0,1,0,2.1166667,0,1 @ F,0,0,1,0,2.1166667,0,1 @ F,0,0,1,0,2.1166667,0,1 @ F,0,0,1,0,2.1166667,0,1"
       unit="px"
       method="auto"
       mode="F"
       radius="8"
       chamfer_steps="1"
       flexible="false"
       use_knot_distance="true"
       apply_no_radius="true"
       apply_with_radius="true"
       only_selected="false"
       hide_knots="false" />
    <inkscape:path-effect
       effect="fillet_chamfer"
       id="path-effect6506-2-7"
       is_visible="true"
       lpeversion="1"
       nodesatellites_param="F,0,0,1,0,2.1166667,0,1 @ F,0,0,1,0,2.1166667,0,1 @ F,0,0,1,0,2.1166667,0,1 @ F,0,0,1,0,2.1166667,0,1"
       unit="px"
       method="auto"
       mode="F"
       radius="8"
       chamfer_steps="1"
       flexible="false"
       use_knot_distance="true"
       apply_no_radius="true"
       apply_with_radius="true"
       only_selected="false"
       hide_knots="false" />
    <inkscape:path-effect
       effect="fillet_chamfer"
       id="path-effect6506-2-9"
       is_visible="true"
       lpeversion="1"
       nodesatellites_param="F,0,0,1,0,2.1166667,0,1 @ F,0,0,1,0,2.1166667,0,1 @ F,0,0,1,0,2.1166667,0,1 @ F,0,0,1,0,2.1166667,0,1"
       unit="px"
       method="auto"
       mode="F"
       radius="8"
       chamfer_steps="1"
       flexible="false"
       use_knot_distance="true"
       apply_no_radius="true"
       apply_with_radius="true"
       only_selected="false"
       hide_knots="false" />
    <inkscape:path-effect
       effect="fillet_chamfer"
       id="path-effect6506-2-4"
       is_visible="true"
       lpeversion="1"
       nodesatellites_param="F,0,0,1,0,2.1166667,0,1 @ F,0,0,1,0,2.1166667,0,1 @ F,0,0,1,0,2.1166667,0,1 @ F,0,0,1,0,2.1166667,0,1"
       unit="px"
       method="auto"
       mode="F"
       radius="8"
       chamfer_steps="1"
       flexible="false"
       use_knot_distance="true"
       apply_no_radius="true"
       apply_with_radius="true"
       only_selected="false"
       hide_knots="false" />
    <inkscape:path-effect
       effect="fillet_chamfer"
       id="path-effect6506-2-9-8-7"
       is_visible="true"
       lpeversion="1"
       nodesatellites_param="F,0,0,1,0,2.1166667,0,1 @ F,0,0,1,0,2.1166667,0,1 @ F,0,0,1,0,2.1166667,0,1 @ F,0,0,1,0,2.1166667,0,1"
       unit="px"
       method="auto"
       mode="F"
       radius="8"
       chamfer_steps="1"
       flexible="false"
       use_knot_distance="true"
       apply_no_radius="true"
       apply_with_radius="true"
       only_selected="false"
       hide_knots="false" />
    <inkscape:path-effect
       effect="fillet_chamfer"
       id="path-effect6506-2-9-8-5"
       is_visible="true"
       lpeversion="1"
       nodesatellites_param="F,0,0,1,0,2.1166667,0,1 @ F,0,0,1,0,2.1166667,0,1 @ F,0,0,1,0,2.1166667,0,1 @ F,0,0,1,0,2.1166667,0,1"
       unit="px"
       method="auto"
       mode="F"
       radius="8"
       chamfer_steps="1"
       flexible="false"
       use_knot_distance="true"
       apply_no_radius="true"
       apply_with_radius="true"
       only_selected="false"
       hide_knots="false" />
    <inkscape:path-effect
       effect="fillet_chamfer"
       id="path-effect25259"
       is_visible="true"
       lpeversion="1"
       nodesatellites_param="F,0,0,1,0,2.1166667,0,1 @ F,0,0,1,0,2.1166667,0,1 @ F,0,0,1,0,2.1166667,0,1 @ F,0,0,1,0,2.1166667,0,1"
       unit="px"
       method="auto"
       mode="F"
       radius="8"
       chamfer_steps="1"
       flexible="false"
       use_knot_distance="true"
       apply_no_radius="true"
       apply_with_radius="true"
       only_selected="false"
       hide_knots="false" />
    <inkscape:path-effect
       effect="fillet_chamfer"
       id="path-effect25263"
       is_visible="true"
       lpeversion="1"
       nodesatellites_param="F,0,0,1,0,2.1166667,0,1 @ F,0,0,1,0,2.1166667,0,1 @ F,0,0,1,0,2.1166667,0,1 @ F,0,0,1,0,2.1166667,0,1"
       unit="px"
       method="auto"
       mode="F"
       radius="8"
       chamfer_steps="1"
       flexible="false"
       use_knot_distance="true"
       apply_no_radius="true"
       apply_with_radius="true"
       only_selected="false"
       hide_knots="false" />
    <linearGradient
       id="linearGradient7"
       inkscape:collect="always">
      <stop
         style="stop-color:#090909;stop-opacity:1;"
         offset="0"
         id="stop6" />
      <stop
         style="stop-color:#757575;stop-opacity:1;"
         offset="1"
         id="stop7" />
    </linearGradient>
    <linearGradient
       inkscape:collect="always"
       xlink:href="#linearGradient7"
       id="linearGradient1"
       gradientUnits="userSpaceOnUse"
       x1="48.616386"
       y1="293.00674"
       x2="58.870193"
       y2="300.62711"
       gradientTransform="matrix(0.40792098,0,0,0.40792098,-14.697185,-65.081864)" />
    <linearGradient
       inkscape:collect="always"
       xlink:href="#linearGradient8"
       id="linearGradient2"
       gradientUnits="userSpaceOnUse"
       gradientTransform="matrix(0.40792098,0,0,0.40792098,1.7296432,-65.032337)"
       x1="24.670973"
       y1="217.91481"
       x2="41.501144"
       y2="227.96068" />
    <linearGradient
       inkscape:collect="always"
       xlink:href="#linearGradient11"
       id="linearGradient3"
       gradientUnits="userSpaceOnUse"
       gradientTransform="matrix(0.40792098,0,0,0.40792098,1.7296423,-65.032336)"
       x1="43.821598"
       y1="261.30026"
       x2="63.193878"
       y2="275.56226" />
    <linearGradient
       inkscape:collect="always"
       xlink:href="#linearGradient10"
       id="linearGradient4"
       gradientUnits="userSpaceOnUse"
       gradientTransform="matrix(0.40792098,0,0,0.40792098,-14.697186,-65.081863)"
       x1="48.177753"
       y1="260.23444"
       x2="66.702957"
       y2="275.18628" />
    <linearGradient
       inkscape:collect="always"
       xlink:href="#linearGradient17"
       id="linearGradient5"
       gradientUnits="userSpaceOnUse"
       gradientTransform="matrix(0.40792099,0,0,0.40792096,-14.697186,-65.081861)"
       x1="71.124992"
       y1="378.00174"
       x2="98.472641"
       y2="390.35925" />
    <linearGradient
       inkscape:collect="always"
       xlink:href="#linearGradient15"
       id="linearGradient6"
       gradientUnits="userSpaceOnUse"
       gradientTransform="matrix(0.40792098,0,0,0.40792098,1.7296423,-65.032336)"
       x1="42.380367"
       y1="307.10623"
       x2="62.817905"
       y2="320.17767" />
    <linearGradient
       inkscape:collect="always"
       xlink:href="#linearGradient13"
       id="linearGradient9"
       gradientUnits="userSpaceOnUse"
       gradientTransform="matrix(0.40792098,0,0,0.40792098,-14.697186,-65.081863)"
       x1="47.363144"
       y1="306.60443"
       x2="66.890945"
       y2="320.24036" />
  </defs>
  <g
     inkscape:groupmode="layer"
     id="Design"
     inkscape:label="Design"
     style="display:inline">
    <rect
       style="display:inline;fill:#262630;fill-opacity:1;stroke:none;stroke-width:0.264584;-inkscape-stroke:none;paint-order:markers fill stroke"
       id="rect2"
       width="35.396259"
       height="132.40408"
       x="-1.6028595"
       y="-1.3136675"
       inkscape:label="bg" />
    <rect
       x="9.3661108"
       y="14.186292"
       width="11.646776"
       height="15.972925"
       rx="1.1563132"
       ry="1.1563132"
       style="font-variation-settings:normal;display:inline;vector-effect:none;fill:#111111;fill-opacity:1;stroke:url(#linearGradient2);stroke-width:0.264583;stroke-linecap:butt;stroke-linejoin:miter;stroke-miterlimit:4;stroke-dasharray:none;stroke-dashoffset:0;stroke-opacity:1;-inkscape-stroke:none;stop-color:#000000"
       id="rect44-9"
       inkscape:label="gate" />
    <rect
       x="16.70364"
       y="32.196404"
       width="11.646776"
       height="15.972925"
       rx="1.1563132"
       ry="1.1563132"
       style="font-variation-settings:normal;display:inline;vector-effect:none;fill:#111111;fill-opacity:1;stroke:url(#linearGradient3);stroke-width:0.264583;stroke-linecap:butt;stroke-linejoin:miter;stroke-miterlimit:4;stroke-dasharray:none;stroke-dashoffset:0;stroke-opacity:1;-inkscape-stroke:none;stop-color:#000000"
       id="rect44-9-3"
       inkscape:label="gate" />
    <rect
       x="2.0285826"
       y="32.146877"
       width="11.646776"
       height="15.972925"
       rx="1.156"
       ry="1.1563132"
       style="font-variation-settings:normal;display:inline;vector-effect:none;fill:#111111;fill-opacity:1;stroke:url(#linearGradient4);stroke-width:0.264583;stroke-linecap:butt;stroke-linejoin:miter;stroke-miterlimit:4;stroke-dasharray:none;stroke-dashoffset:0;stroke-opacity:1;-inkscape-stroke:none;stop-color:#000000"
       id="rect44"
       inkscape:label="voct" />
    <rect
       x="2.0481319"
       y="69.95768"
       width="26.321417"
       height="53.473427"
       rx="1.156"
       ry="1.7181734"
       style="font-variation-settings:normal;display:inline;vector-effect:none;fill:#111111;fill-opacity:1;stroke:url(#linearGradient5);stroke-width:0.264582;stroke-linecap:butt;stroke-linejoin:miter;stroke-miterlimit:4;stroke-dasharray:none;stroke-dashoffset:0;stroke-opacity:1;-inkscape-stroke:none;stop-color:#000000"
       id="rect44-6"
       inkscape:label="voct" />
    <rect
       x="16.70364"
       y="50.452644"
       width="11.646776"
       height="15.972925"
       rx="1.1563132"
       ry="1.1563132"
       style="font-variation-settings:normal;display:inline;vector-effect:none;fill:#111111;fill-opacity:1;stroke:url(#linearGradient6);stroke-width:0.264583;stroke-linecap:butt;stroke-linejoin:miter;stroke-miterlimit:4;stroke-dasharray:none;stroke-dashoffset:0;stroke-opacity:1;-inkscape-stroke:none;stop-color:#000000"
       id="rect44-9-3-2"
       inkscape:label="gate" />
    <rect
       x="2.0285821"
       y="50.403118"
       width="11.646776"
       height="15.972925"
       rx="1.156"
       ry="1.1563132"
       style="font-variation-settings:normal;display:inline;vector-effect:none;fill:#111111;fill-opacity:1;stroke:url(#linearGradient9);stroke-width:0.264583;stroke-linecap:butt;stroke-linejoin:miter;stroke-miterlimit:4;stroke-dasharray:none;stroke-dashoffset:0;stroke-opacity:1;-inkscape-stroke:none;stop-color:#000000"
       id="rect44-8"
       inkscape:label="voct" />
  </g>
  <g
     inkscape:groupmode="layer"
     id="Text"
     inkscape:label="Text"
     style="display:inline">
    <text
       xml:space="preserve"
       style="font-style:normal;font-variant:normal;font-weight:bold;font-stretch:normal;font-size:2.82222px;font-family:Nunito;-inkscape-font-specification:'Nunito Bold';text-align:start;writing-mode:lr-tb;direction:ltr;text-anchor:start;display:inline;fill:#bec510;fill-opacity:1;stroke:#ffffff;stroke-width:0;stroke-linecap:round;stroke-linejoin:round;stroke-dasharray:none;stroke-opacity:1;paint-order:markers fill stroke"
       x="11.513743"
       y="18.15992"
       id="text3"
       inkscape:label="gate"><tspan
         sodipodi:role="line"
         id="tspan3"
         style="font-style:normal;font-variant:normal;font-weight:600;font-stretch:normal;font-size:2.82222px;font-family:Nunito;-inkscape-font-specification:'Nunito Semi-Bold';fill:#ffffff;fill-opacity:1;stroke:#ffffff;stroke-width:0;stroke-dasharray:none;stroke-opacity:0"
         x="11.513743"
         y="18.15992">GATE</tspan></text>
    <text
       xml:space="preserve"
       style="font-style:normal;font-variant:normal;font-weight:bold;font-stretch:normal;font-size:2.82222px;font-family:Nunito;-inkscape-font-specification:'Nunito Bold';text-align:start;writing-mode:lr-tb;direction:ltr;text-anchor:start;display:inline;fill:#bec510;fill-opacity:1;stroke:#ffffff;stroke-width:0;stroke-linecap:round;stroke-linejoin:round;stroke-dasharray:none;stroke-opacity:1;paint-order:markers fill stroke"
       x="19.921177"
       y="36.170033"
       id="text3-1"
       inkscape:label="gate"><tspan
         sodipodi:role="line"
         id="tspan3-9"
         style="font-style:normal;font-variant:normal;font-weight:600;font-stretch:normal;font-size:2.82222px;font-family:Nunito;-inkscape-font-specification:'Nunito Semi-Bold';fill:#ffffff;fill-opacity:1;stroke:#ffffff;stroke-width:0;stroke-dasharray:none;stroke-opacity:0"
         x="19.921177"
         y="36.170033">VEL</tspan></text>
    <text
       xml:space="preserve"
       style="font-style:normal;font-variant:normal;font-weight:bold;font-stretch:normal;font-size:2.82222px;font-family:Nunito;-inkscape-font-specification:'Nunito Bold';text-align:start;writing-mode:lr-tb;direction:ltr;text-anchor:start;display:inline;fill:#bec510;fill-opacity:1;stroke:#ffffff;stroke-width:0;stroke-linecap:round;stroke-linejoin:round;stroke-dasharray:none;stroke-opacity:1;paint-order:markers fill stroke"
       x="3.0084472"
       y="36.170033"
       id="text3-9"
       inkscape:label="voct"><tspan
         sodipodi:role="line"
         id="tspan3-31"
         style="font-style:normal;font-variant:normal;font-weight:600;font-stretch:normal;font-size:2.82222px;font-family:Nunito;-inkscape-font-specification:'Nunito Semi-Bold';fill:#ffffff;fill-opacity:1;stroke:#ffffff;stroke-width:0;stroke-dasharray:none;stroke-opacity:0"
         x="3.0084472"
         y="36.170033">TOUCH</tspan></text>
    <text
       xml:space="preserve"
       style="font-style:normal;font-variant:normal;font-weight:bold;font-stretch:normal;font-size:2.82222px;font-family:Nunito;-inkscape-font-specification:'Nunito Bold';text-align:start;writing-mode:lr-tb;direction:ltr;text-anchor:start;display:inline;fill:#bec510;fill-opacity:1;stroke:#ffffff;stroke-width:0;stroke-linecap:round;stroke-linejoin:round;stroke-dasharray:none;stroke-opacity:1;paint-order:markers fill stroke"
       x="10.920946"
       y="73.980835"
       id="text3-9-3"
       inkscape:label="voct"><tspan
         sodipodi:role="line"
         id="tspan3-31-7"
         style="font-style:normal;font-variant:normal;font-weight:600;font-stretch:normal;font-size:2.82222px;font-family:Nunito;-inkscape-font-specification:'Nunito Semi-Bold';fill:#ffffff;fill-opacity:1;stroke:#ffffff;stroke-width:0;stroke-dasharray:none;stroke-opacity:0"
         x="10.920946"
         y="73.980835">KNOBS</tspan></text>
    <text
       xml:space="preserve"
       style="font-style:normal;font-variant:normal;font-weight:bold;font-stretch:normal;font-size:2.82222px;font-family:Nunito;-inkscape-font-specification:'Nunito Bold';text-align:start;writing-mode:lr-tb;direction:ltr;text-anchor:start;display:inline;fill:#bec510;fill-opacity:1;stroke:#ffffff;stroke-width:0;stroke-linecap:round;stroke-linejoin:round;stroke-dasharray:none;stroke-opacity:1;paint-order:markers fill stroke"
       x="19.120609"
       y="54.426273"
       id="text3-1-6"
       inkscape:label="gate"><tspan
         sodipodi:role="line"
         id="tspan3-9-0"
         style="font-style:normal;font-variant:normal;font-weight:600;font-stretch:normal;font-size:2.82222px;font-family:Nunito;-inkscape-font-specification:'Nunito Semi-Bold';fill:#ffffff;fill-opacity:1;stroke:#ffffff;stroke-width:0;stroke-dasharray:none;stroke-opacity:0"
         x="19.120609"
         y="54.426273">MOD</tspan></text>
    <text
       xml:space="preserve"
       style="font-style:normal;font-variant:normal;font-weight:bold;font-stretch:normal;font-size:2.82222px;font-family:Nunito;-inkscape-font-specification:'Nunito Bold';text-align:start;writing-mode:lr-tb;direction:ltr;text-anchor:start;display:inline;fill:#bec510;fill-opacity:1;stroke:#ffffff;stroke-width:0;stroke-linecap:round;stroke-linejoin:round;stroke-dasharray:none;stroke-opacity:1;paint-order:markers fill stroke"
       x="3.9149733"
       y="54.426273"
       id="text3-9-2"
       inkscape:label="voct"><tspan
         sodipodi:role="line"
         id="tspan3-31-4"
         style="font-style:normal;font-variant:normal;font-weight:600;font-stretch:normal;font-size:2.82222px;font-family:Nunito;-inkscape-font-specification:'Nunito Semi-Bold';fill:#ffffff;fill-opacity:1;stroke:#ffffff;stroke-width:0;stroke-dasharray:none;stroke-opacity:0"
         x="3.9149733"
         y="54.426273">BEND</tspan></text>
    <text
       xml:space="preserve"
       style="font-weight:600;font-size:4.50779px;font-family:Nunito;-inkscape-font-specification:'Nunito Semi-Bold';font-variation-settings:normal;text-align:start;writing-mode:lr-tb;direction:ltr;text-anchor:start;display:inline;fill:#ffffff;fill-opacity:1;stroke:#ffffff;stroke-width:0;stroke-linecap:round;stroke-linejoin:round;stroke-miterlimit:4;stroke-dasharray:none;stroke-dashoffset:0;stroke-opacity:1;paint-order:markers fill stroke"
       x="11.365554"
       y="6.922729"
       id="text42"
       inkscape:label="title"><tspan
         sodipodi:role="line"
         id="tspan42"
         style="font-size:4.50779px;fill:#ffffff;stroke:#ffffff;stroke-width:0;stroke-linecap:round;stroke-linejoin:round;stroke-dasharray:none;stroke-opacity:1"
         x="11.365554"
         y="6.922729">pad</tspan></text>
  </g>
  <g
     id="components"
     inkscape:label="Ports"
     inkscape:highlight-color="#c61900"
     style="display:inline">
    <ellipse
       style="display:inline;fill:#0000ff"
       id="Knob8"
       cx="22.470417"
       cy="116.8849"
       inkscape:label="Knob8"
       rx="1.84"
       ry="1.8404053" />
    <ellipse
       style="display:inline;fill:#0000ff"
       id="Knob7"
       cx="7.8910694"
       cy="116.8849"
       inkscape:label="Knob7"
       rx="1.84"
       ry="1.8404053" />
    <ellipse
       style="display:inline;fill:#0000ff"
       id="Knob6"
       cx="22.470417"
       cy="104.66558"
       inkscape:label="Knob6"
       rx="1.84"
       ry="1.8404053" />
    <ellipse
       style="display:inline;fill:#0000ff"
       id="Knob5"
       cx="7.8910694"
       cy="104.66558"
       inkscape:label="Knob5"
       rx="1.84"
       ry="1.8404053" />
    <ellipse
       style="display:inline;fill:#0000ff"
       id="Knob4"
       cx="22.470417"
       cy="92.446266"
       inkscape:label="Knob4"
       rx="1.84"
       ry="1.8404053" />
    <ellipse
       style="display:inline;fill:#0000ff"
       id="Knob3"
       cx="7.8910694"
       cy="92.446266"
       inkscape:label="Knob3"
       rx="1.84"
       ry="1.8404053" />
    <ellipse
       style="display:inline;fill:#0000ff"
       id="Knob2"
       cx="22.470417"
       cy="80.226944"
       inkscape:label="Knob2"
       rx="1.84"
       ry="1.8404053" />
    <ellipse
       style="display:inline;fill:#0000ff"
       id="Knob1"
       cx="7.8910694"
       cy="80.226944"
       inkscape:label="Knob1"
       rx="1.84"
       ry="1.8404053" />
    <ellipse
       style="display:inline;fill:#0000ff;stroke-width:0;stroke-dasharray:none"
       id="Light"
       cx="6.0170832"
       cy="5.7394342"
       inkscape:label="Light"
       rx="0.99000001"
       ry="0.99021822" />
    <ellipse
       style="display:inline;fill:#0000ff;stroke-width:0;stroke-dasharray:none"
       id="Index"
       cx="24.802485"
       cy="5.7394342"
       inkscape:label="Index"
       rx="0.99000001"
       ry="0.99021822" />
    <ellipse
       style="display:inline;fill:#0000ff"
       id="Mod"
       cx="22.470417"
       cy="60.721909"
       inkscape:label="Mod"
       rx="1.84"
       ry="1.8404053" />
    <ellipse
       style="display:inline;fill:#0000ff"
       id="Bend"
       cx="7.8715196"
       cy="60.672386"
       inkscape:label="Bend"
       rx="1.84"
       ry="1.8404053" />
    <ellipse
       style="display:inline;fill:#0000ff"
       id="Vel"
       cx="22.470417"
       cy="42.465668"
       inkscape:label="Vel"
       rx="1.84"
       ry="1.8404053" />
    <ellipse
       style="display:inline;fill:#0000ff"
       id="Touch"
       cx="7.87152"
       cy="42.416142"
       inkscape:label="Touch"
       rx="1.84"
       ry="1.8404053" />
    <ellipse
       style="display:inline;fill:#0000ff"
       id="Gate"
       cx="15.24"
       cy="24.594574"
       inkscape:label="Gate"
       rx="1.84"
       ry="1.8404053" />
  </g>
  <g
     inkscape:groupmode="layer"
     id="DesignFinal"
     inkscape:label="DesignFinal">
    <rect
       style="fill:#262630;stroke-width:0.264584;-inkscape-stroke:none;paint-order:markers fill stroke"
       id="rect1"
       width="35.396259"
       height="132.40408"
       x="-1.6028595"
       y="-1.3136675"
       inkscape:label="bg" />
    <g
       id="rect3"
       inkscape:label="gate">
      <path
         style="fill:#111111"
         d="m 10.522424,14.186292 h 9.33415 c 0.640597,0 1.156313,0.515715 1.156313,1.156313 v 13.660299 c 0,0.640597 -0.515716,1.156313 -1.156313,1.156313 h -9.33415 c -0.6405975,0 -1.1563132,-0.515716 -1.1563132,-1.156313 V 15.342605 c 0,-0.640598 0.5157157,-1.156313 1.1563132,-1.156313 z"
         id="path9" />
      <path
         style="fill:url(#linearGradient2)"
         d="m 10.521484,14.054688 c -0.7115983,0 -1.287109,0.57551 -1.287109,1.287109 v 13.660156 c 0,0.711599 0.5755107,1.289063 1.287109,1.289063 h 9.335938 c 0.711599,0 1.287109,-0.577464 1.287109,-1.289063 V 15.341797 c 0,-0.711599 -0.57551,-1.28711 -1.287109,-1.287109 z m 0,0.263671 h 9.335938 c 0.569596,0 1.023437,0.453842 1.023437,1.023438 v 13.660156 c 0,0.569596 -0.453841,1.025391 -1.023437,1.025391 h -9.335938 c -0.5695959,0 -1.0234371,-0.455795 -1.0234371,-1.025391 V 15.341797 c 0,-0.569596 0.4538412,-1.023438 1.0234371,-1.023438 z"
         id="path10" />
    </g>
    <g
       id="rect4"
       inkscape:label="gate">
      <path
         style="fill:#111111"
         d="m 17.859953,32.196404 h 9.33415 c 0.640598,0 1.156313,0.515715 1.156313,1.156313 v 13.660299 c 0,0.640597 -0.515715,1.156313 -1.156313,1.156313 h -9.33415 c -0.640597,0 -1.156313,-0.515716 -1.156313,-1.156313 V 33.352717 c 0,-0.640598 0.515716,-1.156313 1.156313,-1.156313 z"
         id="path11" />
      <path
         style="fill:url(#linearGradient3)"
         d="m 17.859375,32.064453 c -0.711599,0 -1.287109,0.577464 -1.287109,1.289063 v 13.660156 c 0,0.711599 0.57551,1.287109 1.287109,1.287109 h 9.333984 c 0.711599,0 1.289063,-0.57551 1.289063,-1.287109 V 33.353516 c 0,-0.711599 -0.577464,-1.289063 -1.289063,-1.289063 z m 0,0.263672 h 9.333984 c 0.569597,0 1.025391,0.455794 1.025391,1.025391 v 13.660156 c 0,0.569596 -0.455794,1.023437 -1.025391,1.023437 h -9.333984 c -0.569596,0 -1.023438,-0.453841 -1.023438,-1.023437 V 33.353516 c 0,-0.569597 0.453842,-1.025391 1.023438,-1.025391 z"
         id="path12" />
    </g>
    <g
       id="rect5"
       inkscape:label="voct">
      <path
         style="fill:#111111"
         d="m 3.1845826,32.146877 h 9.3347764 c 0.640424,0 1.156,0.515716 1.156,1.156313 v 13.660299 c 0,0.640598 -0.515576,1.156313 -1.156,1.156313 H 3.1845826 c -0.640424,0 -1.156,-0.515715 -1.156,-1.156313 V 33.30319 c 0,-0.640597 0.515576,-1.156313 1.156,-1.156313 z"
         id="path13" />
      <path
         style="fill:url(#linearGradient4)"
         d="m 3.1855469,32.013672 c -0.7114445,0 -1.2890625,0.577483 -1.2890625,1.289062 v 13.660157 c 0,0.711579 0.577618,1.289062 1.2890625,1.289062 h 9.3339841 c 0.711445,0 1.289063,-0.577483 1.289063,-1.289062 V 33.302734 c 0,-0.711579 -0.577618,-1.289062 -1.289063,-1.289062 z m 0,0.265625 h 9.3339841 c 0.569404,0 1.023438,0.453822 1.023438,1.023437 v 13.660157 c 0,0.569615 -0.454034,1.02539 -1.023438,1.02539 H 3.1855469 c -0.5694036,0 -1.0253906,-0.455775 -1.0253906,-1.02539 V 33.302734 c 0,-0.569615 0.455987,-1.023437 1.0253906,-1.023437 z"
         id="path14" />
    </g>
    <g
       id="rect6"
       inkscape:label="voct">
      <path
         style="fill:#111111"
         d="m 3.204132,69.95768 h 24.009417 c 0.640424,0 1.156,0.766305 1.156,1.718173 v 50.037077 c 0,0.95187 -0.515576,1.71818 -1.156,1.71818 H 3.204132 c -0.640424,0 -1.1560001,-0.76631 -1.1560001,-1.71818 V 71.675853 c 0,-0.951868 0.5155761,-1.718173 1.1560001,-1.718173 z"
         id="path15" />
      <path
         style="fill:url(#linearGradient5)"
         d="m 3.2050781,69.826172 c -0.3729767,0 -0.7032685,0.224018 -0.9296875,0.560547 -0.2264189,0.336528 -0.359375,0.789243 -0.359375,1.289062 v 50.037109 c 0,0.49982 0.1329561,0.95253 0.359375,1.28906 0.226419,0.33653 0.5567108,0.56055 0.9296875,0.56055 H 27.212891 c 0.372976,0 0.701315,-0.22402 0.927734,-0.56055 0.226419,-0.33653 0.361328,-0.78924 0.361328,-1.28906 V 71.675781 c 0,-0.499819 -0.134909,-0.952534 -0.361328,-1.289062 -0.226419,-0.336529 -0.554758,-0.560547 -0.927734,-0.560547 z m 0,0.263672 H 27.212891 c 0.267447,0 0.517509,0.158768 0.708984,0.443359 0.191475,0.284591 0.314453,0.690529 0.314453,1.142578 v 50.037109 c 0,0.45205 -0.122978,0.85799 -0.314453,1.14258 -0.191475,0.28459 -0.441537,0.44336 -0.708984,0.44336 H 3.2050781 c -0.2674473,0 -0.5175093,-0.15877 -0.7089843,-0.44336 -0.1914751,-0.28459 -0.3164063,-0.69053 -0.3164063,-1.14258 V 71.675781 c 0,-0.452049 0.1249312,-0.857987 0.3164063,-1.142578 0.191475,-0.284591 0.441537,-0.443359 0.7089843,-0.443359 z"
         id="path16" />
    </g>
    <g
       id="rect7"
       inkscape:label="gate">
      <path
         style="fill:#111111"
         d="m 17.859953,50.452644 h 9.33415 c 0.640598,0 1.156313,0.515716 1.156313,1.156314 v 13.660298 c 0,0.640598 -0.515715,1.156314 -1.156313,1.156314 h -9.33415 c -0.640597,0 -1.156313,-0.515716 -1.156313,-1.156314 V 51.608958 c 0,-0.640598 0.515716,-1.156314 1.156313,-1.156314 z"
         id="path17" />
      <path
         style="fill:url(#linearGradient6)"
         d="m 17.859375,50.320312 c -0.711599,0 -1.287109,0.577464 -1.287109,1.289063 v 13.660156 c 0,0.711599 0.57551,1.289063 1.287109,1.289063 h 9.333984 c 0.711599,0 1.289063,-0.577464 1.289063,-1.289063 V 51.609375 c 0,-0.711599 -0.577464,-1.289063 -1.289063,-1.289063 z m 0,0.263672 h 9.333984 c 0.569597,0 1.025391,0.455795 1.025391,1.025391 v 13.660156 c 0,0.569597 -0.455794,1.023438 -1.025391,1.023438 h -9.333984 c -0.569596,0 -1.023438,-0.453841 -1.023438,-1.023438 V 51.609375 c 0,-0.569596 0.453842,-1.025391 1.023438,-1.025391 z"
         id="path18" />
    </g>
    <g
       id="rect8"
       inkscape:label="voct">
      <path
         style="fill:#111111"
         d="m 3.1845821,50.403118 h 9.3347759 c 0.640424,0 1.156,0.515716 1.156,1.156313 V 65.21973 c 0,0.640598 -0.515576,1.156313 -1.156,1.156313 H 3.1845821 c -0.640424,0 -1.156,-0.515715 -1.156,-1.156313 V 51.559431 c 0,-0.640597 0.515576,-1.156313 1.156,-1.156313 z"
         id="path19" />
      <path
         style="fill:url(#linearGradient9)"
         d="m 3.1855469,50.271484 c -0.7114445,0 -1.2890625,0.57553 -1.2890625,1.28711 v 13.662109 c 0,0.71158 0.577618,1.287109 1.2890625,1.287109 h 9.3339841 c 0.711445,0 1.289063,-0.575529 1.289063,-1.287109 V 51.558594 c 0,-0.71158 -0.577618,-1.28711 -1.289063,-1.28711 z m 0,0.263672 h 9.3339841 c 0.569404,0 1.023438,0.453822 1.023438,1.023438 v 13.662109 c 0,0.569616 -0.454034,1.023438 -1.023438,1.023438 H 3.1855469 c -0.5694036,0 -1.0253906,-0.453822 -1.0253906,-1.023438 V 51.558594 c 0,-0.569616 0.455987,-1.023438 1.0253906,-1.023438 z"
         id="path20" />
    </g>
  </g>
  <g
     inkscape:groupmode="layer"
     id="TextFinal"
     inkscape:label="TextFinal"
     style="display:inline">
    <path
       style="font-weight:600;font-size:2.82222px;font-family:Nunito;-inkscape-font-specification:'Nunito Semi-Bold';fill:#ffffff;stroke:#ffffff;stroke-width:0;stroke-linecap:round;stroke-linejoin:round;stroke-opacity:0;paint-order:markers fill stroke"
       d="m 12.676498,18.18532 q -0.324555,0 -0.547511,-0.121356 -0.222955,-0.124177 -0.338666,-0.352777 -0.112889,-0.2286 -0.112889,-0.544689 0,-0.237066 0.06491,-0.423333 0.06773,-0.189088 0.191911,-0.321733 0.127,-0.135466 0.307622,-0.206022 0.183444,-0.07055 0.414867,-0.07055 0.169333,0 0.333022,0.04516 0.163688,0.04233 0.299155,0.141111 0.03951,0.02822 0.0508,0.06491 0.01129,0.03669 0,0.0762 -0.0085,0.03669 -0.03669,0.06491 -0.0254,0.02822 -0.06491,0.03387 -0.03669,0.0056 -0.08184,-0.02258 -0.110066,-0.0762 -0.231422,-0.110067 -0.121355,-0.03669 -0.26811,-0.03669 -0.220134,0 -0.372534,0.09031 -0.149577,0.09031 -0.225777,0.262466 -0.0762,0.169333 -0.0762,0.412044 0,0.375356 0.1778,0.570089 0.1778,0.194733 0.527755,0.194733 0.127,0 0.248355,-0.02258 0.124178,-0.0254 0.237067,-0.07055 l -0.05927,0.146755 v -0.657577 h -0.364066 q -0.05645,0 -0.09031,-0.02822 -0.03105,-0.03105 -0.03105,-0.08467 0,-0.05362 0.03105,-0.07902 0.03387,-0.02822 0.09031,-0.02822 h 0.488244 q 0.05927,0 0.09031,0.03104 0.03104,0.03104 0.03104,0.09031 v 0.7112 q 0,0.0508 -0.01975,0.08749 -0.01693,0.03387 -0.05927,0.0508 -0.121355,0.04798 -0.285044,0.07902 -0.163689,0.02822 -0.318911,0.02822 z m 1.120424,-0.0056 q -0.05644,0 -0.09031,-0.0254 -0.03387,-0.0254 -0.03951,-0.06773 -0.0056,-0.04233 0.01693,-0.09596 l 0.764822,-1.71591 q 0.02822,-0.06773 0.07056,-0.09596 0.04516,-0.02822 0.09878,-0.02822 0.0508,0 0.09313,0.02822 0.04516,0.02822 0.07338,0.09596 l 0.764822,1.71591 q 0.0254,0.05362 0.01975,0.09878 -0.0056,0.04233 -0.03669,0.06773 -0.03104,0.02258 -0.08749,0.02258 -0.06209,0 -0.09878,-0.03104 -0.03669,-0.03105 -0.06491,-0.09596 l -0.197556,-0.457199 0.132645,0.07902 h -1.202266 l 0.129822,-0.07902 -0.194733,0.457199 q -0.02822,0.06773 -0.06209,0.09878 -0.03387,0.02822 -0.09031,0.02822 z m 0.815622,-1.684865 -0.426156,1.010355 -0.07056,-0.06773 h 0.996244 l -0.06491,0.06773 -0.428978,-1.010355 z m 1.687312,1.684865 q -0.07056,0 -0.110067,-0.03951 -0.03669,-0.03951 -0.03669,-0.110066 v -1.61431 h -0.59831 q -0.05927,0 -0.09313,-0.03104 -0.03387,-0.03387 -0.03387,-0.09313 0,-0.05927 0.03387,-0.09031 0.03387,-0.03104 0.09313,-0.03104 h 1.48731 q 0.06209,0 0.09596,0.03104 0.03387,0.03104 0.03387,0.09031 0,0.05927 -0.03387,0.09313 -0.03387,0.03104 -0.09596,0.03104 h -0.598311 v 1.61431 q 0,0.07056 -0.03669,0.110066 -0.03387,0.03951 -0.107244,0.03951 z m 1.250243,-0.01975 q -0.0762,0 -0.118533,-0.03951 -0.03951,-0.04233 -0.03951,-0.118534 v -1.673576 q 0,-0.0762 0.03951,-0.115711 0.04233,-0.04233 0.118533,-0.04233 h 1.030111 q 0.05927,0 0.09031,0.03104 0.03104,0.02822 0.03104,0.08467 0,0.05927 -0.03104,0.09031 -0.03105,0.03104 -0.09031,0.03104 h -0.905933 v 0.623711 h 0.843844 q 0.06209,0 0.09031,0.03104 0.03104,0.03104 0.03104,0.08749 0,0.05927 -0.03104,0.09031 -0.02822,0.02822 -0.09031,0.02822 h -0.843844 v 0.654755 h 0.905933 q 0.05927,0 0.09031,0.03104 0.03104,0.03104 0.03104,0.08749 0,0.05927 -0.03104,0.09031 -0.03105,0.02822 -0.09031,0.02822 z"
       id="text1"
       inkscape:label="gate"
       aria-label="GATE" />
    <path
       style="font-weight:600;font-size:2.82222px;font-family:Nunito;-inkscape-font-specification:'Nunito Semi-Bold';fill:#ffffff;stroke:#ffffff;stroke-width:0;stroke-linecap:round;stroke-linejoin:round;stroke-opacity:0;paint-order:markers fill stroke"
       d="m 20.908954,36.189788 q -0.06209,0 -0.104422,-0.02822 -0.03951,-0.03104 -0.06491,-0.09031 l -0.759177,-1.718732 q -0.02258,-0.05927 -0.01129,-0.1016 0.01129,-0.04233 0.04515,-0.06491 0.03669,-0.0254 0.08749,-0.0254 0.06491,0 0.09878,0.02822 0.03387,0.02822 0.05644,0.08467 l 0.7112,1.648176 h -0.104423 l 0.705555,-1.650999 q 0.0254,-0.05362 0.05927,-0.08184 0.03669,-0.02822 0.09878,-0.02822 0.0508,0 0.08184,0.0254 0.03387,0.02258 0.04233,0.06491 0.0085,0.04233 -0.01693,0.1016 l -0.756355,1.718732 q -0.0254,0.05927 -0.06491,0.09031 -0.03951,0.02822 -0.104422,0.02822 z m 1.377246,-0.01976 q -0.0762,0 -0.118534,-0.03951 -0.03951,-0.04233 -0.03951,-0.118533 v -1.673576 q 0,-0.0762 0.03951,-0.115711 0.04233,-0.04233 0.118534,-0.04233 h 1.03011 q 0.05927,0 0.09031,0.03105 0.03104,0.02822 0.03104,0.08467 0,0.05927 -0.03104,0.09031 -0.03105,0.03104 -0.09031,0.03104 h -0.905933 v 0.62371 h 0.843844 q 0.06209,0 0.09031,0.03104 0.03104,0.03104 0.03104,0.08749 0,0.05927 -0.03104,0.09031 -0.02822,0.02822 -0.09031,0.02822 h -0.843844 v 0.654755 h 0.905933 q 0.05927,0 0.09031,0.03104 0.03104,0.03104 0.03104,0.08749 0,0.05927 -0.03104,0.09031 -0.03105,0.02822 -0.09031,0.02822 z m 1.653823,0 q -0.07056,0 -0.110067,-0.03951 -0.03951,-0.03951 -0.03951,-0.110066 v -1.701799 q 0,-0.07338 0.03669,-0.110066 0.03951,-0.03951 0.110066,-0.03951 0.07056,0 0.107245,0.03951 0.03951,0.03669 0.03951,0.110066 v 1.600199 h 0.874888 q 0.06209,0 0.09596,0.03387 0.03387,0.03104 0.03387,0.09031 0,0.05927 -0.03387,0.09313 -0.03387,0.03387 -0.09596,0.03387 z"
       id="text2"
       inkscape:label="gate"
       aria-label="VEL" />
    <path
       style="font-weight:600;font-size:2.82222px;font-family:Nunito;-inkscape-font-specification:'Nunito Semi-Bold';fill:#ffffff;stroke:#ffffff;stroke-width:0;stroke-linecap:round;stroke-linejoin:round;stroke-opacity:0;paint-order:markers fill stroke"
       d="m 3.8720465,36.189788 q -0.070556,0 -0.1100666,-0.03951 -0.036689,-0.03951 -0.036689,-0.110067 V 34.4259 H 3.1269804 q -0.059267,0 -0.093133,-0.03104 -0.033867,-0.03387 -0.033867,-0.09313 0,-0.05927 0.033867,-0.09031 0.033867,-0.03105 0.093133,-0.03105 h 1.48731 q 0.062089,0 0.095956,0.03105 0.033867,0.03104 0.033867,0.09031 0,0.05927 -0.033867,0.09313 -0.033867,0.03104 -0.095956,0.03104 H 4.0159797 v 1.61431 q 0,0.07056 -0.036689,0.110067 -0.033867,0.03951 -0.1072444,0.03951 z m 1.8328088,0.0056 q -0.282222,0 -0.4938885,-0.124177 -0.2088443,-0.127 -0.3245553,-0.3556 -0.1128888,-0.231422 -0.1128888,-0.541866 0,-0.234244 0.064911,-0.420511 0.064911,-0.189089 0.1862665,-0.321733 0.1213555,-0.135467 0.2935109,-0.206022 0.1721554,-0.07056 0.3866441,-0.07056 0.2850443,0 0.4938886,0.124178 0.2088443,0.124178 0.3217331,0.352778 0.115711,0.228599 0.115711,0.539044 0,0.234244 -0.064911,0.423333 -0.064911,0.189088 -0.1890887,0.324555 -0.1213555,0.135466 -0.2935109,0.206022 -0.1721554,0.07055 -0.383822,0.07055 z m 0,-0.253999 q 0.1975555,0 0.3358442,-0.09031 0.141111,-0.09031 0.2144888,-0.262467 0.0762,-0.172155 0.0762,-0.414866 0,-0.364067 -0.1636888,-0.564444 -0.1636887,-0.200378 -0.4628441,-0.200378 -0.1975554,0 -0.3386664,0.09031 -0.1382887,0.08749 -0.2144887,0.259644 -0.073378,0.172156 -0.073378,0.414867 0,0.361244 0.1636888,0.564444 0.1665109,0.2032 0.462844,0.2032 z m 2.1279528,0.253999 q -0.2003776,0 -0.3527775,-0.0508 -0.1523999,-0.05362 -0.256822,-0.158045 -0.1016,-0.104422 -0.1552221,-0.259644 -0.053622,-0.155222 -0.053622,-0.358422 v -1.061155 q 0,-0.07338 0.036689,-0.110066 0.039511,-0.03669 0.1100666,-0.03669 0.070555,0 0.1072444,0.03669 0.039511,0.03669 0.039511,0.110066 v 1.055511 q 0,0.290688 0.1326443,0.434621 0.1354666,0.143934 0.3922886,0.143934 0.2596443,0 0.3922886,-0.143934 0.1326443,-0.143933 0.1326443,-0.434621 v -1.055511 q 0,-0.07338 0.036689,-0.110066 0.039511,-0.03669 0.1072444,-0.03669 0.070556,0 0.1072443,0.03669 0.036689,0.03669 0.036689,0.110066 v 1.061155 q 0,0.270933 -0.093133,0.4572 -0.090311,0.183444 -0.2709331,0.276577 -0.1806221,0.09313 -0.448733,0.09313 z m 2.1561758,0 q -0.3019776,0 -0.5164663,-0.124177 -0.2144887,-0.124178 -0.3301997,-0.352778 -0.1128888,-0.231422 -0.1128888,-0.544688 0,-0.234244 0.064911,-0.420511 0.064911,-0.189089 0.1862666,-0.321733 0.1241776,-0.135467 0.3019775,-0.206022 0.1806221,-0.07056 0.4063997,-0.07056 0.1665111,0 0.3189111,0.04516 0.155222,0.04516 0.268111,0.129822 0.04798,0.03104 0.06209,0.0762 0.01693,0.04233 0.0056,0.08184 -0.0085,0.03951 -0.03669,0.06773 -0.02822,0.0254 -0.07338,0.02822 -0.04233,0.0028 -0.09313,-0.03104 -0.09313,-0.07055 -0.206022,-0.104422 -0.112889,-0.03387 -0.2370664,-0.03387 -0.2144888,0 -0.3612442,0.09031 -0.1467555,0.08749 -0.2229554,0.256822 -0.0762,0.169333 -0.0762,0.412044 0,0.242711 0.0762,0.414866 0.0762,0.169333 0.2229554,0.259644 0.1467554,0.08749 0.3612442,0.08749 0.1241774,0 0.2370664,-0.03387 0.115711,-0.03669 0.217311,-0.107245 0.0508,-0.03104 0.09031,-0.02822 0.04233,0.0028 0.07056,0.02822 0.02822,0.0254 0.03669,0.06491 0.01129,0.03669 -0.0028,0.07902 -0.01129,0.03951 -0.05362,0.06773 -0.115711,0.09313 -0.273755,0.141111 -0.158045,0.04798 -0.3302001,0.04798 z m 1.1627561,-0.0056 q -0.07056,0 -0.110067,-0.03951 -0.03669,-0.03951 -0.03669,-0.110067 v -1.730021 q 0,-0.07338 0.03669,-0.110066 0.03951,-0.03951 0.110067,-0.03951 0.07056,0 0.107244,0.03951 0.03951,0.03669 0.03951,0.110066 v 0.728133 h 1.114777 v -0.728133 q 0,-0.07338 0.03669,-0.110066 0.03951,-0.03951 0.110067,-0.03951 0.07055,0 0.107244,0.03951 0.03669,0.03669 0.03669,0.110066 v 1.730021 q 0,0.07056 -0.03669,0.110067 -0.03669,0.03951 -0.107244,0.03951 -0.07056,0 -0.110067,-0.03951 -0.03669,-0.03951 -0.03669,-0.110067 v -0.756355 h -1.114777 v 0.756355 q 0,0.07056 -0.03669,0.110067 -0.03669,0.03951 -0.110067,0.03951 z"
       id="text4"
       inkscape:label="voct"
       aria-label="TOUCH" />
    <path
       style="font-weight:600;font-size:2.82222px;font-family:Nunito;-inkscape-font-specification:'Nunito Semi-Bold';fill:#ffffff;stroke:#ffffff;stroke-width:0;stroke-linecap:round;stroke-linejoin:round;stroke-opacity:0;paint-order:markers fill stroke"
       d="m 11.299124,74.000591 q -0.07056,0 -0.110067,-0.03951 -0.03669,-0.03951 -0.03669,-0.110066 V 72.11817 q 0,-0.07338 0.03669,-0.110067 0.03951,-0.03669 0.110067,-0.03669 0.07055,0 0.107244,0.03669 0.03951,0.03669 0.03951,0.110067 v 0.767644 h 0.0056 l 0.866422,-0.8382 q 0.04233,-0.03951 0.07902,-0.05644 0.03951,-0.01976 0.08749,-0.01976 0.06491,0 0.09313,0.03387 0.03105,0.03104 0.0254,0.0762 -0.0056,0.04516 -0.04798,0.08749 l -0.900289,0.857955 0.0056,-0.143934 0.936977,0.903111 q 0.0508,0.04798 0.05362,0.09878 0.0028,0.0508 -0.03104,0.08467 -0.03387,0.03105 -0.09596,0.03105 -0.05644,0 -0.09031,-0.02258 -0.03387,-0.02258 -0.07902,-0.06491 l -0.903111,-0.860777 h -0.0056 v 0.798688 q 0,0.07055 -0.03669,0.110066 -0.03669,0.03951 -0.110066,0.03951 z m 1.806219,0 q -0.06491,0 -0.101599,-0.03669 -0.03669,-0.03669 -0.03669,-0.104423 V 72.11817 q 0,-0.07056 0.03387,-0.107245 0.03669,-0.03951 0.09596,-0.03951 0.0508,0 0.0762,0.01976 0.02822,0.01693 0.06491,0.06491 l 1.162755,1.532465 h -0.07056 v -1.478843 q 0,-0.06491 0.03387,-0.1016 0.03669,-0.03669 0.1016,-0.03669 0.06773,0 0.101599,0.03669 0.03387,0.03669 0.03387,0.1016 v 1.752599 q 0,0.06491 -0.03387,0.1016 -0.03104,0.03669 -0.08467,0.03669 -0.0508,0 -0.08467,-0.01976 -0.03104,-0.01976 -0.06773,-0.06773 l -1.15711,-1.529644 h 0.06491 v 1.476021 q 0,0.06773 -0.03387,0.104423 -0.03387,0.03669 -0.09878,0.03669 z m 2.822221,0.0056 q -0.282222,0 -0.493889,-0.124178 -0.208844,-0.127 -0.324555,-0.355599 -0.112889,-0.231423 -0.112889,-0.541867 0,-0.234244 0.06491,-0.420511 0.06491,-0.189088 0.186267,-0.321733 0.121355,-0.135466 0.29351,-0.206022 0.172156,-0.07055 0.386645,-0.07055 0.285044,0 0.493888,0.124178 0.208844,0.124177 0.321733,0.352777 0.115711,0.2286 0.115711,0.539044 0,0.234244 -0.06491,0.423333 -0.06491,0.189089 -0.189089,0.324555 -0.121355,0.135467 -0.29351,0.206022 -0.172156,0.07056 -0.383822,0.07056 z m 0,-0.254 q 0.197555,0 0.335844,-0.09031 0.141111,-0.09031 0.214488,-0.262466 0.0762,-0.172156 0.0762,-0.414867 0,-0.364066 -0.163688,-0.564444 -0.163689,-0.200377 -0.462844,-0.200377 -0.197556,0 -0.338667,0.09031 -0.138289,0.08749 -0.214489,0.259644 -0.07338,0.172155 -0.07338,0.414866 0,0.361244 0.163688,0.564444 0.166511,0.2032 0.462845,0.2032 z m 1.481664,0.2286 q -0.0762,0 -0.118533,-0.03951 -0.03951,-0.04233 -0.03951,-0.118533 v -1.673577 q 0,-0.0762 0.03951,-0.115711 0.04233,-0.04233 0.118533,-0.04233 h 0.671688 q 0.206022,0 0.349956,0.06209 0.146755,0.06209 0.222955,0.1778 0.07902,0.115711 0.07902,0.279399 0,0.180622 -0.107244,0.3048 -0.107245,0.124178 -0.290689,0.166511 v -0.04233 q 0.208844,0.02822 0.327378,0.158044 0.118533,0.127 0.118533,0.333022 0,0.265289 -0.174978,0.409222 -0.174977,0.141111 -0.491066,0.141111 z m 0.124178,-0.225778 h 0.54751 q 0.211667,0 0.313267,-0.08184 0.1016,-0.08467 0.1016,-0.254 0,-0.169333 -0.1016,-0.251177 -0.1016,-0.08185 -0.313267,-0.08185 h -0.54751 z m 0,-0.894643 h 0.502355 q 0.2032,0 0.307622,-0.08185 0.104422,-0.08184 0.104422,-0.239889 0,-0.158044 -0.104422,-0.239888 -0.104422,-0.08185 -0.307622,-0.08185 h -0.502355 z m 2.305751,1.145821 q -0.129822,0 -0.254,-0.01976 -0.124177,-0.01976 -0.234244,-0.05927 -0.110067,-0.04233 -0.197555,-0.1016 -0.04233,-0.03105 -0.05927,-0.07056 -0.01411,-0.03951 -0.0085,-0.0762 0.0085,-0.03951 0.03387,-0.06773 0.0254,-0.02822 0.06209,-0.03387 0.03669,-0.0085 0.08184,0.02258 0.127,0.08185 0.268111,0.121356 0.141111,0.03669 0.307622,0.03669 0.239889,0 0.352778,-0.08467 0.115711,-0.08749 0.115711,-0.225778 0,-0.112888 -0.08184,-0.1778 -0.08184,-0.06773 -0.273755,-0.107244 l -0.301978,-0.06209 q -0.268111,-0.05644 -0.400755,-0.186266 -0.129822,-0.129822 -0.129822,-0.349956 0,-0.132644 0.05362,-0.24271 0.05645,-0.110067 0.155222,-0.189089 0.09878,-0.08185 0.237067,-0.124178 0.138289,-0.04233 0.301977,-0.04233 0.174978,0 0.327378,0.04515 0.155222,0.04516 0.276577,0.138289 0.03669,0.0254 0.04798,0.06491 0.01411,0.03669 0.0056,0.07338 -0.0056,0.03669 -0.03104,0.06209 -0.0254,0.0254 -0.06491,0.03104 -0.03951,0.0028 -0.08749,-0.02822 -0.110066,-0.07338 -0.225777,-0.104422 -0.112889,-0.03387 -0.251178,-0.03387 -0.138289,0 -0.242711,0.04233 -0.1016,0.04233 -0.158044,0.118534 -0.05362,0.0762 -0.05362,0.180622 0,0.118533 0.0762,0.189089 0.0762,0.07055 0.253999,0.107244 l 0.299156,0.06209 q 0.282222,0.05927 0.420511,0.183444 0.138288,0.124178 0.138288,0.3302 0,0.132644 -0.05362,0.239889 -0.05362,0.104422 -0.1524,0.180622 -0.09878,0.0762 -0.239888,0.118533 -0.138289,0.03951 -0.313267,0.03951 z"
       id="text5"
       inkscape:label="voct"
       aria-label="KNOBS" />
    <path
       style="font-weight:600;font-size:2.82222px;font-family:Nunito;-inkscape-font-specification:'Nunito Semi-Bold';fill:#ffffff;stroke:#ffffff;stroke-width:0;stroke-linecap:round;stroke-linejoin:round;stroke-opacity:0;paint-order:markers fill stroke"
       d="m 19.493142,54.446029 q -0.06491,0 -0.1016,-0.03669 -0.03387,-0.03669 -0.03387,-0.1016 v -1.752599 q 0,-0.06773 0.03669,-0.101599 0.03669,-0.03669 0.09878,-0.03669 0.05927,0 0.09031,0.02258 0.03387,0.01976 0.06209,0.07338 l 0.739422,1.380066 h -0.08749 l 0.7366,-1.380066 q 0.02822,-0.05362 0.05927,-0.07338 0.03105,-0.02258 0.09031,-0.02258 0.06209,0 0.09596,0.03669 0.03387,0.03387 0.03387,0.101599 v 1.752599 q 0,0.06491 -0.03387,0.1016 -0.03104,0.03669 -0.09596,0.03669 -0.06491,0 -0.09878,-0.03669 -0.03387,-0.03669 -0.03387,-0.1016 v -1.456265 h 0.06209 l -0.654755,1.210732 q -0.02258,0.04233 -0.04798,0.06209 -0.0254,0.01975 -0.07056,0.01975 -0.04516,0 -0.07338,-0.01975 -0.02822,-0.02258 -0.0508,-0.06209 l -0.6604,-1.213555 h 0.06773 v 1.459088 q 0,0.06491 -0.03387,0.1016 -0.03104,0.03669 -0.09596,0.03669 z m 3.15242,0.0056 q -0.282222,0 -0.493888,-0.124177 -0.208844,-0.127 -0.324556,-0.3556 -0.112888,-0.231422 -0.112888,-0.541866 0,-0.234245 0.06491,-0.420511 0.06491,-0.189089 0.186266,-0.321733 0.121356,-0.135467 0.293511,-0.206022 0.172156,-0.07056 0.386644,-0.07056 0.285045,0 0.493889,0.124178 0.208844,0.124178 0.321733,0.352777 0.115711,0.2286 0.115711,0.539044 0,0.234245 -0.06491,0.423333 -0.06491,0.189089 -0.189089,0.324556 -0.121355,0.135466 -0.293511,0.206022 -0.172155,0.07055 -0.383822,0.07055 z m 0,-0.253999 q 0.197556,0 0.335845,-0.09031 0.141111,-0.09031 0.214488,-0.262466 0.0762,-0.172155 0.0762,-0.414866 0,-0.364067 -0.163689,-0.564444 -0.163688,-0.200378 -0.462844,-0.200378 -0.197555,0 -0.338666,0.09031 -0.138289,0.08749 -0.214489,0.259644 -0.07338,0.172156 -0.07338,0.414867 0,0.361244 0.163689,0.564444 0.166511,0.2032 0.462844,0.2032 z m 1.481665,0.228599 q -0.0762,0 -0.118533,-0.03951 -0.03951,-0.04233 -0.03951,-0.118533 v -1.673576 q 0,-0.0762 0.03951,-0.115712 0.04233,-0.04233 0.118533,-0.04233 h 0.544688 q 0.491067,0 0.756355,0.256822 0.268111,0.254 0.268111,0.7366 0,0.239888 -0.06773,0.426155 -0.06773,0.186266 -0.200378,0.313266 -0.129822,0.124178 -0.31891,0.191911 -0.189089,0.06491 -0.437445,0.06491 z m 0.135466,-0.245533 h 0.392289 q 0.186267,0 0.321733,-0.04516 0.138289,-0.04798 0.231422,-0.141111 0.09313,-0.09313 0.138289,-0.234245 0.04516,-0.141111 0.04516,-0.330199 0,-0.375356 -0.186267,-0.561622 -0.183444,-0.186267 -0.550333,-0.186267 h -0.392289 z"
       id="text6"
       inkscape:label="gate"
       aria-label="MOD" />
    <path
       style="font-weight:600;font-size:2.82222px;font-family:Nunito;-inkscape-font-specification:'Nunito Semi-Bold';fill:#ffffff;stroke:#ffffff;stroke-width:0;stroke-linecap:round;stroke-linejoin:round;stroke-opacity:0;paint-order:markers fill stroke"
       d="m 4.3044396,54.426273 q -0.0762,0 -0.1185332,-0.03951 -0.039511,-0.04233 -0.039511,-0.118533 v -1.673576 q 0,-0.0762 0.039511,-0.115712 0.042333,-0.04233 0.1185332,-0.04233 H 4.976128 q 0.2060221,0 0.3499553,0.06209 0.1467554,0.06209 0.2229554,0.1778 0.079022,0.115711 0.079022,0.2794 0,0.180622 -0.1072444,0.304799 -0.1072444,0.124178 -0.2906887,0.166511 v -0.04233 q 0.2088443,0.02822 0.3273775,0.158044 0.1185333,0.127 0.1185333,0.333022 0,0.265289 -0.1749777,0.409222 -0.1749776,0.141111 -0.4910662,0.141111 z M 4.4286173,54.200496 H 4.976128 q 0.2116665,0 0.3132664,-0.08185 0.1016,-0.08467 0.1016,-0.253999 0,-0.169334 -0.1016,-0.251178 Q 5.1877945,53.53163 4.976128,53.53163 H 4.4286173 Z m 0,-0.894644 h 0.5023552 q 0.2031998,0 0.307622,-0.08184 0.1044221,-0.08185 0.1044221,-0.239889 0,-0.158044 -0.1044221,-0.239889 -0.1044222,-0.08184 -0.307622,-0.08184 H 4.4286173 Z m 1.8005742,1.120421 q -0.0762,0 -0.1185332,-0.03951 -0.039511,-0.04233 -0.039511,-0.118533 v -1.673576 q 0,-0.0762 0.039511,-0.115712 0.042333,-0.04233 0.1185332,-0.04233 h 1.0301103 q 0.059267,0 0.090311,0.03104 0.031044,0.02822 0.031044,0.08467 0,0.05927 -0.031044,0.09031 -0.031044,0.03105 -0.090311,0.03105 H 6.3533692 v 0.62371 H 7.197213 q 0.062089,0 0.090311,0.03104 0.031044,0.03104 0.031044,0.08749 0,0.05927 -0.031044,0.09031 -0.028222,0.02822 -0.090311,0.02822 H 6.3533692 v 0.654755 h 0.9059326 q 0.059267,0 0.090311,0.03104 0.031044,0.03105 0.031044,0.08749 0,0.05927 -0.031044,0.09031 -0.031044,0.02822 -0.090311,0.02822 z m 1.642534,0.01976 q -0.064911,0 -0.1016,-0.03669 -0.036689,-0.03669 -0.036689,-0.104422 v -1.74131 q 0,-0.07055 0.033867,-0.107244 0.036689,-0.03951 0.095955,-0.03951 0.0508,0 0.0762,0.01975 0.028222,0.01693 0.064911,0.06491 l 1.1627547,1.532466 H 9.096569 v -1.478844 q 0,-0.06491 0.033867,-0.101599 0.036689,-0.03669 0.1016,-0.03669 0.067733,0 0.1015999,0.03669 0.033867,0.03669 0.033867,0.101599 v 1.752599 q 0,0.06491 -0.033867,0.1016 -0.031044,0.03669 -0.084667,0.03669 -0.0508,0 -0.084667,-0.01976 -0.031044,-0.01976 -0.067733,-0.06773 L 7.9394588,52.828897 h 0.064911 v 1.476021 q 0,0.06773 -0.033867,0.104422 -0.033867,0.03669 -0.098778,0.03669 z m 2.116665,-0.01976 q -0.0762,0 -0.1185332,-0.03951 -0.039511,-0.04233 -0.039511,-0.118533 v -1.673576 q 0,-0.0762 0.039511,-0.115712 0.042333,-0.04233 0.1185332,-0.04233 h 0.5446885 q 0.491066,0 0.756355,0.256822 0.268111,0.254 0.268111,0.7366 0,0.239888 -0.06773,0.426155 -0.06773,0.186266 -0.200378,0.313266 -0.129822,0.124178 -0.318911,0.191911 -0.189089,0.06491 -0.437444,0.06491 z M 10.123857,54.18074 h 0.392289 q 0.186266,0 0.321733,-0.04516 0.138289,-0.04798 0.231422,-0.141111 0.09313,-0.09313 0.138289,-0.234245 0.04516,-0.141111 0.04516,-0.330199 0,-0.375356 -0.186266,-0.561622 -0.183445,-0.186267 -0.550333,-0.186267 h -0.392289 z"
       id="text7"
       inkscape:label="voct"
       aria-label="BEND" />
    <path
       d="m 11.910996,7.7656858 q -0.108187,0 -0.166788,-0.058601 -0.0586,-0.058601 -0.0586,-0.171296 V 4.9212702 q 0,-0.1126947 0.0586,-0.171296 0.0586,-0.058601 0.162281,-0.058601 0.108187,0 0.166788,0.058601 0.0586,0.058601 0.0586,0.171296 V 5.313448 l -0.04959,-0.094664 q 0.07212,-0.2434207 0.283991,-0.38767 0.211866,-0.1487571 0.500365,-0.1487571 0.293006,0 0.50938,0.1397415 0.220882,0.1397415 0.338084,0.3921778 0.121711,0.2524362 0.121711,0.6085516 0,0.3470999 -0.121711,0.6085517 -0.117202,0.256944 -0.333576,0.3966855 -0.216374,0.1352337 -0.513888,0.1352337 -0.283991,0 -0.495857,-0.1442493 Q 12.158925,6.6748006 12.0868,6.4358877 h 0.05409 v 1.0999008 q 0,0.1126947 -0.06311,0.171296 -0.0586,0.058601 -0.166789,0.058601 z m 0.842957,-1.1539943 q 0.189327,0 0.329069,-0.090156 0.139741,-0.090156 0.216374,-0.2659596 0.07663,-0.1758038 0.07663,-0.4327479 0,-0.3876699 -0.171296,-0.5860127 -0.166788,-0.1983427 -0.450779,-0.1983427 -0.184819,0 -0.329068,0.090156 -0.139742,0.085648 -0.216374,0.2614518 -0.07663,0.1758038 -0.07663,0.4327478 0,0.3831622 0.171296,0.5860127 0.171296,0.2028506 0.450779,0.2028506 z m 2.298971,0.3516076 q -0.229897,0 -0.414716,-0.090156 -0.180312,-0.090156 -0.283991,-0.2434206 -0.103679,-0.1532649 -0.103679,-0.3470999 0,-0.2434206 0.12171,-0.3831621 0.126218,-0.1442493 0.410209,-0.2028506 0.288498,-0.063109 0.77534,-0.063109 h 0.211866 v 0.279483 h -0.207358 q -0.324561,0 -0.513889,0.031555 -0.189327,0.031555 -0.270467,0.1081869 -0.07663,0.072125 -0.07663,0.2028506 0,0.171296 0.117202,0.279483 0.117203,0.1036791 0.324561,0.1036791 0.166788,0 0.293006,-0.076632 0.126219,-0.08114 0.198343,-0.2163739 0.07663,-0.1352337 0.07663,-0.3110375 V 5.5162985 q 0,-0.256944 -0.108187,-0.3696388 -0.108187,-0.1126947 -0.356116,-0.1126947 -0.144249,0 -0.302022,0.036062 -0.153265,0.036062 -0.320053,0.1217103 -0.07663,0.036062 -0.130726,0.022539 -0.05409,-0.013523 -0.08565,-0.058601 -0.03155,-0.049586 -0.03606,-0.1036792 0,-0.058601 0.02705,-0.1126947 0.03155,-0.054093 0.103679,-0.08114 0.198343,-0.094664 0.392178,-0.1352337 0.193835,-0.04057 0.365131,-0.04057 0.302022,0 0.495857,0.094664 0.198342,0.094664 0.293006,0.2884986 0.09466,0.193835 0.09466,0.5003647 v 1.1585021 q 0,0.1081869 -0.05409,0.171296 -0.05409,0.058601 -0.157773,0.058601 -0.09917,0 -0.157772,-0.058601 -0.0586,-0.063109 -0.0586,-0.171296 V 6.4313799 h 0.04057 q -0.03606,0.1667882 -0.135234,0.2884986 -0.09466,0.1172025 -0.238913,0.1803116 -0.144249,0.063109 -0.329069,0.063109 z m 2.55592,0 q -0.288498,0 -0.50938,-0.1352337 Q 16.88309,6.6883239 16.76138,6.4313799 16.639669,6.1699281 16.639669,5.8228282 q 0,-0.3561154 0.121711,-0.6085516 0.12171,-0.2524363 0.338084,-0.3921778 0.220882,-0.1397415 0.50938,-0.1397415 0.288499,0 0.495857,0.1442493 0.211866,0.1397415 0.283991,0.3786544 h -0.04959 V 3.9430798 q 0,-0.1126948 0.0586,-0.1712961 0.0586,-0.058601 0.166789,-0.058601 0.108187,0 0.166788,0.058601 0.06311,0.058601 0.06311,0.1712961 v 2.7813065 q 0,0.1081869 -0.0586,0.171296 -0.0586,0.058601 -0.166788,0.058601 -0.108187,0 -0.166789,-0.058601 -0.0586,-0.063109 -0.0586,-0.171296 V 6.3277007 l 0.04959,0.099171 q -0.07212,0.2434207 -0.283991,0.3921777 -0.207358,0.1442493 -0.500365,0.1442493 z m 0.117203,-0.3516076 q 0.184819,0 0.324561,-0.090156 0.139741,-0.090156 0.216374,-0.2659596 0.08114,-0.1758038 0.08114,-0.4327479 0,-0.3876699 -0.171296,-0.5860127 -0.171296,-0.1983427 -0.450779,-0.1983427 -0.189327,0 -0.329069,0.090156 -0.139741,0.085648 -0.220882,0.2614518 -0.07663,0.1758038 -0.07663,0.4327478 0,0.3831622 0.171296,0.5860127 0.171296,0.2028506 0.455287,0.2028506 z"
       id="text8"
       style="font-weight:600;font-size:4.50779px;font-family:Nunito;-inkscape-font-specification:'Nunito Semi-Bold';fill:#ffffff;stroke:#ffffff;stroke-width:0;stroke-linecap:round;stroke-linejoin:round;paint-order:markers fill stroke"
       inkscape:label="title"
       aria-label="pad" />
  </g>
</svg>
