<?xml version="1.0" encoding="UTF-8" standalone="no"?>
<!-- Created with Inkscape (http://www.inkscape.org/) -->

<svg
        xmlns:inkscape="http://www.inkscape.org/namespaces/inkscape"
        xmlns:sodipodi="http://sodipodi.sourceforge.net/DTD/sodipodi-0.dtd"
        width="30.48mm"
        height="128.5mm"
        viewBox="0 0 30.48 128.5"
        version="1.1"
        id="svg3066"
        inkscape:version="1.2.2 (732a01da63, 2022-12-09)"
        sodipodi:docname="G8Pad.svg"
        xmlns="http://www.w3.org/2000/svg"
>
    <sodipodi:namedview
            id="namedview3068"
            pagecolor="#4c4c4c"
            bordercolor="#000000"
            borderopacity="0.25"
            inkscape:showpageshadow="2"
            inkscape:pageopacity="0"
            inkscape:pagecheckerboard="0"
            inkscape:deskcolor="#d1d1d1"
            inkscape:document-units="mm"
            showgrid="false"
            inkscape:zoom="1.829812"
            inkscape:cx="-47.819119"
            inkscape:cy="224.61323"
            inkscape:window-width="2560"
            inkscape:window-height="1369"
            inkscape:window-x="-8"
            inkscape:window-y="-8"
            inkscape:window-maximized="1"
            inkscape:current-layer="g13986"/>
    <defs
            id="defs3063">
        <inkscape:path-effect
                effect="fillet_chamfer"
                id="path-effect6506"
                is_visible="true"
                lpeversion="1"
                nodesatellites_param="F,0,0,1,0,2.1166667,0,1 @ F,0,0,1,0,2.1166667,0,1 @ F,0,0,1,0,2.1166667,0,1 @ F,0,0,1,0,2.1166667,0,1"
                unit="px"
                method="auto"
                mode="F"
                radius="8"
                chamfer_steps="1"
                flexible="false"
                use_knot_distance="true"
                apply_no_radius="true"
                apply_with_radius="true"
                only_selected="false"
                hide_knots="false"/>
        <rect
                x="-51.782536"
                y="469.13434"
                width="344.70166"
                height="71.104378"
                id="rect6338"/>
        <inkscape:path-effect
                effect="fillet_chamfer"
                id="path-effect6506-3"
                is_visible="true"
                lpeversion="1"
                nodesatellites_param="F,0,0,1,0,2.1166667,0,1 @ F,0,0,1,0,2.1166667,0,1 @ F,0,0,1,0,2.1166667,0,1 @ F,0,0,1,0,2.1166667,0,1"
                unit="px"
                method="auto"
                mode="F"
                radius="8"
                chamfer_steps="1"
                flexible="false"
                use_knot_distance="true"
                apply_no_radius="true"
                apply_with_radius="true"
                only_selected="false"
                hide_knots="false"/>
        <inkscape:path-effect
                effect="fillet_chamfer"
                id="path-effect6506-9"
                is_visible="true"
                lpeversion="1"
                nodesatellites_param="F,0,0,1,0,2.1166667,0,1 @ F,0,0,1,0,2.1166667,0,1 @ F,0,0,1,0,2.1166667,0,1 @ F,0,0,1,0,2.1166667,0,1"
                unit="px"
                method="auto"
                mode="F"
                radius="8"
                chamfer_steps="1"
                flexible="false"
                use_knot_distance="true"
                apply_no_radius="true"
                apply_with_radius="true"
                only_selected="false"
                hide_knots="false"/>
        <inkscape:path-effect
                effect="fillet_chamfer"
                id="path-effect6506-2"
                is_visible="true"
                lpeversion="1"
                nodesatellites_param="F,0,0,1,0,2.1166667,0,1 @ F,0,0,1,0,2.1166667,0,1 @ F,0,0,1,0,2.1166667,0,1 @ F,0,0,1,0,2.1166667,0,1"
                unit="px"
                method="auto"
                mode="F"
                radius="8"
                chamfer_steps="1"
                flexible="false"
                use_knot_distance="true"
                apply_no_radius="true"
                apply_with_radius="true"
                only_selected="false"
                hide_knots="false"/>
        <inkscape:path-effect
                effect="fillet_chamfer"
                id="path-effect6506-2-7"
                is_visible="true"
                lpeversion="1"
                nodesatellites_param="F,0,0,1,0,2.1166667,0,1 @ F,0,0,1,0,2.1166667,0,1 @ F,0,0,1,0,2.1166667,0,1 @ F,0,0,1,0,2.1166667,0,1"
                unit="px"
                method="auto"
                mode="F"
                radius="8"
                chamfer_steps="1"
                flexible="false"
                use_knot_distance="true"
                apply_no_radius="true"
                apply_with_radius="true"
                only_selected="false"
                hide_knots="false"/>
        <inkscape:path-effect
                effect="fillet_chamfer"
                id="path-effect6506-2-9"
                is_visible="true"
                lpeversion="1"
                nodesatellites_param="F,0,0,1,0,2.1166667,0,1 @ F,0,0,1,0,2.1166667,0,1 @ F,0,0,1,0,2.1166667,0,1 @ F,0,0,1,0,2.1166667,0,1"
                unit="px"
                method="auto"
                mode="F"
                radius="8"
                chamfer_steps="1"
                flexible="false"
                use_knot_distance="true"
                apply_no_radius="true"
                apply_with_radius="true"
                only_selected="false"
                hide_knots="false"/>
        <inkscape:path-effect
                effect="fillet_chamfer"
                id="path-effect6506-2-4"
                is_visible="true"
                lpeversion="1"
                nodesatellites_param="F,0,0,1,0,2.1166667,0,1 @ F,0,0,1,0,2.1166667,0,1 @ F,0,0,1,0,2.1166667,0,1 @ F,0,0,1,0,2.1166667,0,1"
                unit="px"
                method="auto"
                mode="F"
                radius="8"
                chamfer_steps="1"
                flexible="false"
                use_knot_distance="true"
                apply_no_radius="true"
                apply_with_radius="true"
                only_selected="false"
                hide_knots="false"/>
    </defs>
    <g
            inkscape:groupmode="layer"
            id="layer3"
            inkscape:label="design">
        <path
                style="fill:#000000;fill-opacity:0.518293;stroke:#000000;stroke-width:0.197253;stroke-linecap:square;stroke-linejoin:round"
                id="keyboard-2"
                width="28.491203"
                height="9.6781683"
                x="0.99439812"
                y="53.894627"
                inkscape:path-effect="#path-effect6506-2-7"
                d="M 3.1110648,53.894627 H 27.368935 a 2.1166667,2.1166667 45 0 1 2.116666,2.116666 v 5.444835 a 2.1166667,2.1166667 135 0 1 -2.116666,2.116667 H 3.1110648 A 2.1166667,2.1166667 45 0 1 0.99439812,61.456128 V 56.011293 A 2.1166667,2.1166667 135 0 1 3.1110648,53.894627 Z"
                sodipodi:type="rect"
                inkscape:label="modulation"/>
        <rect
                style="fill:#00002a;fill-opacity:0.180328;stroke:#000000;stroke-width:0.141016;stroke-linecap:square;stroke-linejoin:round"
                id="rect6604"
                width="30.338984"
                height="128.35898"
                x="0.060413837"
                y="0.070508257"
                inkscape:label="bg"/>
        <path
                style="fill:#000000;fill-opacity:0.518293;stroke:#000000;stroke-width:0.197253;stroke-linecap:square;stroke-linejoin:round"
                id="keyboard"
                width="28.491203"
                height="9.6781683"
                x="0.89762652"
                y="36.779926"
                inkscape:path-effect="#path-effect6506-2"
                d="M 3.0142932,36.779926 H 27.272163 a 2.1166667,2.1166667 45 0 1 2.116667,2.116667 v 5.444835 a 2.1166667,2.1166667 135 0 1 -2.116667,2.116667 H 3.0142932 A 2.1166667,2.1166667 45 0 1 0.89762652,44.341428 V 38.896593 A 2.1166667,2.1166667 135 0 1 3.0142932,36.779926 Z"
                sodipodi:type="rect"
                inkscape:label="gate"/>
        <path
                style="fill:#000000;fill-opacity:0.518293;stroke:#000000;stroke-width:0.197253;stroke-linecap:square;stroke-linejoin:round"
                id="keyboard-5"
                width="28.32917"
                height="49.817551"
                x="1.0754125"
                y="72.336395"
                inkscape:path-effect="#path-effect6506-2-9"
                d="m 3.1920792,72.336395 24.0958368,0 a 2.1166667,2.1166667 45 0 1 2.116667,2.116667 v 45.584218 a 2.1166667,2.1166667 135 0 1 -2.116667,2.11667 H 3.1920792 A 2.1166667,2.1166667 45 0 1 1.0754125,120.03728 V 74.453062 a 2.1166667,2.1166667 135 0 1 2.1166667,-2.116667 z"
                sodipodi:type="rect"
                inkscape:label="knobs"/>
        <path
                style="fill:#000000;fill-opacity:0.518293;stroke:#000000;stroke-width:0.197253;stroke-linecap:square;stroke-linejoin:round"
                id="keyboard-56"
                width="10.685745"
                height="9.7734509"
                x="9.8466263"
                y="19.569941"
                inkscape:path-effect="#path-effect6506-2-4"
                d="m 11.963293,19.569941 h 6.452412 a 2.1166667,2.1166667 45 0 1 2.116667,2.116666 v 5.540118 a 2.1166667,2.1166667 135 0 1 -2.116667,2.116666 H 11.963293 A 2.1166667,2.1166667 45 0 1 9.8466263,27.226725 v -5.540118 a 2.1166667,2.1166667 135 0 1 2.1166667,-2.116666 z"
                sodipodi:type="rect"
                inkscape:label="gate"/>
    </g>
    <g
            inkscape:groupmode="layer"
            id="layer2"
            inkscape:label="text"
            style="display:inline">
        <text
                xml:space="preserve"
                style="font-weight:bold;font-size:7.76111px;font-family:Calibri;-inkscape-font-specification:'Calibri Bold';text-align:center;text-anchor:middle;fill:#ffffff;fill-opacity:1;stroke:#000000;stroke-width:0.2;stroke-linecap:square;stroke-linejoin:bevel;stroke-dasharray:none"
                x="15.241895"
                y="10.851689"
                id="title"
                inkscape:label="title"
                sodipodi:insensitive="true"><tspan
         sodipodi:role="line"
         id="tspan6176"
         style="font-size:7.76111px;fill:#ffffff;fill-opacity:1;stroke-width:0.2;stroke-dasharray:none"
         x="15.241895"
         y="10.851689">pad</tspan></text>
        <text
                xml:space="preserve"
                style="font-weight:bold;font-size:6.35px;font-family:Calibri;-inkscape-font-specification:'Calibri Bold';text-align:center;text-anchor:middle;fill:#ffffff;fill-opacity:1;stroke:#000000;stroke-width:0.2;stroke-linecap:square;stroke-linejoin:bevel"
                x="15.142331"
                y="70.124023"
                id="knobs"
                inkscape:label="knobs"><tspan
         sodipodi:role="line"
         id="tspan6176-4"
         style="font-size:6.35px;fill:#ffffff;fill-opacity:1;stroke-width:0.2"
         x="15.142331"
         y="70.124023">knobs</tspan></text>
        <text
                xml:space="preserve"
                style="font-weight:bold;font-size:4.23333px;font-family:Calibri;-inkscape-font-specification:'Calibri Bold';text-align:center;text-anchor:middle;display:inline;fill:#ffffff;fill-opacity:1;stroke:#000000;stroke-width:0.2;stroke-linecap:square;stroke-linejoin:bevel"
                x="9.9045124"
                y="35.72234"
                id="gate"
                inkscape:label="gate"><tspan
         sodipodi:role="line"
         id="tspan6176-4-9-7-5"
         style="font-size:4.23333px;fill:#ffffff;fill-opacity:1;stroke-width:0.2"
         x="9.9045124"
         y="35.72234">touch</tspan></text>
        <text
                xml:space="preserve"
                style="font-weight:bold;font-size:4.23333px;font-family:Calibri;-inkscape-font-specification:'Calibri Bold';text-align:center;text-anchor:middle;display:inline;fill:#ffffff;fill-opacity:1;stroke:#000000;stroke-width:0.2;stroke-linecap:square;stroke-linejoin:bevel"
                x="20.783648"
                y="35.72234"
                id="velocity"
                inkscape:label="velocity"><tspan
         sodipodi:role="line"
         id="tspan6176-4-9-1"
         style="font-size:4.23333px;fill:#ffffff;fill-opacity:1;stroke-width:0.2"
         x="20.783648"
         y="35.72234">vel</tspan></text>
        <text
                xml:space="preserve"
                style="font-weight:bold;font-size:4.23333px;font-family:Calibri;-inkscape-font-specification:'Calibri Bold';text-align:center;text-anchor:middle;display:inline;fill:#ffffff;fill-opacity:1;stroke:#000000;stroke-width:0.2;stroke-linecap:square;stroke-linejoin:bevel"
                x="9.8480196"
                y="52.70982"
                id="bend"
                inkscape:label="bend"><tspan
         sodipodi:role="line"
         id="tspan6176-4-9-7-5-9"
         style="font-size:4.23333px;fill:#ffffff;fill-opacity:1;stroke-width:0.2"
         x="9.8480196"
         y="52.70982">bend</tspan></text>
        <text
                xml:space="preserve"
                style="font-weight:bold;font-size:4.23333px;font-family:Calibri;-inkscape-font-specification:'Calibri Bold';text-align:center;text-anchor:middle;display:inline;fill:#ffffff;fill-opacity:1;stroke:#000000;stroke-width:0.2;stroke-linecap:square;stroke-linejoin:bevel"
                x="20.721567"
                y="52.70982"
                id="mod"
                inkscape:label="mod"><tspan
         sodipodi:role="line"
         id="tspan6176-4-9-1-7"
         style="font-size:4.23333px;fill:#ffffff;fill-opacity:1;stroke-width:0.2"
         x="20.721567"
         y="52.70982">mod</tspan></text>
        <text
                xml:space="preserve"
                style="font-weight:bold;font-size:4.23333px;font-family:Calibri;-inkscape-font-specification:'Calibri Bold';text-align:center;text-anchor:middle;display:inline;fill:#ffffff;fill-opacity:1;stroke:#000000;stroke-width:0.2;stroke-linecap:square;stroke-linejoin:bevel"
                x="15.295811"
                y="18.197527"
                id="gate-0"
                inkscape:label="gate"><tspan
         sodipodi:role="line"
         id="tspan6176-4-9-7-5-6"
         style="font-size:4.23333px;fill:#ffffff;fill-opacity:1;stroke-width:0.2"
         x="15.295811"
         y="18.197527">gate</tspan></text>
    </g>
    <g
            inkscape:groupmode="layer"
            id="g13986"
            inkscape:label="text copy"
            style="display:inline">
        <g
                aria-label="pad"
                id="text13960"
                style="font-weight:bold;font-size:7.76111px;font-family:Calibri;-inkscape-font-specification:'Calibri Bold';text-align:center;text-anchor:middle;fill:#ffffff;stroke:#000000;stroke-width:0.2;stroke-linecap:square;stroke-linejoin:bevel"
                inkscape:label="title">
            <path
                    d="m 13.042029,8.9834144 q 0,0.4509629 -0.09853,0.8147649 -0.09474,0.3600127 -0.280431,0.6139157 -0.185691,0.253904 -0.462332,0.390329 -0.276641,0.136426 -0.632864,0.136426 -0.147794,0 -0.272851,-0.03032 -0.121268,-0.02653 -0.238745,-0.08337 -0.113688,-0.06063 -0.227377,-0.147794 -0.113688,-0.08716 -0.234955,-0.204639 v 1.591634 q 0,0.0379 -0.02274,0.06821 -0.02274,0.03032 -0.07958,0.04926 -0.05306,0.02274 -0.144005,0.03411 -0.09095,0.01137 -0.231166,0.01137 -0.1402156,0 -0.2311661,-0.01137 -0.090951,-0.01137 -0.1477946,-0.03411 -0.053054,-0.01895 -0.075792,-0.04926 -0.022738,-0.03032 -0.022738,-0.06821 V 7.3425157 q 0,-0.037896 0.018948,-0.064423 0.018948,-0.030317 0.064423,-0.049265 0.049265,-0.018948 0.1250569,-0.026527 0.079582,-0.011369 0.1970592,-0.011369 0.113688,0 0.18948,0.011369 0.07958,0.00758 0.125057,0.026527 0.04927,0.018948 0.06821,0.049265 0.01895,0.026527 0.01895,0.064423 v 0.3979084 q 0.147795,-0.1515842 0.28801,-0.2652723 0.144005,-0.1174777 0.2918,-0.1932698 0.147794,-0.079582 0.303168,-0.1174778 0.159164,-0.037896 0.337275,-0.037896 0.371381,0 0.632864,0.1477946 0.261483,0.1440049 0.424436,0.3979084 0.166742,0.2539035 0.242534,0.5911783 0.07579,0.3372748 0.07579,0.7200249 z m -0.992876,0.068213 q 0,-0.2160074 -0.03411,-0.4130668 -0.03032,-0.2008491 -0.109899,-0.3562229 -0.07579,-0.1553737 -0.204639,-0.2463242 -0.125057,-0.09474 -0.314537,-0.09474 -0.09474,0 -0.18948,0.030317 -0.09095,0.026527 -0.18948,0.090951 -0.09474,0.064423 -0.19706,0.1667426 -0.102319,0.1023193 -0.216007,0.2539035 v 1.1141437 q 0.200849,0.2539035 0.38275,0.3941188 0.181901,0.1364259 0.37896,0.1364259 0.185691,0 0.314538,-0.09474 0.132636,-0.09474 0.216007,-0.2463245 0.08337,-0.1553738 0.121267,-0.3486436 0.04169,-0.1932698 0.04169,-0.3865397 z"
                    id="path13988"/>
            <path
                    d="m 16.683839,10.734212 q 0,0.05305 -0.0379,0.08337 -0.0379,0.03032 -0.121267,0.04169 -0.07958,0.01516 -0.238745,0.01516 -0.170532,0 -0.250114,-0.01516 -0.07579,-0.01137 -0.109899,-0.04169 -0.03032,-0.03032 -0.03032,-0.08337 V 10.46515 q -0.208429,0.223586 -0.477491,0.348643 -0.265272,0.125057 -0.591178,0.125057 -0.269062,0 -0.496438,-0.072 -0.223587,-0.06821 -0.390329,-0.204639 -0.162953,-0.140215 -0.253904,-0.344854 -0.09095,-0.204639 -0.09095,-0.47749 0,-0.2955892 0.113688,-0.5115966 0.117478,-0.2197971 0.344854,-0.3600125 0.231166,-0.1440049 0.57223,-0.2122178 0.341065,-0.068213 0.792027,-0.068213 h 0.329696 V 8.4831866 q 0,-0.1591634 -0.03411,-0.2766411 -0.03032,-0.1212674 -0.106109,-0.2008491 -0.072,-0.079582 -0.19706,-0.1174777 -0.121267,-0.037896 -0.303168,-0.037896 -0.238745,0 -0.428225,0.053055 -0.185691,0.053055 -0.329696,0.1174777 -0.144005,0.064423 -0.242535,0.1174778 -0.09474,0.053054 -0.155373,0.053054 -0.04169,0 -0.07579,-0.026527 -0.03032,-0.026527 -0.05305,-0.075792 -0.01895,-0.049265 -0.03032,-0.1212673 -0.01137,-0.072002 -0.01137,-0.1591634 0,-0.1174777 0.01895,-0.1856906 0.01895,-0.068213 0.072,-0.1212674 0.05305,-0.056844 0.18569,-0.1212673 0.132637,-0.068213 0.310748,-0.1250569 0.178111,-0.056844 0.38654,-0.090951 0.212218,-0.037896 0.435804,-0.037896 0.397909,0 0.678339,0.079582 0.284221,0.075792 0.466122,0.2387451 0.181901,0.1591634 0.265272,0.4130669 0.08337,0.2539035 0.08337,0.6025471 z M 15.747807,9.2865827 h -0.363802 q -0.231166,0 -0.394119,0.034107 -0.162953,0.034106 -0.265272,0.1023193 -0.102319,0.068213 -0.151584,0.1667426 -0.04548,0.09474 -0.04548,0.219797 0,0.2122179 0.132637,0.3334849 0.136425,0.121268 0.37517,0.121268 0.200849,0 0.367592,-0.10232 0.170532,-0.102319 0.344854,-0.2993784 z"
                    id="path13990"/>
            <path
                    d="m 20.841035,10.722843 q 0,0.04169 -0.01895,0.072 -0.01895,0.02653 -0.06442,0.04548 -0.04547,0.01895 -0.125057,0.02653 -0.07579,0.0076 -0.18948,0.0076 -0.121268,0 -0.19706,-0.0076 -0.07579,-0.0076 -0.125057,-0.02653 -0.04547,-0.01895 -0.06821,-0.04548 -0.01895,-0.03032 -0.01895,-0.072 v -0.375171 q -0.261482,0.280431 -0.549492,0.435804 -0.284221,0.155374 -0.632864,0.155374 -0.38654,0 -0.655602,-0.147794 -0.265272,-0.151585 -0.435804,-0.405488 -0.166743,-0.253903 -0.242535,-0.5911783 -0.07579,-0.3410644 -0.07579,-0.7162352 0,-0.4509629 0.09474,-0.8109754 0.09853,-0.3600124 0.28422,-0.6139159 0.185691,-0.2539035 0.462332,-0.3903292 0.276641,-0.1364258 0.636654,-0.1364258 0.28422,0 0.515386,0.1174777 0.231166,0.1136882 0.458542,0.3372748 V 5.7508818 q 0,-0.037896 0.01895,-0.068213 0.02274,-0.030317 0.07579,-0.049265 0.05684,-0.022738 0.147795,-0.034107 0.09095,-0.011369 0.231166,-0.011369 0.140215,0 0.231165,0.011369 0.09095,0.011369 0.144005,0.034107 0.05305,0.018948 0.07579,0.049265 0.02274,0.030317 0.02274,0.068213 z M 19.893634,8.4642386 Q 19.688995,8.2065455 19.499515,8.0701197 19.313824,7.9336939 19.109186,7.9336939 q -0.185691,0 -0.322117,0.09474 -0.132636,0.09095 -0.216007,0.2463242 -0.07958,0.1553738 -0.121267,0.3486436 -0.0379,0.1894803 -0.0379,0.3903293 0,0.2122178 0.03411,0.4130669 0.03411,0.200849 0.109899,0.3600124 0.07958,0.1553738 0.208428,0.2501135 0.128846,0.09474 0.325906,0.09474 0.09853,0 0.18948,-0.02653 0.09474,-0.03032 0.18948,-0.09474 0.09853,-0.064423 0.200849,-0.1667424 0.10232,-0.106109 0.223587,-0.2576931 z"
                    id="path13992"/>
        </g>
        <g
                aria-label="knobs"
                id="text13964"
                style="font-weight:bold;font-size:6.35px;font-family:Calibri;-inkscape-font-specification:'Calibri Bold';text-align:center;text-anchor:middle;fill:#ffffff;stroke:#000000;stroke-width:0.2;stroke-linecap:square;stroke-linejoin:bevel"
                inkscape:label="knobs">
            <path
                    d="m 10.21395,70.021704 q 0,0.03101 -0.0186,0.05581 -0.0155,0.0217 -0.06201,0.03721 -0.04341,0.0124 -0.120923,0.0186 -0.077515,0.0093 -0.2015383,0.0093 -0.127124,0 -0.2077393,-0.0062 -0.077515,-0.0062 -0.1302246,-0.0186 -0.049609,-0.0155 -0.077515,-0.04031 -0.027905,-0.02481 -0.049609,-0.06511 l -0.920874,-1.457275 v 1.463477 q 0,0.03101 -0.018604,0.05581 -0.018603,0.0217 -0.065112,0.03721 -0.043408,0.0155 -0.1178223,0.0217 -0.074414,0.0093 -0.1891357,0.0093 -0.1147217,0 -0.1891358,-0.0093 -0.074414,-0.0062 -0.1209228,-0.0217 -0.043408,-0.0155 -0.062012,-0.03721 -0.018604,-0.02481 -0.018604,-0.05581 v -4.077271 q 0,-0.03101 0.018604,-0.05581 0.018603,-0.02481 0.062012,-0.04031 0.046509,-0.0186 0.1209228,-0.0279 0.074414,-0.0093 0.1891358,-0.0093 0.1147216,0 0.1891357,0.0093 0.074414,0.0093 0.1178223,0.0279 0.046509,0.0155 0.065112,0.04031 0.018604,0.0248 0.018604,0.05581 v 2.427759 l 0.8185547,-1.100708 q 0.024805,-0.03721 0.05581,-0.06511 0.031006,-0.02791 0.080615,-0.04341 0.05271,-0.0155 0.1271241,-0.0217 0.077515,-0.0093 0.1953369,-0.0093 0.1147217,0 0.1922363,0.0093 0.080615,0.0062 0.1271245,0.0217 0.04961,0.0155 0.06821,0.04031 0.0186,0.0217 0.0186,0.05581 0,0.04651 -0.02481,0.09922 -0.0217,0.05271 -0.06821,0.111621 l -0.8092526,0.917774 0.9363766,1.447973 q 0.03721,0.06201 0.05271,0.108521 0.0186,0.04341 0.0186,0.08061 z"
                    id="path13995"/>
            <path
                    d="m 13.333139,70.018604 q 0,0.03101 -0.0186,0.05581 -0.0186,0.0217 -0.06201,0.03721 -0.04341,0.0155 -0.120923,0.0217 -0.07441,0.0093 -0.186035,0.0093 -0.114722,0 -0.192236,-0.0093 -0.07441,-0.0062 -0.117823,-0.0217 -0.04341,-0.0155 -0.06201,-0.03721 -0.0186,-0.02481 -0.0186,-0.05581 v -1.578199 q 0,-0.201538 -0.03101,-0.316259 -0.0279,-0.114722 -0.08372,-0.195337 -0.05581,-0.08372 -0.145727,-0.127124 -0.08682,-0.04651 -0.204639,-0.04651 -0.148828,0 -0.300757,0.10852 -0.151928,0.108521 -0.316259,0.31626 v 1.838648 q 0,0.03101 -0.0186,0.05581 -0.0186,0.0217 -0.06511,0.03721 -0.04341,0.0155 -0.117822,0.0217 -0.07441,0.0093 -0.189136,0.0093 -0.114722,0 -0.189136,-0.0093 -0.07441,-0.0062 -0.120923,-0.0217 -0.04341,-0.0155 -0.06201,-0.03721 -0.0186,-0.02481 -0.0186,-0.05581 v -2.765723 q 0,-0.03101 0.0155,-0.05271 0.0155,-0.02481 0.05581,-0.04031 0.04031,-0.0155 0.102319,-0.0217 0.06511,-0.0093 0.16123,-0.0093 0.09922,0 0.164331,0.0093 0.06511,0.0062 0.09922,0.0217 0.03721,0.0155 0.05271,0.04031 0.0155,0.0217 0.0155,0.05271 v 0.31936 q 0.229443,-0.248047 0.465088,-0.37207 0.238745,-0.124023 0.496094,-0.124023 0.282153,0 0.474389,0.09302 0.195337,0.09302 0.313159,0.254248 0.120923,0.15813 0.173633,0.37207 0.05271,0.213941 0.05271,0.514698 z"
                    id="path13997"/>
            <path
                    d="m 16.895712,68.607837 q 0,0.353467 -0.09302,0.644922 -0.09302,0.291455 -0.282154,0.502295 -0.189135,0.21084 -0.474389,0.325561 -0.285254,0.114722 -0.666626,0.114722 -0.36897,0 -0.641822,-0.102319 -0.272851,-0.10232 -0.452685,-0.297657 -0.179834,-0.195337 -0.266651,-0.48059 -0.08682,-0.285254 -0.08682,-0.651124 0,-0.353466 0.09302,-0.644921 0.09612,-0.294556 0.285254,-0.502295 0.189135,-0.21084 0.471289,-0.325562 0.285253,-0.114721 0.666626,-0.114721 0.37207,0 0.644921,0.102319 0.272852,0.09922 0.449585,0.294556 0.179834,0.195336 0.266651,0.48059 0.08682,0.285254 0.08682,0.654224 z m -0.803052,0.03101 q 0,-0.204639 -0.03411,-0.375171 -0.03101,-0.173633 -0.108521,-0.300757 -0.07751,-0.127124 -0.207739,-0.198437 -0.127124,-0.07131 -0.322461,-0.07131 -0.173633,0 -0.303857,0.06511 -0.130225,0.06201 -0.213941,0.186036 -0.08371,0.120922 -0.127124,0.294555 -0.04031,0.170532 -0.04031,0.390674 0,0.204639 0.03411,0.378272 0.03411,0.170532 0.108521,0.297656 0.07751,0.127124 0.207739,0.198437 0.130225,0.06821 0.322461,0.06821 0.176733,0 0.306958,-0.06201 0.130225,-0.06511 0.21394,-0.186035 0.08372,-0.120923 0.124024,-0.291455 0.04031,-0.173633 0.04031,-0.393774 z"
                    id="path13999"/>
            <path
                    d="m 20.297056,68.598535 q 0,0.36897 -0.08062,0.663526 -0.08061,0.294555 -0.232543,0.502294 -0.151929,0.20774 -0.375171,0.319361 -0.220142,0.111621 -0.502295,0.111621 -0.139527,0 -0.26045,-0.0279 -0.120922,-0.02481 -0.232543,-0.08372 -0.108521,-0.05891 -0.217041,-0.148828 -0.10542,-0.08992 -0.217041,-0.217041 v 0.300757 q 0,0.03411 -0.0186,0.05891 -0.0155,0.0217 -0.05581,0.03721 -0.03721,0.0155 -0.102319,0.0217 -0.06511,0.0062 -0.15813,0.0062 -0.09612,0 -0.16123,-0.0062 -0.06201,-0.0062 -0.10232,-0.0217 -0.03721,-0.0155 -0.05271,-0.03721 -0.0155,-0.02481 -0.0155,-0.05891 v -4.077271 q 0,-0.03101 0.0186,-0.05581 0.0186,-0.02481 0.06201,-0.04031 0.04651,-0.0186 0.120923,-0.0279 0.07441,-0.0093 0.189135,-0.0093 0.114722,0 0.189136,0.0093 0.07441,0.0093 0.117822,0.0279 0.04651,0.0155 0.06511,0.04031 0.0186,0.0248 0.0186,0.05581 v 1.528589 q 0.10542,-0.10542 0.21084,-0.179834 0.10542,-0.07441 0.21084,-0.120923 0.10542,-0.04961 0.217041,-0.07131 0.111621,-0.0217 0.235644,-0.0217 0.306958,0 0.520899,0.124023 0.21394,0.120923 0.347265,0.328662 0.136426,0.207739 0.198438,0.486792 0.06201,0.275952 0.06201,0.58291 z m -0.809253,0.05581 q 0,-0.176734 -0.02791,-0.341065 -0.02481,-0.164331 -0.08992,-0.291455 -0.06511,-0.127124 -0.170533,-0.201538 -0.102319,-0.07752 -0.260449,-0.07752 -0.07751,0 -0.151929,0.0217 -0.07441,0.0217 -0.155029,0.07441 -0.07752,0.05271 -0.16123,0.136425 -0.08372,0.08372 -0.176734,0.20774 v 0.917773 q 0.164331,0.21084 0.313159,0.322461 0.151929,0.108521 0.31626,0.108521 0.151929,0 0.257349,-0.07752 0.10542,-0.07751 0.173633,-0.201538 0.07131,-0.124024 0.102319,-0.282154 0.03101,-0.158129 0.03101,-0.316259 z"
                    id="path14001"/>
            <path
                    d="m 22.836435,69.237256 q 0,0.235644 -0.08992,0.415478 -0.08682,0.179834 -0.248047,0.300757 -0.16123,0.120923 -0.381372,0.179834 -0.220142,0.06201 -0.47749,0.06201 -0.15503,0 -0.297657,-0.02481 -0.139526,-0.0217 -0.251147,-0.05581 -0.111621,-0.03721 -0.186035,-0.07441 -0.07441,-0.03721 -0.108521,-0.06821 -0.03411,-0.03411 -0.05271,-0.10232 -0.0186,-0.07131 -0.0186,-0.207739 0,-0.08992 0.0062,-0.142627 0.0062,-0.05581 0.0186,-0.08682 0.0124,-0.03411 0.03101,-0.04341 0.0186,-0.0124 0.04651,-0.0124 0.03411,0 0.09922,0.04031 0.06821,0.03721 0.167432,0.08372 0.09922,0.04651 0.229443,0.08682 0.133325,0.04031 0.300757,0.04031 0.10542,0 0.186035,-0.0217 0.08372,-0.02171 0.142627,-0.06201 0.06201,-0.04031 0.09302,-0.102319 0.03101,-0.06201 0.03101,-0.142627 0,-0.09302 -0.05891,-0.15813 -0.05581,-0.06821 -0.151929,-0.117823 -0.09302,-0.04961 -0.21394,-0.09302 -0.117822,-0.04341 -0.244946,-0.09612 -0.124024,-0.05271 -0.244947,-0.120923 -0.117822,-0.06821 -0.21394,-0.167432 -0.09302,-0.09922 -0.151929,-0.238745 -0.05581,-0.139526 -0.05581,-0.334863 0,-0.198438 0.07751,-0.362769 0.07752,-0.167431 0.223243,-0.285254 0.145727,-0.117822 0.353466,-0.182934 0.21084,-0.06511 0.471289,-0.06511 0.130225,0 0.251148,0.0186 0.124023,0.0186 0.223242,0.04651 0.09922,0.02791 0.167432,0.06201 0.06821,0.03101 0.09612,0.05581 0.03101,0.0217 0.04341,0.04651 0.0124,0.0217 0.0186,0.05581 0.0062,0.03101 0.0093,0.08062 0.0062,0.04651 0.0062,0.117822 0,0.08372 -0.0062,0.136426 -0.0031,0.05271 -0.0155,0.08372 -0.0093,0.031 -0.0279,0.04341 -0.0186,0.0093 -0.04341,0.0093 -0.0279,0 -0.08682,-0.031 -0.05891,-0.03411 -0.148829,-0.07131 -0.08682,-0.03721 -0.204638,-0.06821 -0.114722,-0.03411 -0.26355,-0.03411 -0.10542,0 -0.182935,0.0217 -0.07751,0.0217 -0.127124,0.06201 -0.04961,0.04031 -0.07441,0.09612 -0.0248,0.05271 -0.0248,0.114721 0,0.09612 0.05891,0.161231 0.05891,0.06511 0.155029,0.114722 0.09612,0.04961 0.217041,0.09302 0.124023,0.04341 0.248047,0.09612 0.127124,0.04961 0.248047,0.117823 0.124023,0.06821 0.220141,0.167431 0.09612,0.09922 0.15503,0.238745 0.05891,0.136426 0.05891,0.325562 z"
                    id="path14003"/>
        </g>
        <g
                aria-label="touch"
                id="text13968"
                style="font-weight:bold;font-size:4.23333px;font-family:Calibri;-inkscape-font-specification:'Calibri Bold';text-align:center;text-anchor:middle;display:inline;fill:#ffffff;stroke:#000000;stroke-width:0.2;stroke-linecap:square;stroke-linejoin:bevel"
                inkscape:label="gate">
            <path
                    d="m 6.2478911,35.470159 q 0,0.09095 -0.012402,0.14056 -0.010335,0.04754 -0.028939,0.06821 -0.018604,0.0186 -0.05581,0.03514 -0.03514,0.01447 -0.084749,0.02481 -0.047542,0.0124 -0.1054198,0.0186 -0.05581,0.0062 -0.113688,0.0062 -0.1550292,0 -0.2687173,-0.03927 -0.113688,-0.03927 -0.188102,-0.11989 -0.074414,-0.08268 -0.109554,-0.206705 -0.03514,-0.124023 -0.03514,-0.293522 v -0.944644 h -0.221175 q -0.039274,0 -0.059945,-0.04754 -0.02067,-0.04961 -0.02067,-0.163297 0,-0.05994 0.00413,-0.101286 0.0062,-0.04134 0.016536,-0.06408 0.010335,-0.02481 0.024805,-0.03514 0.016536,-0.01034 0.037207,-0.01034 h 0.2191079 v -0.411344 q 0,-0.02067 0.010335,-0.03721 0.012402,-0.01654 0.041341,-0.02687 0.031006,-0.0124 0.080615,-0.01654 0.051676,-0.0062 0.1260904,-0.0062 0.076481,0 0.1260904,0.0062 0.051676,0.0041 0.080615,0.01654 0.028939,0.01034 0.041341,0.02687 0.012402,0.01654 0.012402,0.03721 v 0.411344 h 0.4010088 q 0.020671,0 0.03514,0.01034 0.016536,0.01033 0.026872,0.03514 0.010335,0.02274 0.014469,0.06408 0.0062,0.04134 0.0062,0.101286 0,0.113688 -0.020671,0.163297 -0.020671,0.04754 -0.059945,0.04754 H 5.7642001 v 0.866096 q 0,0.150895 0.047542,0.227376 0.047542,0.07441 0.1694986,0.07441 0.041341,0 0.074414,-0.0062 0.033073,-0.0083 0.057878,-0.01654 0.026872,-0.01033 0.043408,-0.01654 0.018604,-0.0083 0.033073,-0.0083 0.012402,0 0.022738,0.0083 0.012402,0.0062 0.018604,0.02894 0.0062,0.02067 0.010335,0.05788 0.0062,0.03721 0.0062,0.09509 z"
                    id="path14006"/>
            <path
                    d="m 8.4472382,34.711549 q 0,0.235645 -0.062012,0.429948 -0.062012,0.194303 -0.1881021,0.334863 -0.1260904,0.14056 -0.3162595,0.217041 -0.1901691,0.07648 -0.4444169,0.07648 -0.2459796,0 -0.4278805,-0.06821 -0.1819009,-0.06821 -0.3017901,-0.198437 -0.1198893,-0.130225 -0.1777668,-0.320394 -0.057878,-0.190169 -0.057878,-0.434082 0,-0.235644 0.062012,-0.429947 0.064079,-0.19637 0.1901691,-0.334863 0.1260904,-0.14056 0.3141925,-0.217041 0.1901691,-0.07648 0.4444169,-0.07648 0.2480467,0 0.4299476,0.06821 0.1819008,0.06615 0.299723,0.19637 0.1198892,0.130225 0.1777668,0.320394 0.057878,0.190169 0.057878,0.436148 z m -0.5353673,0.02067 q 0,-0.136426 -0.022738,-0.250114 -0.02067,-0.115755 -0.072347,-0.200504 -0.051676,-0.08475 -0.1384927,-0.132292 -0.084749,-0.04754 -0.2149738,-0.04754 -0.1157551,0 -0.2025714,0.04341 -0.086816,0.04134 -0.1426269,0.124024 -0.05581,0.08062 -0.084749,0.19637 -0.026872,0.113688 -0.026872,0.260449 0,0.136426 0.022738,0.252181 0.022738,0.113688 0.072347,0.198437 0.051676,0.08475 0.1384927,0.132292 0.086816,0.04548 0.2149738,0.04548 0.1178221,0 0.2046385,-0.04134 0.086816,-0.04341 0.1426268,-0.124024 0.05581,-0.08062 0.082682,-0.194303 0.026872,-0.115755 0.026872,-0.262516 z"
                    id="path14008"/>
            <path
                    d="m 10.607311,35.65206 q 0,0.02067 -0.01033,0.03721 -0.01033,0.01447 -0.03721,0.0248 -0.0248,0.01034 -0.06821,0.01447 -0.04134,0.0062 -0.10542,0.0062 -0.06821,0 -0.111621,-0.0062 -0.04134,-0.0041 -0.06614,-0.01447 -0.02481,-0.01033 -0.03514,-0.0248 -0.01034,-0.01654 -0.01034,-0.03721 v -0.212907 q -0.152962,0.165364 -0.3121251,0.248047 -0.1570962,0.08268 -0.3265947,0.08268 -0.1901692,0 -0.3203937,-0.06201 Q 9.0756231,35.645859 8.9950079,35.538372 8.9164598,35.430885 8.8813199,35.290325 8.848247,35.147698 8.848247,34.936859 v -1.128613 q 0,-0.02067 0.010335,-0.03514 0.012402,-0.01654 0.041341,-0.02687 0.031006,-0.01034 0.080615,-0.01447 0.051676,-0.0062 0.1260904,-0.0062 0.076481,0 0.1260904,0.0062 0.049609,0.0041 0.078548,0.01447 0.031006,0.01034 0.043408,0.02687 0.012402,0.01447 0.012402,0.03514 v 1.041796 q 0,0.144694 0.018603,0.221175 0.018604,0.07648 0.055811,0.132292 0.039274,0.05374 0.097152,0.08475 0.059945,0.02894 0.1384928,0.02894 0.099219,0 0.1984373,-0.07235 0.1012857,-0.07235 0.2149734,-0.21084 v -1.225764 q 0,-0.02067 0.01034,-0.03514 0.0124,-0.01654 0.04134,-0.02687 0.03101,-0.01034 0.08061,-0.01447 0.04961,-0.0062 0.12609,-0.0062 0.07648,0 0.126091,0.0062 0.04961,0.0041 0.07855,0.01447 0.02894,0.01034 0.04134,0.02687 0.0124,0.01447 0.0124,0.03514 z"
                    id="path14010"/>
            <path
                    d="m 12.525538,35.358538 q 0,0.05374 -0.0041,0.09095 -0.0021,0.03514 -0.0083,0.05994 -0.0041,0.02481 -0.0124,0.04134 -0.0062,0.01447 -0.03101,0.03927 -0.02481,0.02274 -0.08475,0.05788 -0.05994,0.03307 -0.136426,0.05994 -0.07648,0.02687 -0.167431,0.04341 -0.08888,0.01654 -0.183968,0.01654 -0.212907,0 -0.378272,-0.06615 -0.163297,-0.06615 -0.274918,-0.194303 -0.111621,-0.130225 -0.169499,-0.31626 -0.05581,-0.186035 -0.05581,-0.425813 0,-0.276986 0.06821,-0.47749 0.07028,-0.202571 0.194303,-0.334863 0.124023,-0.132291 0.293522,-0.19637 0.169498,-0.06408 0.37207,-0.06408 0.08268,0 0.16123,0.01447 0.08061,0.01447 0.148828,0.03927 0.07028,0.0248 0.124024,0.05581 0.05581,0.03101 0.07855,0.05374 0.02274,0.02274 0.03101,0.03928 0.01033,0.01447 0.01447,0.03927 0.0062,0.0248 0.0083,0.06201 0.0041,0.03514 0.0041,0.08682 0,0.119889 -0.02067,0.169498 -0.02067,0.04754 -0.05374,0.04754 -0.03514,0 -0.07441,-0.02894 -0.03927,-0.02894 -0.09302,-0.06408 -0.05374,-0.03514 -0.128158,-0.06408 -0.07441,-0.02894 -0.177766,-0.02894 -0.202572,0 -0.310059,0.157097 -0.107487,0.155029 -0.107487,0.456819 0,0.148828 0.02687,0.262516 0.02687,0.113688 0.07855,0.190169 0.05374,0.07648 0.132292,0.115755 0.08061,0.03721 0.186035,0.03721 0.107487,0 0.183968,-0.03101 0.07855,-0.03307 0.136425,-0.07235 0.05788,-0.03927 0.09715,-0.07028 0.03927,-0.03307 0.06615,-0.03307 0.0186,0 0.03101,0.01033 0.0124,0.01033 0.0186,0.03927 0.0083,0.02687 0.0124,0.07028 0.0041,0.04341 0.0041,0.111621 z"
                    id="path14012"/>
            <path
                    d="m 14.662874,35.65206 q 0,0.02067 -0.0124,0.03721 -0.0124,0.01447 -0.04134,0.0248 -0.02894,0.01034 -0.08062,0.01447 -0.04961,0.0062 -0.124023,0.0062 -0.07648,0 -0.128157,-0.0062 -0.04961,-0.0041 -0.07855,-0.01447 -0.02894,-0.01033 -0.04134,-0.0248 -0.0124,-0.01654 -0.0124,-0.03721 v -1.052132 q 0,-0.134358 -0.02067,-0.210839 -0.0186,-0.07648 -0.05581,-0.130225 -0.03721,-0.05581 -0.09715,-0.08475 -0.05788,-0.03101 -0.136425,-0.03101 -0.09922,0 -0.200505,0.07235 -0.101285,0.07235 -0.210839,0.21084 v 1.225764 q 0,0.02067 -0.0124,0.03721 -0.0124,0.01447 -0.04341,0.0248 -0.02894,0.01034 -0.07855,0.01447 -0.04961,0.0062 -0.12609,0.0062 -0.07648,0 -0.126091,-0.0062 -0.04961,-0.0041 -0.08061,-0.01447 -0.02894,-0.01033 -0.04134,-0.0248 -0.0124,-0.01654 -0.0124,-0.03721 v -2.718178 q 0,-0.02067 0.0124,-0.03721 0.0124,-0.01654 0.04134,-0.02687 0.03101,-0.0124 0.08061,-0.0186 0.04961,-0.0062 0.126091,-0.0062 0.07648,0 0.12609,0.0062 0.04961,0.0062 0.07855,0.0186 0.03101,0.01034 0.04341,0.02687 0.0124,0.01654 0.0124,0.03721 v 1.019058 q 0.134358,-0.132291 0.272851,-0.19637 0.14056,-0.06615 0.291455,-0.06615 0.188102,0 0.316259,0.06201 0.130225,0.06201 0.208773,0.169498 0.08061,0.107487 0.115755,0.252181 0.03514,0.142627 0.03514,0.347265 z"
                    id="path14014"/>
        </g>
        <g
                aria-label="vel"
                id="text13972"
                style="font-weight:bold;font-size:4.23333px;font-family:Calibri;-inkscape-font-specification:'Calibri Bold';text-align:center;text-anchor:middle;display:inline;fill:#ffffff;stroke:#000000;stroke-width:0.2;stroke-linecap:square;stroke-linejoin:bevel"
                inkscape:label="velocity">
            <path
                    d="m 20.173866,33.806179 q 0,0.01033 -0.0021,0.02481 0,0.01447 -0.0041,0.03307 -0.0021,0.01654 -0.0083,0.03927 -0.0041,0.02274 -0.0124,0.05168 l -0.55397,1.668114 q -0.01034,0.03514 -0.02894,0.05788 -0.01654,0.02067 -0.05788,0.03307 -0.03927,0.0124 -0.109554,0.01654 -0.06821,0.0041 -0.179834,0.0041 -0.109554,0 -0.179833,-0.0062 -0.06821,-0.0041 -0.107487,-0.01654 -0.03927,-0.0124 -0.05788,-0.03307 -0.01654,-0.02274 -0.02687,-0.05581 l -0.55397,-1.668114 q -0.0124,-0.04134 -0.02067,-0.07441 -0.0062,-0.03307 -0.0083,-0.04754 0,-0.01447 0,-0.02687 0,-0.02067 0.01034,-0.03514 0.0124,-0.01654 0.04134,-0.02687 0.02894,-0.01033 0.07855,-0.01447 0.05168,-0.0041 0.128158,-0.0041 0.08475,0 0.136425,0.0062 0.05168,0.0041 0.08062,0.01447 0.03101,0.0083 0.04341,0.02687 0.0124,0.01654 0.02067,0.04134 l 0.419613,1.353922 0.0124,0.05168 0.0124,-0.05168 0.413411,-1.353922 q 0.0062,-0.0248 0.0186,-0.04134 0.01447,-0.0186 0.04341,-0.02687 0.02894,-0.01034 0.07648,-0.01447 0.04961,-0.0062 0.128157,-0.0062 0.07648,0 0.124024,0.0041 0.04961,0.0041 0.07648,0.01447 0.02687,0.01034 0.03721,0.02687 0.01034,0.01447 0.01034,0.03514 z"
                    id="path14017"/>
            <path
                    d="m 22.14377,34.67641 q 0,0.09508 -0.04341,0.140559 -0.04134,0.04548 -0.115755,0.04548 h -1.122411 q 0,0.117822 0.02687,0.214973 0.02894,0.09508 0.08888,0.163298 0.06201,0.06614 0.157096,0.101285 0.09715,0.03514 0.23151,0.03514 0.136426,0 0.239779,-0.0186 0.103352,-0.02067 0.177766,-0.04341 0.07648,-0.02481 0.126091,-0.04341 0.04961,-0.02067 0.08062,-0.02067 0.0186,0 0.03101,0.0083 0.0124,0.0062 0.02067,0.02481 0.0083,0.0186 0.01034,0.05374 0.0041,0.03307 0.0041,0.08475 0,0.04547 -0.0021,0.07855 -0.0021,0.03101 -0.0062,0.05374 -0.0041,0.02274 -0.0124,0.03927 -0.0083,0.01447 -0.02274,0.02894 -0.0124,0.01447 -0.07235,0.03927 -0.05995,0.02481 -0.152962,0.04961 -0.09302,0.02274 -0.212907,0.03927 -0.119889,0.0186 -0.256315,0.0186 -0.24598,0 -0.432015,-0.06201 -0.183968,-0.06201 -0.307991,-0.188102 -0.124023,-0.12609 -0.186035,-0.318326 -0.05994,-0.192237 -0.05994,-0.450618 0,-0.24598 0.06408,-0.44235 0.06408,-0.198438 0.186035,-0.334863 0.121956,-0.138493 0.295589,-0.21084 0.1757,-0.07235 0.394808,-0.07235 0.23151,0 0.394807,0.06821 0.165365,0.06821 0.270785,0.190169 0.105419,0.119889 0.155029,0.285254 0.04961,0.165364 0.04961,0.359667 z m -0.504361,-0.148828 q 0.0062,-0.219108 -0.08888,-0.343132 -0.09302,-0.12609 -0.289388,-0.12609 -0.09922,0 -0.173632,0.03721 -0.07235,0.03721 -0.121957,0.101286 -0.04754,0.06201 -0.07441,0.148828 -0.0248,0.08475 -0.02894,0.181901 z"
                    id="path14019"/>
            <path
                    d="m 23.092549,35.65206 q 0,0.02067 -0.0124,0.03721 -0.0124,0.01447 -0.04341,0.0248 -0.02894,0.01034 -0.07855,0.01447 -0.04961,0.0062 -0.12609,0.0062 -0.07648,0 -0.126091,-0.0062 -0.04961,-0.0041 -0.08062,-0.01447 -0.02894,-0.01033 -0.04134,-0.0248 -0.0124,-0.01654 -0.0124,-0.03721 v -2.718178 q 0,-0.02067 0.0124,-0.03721 0.0124,-0.01654 0.04134,-0.02687 0.03101,-0.0124 0.08062,-0.0186 0.04961,-0.0062 0.126091,-0.0062 0.07648,0 0.12609,0.0062 0.04961,0.0062 0.07855,0.0186 0.03101,0.01034 0.04341,0.02687 0.0124,0.01654 0.0124,0.03721 z"
                    id="path14021"/>
        </g>
        <g
                aria-label="bend"
                id="text13976"
                style="font-weight:bold;font-size:4.23333px;font-family:Calibri;-inkscape-font-specification:'Calibri Bold';text-align:center;text-anchor:middle;display:inline;fill:#ffffff;stroke:#000000;stroke-width:0.2;stroke-linecap:square;stroke-linejoin:bevel"
                inkscape:label="bend">
            <path
                    d="m 7.4915763,51.692828 q 0,0.24598 -0.053744,0.44235 -0.053743,0.196371 -0.1550291,0.334863 -0.1012858,0.138493 -0.2501138,0.212907 -0.1467609,0.07441 -0.334863,0.07441 -0.093018,0 -0.1736326,-0.0186 -0.080615,-0.01654 -0.1550292,-0.05581 -0.072347,-0.03927 -0.1446939,-0.09922 -0.07028,-0.05994 -0.1446939,-0.144693 v 0.200504 q 0,0.02274 -0.012402,0.03927 -0.010335,0.01447 -0.037207,0.02481 -0.024805,0.01033 -0.068213,0.01447 -0.043408,0.0041 -0.1054199,0.0041 -0.064079,0 -0.1074869,-0.0041 -0.041341,-0.0041 -0.068213,-0.01447 -0.024805,-0.01034 -0.03514,-0.02481 -0.010335,-0.01654 -0.010335,-0.03927 v -2.718178 q 0,-0.02067 0.012402,-0.03721 0.012402,-0.01654 0.041341,-0.02687 0.031006,-0.0124 0.080615,-0.0186 0.049609,-0.0062 0.1260904,-0.0062 0.076481,0 0.1260904,0.0062 0.049609,0.0062 0.078548,0.0186 0.031006,0.01033 0.043408,0.02687 0.012402,0.01654 0.012402,0.03721 v 1.019058 q 0.07028,-0.07028 0.1405598,-0.119889 0.07028,-0.04961 0.1405597,-0.08062 0.07028,-0.03307 0.1446939,-0.04754 0.074414,-0.01447 0.1570962,-0.01447 0.2046385,0 0.3472654,0.08268 0.1426268,0.08062 0.2315102,0.219108 0.09095,0.138493 0.1322916,0.324528 0.041341,0.183968 0.041341,0.388606 z m -0.5395015,0.03721 q 0,-0.117822 -0.018604,-0.227376 -0.016536,-0.109554 -0.059945,-0.194303 -0.043408,-0.08475 -0.1136881,-0.134358 -0.068213,-0.05168 -0.1736327,-0.05168 -0.051676,0 -0.1012857,0.01447 -0.049609,0.01447 -0.1033528,0.04961 -0.051676,0.03514 -0.1074869,0.09095 -0.05581,0.05581 -0.1178221,0.138493 v 0.611848 q 0.1095539,0.14056 0.2087726,0.214974 0.1012857,0.07235 0.2108397,0.07235 0.1012857,0 0.1715656,-0.05168 0.07028,-0.05168 0.1157551,-0.134359 0.047542,-0.08268 0.068213,-0.188102 0.020671,-0.10542 0.020671,-0.21084 z"
                    id="path14024"/>
            <path
                    d="m 9.6103081,51.66389 q 0,0.09508 -0.043408,0.140559 -0.041341,0.04548 -0.1157551,0.04548 H 8.3287337 q 0,0.117822 0.026872,0.214973 0.028939,0.09508 0.088883,0.163298 0.062012,0.06615 0.1570962,0.101286 0.097152,0.03514 0.2315102,0.03514 0.1364257,0 0.2397785,-0.0186 0.1033527,-0.02067 0.1777667,-0.04341 0.076481,-0.02481 0.1260904,-0.04341 0.049609,-0.02067 0.080615,-0.02067 0.018604,0 0.031006,0.0083 0.012402,0.0062 0.020671,0.02481 0.00827,0.0186 0.010335,0.05374 0.00413,0.03307 0.00413,0.08475 0,0.04547 -0.00207,0.07855 -0.00207,0.03101 -0.0062,0.05374 -0.00413,0.02274 -0.012402,0.03927 -0.00827,0.01447 -0.022738,0.02894 -0.012402,0.01447 -0.072347,0.03927 -0.059945,0.02481 -0.1529622,0.04961 -0.093018,0.02274 -0.2129067,0.03927 -0.1198892,0.0186 -0.2563149,0.0186 -0.2459796,0 -0.4320146,-0.06201 -0.1839679,-0.06201 -0.3079913,-0.188102 -0.1240233,-0.12609 -0.186035,-0.318326 -0.059945,-0.192236 -0.059945,-0.450618 0,-0.24598 0.064079,-0.44235 0.064079,-0.198438 0.186035,-0.334863 0.1219562,-0.138493 0.2955889,-0.21084 0.1756997,-0.07235 0.3948076,-0.07235 0.2315102,0 0.3948076,0.06821 0.1653645,0.06821 0.2707843,0.190169 0.1054198,0.119889 0.1550292,0.285254 0.049609,0.165364 0.049609,0.359667 z M 9.1059465,51.515062 q 0.0062,-0.219108 -0.088883,-0.343132 -0.093018,-0.12609 -0.2893878,-0.12609 -0.099219,0 -0.1736327,0.03721 -0.072347,0.03721 -0.1219563,0.101286 -0.047542,0.06201 -0.074414,0.148828 -0.024805,0.08475 -0.028939,0.181901 z"
                    id="path14026"/>
            <path
                    d="m 11.79932,52.63954 q 0,0.02067 -0.0124,0.03721 -0.0124,0.01447 -0.04134,0.02481 -0.02894,0.01033 -0.08061,0.01447 -0.04961,0.0062 -0.124023,0.0062 -0.07648,0 -0.128157,-0.0062 -0.04961,-0.0041 -0.07855,-0.01447 -0.02894,-0.01034 -0.04134,-0.02481 -0.0124,-0.01654 -0.0124,-0.03721 v -1.052131 q 0,-0.134359 -0.02067,-0.21084 -0.0186,-0.07648 -0.05581,-0.130225 -0.03721,-0.05581 -0.09715,-0.08475 -0.05788,-0.03101 -0.136425,-0.03101 -0.09922,0 -0.200505,0.07235 -0.101285,0.07235 -0.210839,0.21084 v 1.225764 q 0,0.02067 -0.0124,0.03721 -0.0124,0.01447 -0.04341,0.02481 -0.02894,0.01033 -0.07855,0.01447 -0.04961,0.0062 -0.12609,0.0062 -0.07648,0 -0.126091,-0.0062 -0.04961,-0.0041 -0.08061,-0.01447 -0.02894,-0.01034 -0.04134,-0.02481 -0.0124,-0.01654 -0.0124,-0.03721 v -1.843814 q 0,-0.02067 0.01034,-0.03514 0.01033,-0.01654 0.03721,-0.02687 0.02687,-0.01034 0.06821,-0.01447 0.04341,-0.0062 0.107487,-0.0062 0.06615,0 0.109554,0.0062 0.04341,0.0041 0.06615,0.01447 0.02481,0.01034 0.03514,0.02687 0.01034,0.01447 0.01034,0.03514 v 0.212907 q 0.152962,-0.165364 0.310058,-0.248047 0.159163,-0.08268 0.330729,-0.08268 0.188102,0 0.316259,0.06201 0.130225,0.06201 0.208773,0.169498 0.08061,0.10542 0.115755,0.248047 0.03514,0.142627 0.03514,0.343131 z"
                    id="path14028"/>
            <path
                    d="m 14.058612,52.63954 q 0,0.02274 -0.01033,0.03927 -0.01034,0.01447 -0.03514,0.02481 -0.02481,0.01033 -0.06821,0.01447 -0.04134,0.0041 -0.103353,0.0041 -0.06615,0 -0.107487,-0.0041 -0.04134,-0.0041 -0.06821,-0.01447 -0.0248,-0.01034 -0.03721,-0.02481 -0.01034,-0.01654 -0.01034,-0.03927 v -0.204639 q -0.142627,0.152963 -0.299723,0.237712 -0.155029,0.08475 -0.345198,0.08475 -0.21084,0 -0.357601,-0.08062 -0.144694,-0.08268 -0.237711,-0.221175 -0.09095,-0.138493 -0.132292,-0.322461 -0.04134,-0.186035 -0.04134,-0.390673 0,-0.24598 0.05168,-0.44235 0.05374,-0.19637 0.15503,-0.334863 0.101285,-0.138493 0.25218,-0.212907 0.150895,-0.07441 0.347266,-0.07441 0.155029,0 0.281119,0.06408 0.126091,0.06201 0.250114,0.183968 v -0.998388 q 0,-0.02067 0.01033,-0.03721 0.0124,-0.01654 0.04134,-0.02687 0.03101,-0.0124 0.08061,-0.0186 0.04961,-0.0062 0.126091,-0.0062 0.07648,0 0.12609,0.0062 0.04961,0.0062 0.07855,0.0186 0.02894,0.01034 0.04134,0.02687 0.0124,0.01654 0.0124,0.03721 z m -0.516764,-1.231965 q -0.111621,-0.14056 -0.214974,-0.214974 -0.101286,-0.07441 -0.212907,-0.07441 -0.101285,0 -0.175699,0.05168 -0.07235,0.04961 -0.117822,0.134359 -0.04341,0.08475 -0.06615,0.190169 -0.02067,0.103353 -0.02067,0.212907 0,0.115755 0.0186,0.225309 0.0186,0.109554 0.05994,0.19637 0.04341,0.08475 0.113688,0.136426 0.07028,0.05168 0.177767,0.05168 0.05374,0 0.103353,-0.01447 0.05168,-0.01654 0.103353,-0.05168 0.05374,-0.03514 0.109554,-0.09095 0.05581,-0.05788 0.121956,-0.14056 z"
                    id="path14030"/>
        </g>
        <g
                aria-label="mod"
                id="text13980"
                style="font-weight:bold;font-size:4.23333px;font-family:Calibri;-inkscape-font-specification:'Calibri Bold';text-align:center;text-anchor:middle;display:inline;fill:#ffffff;stroke:#000000;stroke-width:0.2;stroke-linecap:square;stroke-linejoin:bevel"
                inkscape:label="mod">
            <path
                    d="m 19.91955,52.63954 q 0,0.02067 -0.0124,0.03721 -0.0124,0.01447 -0.04134,0.02481 -0.02894,0.01033 -0.07855,0.01447 -0.04961,0.0062 -0.12609,0.0062 -0.07855,0 -0.128158,-0.0062 -0.04961,-0.0041 -0.08062,-0.01447 -0.02894,-0.01034 -0.04134,-0.02481 -0.01034,-0.01654 -0.01034,-0.03721 v -1.093472 q 0,-0.09302 -0.0186,-0.169499 -0.01654,-0.07648 -0.05374,-0.130225 -0.03514,-0.05581 -0.09095,-0.08475 -0.05374,-0.03101 -0.130224,-0.03101 -0.09302,0 -0.188102,0.07235 -0.09508,0.07235 -0.206706,0.21084 v 1.225764 q 0,0.02067 -0.0124,0.03721 -0.0124,0.01447 -0.04341,0.02481 -0.02894,0.01033 -0.07855,0.01447 -0.04961,0.0062 -0.124024,0.0062 -0.07648,0 -0.12609,-0.0062 -0.04961,-0.0041 -0.08061,-0.01447 -0.02894,-0.01034 -0.04134,-0.02481 -0.0124,-0.01654 -0.0124,-0.03721 v -1.093472 q 0,-0.09302 -0.0186,-0.169499 -0.01654,-0.07648 -0.05168,-0.130225 -0.03514,-0.05581 -0.09095,-0.08475 -0.05581,-0.03101 -0.130225,-0.03101 -0.09508,0 -0.190169,0.07235 -0.09508,0.07235 -0.204638,0.21084 v 1.225764 q 0,0.02067 -0.0124,0.03721 -0.0124,0.01447 -0.04341,0.02481 -0.02894,0.01033 -0.07855,0.01447 -0.04961,0.0062 -0.12609,0.0062 -0.07648,0 -0.126091,-0.0062 -0.04961,-0.0041 -0.08062,-0.01447 -0.02894,-0.01034 -0.04134,-0.02481 -0.0124,-0.01654 -0.0124,-0.03721 v -1.843814 q 0,-0.02067 0.01033,-0.03514 0.01034,-0.01654 0.03721,-0.02687 0.02687,-0.01034 0.06821,-0.01447 0.04341,-0.0062 0.107487,-0.0062 0.06615,0 0.109554,0.0062 0.04341,0.0041 0.06614,0.01447 0.02481,0.01034 0.03514,0.02687 0.01034,0.01447 0.01034,0.03514 v 0.212907 q 0.152962,-0.165364 0.303857,-0.248047 0.152962,-0.08268 0.318326,-0.08268 0.113688,0 0.204639,0.02481 0.09095,0.02274 0.16123,0.06821 0.07235,0.04341 0.124024,0.10542 0.05168,0.06201 0.08682,0.138492 0.08268,-0.08888 0.16123,-0.152962 0.08062,-0.06408 0.157096,-0.103353 0.07855,-0.04134 0.15503,-0.05994 0.07855,-0.02067 0.159163,-0.02067 0.183968,0 0.310058,0.06201 0.126091,0.06201 0.202572,0.169498 0.07855,0.10542 0.111621,0.248047 0.03307,0.142627 0.03307,0.30179 z"
                    id="path14033"/>
            <path
                    d="m 22.294596,51.69903 q 0,0.235644 -0.06201,0.429947 -0.06201,0.194303 -0.188102,0.334863 -0.126091,0.14056 -0.31626,0.217041 -0.190169,0.07648 -0.444417,0.07648 -0.245979,0 -0.42788,-0.06821 -0.181901,-0.06821 -0.30179,-0.198437 -0.11989,-0.130225 -0.177767,-0.320394 -0.05788,-0.190169 -0.05788,-0.434081 0,-0.235645 0.06201,-0.429948 0.06408,-0.19637 0.190169,-0.334863 0.126091,-0.14056 0.314193,-0.217041 0.190169,-0.07648 0.444417,-0.07648 0.248046,0 0.429947,0.06821 0.181901,0.06615 0.299723,0.19637 0.119889,0.130225 0.177767,0.320394 0.05788,0.190169 0.05788,0.436149 z m -0.535367,0.02067 q 0,-0.136425 -0.02274,-0.250114 -0.02067,-0.115755 -0.07235,-0.200504 -0.05168,-0.08475 -0.138493,-0.132291 -0.08475,-0.04754 -0.214974,-0.04754 -0.115755,0 -0.202571,0.04341 -0.08682,0.04134 -0.142627,0.124024 -0.05581,0.08061 -0.08475,0.19637 -0.02687,0.113688 -0.02687,0.260449 0,0.136426 0.02274,0.252181 0.02274,0.113688 0.07235,0.198437 0.05168,0.08475 0.138493,0.132292 0.08682,0.04548 0.214974,0.04548 0.117822,0 0.204638,-0.04134 0.08682,-0.04341 0.142627,-0.124024 0.05581,-0.08062 0.08268,-0.194303 0.02687,-0.115755 0.02687,-0.262516 z"
                    id="path14035"/>
            <path
                    d="m 24.454669,52.63954 q 0,0.02274 -0.01033,0.03927 -0.01034,0.01447 -0.03514,0.02481 -0.02481,0.01033 -0.06821,0.01447 -0.04134,0.0041 -0.103353,0.0041 -0.06615,0 -0.107486,-0.0041 -0.04134,-0.0041 -0.06821,-0.01447 -0.02481,-0.01034 -0.03721,-0.02481 -0.01034,-0.01654 -0.01034,-0.03927 v -0.204639 q -0.142626,0.152963 -0.299723,0.237712 -0.155029,0.08475 -0.345198,0.08475 -0.21084,0 -0.357601,-0.08062 -0.144693,-0.08268 -0.237711,-0.221175 -0.09095,-0.138493 -0.132291,-0.322461 -0.04134,-0.186035 -0.04134,-0.390673 0,-0.24598 0.05168,-0.44235 0.05374,-0.19637 0.155029,-0.334863 0.101286,-0.138493 0.252181,-0.212907 0.150895,-0.07441 0.347265,-0.07441 0.155029,0 0.28112,0.06408 0.12609,0.06201 0.250113,0.183968 v -0.998388 q 0,-0.02067 0.01034,-0.03721 0.0124,-0.01654 0.04134,-0.02687 0.03101,-0.0124 0.08062,-0.0186 0.04961,-0.0062 0.12609,-0.0062 0.07648,0 0.126091,0.0062 0.04961,0.0062 0.07855,0.0186 0.02894,0.01034 0.04134,0.02687 0.0124,0.01654 0.0124,0.03721 z m -0.516764,-1.231965 q -0.111621,-0.14056 -0.214973,-0.214974 -0.101286,-0.07441 -0.212907,-0.07441 -0.101286,0 -0.1757,0.05168 -0.07235,0.04961 -0.117822,0.134359 -0.04341,0.08475 -0.06615,0.190169 -0.02067,0.103353 -0.02067,0.212907 0,0.115755 0.0186,0.225309 0.0186,0.109554 0.05994,0.19637 0.04341,0.08475 0.113688,0.136426 0.07028,0.05168 0.177767,0.05168 0.05374,0 0.103352,-0.01447 0.05168,-0.01654 0.103353,-0.05168 0.05374,-0.03514 0.109554,-0.09095 0.05581,-0.05788 0.121956,-0.14056 z"
                    id="path14037"/>
        </g>
        <g
                aria-label="gate"
                id="text13984"
                style="font-weight:bold;font-size:4.23333px;font-family:Calibri;-inkscape-font-specification:'Calibri Bold';text-align:center;text-anchor:middle;display:inline;fill:#ffffff;stroke:#000000;stroke-width:0.2;stroke-linecap:square;stroke-linejoin:bevel"
                inkscape:label="gate">
            <path
                    d="m 13.451997,16.411591 q 0,0.09922 -0.02274,0.146761 -0.02274,0.04754 -0.05581,0.04754 h -0.217041 q 0.04547,0.04961 0.06408,0.113688 0.02067,0.06201 0.02067,0.130225 0,0.16123 -0.05374,0.28732 -0.05374,0.124024 -0.155029,0.21084 -0.09922,0.08475 -0.241846,0.130225 -0.140559,0.04341 -0.314192,0.04341 -0.08888,0 -0.169499,-0.02067 -0.08061,-0.02274 -0.124023,-0.05168 -0.0248,0.02687 -0.04547,0.06408 -0.0186,0.03721 -0.0186,0.08268 0,0.05994 0.05168,0.09922 0.05374,0.03721 0.148828,0.04134 l 0.448551,0.01654 q 0.157096,0.0062 0.279052,0.04547 0.124024,0.03721 0.206706,0.107487 0.08475,0.06821 0.128157,0.165365 0.04547,0.09715 0.04547,0.221174 0,0.136426 -0.05994,0.256315 -0.05995,0.121957 -0.179834,0.21084 -0.119889,0.08888 -0.30179,0.14056 -0.179834,0.05168 -0.421679,0.05168 -0.235645,0 -0.403076,-0.03721 -0.165365,-0.03721 -0.272852,-0.103353 -0.105419,-0.06614 -0.155029,-0.159163 -0.04754,-0.09095 -0.04754,-0.200504 0,-0.06821 0.01654,-0.130225 0.0186,-0.06201 0.05168,-0.119889 0.03514,-0.05581 0.08475,-0.107487 0.04961,-0.05168 0.113688,-0.09922 -0.08888,-0.04754 -0.138493,-0.128157 -0.04754,-0.08268 -0.04754,-0.179834 0,-0.121956 0.05581,-0.221175 0.05581,-0.101285 0.144694,-0.181901 -0.07235,-0.07235 -0.115756,-0.173632 -0.04341,-0.101286 -0.04341,-0.252181 0,-0.16123 0.05581,-0.287321 0.05788,-0.128157 0.159163,-0.214974 0.101286,-0.08888 0.241846,-0.134358 0.140559,-0.04754 0.310058,-0.04754 0.08682,0 0.165364,0.01033 0.08061,0.01034 0.148828,0.02894 h 0.584977 q 0.03514,0 0.05581,0.04547 0.02274,0.04547 0.02274,0.152962 z m -0.667659,0.436149 q 0,-0.148828 -0.08268,-0.231511 -0.08268,-0.08268 -0.233577,-0.08268 -0.07648,0 -0.134359,0.02687 -0.05788,0.02481 -0.09715,0.07028 -0.03721,0.04341 -0.05581,0.103353 -0.0186,0.05788 -0.0186,0.121956 0,0.14056 0.08268,0.223242 0.08268,0.08062 0.229443,0.08062 0.07855,0 0.136426,-0.02481 0.05788,-0.0248 0.09508,-0.06821 0.03927,-0.04341 0.05788,-0.09922 0.02067,-0.05788 0.02067,-0.119889 z m 0.121956,1.471743 q 0,-0.09302 -0.07441,-0.142627 -0.07441,-0.04961 -0.204638,-0.05374 l -0.370003,-0.01034 q -0.05374,0.03927 -0.08682,0.07648 -0.03101,0.03514 -0.05168,0.06821 -0.0186,0.03307 -0.0248,0.06408 -0.0062,0.03101 -0.0062,0.06408 0,0.103353 0.103353,0.157096 0.10542,0.05374 0.295589,0.05374 0.117822,0 0.198438,-0.02481 0.08061,-0.02274 0.130224,-0.06201 0.04961,-0.03927 0.07028,-0.08888 0.02067,-0.04754 0.02067,-0.101286 z"
                    id="path14040"/>
            <path
                    d="m 15.295811,18.133448 q 0,0.02894 -0.02067,0.04547 -0.02067,0.01654 -0.06615,0.02274 -0.04341,0.0083 -0.130224,0.0083 -0.09302,0 -0.136426,-0.0083 -0.04134,-0.0062 -0.05994,-0.02274 -0.01654,-0.01654 -0.01654,-0.04547 v -0.146761 q -0.113688,0.121957 -0.260449,0.190169 -0.144694,0.06821 -0.32246,0.06821 -0.146761,0 -0.270785,-0.03927 -0.121956,-0.03721 -0.212906,-0.111621 -0.08888,-0.07648 -0.138493,-0.188102 -0.04961,-0.111621 -0.04961,-0.260449 0,-0.16123 0.06201,-0.279052 0.06408,-0.11989 0.188102,-0.196371 0.126091,-0.07855 0.312126,-0.115755 0.186035,-0.03721 0.432014,-0.03721 h 0.179834 v -0.111621 q 0,-0.08682 -0.0186,-0.150895 -0.01654,-0.06615 -0.05788,-0.109554 -0.03927,-0.04341 -0.107487,-0.06408 -0.06615,-0.02067 -0.165364,-0.02067 -0.130225,0 -0.233578,0.02894 -0.101285,0.02894 -0.179833,0.06408 -0.07855,0.03514 -0.132292,0.06408 -0.05168,0.02894 -0.08475,0.02894 -0.02274,0 -0.04134,-0.01447 -0.01654,-0.01447 -0.02894,-0.04134 -0.01033,-0.02687 -0.01654,-0.06615 -0.0062,-0.03927 -0.0062,-0.08682 0,-0.06408 0.01033,-0.101285 0.01034,-0.03721 0.03927,-0.06615 0.02894,-0.03101 0.101285,-0.06615 0.07235,-0.03721 0.169499,-0.06821 0.09715,-0.03101 0.210839,-0.04961 0.115756,-0.02067 0.237712,-0.02067 0.217041,0 0.370003,0.04341 0.155029,0.04134 0.254248,0.130225 0.09922,0.08682 0.144694,0.225309 0.04547,0.138493 0.04547,0.328662 z m -0.510563,-0.789615 h -0.198437 q -0.126091,0 -0.214974,0.0186 -0.08888,0.0186 -0.144694,0.05581 -0.05581,0.03721 -0.08268,0.09095 -0.0248,0.05168 -0.0248,0.11989 0,0.115755 0.07235,0.181901 0.07441,0.06615 0.204639,0.06615 0.109554,0 0.200504,-0.05581 0.09302,-0.05581 0.188102,-0.163298 z"
                    id="path14042"/>
            <path
                    d="m 16.866773,17.945346 q 0,0.09095 -0.0124,0.14056 -0.01033,0.04754 -0.02894,0.06821 -0.0186,0.0186 -0.05581,0.03514 -0.03514,0.01447 -0.08475,0.0248 -0.04754,0.0124 -0.10542,0.0186 -0.05581,0.0062 -0.113688,0.0062 -0.155029,0 -0.268717,-0.03927 -0.113688,-0.03927 -0.188102,-0.119889 -0.07441,-0.08268 -0.109554,-0.206706 -0.03514,-0.124023 -0.03514,-0.293522 v -0.944644 h -0.221175 q -0.03927,0 -0.05995,-0.04754 -0.02067,-0.04961 -0.02067,-0.163298 0,-0.05994 0.0041,-0.101285 0.0062,-0.04134 0.01654,-0.06408 0.01033,-0.02481 0.02481,-0.03514 0.01654,-0.01034 0.03721,-0.01034 h 0.219108 V 15.80181 q 0,-0.02067 0.01034,-0.03721 0.0124,-0.01654 0.04134,-0.02687 0.03101,-0.0124 0.08061,-0.01654 0.05168,-0.0062 0.126091,-0.0062 0.07648,0 0.12609,0.0062 0.05168,0.0041 0.08062,0.01654 0.02894,0.01033 0.04134,0.02687 0.0124,0.01654 0.0124,0.03721 v 0.411344 h 0.401008 q 0.02067,0 0.03514,0.01034 0.01654,0.01033 0.02687,0.03514 0.01034,0.02274 0.01447,0.06408 0.0062,0.04134 0.0062,0.101285 0,0.113688 -0.02067,0.163298 -0.02067,0.04754 -0.05994,0.04754 h -0.403076 v 0.866096 q 0,0.150895 0.04754,0.227376 0.04754,0.07441 0.169499,0.07441 0.04134,0 0.07441,-0.0062 0.03307,-0.0083 0.05788,-0.01654 0.02687,-0.01034 0.04341,-0.01654 0.0186,-0.0083 0.03307,-0.0083 0.0124,0 0.02274,0.0083 0.0124,0.0062 0.0186,0.02894 0.0062,0.02067 0.01034,0.05788 0.0062,0.03721 0.0062,0.09508 z"
                    id="path14044"/>
            <path
                    d="m 18.894554,17.151597 q 0,0.09508 -0.04341,0.14056 -0.04134,0.04547 -0.115755,0.04547 H 17.61298 q 0,0.117822 0.02687,0.214974 0.02894,0.09508 0.08888,0.163297 0.06201,0.06615 0.157096,0.101286 0.09715,0.03514 0.23151,0.03514 0.136426,0 0.239779,-0.0186 0.103353,-0.02067 0.177767,-0.04341 0.07648,-0.02481 0.12609,-0.04341 0.04961,-0.02067 0.08062,-0.02067 0.0186,0 0.03101,0.0083 0.0124,0.0062 0.02067,0.02481 0.0083,0.0186 0.01034,0.05374 0.0041,0.03307 0.0041,0.08475 0,0.04547 -0.0021,0.07855 -0.0021,0.03101 -0.0062,0.05374 -0.0041,0.02274 -0.0124,0.03927 -0.0083,0.01447 -0.02274,0.02894 -0.0124,0.01447 -0.07235,0.03927 -0.05994,0.02481 -0.152962,0.04961 -0.09302,0.02274 -0.212907,0.03927 -0.119889,0.0186 -0.256315,0.0186 -0.245979,0 -0.432014,-0.06201 -0.183968,-0.06201 -0.307992,-0.188103 -0.124023,-0.12609 -0.186035,-0.318326 -0.05994,-0.192236 -0.05994,-0.450618 0,-0.24598 0.06408,-0.44235 0.06408,-0.198437 0.186035,-0.334863 0.121957,-0.138493 0.295589,-0.21084 0.1757,-0.07235 0.394808,-0.07235 0.23151,0 0.394808,0.06821 0.165364,0.06821 0.270784,0.190169 0.10542,0.119889 0.155029,0.285254 0.04961,0.165364 0.04961,0.359668 z m -0.504361,-0.148828 q 0.0062,-0.219108 -0.08888,-0.343131 -0.09302,-0.126091 -0.289387,-0.126091 -0.09922,0 -0.173633,0.03721 -0.07235,0.03721 -0.121956,0.101286 -0.04754,0.06201 -0.07441,0.148828 -0.02481,0.08475 -0.02894,0.181901 z"
                    id="path14046"/>
        </g>
    </g>
    <g
            id="components">
        <circle
                style="fill:#0000ff"
                id="Touch"
                cx="9.8032265"
                cy="41.619011"
                r="1.8404053"
                inkscape:label="Touch"/>
        <circle
                style="fill:#0000ff"
                id="Velocity"
                cx="20.676773"
                cy="41.619011"
                r="1.8404053"
                inkscape:label="Velocity"/>
        <circle
                style="fill:#0000ff"
                id="Gate-2"
                cx="15.189499"
                cy="24.456665"
                r="1.8404053"
                inkscape:label="Gate"/>
        <circle
                style="fill:#0000ff"
                id="Knob1"
                cx="9.8465652"
                cy="78.694405"
                inkscape:label="Knob1"
                r="1.8404053"/>
        <circle
                style="fill:#0000ff"
                id="Knob2"
                cx="20.720112"
                cy="78.694405"
                inkscape:label="Knob2"
                r="1.8404053"/>
        <circle
                style="fill:#0000ff"
                id="Knob3"
                cx="9.7598877"
                cy="91.275742"
                r="1.8404053"
                inkscape:label="Knob3"/>
        <circle
                style="fill:#0000ff"
                id="Knob4"
                cx="20.633434"
                cy="91.275742"
                r="1.8404053"
                inkscape:label="Knob4"/>
        <circle
                style="fill:#0000ff"
                id="Knob5"
                cx="9.7598877"
                cy="103.85707"
                r="1.8404053"
                inkscape:label="Knob5"/>
        <circle
                style="fill:#0000ff"
                id="Knob6"
                cx="20.633434"
                cy="103.85707"
                r="1.8404053"
                inkscape:label="Knob6"/>
        <circle
                style="fill:#0000ff"
                id="Knob7"
                cx="9.7598877"
                cy="116.43841"
                r="1.8404053"
                inkscape:label="Knob7"/>
        <circle
                style="fill:#0000ff"
                id="Knob8"
                cx="20.633434"
                cy="116.43886"
                r="1.8404053"
                inkscape:label="Knobs8"/>
        <circle
                style="fill:#0000ff"
                id="Bend"
                cx="9.8465652"
                cy="58.733711"
                r="1.8404053"
                inkscape:label="Bend"/>
        <circle
                style="fill:#0000ff"
                id="Mod"
                cx="20.720112"
                cy="58.733711"
                r="1.8404053"
                inkscape:label="Mod"/>
    </g>
</svg>
