<?xml version="1.0" encoding="UTF-8" standalone="no"?>
<svg
        xmlns:inkscape="http://www.inkscape.org/namespaces/inkscape"
        xmlns:sodipodi="http://sodipodi.sourceforge.net/DTD/sodipodi-0.dtd"
        xmlns:rdf="http://www.w3.org/1999/02/22-rdf-syntax-ns#"
        xmlns:cc="http://creativecommons.org/ns#"
        xmlns:dc="http://purl.org/dc/elements/1.1/"
        width="30.48mm"
        height="128.5mm"
        viewBox="0 0 30.48 128.5"
        version="1.1"
        id="svg77"
        sodipodi:docname="Gr8Pad.svg"
        inkscape:version="1.2.2 (732a01da63, 2022-12-09)"
        xmlns="http://www.w3.org/2000/svg">
    <metadata
            id="metadata81">
        <rdf:RDF>
            <cc:Work
                    rdf:about="">
                <dc:format>image/svg+xml</dc:format>
                <dc:type
                        rdf:resource="http://purl.org/dc/dcmitype/StillImage"/>
            </cc:Work>
        </rdf:RDF>
    </metadata>
    <sodipodi:namedview
            pagecolor="#ffffff"
            bordercolor="#666666"
            borderopacity="1"
            objecttolerance="10"
            gridtolerance="10"
            guidetolerance="10"
            inkscape:pageopacity="0"
            inkscape:pageshadow="2"
            inkscape:window-width="2560"
            inkscape:window-height="1369"
            id="namedview79"
            showgrid="false"
            inkscape:zoom="1.7566021"
            inkscape:cx="20.209471"
            inkscape:cy="207.78752"
            inkscape:window-x="-8"
            inkscape:window-y="-8"
            inkscape:window-maximized="1"
            inkscape:current-layer="components"
            inkscape:showpageshadow="2"
            inkscape:pagecheckerboard="0"
            inkscape:deskcolor="#d1d1d1"
            inkscape:document-units="mm"/>
    <defs
            id="defs7">
        <inkscape:path-effect
                effect="bspline"
                id="path-effect9545"
                is_visible="true"
                lpeversion="1"
                weight="33.333333"
                steps="2"
                helper_size="0"
                apply_no_weight="true"
                apply_with_weight="true"
                only_selected="false"/>
        <rect
                x="2.8464044"
                y="2.8464044"
                width="109.30193"
                height="44.97319"
                id="rect3655"/>
        <inkscape:path-effect
                effect="bspline"
                id="path-effect4941"
                is_visible="true"
                lpeversion="1"
                weight="33.333333"
                steps="2"
                helper_size="0"
                apply_no_weight="true"
                apply_with_weight="true"
                only_selected="false"/>
        <rect
                x="10.531696"
                y="12.239539"
                width="117.84114"
                height="29.602606"
                id="rect2547"/>
        <rect
                x="1.4088984"
                y="349.40677"
                width="41.461864"
                height="15.497881"
                id="rect2283"/>
        <linearGradient
                id="ac8d1727-7c79-4228-b8d5-555b51dac3b3"
                x1="22.5"
                x2="22.5"
                y2="380"
                gradientUnits="userSpaceOnUse"
                gradientTransform="scale(0.22577777,0.33815791)">
            <stop
                    offset="0"
                    stop-color="#ebebeb"
                    id="stop2"/>
            <stop
                    offset="1"
                    stop-color="#e1e1e1"
                    id="stop4"/>
        </linearGradient>
        <inkscape:path-effect
                effect="bspline"
                id="path-effect4941-8"
                is_visible="true"
                lpeversion="1"
                weight="33.333333"
                steps="2"
                helper_size="0"
                apply_no_weight="true"
                apply_with_weight="true"
                only_selected="false"/>
        <rect
                x="1.4088984"
                y="349.40677"
                width="41.461864"
                height="15.497881"
                id="rect5439"/>
        <rect
                x="10.531696"
                y="12.239539"
                width="117.84114"
                height="29.602606"
                id="rect5441"/>
        <rect
                x="2.8464044"
                y="2.8464044"
                width="109.30193"
                height="44.97319"
                id="rect6571"/>
        <inkscape:path-effect
                effect="bspline"
                id="path-effect9545-6"
                is_visible="true"
                lpeversion="1"
                weight="33.333333"
                steps="2"
                helper_size="0"
                apply_no_weight="true"
                apply_with_weight="true"
                only_selected="false"/>
        <rect
                x="2.8464044"
                y="2.8464044"
                width="109.30193"
                height="44.97319"
                id="rect11399"/>
    </defs>
    <g
            id="e971151b-56b5-4702-8bc4-71e0018dd9aa"
            data-name="FND BG"
            transform="scale(3,1)"
            inkscape:label="design">
        <rect
                width="10.16"
                height="128.5"
                fill="url(#ac8d1727-7c79-4228-b8d5-555b51dac3b3)"
                id="rect9"
                x="0"
                y="0"
                style="fill:url(#ac8d1727-7c79-4228-b8d5-555b51dac3b3);stroke-width:0.276315"
                inkscape:label="background"/>
        <rect
                style="fill:#dbdbdb;fill-opacity:1;stroke:#000000;stroke-width:0;stroke-dasharray:none"
                id="rect4010"
                width="17.773424"
                height="17.773424"
                x="23.403807"
                y="1.851193"
                rx="0.75000113"
                transform="matrix(0.23570226,0.70710679,-0.23570226,0.70710679,0,0)"
                inkscape:label="diamond"/>
        <g
                id="g6487"
                transform="scale(0.33333334,1)"
                inkscape:label="wires">
            <path
                    style="fill:none;fill-opacity:1;stroke:#d7d7d7;stroke-width:0.5;stroke-dasharray:none;stroke-opacity:1"
                    d="M 5.1211559,30.425691 V 112.36419"
                    id="path5682"/>
            <path
                    style="fill:none;fill-opacity:1;stroke:#d7d7d7;stroke-width:0.5;stroke-dasharray:none;stroke-opacity:1"
                    d="M 25.15452,30.275067 V 112.21357"
                    id="path5682-0"/>
            <path
                    style="fill:none;fill-opacity:1;stroke:#d7d7d7;stroke-width:0.465738;stroke-dasharray:none;stroke-opacity:1"
                    d="M 15.171326,40.818624 V 111.91232"
                    id="path5682-8"/>
            <path
                    style="fill:none;fill-opacity:1;stroke:#b9b9b9;stroke-width:0.499999;stroke-dasharray:none;stroke-opacity:1"
                    d="M 15.212846,20.484624 V 40.668003"
                    id="path7647"/>
            <path
                    style="fill:none;fill-opacity:1;stroke:#b9b9b9;stroke-width:0.499999;stroke-dasharray:none;stroke-opacity:1"
                    d="m 15.212846,20.183379 c 0,4.970798 0,9.941333 -1.681823,11.648311 -1.681823,1.706977 -5.0456516,0.150578 -8.4098671,-1.405999"
                    id="path9543"
                    inkscape:path-effect="#path-effect9545"
                    inkscape:original-d="m 15.212846,20.183379 c 2.64e-4,4.970798 2.64e-4,9.941333 0,14.911602 -3.3637,-1.556197 -6.727529,-3.112595 -10.0916901,-4.66929"/>
            <path
                    style="fill:none;fill-opacity:1;stroke:#b9b9b9;stroke-width:0.499999;stroke-dasharray:none;stroke-opacity:1"
                    d="m 15.165999,20.183 c 0,4.970798 0,9.941333 1.681823,11.648311 1.681823,1.706977 5.045652,0.150579 8.409868,-1.405999"
                    id="path9543-0"
                    inkscape:path-effect="#path-effect9545-6"
                    inkscape:original-d="m 15.165999,20.183 c -2.64e-4,4.970798 -2.64e-4,9.941333 0,14.911602 3.3637,-1.556197 6.727529,-3.112595 10.091691,-4.66929"/>
        </g>
        <rect
                x="6.9736667"
                y="59.944"
                width="3"
                height="57.27261"
                rx="0.29784545"
                fill="#1f1f1f"
                id="rect24"
                style="stroke-width:0.139777"
                inkscape:label="bend-box"/>
        <rect
                x="0.237"
                y="59.944"
                width="3"
                height="57.27261"
                rx="0.29784545"
                fill="#1f1f1f"
                id="rect24-8"
                style="stroke-width:0.139777"
                inkscape:label="velocity-box"/>
        <rect
                x="3.5799999"
                y="59.944"
                width="3"
                height="57.27261"
                rx="0.29784545"
                fill="#1f1f1f"
                id="rect24-8-4"
                style="stroke-width:0.139777"
                inkscape:label="touch-box"/>
    </g>
    <g
            id="g6569"
            inkscape:label="text-editable"
            style="display:none">
        <text
                xml:space="preserve"
                transform="matrix(0.26458333,0,0,0.26458333,0.03033403,4.6002961)"
                id="text6551"
                style="font-weight:bold;font-size:24px;font-family:Calibri;-inkscape-font-specification:'Calibri Bold';text-align:center;white-space:pre;shape-inside:url(#rect6571);display:inline;fill:#000000;fill-opacity:1;stroke:#000000;stroke-width:0;stroke-dasharray:none"
                inkscape:label="title"><tspan
         x="13.891602"
         y="23.845703"
         id="tspan3598">GR8 PAD</tspan></text>
        <text
                xml:space="preserve"
                style="font-weight:bold;font-size:3.52778px;font-family:Calibri;-inkscape-font-specification:'Calibri Bold';text-align:center;text-anchor:middle;fill:#000000;fill-opacity:1;stroke:#000000;stroke-width:0;stroke-dasharray:none"
                x="15.286509"
                y="15.812782"
                id="text6555"
                inkscape:label="gate"><tspan
         sodipodi:role="line"
         id="tspan6553"
         style="font-size:3.52778px;stroke-width:0"
         x="15.286509"
         y="15.812782">gate</tspan></text>
        <text
                xml:space="preserve"
                style="font-weight:bold;font-size:3.52778px;font-family:Calibri;-inkscape-font-specification:'Calibri Bold';text-align:center;text-anchor:middle;fill:#000000;fill-opacity:1;stroke:#000000;stroke-width:0;stroke-dasharray:none"
                x="4.8664203"
                y="38.135796"
                id="text6559"
                inkscape:label="velocity"><tspan
         sodipodi:role="line"
         id="tspan6557"
         style="font-size:3.52778px;stroke-width:0"
         x="4.8664203"
         y="38.135796">vel</tspan></text>
        <text
                xml:space="preserve"
                style="font-weight:bold;font-size:3.52778px;font-family:Calibri;-inkscape-font-specification:'Calibri Bold';text-align:center;text-anchor:middle;fill:#000000;fill-opacity:1;stroke:#000000;stroke-width:0;stroke-dasharray:none"
                x="24.899178"
                y="38.135796"
                id="text6563"
                inkscape:label="bend"><tspan
         sodipodi:role="line"
         id="tspan6561"
         style="font-size:3.52778px;stroke-width:0"
         x="24.899178"
         y="38.135796">bend</tspan></text>
        <text
                xml:space="preserve"
                style="font-weight:bold;font-size:3.52778px;font-family:Calibri;-inkscape-font-specification:'Calibri Bold';text-align:center;text-anchor:middle;fill:#000000;fill-opacity:1;stroke:#000000;stroke-width:0;stroke-dasharray:none"
                x="15.255731"
                y="48.235794"
                id="text6567"
                inkscape:label="touch"><tspan
         sodipodi:role="line"
         id="tspan6565"
         style="font-size:3.52778px;stroke-width:0"
         x="15.255731"
         y="48.235794">touch</tspan></text>
        <text
                xml:space="preserve"
                style="font-style:normal;font-variant:normal;font-weight:300;font-stretch:normal;font-size:2.82222px;font-family:Calibri;-inkscape-font-specification:'Calibri Light';text-align:center;text-anchor:middle;fill:#000000;fill-opacity:1;stroke:#ff00ff;stroke-width:0;stroke-dasharray:none;stroke-opacity:1"
                x="15.156629"
                y="123.15298"
                id="text10243"
                inkscape:label="brand"><tspan
         sodipodi:role="line"
         id="tspan10241"
         style="font-style:normal;font-variant:normal;font-weight:300;font-stretch:normal;font-size:2.82222px;font-family:Calibri;-inkscape-font-specification:'Calibri Light';fill:#000000;fill-opacity:1;stroke-width:0;stroke-dasharray:none"
         x="15.156629"
         y="123.15298">ldlework</tspan></text>
    </g>
    <g
            id="components">
        <circle
                style="fill:#00ff00"
                id="Gate"
                cx="15.24"
                cy="20.450001"
                r="1"/>
        <circle
                style="fill:#ff0000"
                id="Speed"
                cx="15.24"
                cy="30.42569"
                r="1"/>
        <circle
                style="fill:#00ff00"
                id="Touch"
                cx="15.24"
                cy="40.664001"
                r="1"/>
        <circle
                style="fill:#00ff00"
                id="Bend"
                cx="25.15452"
                cy="30.42569"
                r="1"/>
        <circle
                style="fill:#00ff00"
                id="Velocity"
                cx="5.1881323"
                cy="30.42569"
                r="1"/>
        <circle
                style="fill:#0000ff;fill-opacity:1"
                id="Velocity-2"
                cx="5.211"
                cy="65.910995"
                r="1"
                inkscape:label="Velocity1"/>
        <circle
                style="fill:#0000ff;fill-opacity:1"
                id="Velocity-2-2"
                cx="5.211"
                cy="76.869972"
                r="1"
                inkscape:label="Velocity2"/>
        <circle
                style="fill:#0000ff;fill-opacity:1"
                id="Velocity-2-2-2"
                cx="5.211"
                cy="87.828949"
                r="1"
                inkscape:label="Velocity3"/>
        <circle
                style="fill:#0000ff;fill-opacity:1"
                id="Velocity-2-2-2-5"
                cx="5.211"
                cy="98.787926"
                r="1"
                inkscape:label="Velocity4"/>
        <circle
                style="fill:#0000ff;fill-opacity:1"
                id="Velocity-2-2-2-5-6"
                cx="5.211"
                cy="109.74687"
                r="1"
                inkscape:label="Velocity5"/>
        <circle
                style="fill:#0000ff;fill-opacity:1"
                id="Velocity-2-4"
                cx="15.24"
                cy="65.910995"
                r="1"
                inkscape:label="Touch1"/>
        <circle
                style="fill:#0000ff;fill-opacity:1"
                id="Velocity-2-2-5"
                cx="15.24"
                cy="76.869972"
                r="1"
                inkscape:label="Touch2"/>
        <circle
                style="fill:#0000ff;fill-opacity:1"
                id="Velocity-2-2-2-0"
                cx="15.24"
                cy="87.828949"
                r="1"
                inkscape:label="Touch3"/>
        <circle
                style="fill:#0000ff;fill-opacity:1"
                id="Velocity-2-2-2-5-1"
                cx="15.24"
                cy="98.787926"
                r="1"
                inkscape:label="Touch4"/>
        <circle
                style="fill:#0000ff;fill-opacity:1"
                id="Velocity-2-2-2-5-6-1"
                cx="15.24"
                cy="109.74687"
                r="1"
                inkscape:label="Touch5"/>
        <circle
                style="fill:#0000ff;fill-opacity:1"
                id="Velocity-2-4-8"
                cx="25.421"
                cy="65.910995"
                r="1"
                inkscape:label="Bend1"/>
        <circle
                style="fill:#0000ff;fill-opacity:1"
                id="Velocity-2-2-5-3"
                cx="25.421"
                cy="76.869972"
                r="1"
                inkscape:label="Bend2"/>
        <circle
                style="fill:#0000ff;fill-opacity:1"
                id="Velocity-2-2-2-0-4"
                cx="25.421"
                cy="87.828949"
                r="1"
                inkscape:label="Bend3"/>
        <circle
                style="fill:#0000ff;fill-opacity:1"
                id="Velocity-2-2-2-5-1-6"
                cx="25.421"
                cy="98.787926"
                r="1"
                inkscape:label="Bend4"/>
        <circle
                style="fill:#0000ff;fill-opacity:1"
                id="Velocity-2-2-2-5-6-1-7"
                cx="25.421"
                cy="109.74687"
                r="1"
                inkscape:label="Bend5"/>
    </g>
    <g
            id="g11397"
            inkscape:label="text-editable"
            style="display:inline">
        <g
                aria-label="GR8 PAD"
                transform="matrix(0.26458333,0,0,0.26458333,0.03033403,4.6002961)"
                id="text11375"
                style="font-weight:bold;font-size:24px;font-family:Calibri;-inkscape-font-specification:'Calibri Bold';text-align:center;text-anchor:middle;white-space:pre;shape-inside:url(#rect11399);display:inline;stroke:#000000;stroke-width:0"
                inkscape:label="title">
            <path
                    d="m 27.708008,11.037109 q 0,0.339844 -0.03516,0.585938 -0.02344,0.246094 -0.08203,0.398437 -0.04687,0.140625 -0.128906,0.199219 -0.07031,0.05859 -0.175781,0.05859 -0.152344,0 -0.492188,-0.210938 -0.339843,-0.210937 -0.902343,-0.457031 -0.5625,-0.246094 -1.347657,-0.457031 -0.773437,-0.210938 -1.804687,-0.210938 -1.101563,0 -1.992188,0.386719 -0.890625,0.375 -1.523437,1.078125 -0.632813,0.691406 -0.972656,1.675781 -0.339844,0.972657 -0.339844,2.15625 0,1.300782 0.339844,2.296875 0.351562,0.984375 0.972656,1.652344 0.621094,0.667969 1.488281,1.007813 0.878906,0.339843 1.933594,0.339843 0.515625,0 1.019531,-0.117187 0.503906,-0.117188 0.9375,-0.351563 v -3.515625 h -2.871094 q -0.210937,0 -0.328125,-0.257812 -0.117187,-0.269531 -0.117187,-0.902344 0,-0.328125 0.02344,-0.550781 0.03516,-0.222656 0.09375,-0.351563 0.05859,-0.140625 0.140625,-0.199218 0.08203,-0.07031 0.1875,-0.07031 h 5.121094 q 0.1875,0 0.328125,0.07031 0.152344,0.05859 0.257813,0.1875 0.117187,0.128906 0.175781,0.316406 0.05859,0.175781 0.05859,0.410156 v 6.035156 q 0,0.351563 -0.128907,0.621094 -0.117187,0.257813 -0.503906,0.410156 -0.375,0.152344 -0.9375,0.316407 -0.5625,0.164062 -1.171875,0.28125 -0.597656,0.117187 -1.21875,0.175781 -0.609375,0.05859 -1.230469,0.05859 -1.816406,0 -3.257812,-0.515625 -1.429688,-0.527344 -2.425781,-1.511719 -0.996094,-0.996094 -1.523438,-2.414063 -0.527344,-1.429687 -0.527344,-3.234375 0,-1.863281 0.5625,-3.339843 0.5625,-1.488282 1.59375,-2.519532 1.03125,-1.0429684 2.484375,-1.5937496 1.464844,-0.5507813 3.257813,-0.5507813 0.984375,0 1.792969,0.140625 0.808593,0.1289063 1.40625,0.328125 0.609375,0.1875 1.007812,0.4101563 0.398438,0.2226562 0.550781,0.3867187 0.164063,0.1640625 0.234375,0.4687499 0.07031,0.292969 0.07031,0.878906 z"
                    id="path11401"/>
            <path
                    d="m 42.086914,23.447266 q 0,0.128906 -0.04687,0.222656 -0.04687,0.08203 -0.222656,0.140625 -0.175781,0.05859 -0.515625,0.08203 -0.339844,0.02344 -0.925781,0.02344 -0.492188,0 -0.785157,-0.02344 -0.292968,-0.02344 -0.46875,-0.08203 -0.164062,-0.07031 -0.234375,-0.164063 -0.07031,-0.105468 -0.117187,-0.246093 l -1.359375,-3.386719 q -0.246094,-0.574219 -0.480469,-1.019531 -0.234375,-0.445313 -0.527344,-0.738282 -0.28125,-0.304687 -0.65625,-0.457031 -0.375,-0.152344 -0.867187,-0.152344 h -0.960938 v 5.777344 q 0,0.117188 -0.08203,0.210938 -0.07031,0.09375 -0.246094,0.152343 -0.175781,0.05859 -0.46875,0.09375 -0.292968,0.03516 -0.75,0.03516 -0.445312,0 -0.75,-0.03516 -0.292968,-0.03516 -0.46875,-0.09375 -0.175781,-0.05859 -0.246093,-0.152343 -0.07031,-0.09375 -0.07031,-0.210938 V 9.6542969 q 0,-0.515625 0.257813,-0.7382813 0.269531,-0.234375 0.65625,-0.234375 h 3.925781 q 0.597656,0 0.984375,0.023437 0.386719,0.023437 0.703125,0.058594 0.914062,0.1289062 1.640625,0.4453125 0.738281,0.3164062 1.242187,0.8320316 0.515625,0.503906 0.785157,1.207031 0.269531,0.691406 0.269531,1.59375 0,0.761719 -0.199219,1.394531 -0.1875,0.621094 -0.5625,1.113281 -0.375,0.492188 -0.925781,0.855469 -0.550781,0.363281 -1.253906,0.585938 0.339843,0.164062 0.632812,0.398437 0.304688,0.234375 0.5625,0.574219 0.269531,0.328125 0.503906,0.761719 0.234375,0.421875 0.457032,0.960937 l 1.277343,2.988281 q 0.175782,0.445313 0.234375,0.65625 0.05859,0.199219 0.05859,0.316407 z M 38.114258,13.158203 q 0,-0.75 -0.339844,-1.265625 -0.339844,-0.515625 -1.113281,-0.726562 -0.234375,-0.05859 -0.539063,-0.09375 -0.292968,-0.03516 -0.820312,-0.03516 h -1.382813 v 4.300782 h 1.570313 q 0.65625,0 1.148437,-0.152344 0.492188,-0.164063 0.820313,-0.445313 0.328125,-0.292968 0.492187,-0.691406 0.164063,-0.398437 0.164063,-0.890625 z"
                    id="path11403"/>
            <path
                    d="m 54.133789,19.779297 q 0,1.03125 -0.363281,1.839844 -0.351563,0.808593 -1.054688,1.371093 -0.691406,0.550782 -1.722656,0.84375 -1.03125,0.28125 -2.378906,0.28125 -1.289063,0 -2.261719,-0.257812 -0.972656,-0.257813 -1.628906,-0.75 -0.65625,-0.503906 -0.984375,-1.230469 -0.328125,-0.738281 -0.328125,-1.6875 0,-0.644531 0.1875,-1.207031 0.199219,-0.574219 0.574219,-1.054688 0.386718,-0.492187 0.949218,-0.914062 0.574219,-0.433594 1.3125,-0.820313 -0.597656,-0.328125 -1.078125,-0.703125 -0.480468,-0.386718 -0.820312,-0.832031 -0.339844,-0.457031 -0.515625,-0.996094 -0.175781,-0.539062 -0.175781,-1.171875 0,-0.914062 0.316406,-1.652343 0.328125,-0.75 0.960937,-1.2890629 0.644532,-0.5507812 1.605469,-0.84375 0.960938,-0.2929687 2.226563,-0.2929687 1.253906,0 2.144531,0.2695312 0.902344,0.2695313 1.476562,0.7617188 0.574219,0.4921875 0.84375,1.1835936 0.28125,0.679688 0.28125,1.511719 0,0.550781 -0.1875,1.078125 -0.175781,0.515625 -0.503906,0.984375 -0.328125,0.46875 -0.808594,0.890625 -0.480468,0.410156 -1.089843,0.75 0.714843,0.375 1.277343,0.796875 0.5625,0.421875 0.949219,0.914062 0.386719,0.480469 0.585938,1.03125 0.210937,0.550782 0.210937,1.195313 z m -3.398437,-7.359375 q 0,-0.410156 -0.117188,-0.738281 -0.117187,-0.328125 -0.375,-0.550782 -0.246094,-0.234375 -0.621094,-0.351562 -0.363281,-0.117188 -0.867187,-0.117188 -0.984375,0 -1.464844,0.457032 -0.480469,0.445312 -0.480469,1.242187 0,0.375 0.117188,0.691406 0.128906,0.316407 0.386719,0.597657 0.257812,0.28125 0.667968,0.550781 0.410157,0.269531 0.972657,0.574219 0.855468,-0.503907 1.3125,-1.078125 0.46875,-0.574219 0.46875,-1.277344 z m 0.351562,7.570312 q 0,-0.433593 -0.152344,-0.785156 -0.140625,-0.363281 -0.457031,-0.679687 -0.304687,-0.316407 -0.773437,-0.609375 -0.46875,-0.292969 -1.089844,-0.597657 -0.539063,0.292969 -0.949219,0.585938 -0.410156,0.292969 -0.679687,0.621094 -0.269532,0.316406 -0.410157,0.679687 -0.128906,0.351563 -0.128906,0.761719 0,0.914062 0.585938,1.394531 0.597656,0.480469 1.769531,0.480469 1.148437,0 1.710937,-0.492188 0.574219,-0.492187 0.574219,-1.359375 z"
                    id="path11405"/>
            <path
                    d="m 72.321289,13.287109 q 0,1.277344 -0.398437,2.261719 -0.398438,0.984375 -1.160157,1.664063 -0.761718,0.667968 -1.875,1.019531 -1.101562,0.351562 -2.601562,0.351562 h -1.265625 v 4.839844 q 0,0.117188 -0.08203,0.210938 -0.07031,0.09375 -0.246094,0.152343 -0.175781,0.05859 -0.46875,0.09375 -0.292969,0.03516 -0.75,0.03516 -0.445313,0 -0.75,-0.03516 -0.292969,-0.03516 -0.46875,-0.09375 -0.175781,-0.05859 -0.246094,-0.152343 -0.07031,-0.09375 -0.07031,-0.210938 V 9.7832031 q 0,-0.5507812 0.28125,-0.8203125 0.292968,-0.28125 0.761718,-0.28125 h 3.574219 q 0.539063,0 1.019531,0.046875 0.492188,0.035156 1.171875,0.1757813 0.679688,0.1289062 1.371094,0.4921875 0.703125,0.3632812 1.195313,0.9257816 0.492187,0.550781 0.75,1.300781 0.257812,0.738281 0.257812,1.664062 z m -3.222656,0.222657 q 0,-0.796875 -0.28125,-1.3125 -0.28125,-0.515625 -0.691406,-0.761719 -0.410157,-0.246094 -0.867188,-0.304688 -0.445312,-0.07031 -0.925781,-0.07031 h -1.3125 v 5.144531 h 1.382812 q 0.738282,0 1.230469,-0.199219 0.503906,-0.199218 0.820313,-0.550781 0.316406,-0.363281 0.480468,-0.855469 0.164063,-0.503906 0.164063,-1.089843 z"
                    id="path11407"/>
            <path
                    d="m 85.504883,22.697266 q 0.140625,0.421875 0.175781,0.667968 0.03516,0.246094 -0.09375,0.375 -0.128906,0.117188 -0.457031,0.140625 -0.328125,0.03516 -0.902344,0.03516 -0.597656,0 -0.9375,-0.02344 -0.328125,-0.01172 -0.503906,-0.05859 -0.175781,-0.05859 -0.246094,-0.152343 -0.07031,-0.09375 -0.117187,-0.246094 L 81.40332,20.388672 h -5.695312 l -0.960938,2.964844 q -0.04687,0.164062 -0.128906,0.28125 -0.07031,0.105468 -0.246094,0.175781 -0.164062,0.05859 -0.480468,0.08203 -0.304688,0.02344 -0.808594,0.02344 -0.539063,0 -0.84375,-0.03516 -0.304688,-0.03516 -0.421875,-0.164062 -0.117188,-0.140625 -0.08203,-0.386719 0.03516,-0.246094 0.175781,-0.65625 L 76.586914,9.2207031 q 0.07031,-0.1992187 0.164063,-0.3164062 0.09375,-0.1289063 0.292968,-0.1875 0.210938,-0.070312 0.574219,-0.082031 0.363281,-0.023437 0.960938,-0.023437 0.691406,0 1.101562,0.023437 0.410156,0.011719 0.632813,0.082031 0.234375,0.058594 0.328125,0.1875 0.105468,0.1289062 0.175781,0.3515625 z M 78.543945,11.576172 h -0.01172 l -2.144532,6.445312 h 4.300782 z"
                    id="path11409"/>
            <path
                    d="m 100.22363,16.041016 q 0,2.085937 -0.550778,3.574218 -0.539063,1.476563 -1.558594,2.414063 -1.019531,0.9375 -2.484375,1.382812 -1.453125,0.433594 -3.46875,0.433594 h -3.621094 q -0.386719,0 -0.65625,-0.222656 -0.257812,-0.234375 -0.257812,-0.75 V 9.6542969 q 0,-0.515625 0.257812,-0.7382813 0.269531,-0.234375 0.65625,-0.234375 h 3.890625 q 2.027344,0 3.433594,0.4804688 1.417969,0.46875 2.378906,1.4062496 0.972656,0.925782 1.476563,2.296875 0.503903,1.371094 0.503903,3.175782 z m -3.187497,0.105468 q 0,-1.078125 -0.257813,-2.003906 -0.246093,-0.925781 -0.808593,-1.605469 -0.550782,-0.679687 -1.429688,-1.054687 -0.867187,-0.386719 -2.285156,-0.386719 h -1.558594 v 10.3125 h 1.605469 q 1.265625,0 2.132812,-0.328125 0.867188,-0.328125 1.441407,-0.984375 0.585937,-0.667969 0.867187,-1.652344 0.292969,-0.984375 0.292969,-2.296875 z"
                    id="path11411"/>
        </g>
        <g
                aria-label="gate"
                id="text11379"
                style="font-weight:bold;font-size:3.52778px;font-family:Calibri;-inkscape-font-specification:'Calibri Bold';text-align:center;text-anchor:middle;stroke:#000000;stroke-width:0"
                inkscape:label="gate">
            <path
                    d="m 13.749995,14.3245 q 0,0.08268 -0.01895,0.122301 -0.01895,0.03962 -0.04651,0.03962 H 13.50367 q 0.0379,0.04134 0.0534,0.09474 0.01722,0.05168 0.01722,0.10852 0,0.134359 -0.04479,0.239435 -0.04479,0.103353 -0.129191,0.1757 -0.08268,0.07062 -0.201539,0.10852 -0.117133,0.03617 -0.261827,0.03617 -0.07407,0 -0.141249,-0.01723 -0.06718,-0.01895 -0.103353,-0.04306 -0.02067,0.02239 -0.0379,0.0534 -0.0155,0.03101 -0.0155,0.0689 0,0.04995 0.04306,0.08268 0.04479,0.03101 0.124023,0.03445 l 0.373793,0.01378 q 0.130914,0.0052 0.232544,0.0379 0.103353,0.03101 0.172255,0.08957 0.07062,0.05684 0.106798,0.137804 0.0379,0.08096 0.0379,0.184313 0,0.113688 -0.04995,0.213596 -0.04995,0.10163 -0.149861,0.1757 -0.09991,0.07407 -0.251492,0.117133 -0.149862,0.04306 -0.3514,0.04306 -0.196371,0 -0.335897,-0.03101 -0.137804,-0.03101 -0.227377,-0.08613 -0.08785,-0.05512 -0.129191,-0.132636 -0.03962,-0.07579 -0.03962,-0.167087 0,-0.05684 0.01378,-0.108521 0.0155,-0.05168 0.04306,-0.09991 0.02928,-0.04651 0.07062,-0.08957 0.04134,-0.04306 0.09474,-0.08268 -0.07407,-0.03962 -0.115411,-0.106798 -0.03962,-0.0689 -0.03962,-0.149861 0,-0.101631 0.04651,-0.184313 0.04651,-0.08441 0.120578,-0.151584 -0.06029,-0.06029 -0.09646,-0.144694 -0.03617,-0.08441 -0.03617,-0.210151 0,-0.134359 0.04651,-0.239435 0.04823,-0.106798 0.132636,-0.179145 0.08441,-0.07407 0.201538,-0.111965 0.117133,-0.03962 0.258382,-0.03962 0.07235,0 0.137804,0.0086 0.06718,0.0086 0.124024,0.02411 h 0.487481 q 0.02928,0 0.04651,0.0379 0.01895,0.0379 0.01895,0.127469 z m -0.556383,0.363458 q 0,-0.124024 -0.0689,-0.192926 -0.0689,-0.0689 -0.194648,-0.0689 -0.06373,0 -0.111966,0.02239 -0.04823,0.02067 -0.08096,0.05857 -0.03101,0.03617 -0.04651,0.08613 -0.0155,0.04823 -0.0155,0.10163 0,0.117133 0.0689,0.186035 0.0689,0.06718 0.191203,0.06718 0.06546,0 0.113689,-0.02067 0.04823,-0.02067 0.07924,-0.05684 0.03273,-0.03617 0.04823,-0.08268 0.01723,-0.04823 0.01723,-0.09991 z m 0.10163,1.226455 q 0,-0.07752 -0.06201,-0.118856 -0.06201,-0.04134 -0.170532,-0.04479 l -0.308336,-0.0086 q -0.04479,0.03273 -0.07235,0.06373 -0.02584,0.02928 -0.04306,0.05684 -0.0155,0.02756 -0.02067,0.0534 -0.0052,0.02584 -0.0052,0.0534 0,0.08613 0.08613,0.130914 0.08785,0.04479 0.246325,0.04479 0.09818,0 0.165364,-0.02067 0.06718,-0.01895 0.108521,-0.05168 0.04134,-0.03273 0.05857,-0.07407 0.01722,-0.03962 0.01722,-0.08441 z"
                    id="path11414"/>
            <path
                    d="m 15.286509,15.759383 q 0,0.02412 -0.01723,0.0379 -0.01722,0.01378 -0.05512,0.01895 -0.03617,0.0069 -0.108521,0.0069 -0.07752,0 -0.113688,-0.0069 -0.03445,-0.0052 -0.04995,-0.01895 -0.01378,-0.01378 -0.01378,-0.0379 v -0.122301 q -0.09474,0.101631 -0.217041,0.158475 -0.120578,0.05684 -0.268717,0.05684 -0.122301,0 -0.225654,-0.03273 -0.101631,-0.03101 -0.177423,-0.09302 -0.07407,-0.06373 -0.115411,-0.156752 -0.04134,-0.09302 -0.04134,-0.217041 0,-0.134359 0.05168,-0.232544 0.0534,-0.09991 0.156752,-0.163642 0.105075,-0.06546 0.260105,-0.09646 0.155029,-0.03101 0.360012,-0.03101 h 0.149862 v -0.09302 q 0,-0.07235 -0.0155,-0.125746 -0.01378,-0.05512 -0.04823,-0.0913 -0.03273,-0.03617 -0.08957,-0.0534 -0.05512,-0.01722 -0.137804,-0.01722 -0.10852,0 -0.194648,0.02411 -0.08441,0.02412 -0.149862,0.0534 -0.06546,0.02928 -0.110243,0.0534 -0.04306,0.02412 -0.07062,0.02412 -0.01895,0 -0.03445,-0.01206 -0.01378,-0.01206 -0.02412,-0.03445 -0.0086,-0.02239 -0.01378,-0.05512 -0.0052,-0.03273 -0.0052,-0.07235 0,-0.0534 0.0086,-0.08441 0.0086,-0.03101 0.03273,-0.05512 0.02412,-0.02584 0.08441,-0.05512 0.06029,-0.03101 0.141249,-0.05684 0.08096,-0.02584 0.1757,-0.04134 0.09646,-0.01722 0.198093,-0.01722 0.180868,0 0.308337,0.03617 0.129191,0.03445 0.211873,0.108521 0.08268,0.07235 0.120579,0.187758 0.0379,0.11541 0.0379,0.273885 z m -0.42547,-0.658013 h -0.165365 q -0.105075,0 -0.179145,0.0155 -0.07407,0.0155 -0.120578,0.04651 -0.04651,0.03101 -0.0689,0.07579 -0.02067,0.04306 -0.02067,0.09991 0,0.09646 0.06029,0.151585 0.06201,0.05512 0.170532,0.05512 0.09129,0 0.167087,-0.04651 0.07752,-0.04651 0.156752,-0.136081 z"
                    id="path11416"/>
            <path
                    d="m 16.595646,15.602631 q 0,0.07579 -0.01034,0.117134 -0.0086,0.03962 -0.02411,0.05684 -0.0155,0.0155 -0.04651,0.02928 -0.02928,0.01206 -0.07062,0.02067 -0.03962,0.01033 -0.08785,0.0155 -0.04651,0.0052 -0.09474,0.0052 -0.129191,0 -0.223931,-0.03273 -0.09474,-0.03273 -0.156752,-0.09991 -0.06201,-0.0689 -0.0913,-0.172255 -0.02928,-0.103353 -0.02928,-0.244602 v -0.787205 h -0.184313 q -0.03273,0 -0.04995,-0.03962 -0.01723,-0.04134 -0.01723,-0.136082 0,-0.04995 0.0034,-0.08441 0.0052,-0.03445 0.01378,-0.0534 0.0086,-0.02067 0.02067,-0.02928 0.01378,-0.0086 0.03101,-0.0086 h 0.182591 v -0.342787 q 0,-0.01722 0.0086,-0.03101 0.01034,-0.01378 0.03445,-0.02239 0.02584,-0.01034 0.06718,-0.01378 0.04306,-0.0052 0.105075,-0.0052 0.06373,0 0.105076,0.0052 0.04306,0.0034 0.06718,0.01378 0.02412,0.0086 0.03445,0.02239 0.01033,0.01378 0.01033,0.03101 v 0.342787 h 0.334175 q 0.01722,0 0.02928,0.0086 0.01378,0.0086 0.02239,0.02928 0.0086,0.01895 0.01206,0.0534 0.0052,0.03445 0.0052,0.08441 0,0.09474 -0.01723,0.136082 -0.01722,0.03962 -0.04995,0.03962 h -0.335897 v 0.721748 q 0,0.125746 0.03962,0.189481 0.03962,0.06201 0.141249,0.06201 0.03445,0 0.06201,-0.0052 0.02756,-0.0069 0.04823,-0.01378 0.02239,-0.0086 0.03617,-0.01378 0.0155,-0.0069 0.02756,-0.0069 0.01034,0 0.01895,0.0069 0.01034,0.0052 0.0155,0.02412 0.0052,0.01722 0.0086,0.04823 0.0052,0.03101 0.0052,0.07924 z"
                    id="path11418"/>
            <path
                    d="m 18.285466,14.941173 q 0,0.07924 -0.03617,0.117133 -0.03445,0.0379 -0.09646,0.0379 h -0.935344 q 0,0.09819 0.02239,0.179145 0.02412,0.07924 0.07407,0.136081 0.05168,0.05512 0.130914,0.0844 0.08096,0.02928 0.192925,0.02928 0.113688,0 0.199816,-0.0155 0.08613,-0.01723 0.148139,-0.03617 0.06373,-0.02067 0.105075,-0.03617 0.04134,-0.01723 0.06718,-0.01723 0.0155,0 0.02584,0.0069 0.01034,0.0052 0.01722,0.02067 0.0069,0.0155 0.0086,0.04479 0.0034,0.02756 0.0034,0.07062 0,0.0379 -0.0017,0.06546 -0.0017,0.02584 -0.0052,0.04479 -0.0034,0.01895 -0.01034,0.03273 -0.0069,0.01206 -0.01895,0.02412 -0.01034,0.01206 -0.06029,0.03273 -0.04995,0.02067 -0.127469,0.04134 -0.07751,0.01895 -0.177423,0.03273 -0.09991,0.0155 -0.213596,0.0155 -0.204983,0 -0.360012,-0.05168 -0.153307,-0.05168 -0.25666,-0.156752 -0.103353,-0.105075 -0.155029,-0.265272 -0.04995,-0.160197 -0.04995,-0.375516 0,-0.204983 0.0534,-0.368625 0.0534,-0.165365 0.155029,-0.279053 0.10163,-0.115411 0.246324,-0.1757 0.146417,-0.06029 0.329007,-0.06029 0.192926,0 0.329007,0.05684 0.137804,0.05684 0.225654,0.158474 0.08785,0.09991 0.129191,0.237712 0.04134,0.137804 0.04134,0.299724 z m -0.420302,-0.124024 q 0.0052,-0.18259 -0.07407,-0.285943 -0.07751,-0.105076 -0.241157,-0.105076 -0.08268,0 -0.144694,0.03101 -0.06029,0.03101 -0.10163,0.08441 -0.03962,0.05168 -0.06201,0.124024 -0.02067,0.07062 -0.02412,0.151584 z"
                    id="path11420"/>
        </g>
        <g
                aria-label="vel"
                id="text11383"
                style="font-weight:bold;font-size:3.52778px;font-family:Calibri;-inkscape-font-specification:'Calibri Bold';text-align:center;text-anchor:middle;stroke:#000000;stroke-width:0"
                inkscape:label="velocity">
            <path
                    d="m 4.3582684,36.538993 q 0,0.0086 -0.00172,0.02067 0,0.01206 -0.00345,0.02756 -0.00172,0.01378 -0.00689,0.03273 -0.00345,0.01895 -0.010335,0.04306 l -0.4616431,1.390097 q -0.00861,0.02928 -0.024116,0.04823 -0.01378,0.01722 -0.048231,0.02756 -0.032728,0.01034 -0.091295,0.01378 -0.056844,0.0034 -0.1498618,0.0034 -0.091295,0 -0.1498617,-0.0052 -0.056844,-0.0034 -0.089573,-0.01378 -0.032728,-0.01034 -0.048231,-0.02756 -0.01378,-0.01895 -0.022393,-0.04651 L 2.7890263,36.663016 q -0.010335,-0.03445 -0.017225,-0.06201 -0.00517,-0.02756 -0.00689,-0.03962 0,-0.01206 0,-0.02239 0,-0.01723 0.00861,-0.02928 0.010335,-0.01378 0.034451,-0.02239 0.024116,-0.0086 0.065457,-0.01206 0.043064,-0.0034 0.1067981,-0.0034 0.070625,0 0.1136882,0.0052 0.043064,0.0034 0.067179,0.01206 0.025838,0.0069 0.036173,0.02239 0.010335,0.01378 0.017226,0.03445 l 0.3496774,1.128269 0.010335,0.04306 0.010335,-0.04306 0.3445098,-1.128269 q 0.00517,-0.02067 0.015503,-0.03445 0.012058,-0.0155 0.036174,-0.02239 0.024116,-0.0086 0.063734,-0.01206 0.041341,-0.0052 0.106798,-0.0052 0.063734,0 0.1033529,0.0034 0.041341,0.0034 0.063734,0.01206 0.022393,0.0086 0.031006,0.02239 0.00861,0.01206 0.00861,0.02928 z"
                    id="path11423"/>
            <path
                    d="m 5.9998574,37.264186 q 0,0.07924 -0.036173,0.117133 -0.034451,0.0379 -0.096463,0.0379 h -0.935344 q 0,0.09819 0.022393,0.179145 0.024116,0.07924 0.07407,0.136082 0.051677,0.05512 0.1309137,0.0844 0.08096,0.02928 0.1929255,0.02928 0.1136882,0 0.1998156,-0.0155 0.086127,-0.01723 0.1481392,-0.03617 0.063734,-0.02067 0.1050755,-0.03617 0.041341,-0.01723 0.067179,-0.01723 0.015503,0 0.025838,0.0069 0.010335,0.0052 0.017226,0.02067 0.00689,0.0155 0.00861,0.04479 0.00345,0.02756 0.00345,0.07062 0,0.0379 -0.00172,0.06546 -0.00172,0.02584 -0.00517,0.04479 -0.00345,0.01895 -0.010335,0.03273 -0.00689,0.01206 -0.018948,0.02412 -0.010335,0.01206 -0.060289,0.03273 -0.049954,0.02067 -0.1274687,0.04134 -0.077515,0.01895 -0.1774225,0.03273 -0.099908,0.0155 -0.213596,0.0155 -0.2049834,0 -0.3600128,-0.05168 Q 4.7992409,38.072061 4.695888,37.966986 4.592535,37.86191 4.5408586,37.701713 q -0.049954,-0.160197 -0.049954,-0.375515 0,-0.204984 0.053399,-0.368626 0.053399,-0.165365 0.1550294,-0.279053 0.1016303,-0.115411 0.2463244,-0.1757 0.1464167,-0.06029 0.3290069,-0.06029 0.1929254,0 0.3290068,0.05684 0.1378039,0.05684 0.2256539,0.158475 0.08785,0.09991 0.1291912,0.237711 0.041341,0.137804 0.041341,0.299724 z M 5.5795555,37.140162 q 0.00517,-0.18259 -0.07407,-0.285943 -0.077515,-0.105075 -0.2411568,-0.105075 -0.082682,0 -0.1446941,0.03101 -0.060289,0.03101 -0.1016304,0.08441 -0.039619,0.05168 -0.062012,0.124023 -0.02067,0.07062 -0.024116,0.151584 z"
                    id="path11425"/>
            <path
                    d="m 6.7905073,38.077229 q 0,0.01722 -0.010335,0.03101 -0.010335,0.01206 -0.036174,0.02067 -0.024116,0.0086 -0.065457,0.01206 -0.041341,0.0052 -0.1050754,0.0052 -0.063734,0 -0.1050755,-0.0052 -0.041341,-0.0034 -0.067179,-0.01206 -0.024116,-0.0086 -0.034451,-0.02067 -0.010335,-0.01378 -0.010335,-0.03101 v -2.265152 q 0,-0.01723 0.010335,-0.03101 0.010335,-0.01378 0.034451,-0.02239 0.025838,-0.01034 0.067179,-0.0155 0.041341,-0.0052 0.1050755,-0.0052 0.063734,0 0.1050754,0.0052 0.041341,0.0052 0.065457,0.0155 0.025838,0.0086 0.036174,0.02239 0.010335,0.01378 0.010335,0.03101 z"
                    id="path11427"/>
        </g>
        <g
                aria-label="bend"
                id="text11387"
                style="font-weight:bold;font-size:3.52778px;font-family:Calibri;-inkscape-font-specification:'Calibri Bold';text-align:center;text-anchor:middle;stroke:#000000;stroke-width:0"
                inkscape:label="bend">
            <path
                    d="m 22.935472,37.288302 q 0,0.204983 -0.04479,0.368625 -0.04479,0.163642 -0.129192,0.279053 -0.0844,0.115411 -0.208428,0.177422 -0.122301,0.06201 -0.279053,0.06201 -0.07752,0 -0.144694,-0.0155 -0.06718,-0.01378 -0.129191,-0.04651 -0.06029,-0.03273 -0.120579,-0.08268 -0.05857,-0.04995 -0.120578,-0.120578 v 0.167087 q 0,0.01895 -0.01033,0.03273 -0.0086,0.01206 -0.03101,0.02067 -0.02067,0.0086 -0.05684,0.01206 -0.03617,0.0034 -0.08785,0.0034 -0.0534,0 -0.08957,-0.0034 -0.03445,-0.0034 -0.05684,-0.01206 -0.02067,-0.0086 -0.02928,-0.02067 -0.0086,-0.01378 -0.0086,-0.03273 v -2.265152 q 0,-0.01723 0.01034,-0.03101 0.01034,-0.01378 0.03445,-0.02239 0.02584,-0.01034 0.06718,-0.0155 0.04134,-0.0052 0.105075,-0.0052 0.06373,0 0.105076,0.0052 0.04134,0.0052 0.06546,0.0155 0.02584,0.0086 0.03617,0.02239 0.01033,0.01378 0.01033,0.03101 v 0.849217 q 0.05857,-0.05857 0.117134,-0.09991 0.05857,-0.04134 0.117133,-0.06718 0.05857,-0.02756 0.120578,-0.03962 0.06201,-0.01206 0.130914,-0.01206 0.170532,0 0.289388,0.0689 0.118856,0.06718 0.192926,0.18259 0.07579,0.115411 0.110243,0.27044 0.03445,0.153307 0.03445,0.32384 z m -0.449585,0.03101 q 0,-0.09819 -0.0155,-0.18948 -0.01378,-0.0913 -0.04995,-0.16192 -0.03617,-0.07062 -0.09474,-0.111965 -0.05685,-0.04306 -0.144695,-0.04306 -0.04306,0 -0.0844,0.01206 -0.04134,0.01206 -0.08613,0.04134 -0.04306,0.02928 -0.08957,0.07579 -0.04651,0.04651 -0.09819,0.115411 v 0.509874 q 0.0913,0.117134 0.173978,0.179146 0.08441,0.06029 0.1757,0.06029 0.08441,0 0.142971,-0.04306 0.05857,-0.04306 0.09646,-0.111966 0.03962,-0.0689 0.05684,-0.156752 0.01723,-0.08785 0.01723,-0.1757 z"
                    id="path11430"/>
            <path
                    d="m 24.701084,37.264186 q 0,0.07924 -0.03617,0.117133 -0.03445,0.0379 -0.09646,0.0379 h -0.935344 q 0,0.09819 0.02239,0.179145 0.02412,0.07924 0.07407,0.136082 0.05168,0.05512 0.130914,0.0844 0.08096,0.02928 0.192925,0.02928 0.113688,0 0.199816,-0.0155 0.08613,-0.01723 0.148139,-0.03617 0.06373,-0.02067 0.105075,-0.03617 0.04134,-0.01723 0.06718,-0.01723 0.0155,0 0.02584,0.0069 0.01033,0.0052 0.01723,0.02067 0.0069,0.0155 0.0086,0.04479 0.0034,0.02756 0.0034,0.07062 0,0.0379 -0.0017,0.06546 -0.0017,0.02584 -0.0052,0.04479 -0.0034,0.01895 -0.01033,0.03273 -0.0069,0.01206 -0.01895,0.02412 -0.01033,0.01206 -0.06029,0.03273 -0.04995,0.02067 -0.127469,0.04134 -0.07752,0.01895 -0.177423,0.03273 -0.09991,0.0155 -0.213596,0.0155 -0.204983,0 -0.360012,-0.05168 -0.153307,-0.05168 -0.25666,-0.156752 -0.103353,-0.105076 -0.155029,-0.265273 -0.04995,-0.160197 -0.04995,-0.375515 0,-0.204984 0.0534,-0.368626 0.0534,-0.165365 0.155029,-0.279053 0.10163,-0.115411 0.246325,-0.1757 0.146416,-0.06029 0.329006,-0.06029 0.192926,0 0.329007,0.05684 0.137804,0.05684 0.225654,0.158475 0.08785,0.09991 0.129191,0.237711 0.04134,0.137804 0.04134,0.299724 z m -0.420301,-0.124024 q 0.0052,-0.18259 -0.07407,-0.285943 -0.07752,-0.105075 -0.241157,-0.105075 -0.08268,0 -0.144694,0.03101 -0.06029,0.03101 -0.10163,0.08441 -0.03962,0.05168 -0.06201,0.124023 -0.02067,0.07062 -0.02412,0.151584 z"
                    id="path11432"/>
            <path
                    d="m 26.525264,38.077229 q 0,0.01722 -0.01034,0.03101 -0.01034,0.01206 -0.03445,0.02067 -0.02412,0.0086 -0.06718,0.01206 -0.04134,0.0052 -0.103353,0.0052 -0.06373,0 -0.106798,-0.0052 -0.04134,-0.0034 -0.06546,-0.01206 -0.02411,-0.0086 -0.03445,-0.02067 -0.01033,-0.01378 -0.01033,-0.03101 v -0.876777 q 0,-0.111966 -0.01722,-0.1757 -0.0155,-0.06374 -0.04651,-0.108521 -0.03101,-0.04651 -0.08096,-0.07062 -0.04823,-0.02584 -0.113688,-0.02584 -0.08268,0 -0.167087,0.06029 -0.08441,0.06029 -0.1757,0.1757 v 1.021472 q 0,0.01722 -0.01034,0.03101 -0.01034,0.01206 -0.03617,0.02067 -0.02412,0.0086 -0.06546,0.01206 -0.04134,0.0052 -0.105076,0.0052 -0.06373,0 -0.105075,-0.0052 -0.04134,-0.0034 -0.06718,-0.01206 -0.02411,-0.0086 -0.03445,-0.02067 -0.01034,-0.01378 -0.01034,-0.03101 v -1.536514 q 0,-0.01722 0.0086,-0.02928 0.0086,-0.01378 0.03101,-0.02239 0.02239,-0.0086 0.05684,-0.01206 0.03617,-0.0052 0.08957,-0.0052 0.05512,0 0.0913,0.0052 0.03617,0.0034 0.05512,0.01206 0.02067,0.0086 0.02928,0.02239 0.0086,0.01206 0.0086,0.02928 v 0.177423 q 0.127469,-0.137804 0.258383,-0.206706 0.132636,-0.0689 0.275607,-0.0689 0.156752,0 0.26355,0.05168 0.108521,0.05168 0.173978,0.141249 0.06718,0.08785 0.09646,0.206705 0.02928,0.118856 0.02928,0.285944 z"
                    id="path11434"/>
            <path
                    d="m 28.40801,38.077229 q 0,0.01895 -0.0086,0.03273 -0.0086,0.01206 -0.02928,0.02067 -0.02067,0.0086 -0.05684,0.01206 -0.03445,0.0034 -0.08613,0.0034 -0.05512,0 -0.08957,-0.0034 -0.03445,-0.0034 -0.05684,-0.01206 -0.02067,-0.0086 -0.03101,-0.02067 -0.0086,-0.01378 -0.0086,-0.03273 v -0.170532 q -0.118856,0.127468 -0.24977,0.198093 -0.129191,0.07062 -0.287665,0.07062 -0.1757,0 -0.298001,-0.06718 -0.120579,-0.0689 -0.198093,-0.184313 -0.07579,-0.115411 -0.110244,-0.268718 -0.03445,-0.155029 -0.03445,-0.325561 0,-0.204984 0.04306,-0.368626 0.04479,-0.163642 0.129191,-0.279053 0.08441,-0.11541 0.210151,-0.177422 0.125746,-0.06201 0.289388,-0.06201 0.129192,0 0.234267,0.0534 0.105076,0.05168 0.208429,0.153307 v -0.831991 q 0,-0.01723 0.0086,-0.03101 0.01034,-0.01378 0.03445,-0.02239 0.02584,-0.01033 0.06718,-0.0155 0.04134,-0.0052 0.105075,-0.0052 0.06373,0 0.105076,0.0052 0.04134,0.0052 0.06546,0.0155 0.02412,0.0086 0.03445,0.02239 0.01034,0.01378 0.01034,0.03101 z M 27.977373,37.05059 q -0.09302,-0.117134 -0.179146,-0.179145 -0.0844,-0.06201 -0.177422,-0.06201 -0.08441,0 -0.146417,0.04306 -0.06029,0.04134 -0.09819,0.111965 -0.03617,0.07062 -0.05512,0.158475 -0.01722,0.08613 -0.01722,0.177422 0,0.09646 0.0155,0.187758 0.0155,0.09129 0.04995,0.163642 0.03617,0.07062 0.09474,0.113689 0.05857,0.04306 0.148139,0.04306 0.04479,0 0.08613,-0.01206 0.04306,-0.01378 0.08613,-0.04306 0.04479,-0.02928 0.09129,-0.07579 0.04651,-0.04823 0.101631,-0.117134 z"
                    id="path11436"/>
        </g>
        <g
                aria-label="touch"
                id="text11391"
                style="font-weight:bold;font-size:3.52778px;font-family:Calibri;-inkscape-font-specification:'Calibri Bold';text-align:center;text-anchor:middle;stroke:#000000;stroke-width:0"
                inkscape:label="touch"
                transform="translate(0,1.6000305)">
            <path
                    d="m 12.208542,46.425637 q 0,0.07579 -0.01034,0.117133 -0.0086,0.03962 -0.02412,0.05684 -0.0155,0.0155 -0.04651,0.02928 -0.02928,0.01206 -0.07062,0.02067 -0.03962,0.01034 -0.08785,0.0155 -0.04651,0.0052 -0.09474,0.0052 -0.129191,0 -0.223931,-0.03273 -0.09474,-0.03273 -0.156752,-0.09991 -0.06201,-0.0689 -0.0913,-0.172255 -0.02928,-0.103353 -0.02928,-0.244602 v -0.787205 h -0.184313 q -0.03273,0 -0.04995,-0.03962 -0.01723,-0.04134 -0.01723,-0.136081 0,-0.04995 0.0034,-0.0844 0.0052,-0.03445 0.01378,-0.0534 0.0086,-0.02067 0.02067,-0.02928 0.01378,-0.0086 0.03101,-0.0086 h 0.182591 V 44.63939 q 0,-0.01723 0.0086,-0.03101 0.01034,-0.01378 0.03445,-0.02239 0.02584,-0.01033 0.06718,-0.01378 0.04306,-0.0052 0.105075,-0.0052 0.06373,0 0.105076,0.0052 0.04306,0.0034 0.06718,0.01378 0.02412,0.0086 0.03445,0.02239 0.01033,0.01378 0.01033,0.03101 v 0.342787 h 0.334175 q 0.01722,0 0.02928,0.0086 0.01378,0.0086 0.02239,0.02928 0.0086,0.01895 0.01206,0.0534 0.0052,0.03445 0.0052,0.0844 0,0.09474 -0.01723,0.136081 -0.01722,0.03962 -0.04995,0.03962 h -0.335897 v 0.721748 q 0,0.125746 0.03962,0.18948 0.03962,0.06201 0.141249,0.06201 0.03445,0 0.06201,-0.0052 0.02756,-0.0069 0.04823,-0.01378 0.02239,-0.0086 0.03617,-0.01378 0.0155,-0.0069 0.02756,-0.0069 0.01034,0 0.01895,0.0069 0.01034,0.0052 0.0155,0.02411 0.0052,0.01723 0.0086,0.04823 0.0052,0.03101 0.0052,0.07924 z"
                    id="path11439"/>
            <path
                    d="m 14.041334,45.793462 q 0,0.19637 -0.05168,0.35829 -0.05168,0.161919 -0.156752,0.279053 -0.105075,0.117133 -0.26355,0.180867 -0.158474,0.06374 -0.370348,0.06374 -0.204983,0 -0.356567,-0.05685 -0.151585,-0.05684 -0.251492,-0.165364 -0.09991,-0.108521 -0.14814,-0.266995 -0.04823,-0.158475 -0.04823,-0.361736 0,-0.19637 0.05168,-0.35829 0.0534,-0.163642 0.158475,-0.279053 0.105075,-0.117133 0.261827,-0.180867 0.158475,-0.06374 0.370348,-0.06374 0.206706,0 0.358291,0.05685 0.151584,0.05512 0.249769,0.163642 0.09991,0.10852 0.148139,0.266995 0.04823,0.158474 0.04823,0.363458 z m -0.44614,0.01723 q 0,-0.113688 -0.01895,-0.208428 -0.01722,-0.09646 -0.06029,-0.167088 -0.04306,-0.07062 -0.115411,-0.110243 -0.07062,-0.03962 -0.179145,-0.03962 -0.09646,0 -0.168809,0.03617 -0.07235,0.03445 -0.118856,0.103353 -0.04651,0.06718 -0.07062,0.163642 -0.02239,0.09474 -0.02239,0.217041 0,0.113689 0.01895,0.210151 0.01895,0.09474 0.06029,0.165365 0.04306,0.07062 0.115411,0.110243 0.07235,0.0379 0.179145,0.0379 0.09819,0 0.170533,-0.03445 0.07235,-0.03617 0.118855,-0.103353 0.04651,-0.06718 0.0689,-0.161919 0.02239,-0.09646 0.02239,-0.218764 z"
                    id="path11441"/>
            <path
                    d="m 15.841397,46.577221 q 0,0.01723 -0.0086,0.03101 -0.0086,0.01206 -0.03101,0.02067 -0.02067,0.0086 -0.05684,0.01206 -0.03445,0.0052 -0.08785,0.0052 -0.05684,0 -0.09302,-0.0052 -0.03445,-0.0034 -0.05512,-0.01206 -0.02067,-0.0086 -0.02928,-0.02067 -0.0086,-0.01378 -0.0086,-0.03101 v -0.177422 q -0.127468,0.137804 -0.260105,0.206706 -0.130913,0.0689 -0.272162,0.0689 -0.158475,0 -0.266996,-0.05168 -0.106798,-0.05168 -0.173977,-0.141249 -0.06546,-0.08957 -0.09474,-0.206706 -0.02756,-0.118856 -0.02756,-0.294556 v -0.940511 q 0,-0.01723 0.0086,-0.02928 0.01033,-0.01378 0.03445,-0.02239 0.02584,-0.0086 0.06718,-0.01206 0.04306,-0.0052 0.105076,-0.0052 0.06373,0 0.105075,0.0052 0.04134,0.0034 0.06546,0.01206 0.02584,0.0086 0.03617,0.02239 0.01033,0.01206 0.01033,0.02928 v 0.868164 q 0,0.120579 0.0155,0.184313 0.0155,0.06373 0.04651,0.110243 0.03273,0.04479 0.08096,0.07062 0.04995,0.02411 0.115411,0.02411 0.08268,0 0.165365,-0.06029 0.08441,-0.06029 0.179145,-0.1757 v -1.021471 q 0,-0.01723 0.0086,-0.02928 0.01033,-0.01378 0.03445,-0.02239 0.02584,-0.0086 0.06718,-0.01206 0.04134,-0.0052 0.105076,-0.0052 0.06373,0 0.105075,0.0052 0.04134,0.0034 0.06546,0.01206 0.02412,0.0086 0.03445,0.02239 0.01034,0.01206 0.01034,0.02928 z"
                    id="path11443"/>
            <path
                    d="m 17.439922,46.332619 q 0,0.04479 -0.0034,0.07579 -0.0017,0.02928 -0.0069,0.04995 -0.0034,0.02067 -0.01034,0.03445 -0.0052,0.01206 -0.02584,0.03273 -0.02067,0.01895 -0.07062,0.04823 -0.04995,0.02756 -0.113688,0.04995 -0.06373,0.02239 -0.139527,0.03617 -0.07407,0.01378 -0.153306,0.01378 -0.177423,0 -0.315227,-0.05512 -0.136081,-0.05512 -0.229099,-0.161919 -0.09302,-0.108521 -0.141249,-0.26355 -0.04651,-0.155029 -0.04651,-0.354845 0,-0.230822 0.05684,-0.397909 0.05857,-0.16881 0.16192,-0.279053 0.103353,-0.110243 0.244602,-0.163642 0.141249,-0.0534 0.310059,-0.0534 0.0689,0 0.134359,0.01206 0.06718,0.01206 0.124023,0.03273 0.05857,0.02067 0.103353,0.04651 0.04651,0.02584 0.06546,0.04479 0.01895,0.01895 0.02584,0.03273 0.0086,0.01206 0.01206,0.03273 0.0052,0.02067 0.0069,0.05168 0.0034,0.02928 0.0034,0.07235 0,0.09991 -0.01722,0.141249 -0.01723,0.03962 -0.04479,0.03962 -0.02928,0 -0.06201,-0.02412 -0.03273,-0.02412 -0.07751,-0.0534 -0.04479,-0.02928 -0.106798,-0.0534 -0.06201,-0.02412 -0.148139,-0.02412 -0.16881,0 -0.258382,0.130914 -0.08957,0.129191 -0.08957,0.380683 0,0.124023 0.02239,0.218764 0.02239,0.09474 0.06546,0.158474 0.04479,0.06373 0.110243,0.09646 0.06718,0.03101 0.155029,0.03101 0.08957,0 0.153307,-0.02584 0.06546,-0.02756 0.113689,-0.06029 0.04823,-0.03273 0.08096,-0.05857 0.03273,-0.02756 0.05512,-0.02756 0.0155,0 0.02584,0.0086 0.01034,0.0086 0.0155,0.03273 0.0069,0.02239 0.01034,0.05857 0.0034,0.03617 0.0034,0.09302 z"
                    id="path11445"/>
            <path
                    d="m 19.221038,46.577221 q 0,0.01723 -0.01034,0.03101 -0.01034,0.01206 -0.03445,0.02067 -0.02412,0.0086 -0.06718,0.01206 -0.04134,0.0052 -0.103353,0.0052 -0.06373,0 -0.106798,-0.0052 -0.04134,-0.0034 -0.06546,-0.01206 -0.02412,-0.0086 -0.03445,-0.02067 -0.01034,-0.01378 -0.01034,-0.03101 v -0.876777 q 0,-0.111966 -0.01722,-0.1757 -0.0155,-0.06373 -0.04651,-0.108521 -0.03101,-0.04651 -0.08096,-0.07062 -0.04823,-0.02584 -0.113688,-0.02584 -0.08268,0 -0.167087,0.06029 -0.08441,0.06029 -0.1757,0.1757 v 1.021471 q 0,0.01723 -0.01034,0.03101 -0.01034,0.01206 -0.03617,0.02067 -0.02412,0.0086 -0.06546,0.01206 -0.04134,0.0052 -0.105075,0.0052 -0.06374,0 -0.105076,-0.0052 -0.04134,-0.0034 -0.06718,-0.01206 -0.02412,-0.0086 -0.03445,-0.02067 -0.01034,-0.01378 -0.01034,-0.03101 V 44.31207 q 0,-0.01723 0.01034,-0.03101 0.01034,-0.01378 0.03445,-0.02239 0.02584,-0.01034 0.06718,-0.0155 0.04134,-0.0052 0.105076,-0.0052 0.06373,0 0.105075,0.0052 0.04134,0.0052 0.06546,0.0155 0.02584,0.0086 0.03617,0.02239 0.01034,0.01378 0.01034,0.03101 v 0.849216 q 0.111965,-0.110243 0.227376,-0.163642 0.117134,-0.05512 0.24288,-0.05512 0.156752,0 0.26355,0.05168 0.10852,0.05168 0.173977,0.141249 0.06718,0.08957 0.09646,0.210151 0.02928,0.118856 0.02928,0.289388 z"
                    id="path11447"/>
        </g>
        <g
                aria-label="ldlework"
                id="text11395"
                style="font-weight:300;font-size:2.82222px;font-family:Calibri;-inkscape-font-specification:'Calibri Light';text-align:center;text-anchor:middle;stroke:#ff00ff;stroke-width:0"
                inkscape:label="brand">
            <path
                    d="m 10.687654,123.12542 q 0,0.008 -0.0041,0.0151 -0.0041,0.007 -0.01378,0.011 -0.0083,0.004 -0.0248,0.007 -0.01516,0.003 -0.03996,0.003 -0.02343,0 -0.03996,-0.003 -0.01516,-0.003 -0.02481,-0.007 -0.0096,-0.004 -0.01378,-0.011 -0.0028,-0.007 -0.0028,-0.0151 v -1.8576 q 0,-0.008 0.0028,-0.0152 0.0041,-0.007 0.01378,-0.011 0.0096,-0.006 0.02481,-0.007 0.01654,-0.003 0.03996,-0.003 0.02481,0 0.03996,0.003 0.01654,0.001 0.0248,0.007 0.0096,0.004 0.01378,0.011 0.0041,0.007 0.0041,0.0152 z"
                    id="path11450"/>
            <path
                    d="m 12.152508,123.12542 q 0,0.01 -0.0041,0.0165 -0.0028,0.007 -0.0124,0.011 -0.0083,0.004 -0.02205,0.006 -0.01378,0.003 -0.03445,0.003 -0.02205,0 -0.03721,-0.003 -0.01378,-0.001 -0.02343,-0.006 -0.0083,-0.004 -0.01378,-0.011 -0.0041,-0.007 -0.0041,-0.0165 v -0.17915 q -0.09922,0.10749 -0.205328,0.1695 -0.106109,0.0606 -0.23151,0.0606 -0.135048,0 -0.230132,-0.0524 -0.09509,-0.0524 -0.155719,-0.14194 -0.05926,-0.0896 -0.08682,-0.20946 -0.02756,-0.12127 -0.02756,-0.25632 0,-0.15847 0.03445,-0.28525 0.03445,-0.12816 0.101975,-0.21773 0.06752,-0.0896 0.166742,-0.1378 0.09922,-0.0482 0.230133,-0.0482 0.112999,0 0.206705,0.051 0.09371,0.0496 0.184657,0.14745 v -0.75103 q 0,-0.008 0.0028,-0.0152 0.0041,-0.007 0.01378,-0.011 0.0096,-0.004 0.0248,-0.007 0.01654,-0.003 0.03996,-0.003 0.02481,0 0.03996,0.003 0.01654,0.003 0.02481,0.007 0.0096,0.004 0.01378,0.011 0.0041,0.007 0.0041,0.0152 z m -0.163987,-0.89986 q -0.103353,-0.1254 -0.199815,-0.19155 -0.09508,-0.0661 -0.199816,-0.0661 -0.09508,0 -0.162608,0.0455 -0.06752,0.0455 -0.110243,0.11989 -0.04272,0.0744 -0.06201,0.16812 -0.01929,0.0937 -0.01929,0.19017 0,0.10335 0.01654,0.20119 0.01654,0.0978 0.0565,0.17501 0.03996,0.0758 0.106109,0.12265 0.06614,0.0455 0.165364,0.0455 0.04961,0 0.09646,-0.0138 0.04685,-0.0138 0.09646,-0.0455 0.04961,-0.0317 0.101975,-0.0813 0.05374,-0.051 0.114377,-0.1254 z"
                    id="path11452"/>
            <path
                    d="m 12.776759,123.12542 q 0,0.008 -0.0041,0.0151 -0.0041,0.007 -0.01378,0.011 -0.0083,0.004 -0.02481,0.007 -0.01516,0.003 -0.03996,0.003 -0.02343,0 -0.03996,-0.003 -0.01516,-0.003 -0.0248,-0.007 -0.0096,-0.004 -0.01378,-0.011 -0.0028,-0.007 -0.0028,-0.0151 v -1.8576 q 0,-0.008 0.0028,-0.0152 0.0041,-0.007 0.01378,-0.011 0.0096,-0.006 0.0248,-0.007 0.01654,-0.003 0.03996,-0.003 0.0248,0 0.03996,0.003 0.01654,0.001 0.02481,0.007 0.0096,0.004 0.01378,0.011 0.0041,0.007 0.0041,0.0152 z"
                    id="path11454"/>
            <path
                    d="m 14.252636,122.43778 q 0,0.0496 -0.02618,0.0689 -0.02618,0.0179 -0.05099,0.0179 h -0.850249 q 0,0.11576 0.02205,0.20946 0.02343,0.0937 0.07579,0.16123 0.05236,0.0661 0.136425,0.10198 0.08406,0.0358 0.206706,0.0358 0.08682,0 0.155718,-0.0152 0.0689,-0.0152 0.118511,-0.0331 0.05099,-0.0193 0.08268,-0.0344 0.03307,-0.0152 0.04685,-0.0152 0.0083,0 0.01516,0.004 0.0069,0.004 0.01103,0.0138 0.0041,0.008 0.0055,0.0221 0.0028,0.0138 0.0028,0.0344 0,0.01 -0.0014,0.0193 -0.0014,0.008 -0.0041,0.0165 -0.0014,0.007 -0.0055,0.0138 -0.0041,0.007 -0.01103,0.0138 -0.0069,0.007 -0.04272,0.0248 -0.03583,0.0165 -0.09371,0.0345 -0.05788,0.0165 -0.135048,0.0303 -0.07579,0.0138 -0.163987,0.0138 -0.144693,0 -0.256314,-0.0427 -0.111621,-0.0441 -0.187413,-0.12815 -0.07579,-0.0854 -0.115756,-0.21084 -0.03858,-0.1254 -0.03858,-0.29077 0,-0.15847 0.03996,-0.28387 0.04134,-0.12541 0.117134,-0.21222 0.07579,-0.0882 0.181901,-0.13367 0.107486,-0.0469 0.2384,-0.0469 0.14056,0 0.239778,0.0469 0.09922,0.0468 0.162609,0.12678 0.06477,0.0786 0.09371,0.18328 0.03032,0.10473 0.03032,0.22048 z m -0.169498,-0.0482 q 0.0041,-0.19843 -0.09095,-0.31005 -0.09508,-0.11162 -0.276985,-0.11162 -0.09371,0 -0.165365,0.0358 -0.07028,0.0344 -0.119889,0.0923 -0.04823,0.0579 -0.07441,0.13505 -0.02618,0.0758 -0.03032,0.15847 z"
                    id="path11456"/>
            <path
                    d="m 16.271461,121.87554 q 0,0.007 -0.0028,0.0165 -0.0014,0.008 -0.0041,0.0193 l -0.385851,1.21405 q -0.0028,0.011 -0.01102,0.0179 -0.0069,0.007 -0.01929,0.011 -0.0124,0.004 -0.03307,0.006 -0.01929,0.001 -0.04685,0.001 -0.02894,0 -0.04961,-0.003 -0.02067,-0.001 -0.03445,-0.006 -0.0124,-0.004 -0.02067,-0.011 -0.0069,-0.007 -0.0096,-0.0165 l -0.289388,-0.98392 -0.0028,-0.011 -0.0028,0.011 -0.270095,0.98392 q -0.0028,0.011 -0.01102,0.0179 -0.0083,0.007 -0.02343,0.011 -0.01378,0.004 -0.03445,0.006 -0.02067,0.001 -0.04685,0.001 -0.02756,0 -0.04685,-0.003 -0.01929,-0.001 -0.03307,-0.006 -0.0124,-0.004 -0.01929,-0.011 -0.0069,-0.007 -0.0096,-0.0165 l -0.383094,-1.21405 q -0.0041,-0.01 -0.0069,-0.0193 -0.0014,-0.01 -0.0014,-0.0165 0,-0.01 0.0041,-0.0165 0.0041,-0.007 0.01378,-0.01 0.0096,-0.004 0.0248,-0.006 0.01516,-0.001 0.03721,-0.001 0.02894,0 0.04685,0.003 0.01791,0.001 0.02618,0.006 0.0096,0.004 0.01378,0.011 0.0041,0.007 0.0069,0.0165 l 0.329351,1.08865 0.0028,0.01 0.0028,-0.01 0.299034,-1.08865 q 0.0028,-0.01 0.0069,-0.0165 0.0055,-0.007 0.01378,-0.011 0.0096,-0.004 0.0248,-0.006 0.01654,-0.003 0.04134,-0.003 0.02343,0 0.03858,0.003 0.01516,0.001 0.0248,0.006 0.0096,0.004 0.01378,0.011 0.0041,0.007 0.0069,0.0165 l 0.32246,1.08865 0.0028,0.01 0.0014,-0.01 0.327972,-1.08865 q 0.0028,-0.01 0.0069,-0.0165 0.0055,-0.007 0.01516,-0.011 0.0096,-0.004 0.02618,-0.006 0.01791,-0.003 0.04547,-0.003 0.02205,0 0.03583,0.001 0.01378,0.001 0.02205,0.006 0.0083,0.004 0.01102,0.011 0.0028,0.006 0.0028,0.0152 z"
                    id="path11458"/>
            <path
                    d="m 17.664656,122.48876 q 0,0.14883 -0.03859,0.27423 -0.03859,0.1254 -0.115755,0.21773 -0.07579,0.0923 -0.190169,0.1447 -0.114377,0.051 -0.265961,0.051 -0.146072,0 -0.256315,-0.0455 -0.108865,-0.0469 -0.183279,-0.13229 -0.07304,-0.0868 -0.110243,-0.20946 -0.03583,-0.12265 -0.03583,-0.27699 0,-0.14883 0.03721,-0.27423 0.03859,-0.1254 0.114377,-0.21635 0.07717,-0.0923 0.191547,-0.14332 0.114377,-0.051 0.26734,-0.051 0.146072,0 0.254936,0.0455 0.110243,0.0455 0.183279,0.13229 0.07304,0.0854 0.110243,0.20809 0.03721,0.12264 0.03721,0.2756 z m -0.173632,0.0152 q 0,-0.10611 -0.02067,-0.20257 -0.02067,-0.0965 -0.0689,-0.1695 -0.04823,-0.0744 -0.129535,-0.11713 -0.0813,-0.0441 -0.202572,-0.0441 -0.111621,0 -0.192925,0.04 -0.0813,0.04 -0.133669,0.11163 -0.05099,0.0703 -0.07579,0.16674 -0.0248,0.0965 -0.0248,0.20808 0,0.10749 0.02067,0.20533 0.02067,0.0965 0.0689,0.1695 0.04823,0.073 0.129536,0.11575 0.0813,0.0427 0.202571,0.0427 0.111621,0 0.192925,-0.04 0.08131,-0.04 0.132292,-0.11024 0.05237,-0.0703 0.07717,-0.16675 0.02481,-0.0965 0.02481,-0.20946 z"
                    id="path11460"/>
            <path
                    d="m 18.724367,121.94168 q 0,0.0207 -0.0014,0.0358 -0.0014,0.0138 -0.0055,0.0234 -0.0028,0.008 -0.0083,0.0138 -0.0041,0.004 -0.0124,0.004 -0.0124,0 -0.02894,-0.006 -0.01654,-0.007 -0.03859,-0.0138 -0.02205,-0.007 -0.04823,-0.0124 -0.02618,-0.007 -0.05788,-0.007 -0.03721,0 -0.07304,0.0165 -0.03583,0.0152 -0.07579,0.051 -0.03859,0.0344 -0.08268,0.0923 -0.04272,0.0579 -0.09508,0.14194 v 0.84336 q 0,0.008 -0.0041,0.0151 -0.0041,0.007 -0.01378,0.011 -0.0083,0.004 -0.02481,0.007 -0.01516,0.003 -0.03996,0.003 -0.02343,0 -0.03996,-0.003 -0.01516,-0.003 -0.0248,-0.007 -0.0096,-0.004 -0.01378,-0.011 -0.0028,-0.007 -0.0028,-0.0151 v -1.24713 q 0,-0.008 0.0028,-0.0152 0.0041,-0.007 0.01378,-0.011 0.0096,-0.006 0.02343,-0.007 0.01516,-0.003 0.03858,-0.003 0.02343,0 0.03859,0.003 0.01516,0.001 0.02343,0.007 0.0083,0.004 0.01102,0.011 0.0041,0.007 0.0041,0.0152 v 0.19706 q 0.05374,-0.0786 0.09922,-0.12678 0.04547,-0.0482 0.08682,-0.0744 0.04134,-0.0276 0.07993,-0.0372 0.03996,-0.01 0.0813,-0.01 0.01791,0 0.04134,0.003 0.02343,0.001 0.04961,0.007 0.02756,0.006 0.04823,0.0138 0.02205,0.007 0.03032,0.0138 0.0083,0.006 0.01103,0.011 0.0028,0.004 0.0041,0.0124 0.0028,0.007 0.0028,0.0207 0.0014,0.0124 0.0014,0.0331 z"
                    id="path11462"/>
            <path
                    d="m 19.956332,123.12266 q 0,0.01 -0.0041,0.0165 -0.0041,0.007 -0.01378,0.0124 -0.0096,0.004 -0.02618,0.007 -0.01654,0.003 -0.04272,0.003 -0.02756,0 -0.04547,-0.003 -0.01792,-0.001 -0.0317,-0.006 -0.0124,-0.004 -0.02205,-0.011 -0.0083,-0.007 -0.01654,-0.0165 l -0.584288,-0.70831 v 0.70831 q 0,0.008 -0.0041,0.0151 -0.0041,0.007 -0.01378,0.011 -0.0083,0.004 -0.02481,0.007 -0.01516,0.003 -0.03996,0.003 -0.02343,0 -0.03996,-0.003 -0.01516,-0.003 -0.02481,-0.007 -0.0096,-0.004 -0.01378,-0.011 -0.0028,-0.007 -0.0028,-0.0151 v -1.8576 q 0,-0.008 0.0028,-0.0152 0.0041,-0.007 0.01378,-0.011 0.0096,-0.006 0.02481,-0.007 0.01654,-0.003 0.03996,-0.003 0.0248,0 0.03996,0.003 0.01654,0.001 0.02481,0.007 0.0096,0.004 0.01378,0.011 0.0041,0.007 0.0041,0.0152 v 1.14653 l 0.525032,-0.53055 q 0.01103,-0.0124 0.02205,-0.0193 0.0124,-0.008 0.02618,-0.0124 0.01378,-0.006 0.03169,-0.007 0.01791,-0.003 0.04134,-0.003 0.02343,0 0.03996,0.001 0.01791,0.001 0.02894,0.006 0.01102,0.004 0.01654,0.011 0.0055,0.006 0.0055,0.0152 0,0.0138 -0.0083,0.0276 -0.0083,0.0124 -0.02894,0.0331 l -0.498849,0.47129 0.553971,0.66146 q 0.01791,0.0207 0.0248,0.0317 0.0069,0.011 0.0069,0.022 z"
                    id="path11464"/>
        </g>
    </g>
</svg>
