<?xml version="1.0" encoding="UTF-8" standalone="no"?>
<!-- Created with Inkscape (http://www.inkscape.org/) -->

<svg
   width="45.720001mm"
   height="128.5mm"
   viewBox="0 0 45.719999 128.49999"
   version="1.1"
   id="svg3066"
   inkscape:version="1.4 (86a8ad7, 2024-10-11)"
   sodipodi:docname="Lab.svg"
   xmlns:inkscape="http://www.inkscape.org/namespaces/inkscape"
   xmlns:sodipodi="http://sodipodi.sourceforge.net/DTD/sodipodi-0.dtd"
   xmlns:xlink="http://www.w3.org/1999/xlink"
   xmlns="http://www.w3.org/2000/svg"
   xmlns:svg="http://www.w3.org/2000/svg">
  <sodipodi:namedview
     id="namedview3068"
     pagecolor="#4c4c4c"
     bordercolor="#000000"
     borderopacity="0"
     inkscape:showpageshadow="false"
     inkscape:pageopacity="0"
     inkscape:pagecheckerboard="0"
     inkscape:deskcolor="#d1d1d1"
     inkscape:document-units="mm"
     showgrid="false"
     inkscape:zoom="4"
     inkscape:cx="79.625"
     inkscape:cy="388.625"
     inkscape:window-width="1879"
     inkscape:window-height="1211"
     inkscape:window-x="427"
     inkscape:window-y="64"
     inkscape:window-maximized="0"
     inkscape:current-layer="TextFinal"
     showborder="false"
     borderlayer="false"
     inkscape:antialias-rendering="true"
     inkscape:clip-to-page="true"
     showguides="false" />
  <defs
     id="defs3063">
    <linearGradient
       id="linearGradient50"
       inkscape:collect="always">
      <stop
         style="stop-color:#090909;stop-opacity:1;"
         offset="0"
         id="stop49" />
      <stop
         style="stop-color:#838383;stop-opacity:1;"
         offset="1"
         id="stop50" />
    </linearGradient>
    <linearGradient
       id="linearGradient7"
       inkscape:collect="always">
      <stop
         style="stop-color:#090909;stop-opacity:1;"
         offset="0"
         id="stop6" />
      <stop
         style="stop-color:#757575;stop-opacity:1;"
         offset="1"
         id="stop7" />
    </linearGradient>
    <linearGradient
       id="linearGradient4"
       inkscape:collect="always">
      <stop
         style="stop-color:#090909;stop-opacity:1;"
         offset="0"
         id="stop5" />
      <stop
         style="stop-color:#626262;stop-opacity:1;"
         offset="1"
         id="stop4" />
    </linearGradient>
    <linearGradient
       id="linearGradient55"
       inkscape:collect="always">
      <stop
         style="stop-color:#191919;stop-opacity:1;"
         offset="0"
         id="stop54" />
      <stop
         style="stop-color:#454545;stop-opacity:1;"
         offset="1"
         id="stop55" />
    </linearGradient>
    <linearGradient
       id="linearGradient52"
       inkscape:collect="always">
      <stop
         style="stop-color:#000000;stop-opacity:1;"
         offset="0.23146747"
         id="stop52" />
      <stop
         style="stop-color:#4e4e4e;stop-opacity:1;"
         offset="0.84417552"
         id="stop53" />
    </linearGradient>
    <linearGradient
       id="linearGradient41"
       inkscape:collect="always">
      <stop
         style="stop-color:#131313;stop-opacity:1;"
         offset="0"
         id="stop41" />
      <stop
         style="stop-color:#454545;stop-opacity:1;"
         offset="1"
         id="stop42" />
    </linearGradient>
    <rect
       x="13.435028"
       y="149.19953"
       width="49.497473"
       height="16.263456"
       id="rect1" />
    <inkscape:path-effect
       effect="fillet_chamfer"
       id="path-effect25263"
       is_visible="true"
       lpeversion="1"
       nodesatellites_param="F,0,0,1,0,2.1166667,0,1 @ F,0,0,1,0,2.1166667,0,1 @ F,0,0,1,0,2.1166667,0,1 @ F,0,0,1,0,2.1166667,0,1"
       unit="px"
       method="auto"
       mode="F"
       radius="8"
       chamfer_steps="1"
       flexible="false"
       use_knot_distance="true"
       apply_no_radius="true"
       apply_with_radius="true"
       only_selected="false"
       hide_knots="false" />
    <inkscape:path-effect
       effect="fillet_chamfer"
       id="path-effect25259"
       is_visible="true"
       lpeversion="1"
       nodesatellites_param="F,0,0,1,0,2.1166667,0,1 @ F,0,0,1,0,2.1166667,0,1 @ F,0,0,1,0,2.1166667,0,1 @ F,0,0,1,0,2.1166667,0,1"
       unit="px"
       method="auto"
       mode="F"
       radius="8"
       chamfer_steps="1"
       flexible="false"
       use_knot_distance="true"
       apply_no_radius="true"
       apply_with_radius="true"
       only_selected="false"
       hide_knots="false" />
    <inkscape:path-effect
       effect="fillet_chamfer"
       id="path-effect25249"
       is_visible="true"
       lpeversion="1"
       nodesatellites_param="F,0,0,1,0,2.1166667,0,1 @ F,0,0,1,0,2.1166667,0,1 @ F,0,0,1,0,2.1166667,0,1 @ F,0,0,1,0,2.1166667,0,1"
       unit="px"
       method="auto"
       mode="F"
       radius="8"
       chamfer_steps="1"
       flexible="false"
       use_knot_distance="true"
       apply_no_radius="true"
       apply_with_radius="true"
       only_selected="false"
       hide_knots="false" />
    <inkscape:path-effect
       effect="fillet_chamfer"
       id="path-effect25245"
       is_visible="true"
       lpeversion="1"
       nodesatellites_param="F,0,0,1,0,2.1166667,0,1 @ F,0,0,1,0,2.1166667,0,1 @ F,0,0,1,0,2.1166667,0,1 @ F,0,0,1,0,2.1166667,0,1"
       unit="px"
       method="auto"
       mode="F"
       radius="8"
       chamfer_steps="1"
       flexible="false"
       use_knot_distance="true"
       apply_no_radius="true"
       apply_with_radius="true"
       only_selected="false"
       hide_knots="false" />
    <linearGradient
       id="linearGradient13465"
       inkscape:swatch="solid">
      <stop
         style="stop-color:#ffffff;stop-opacity:1;"
         offset="0"
         id="stop13463" />
    </linearGradient>
    <inkscape:path-effect
       effect="fillet_chamfer"
       id="path-effect6506"
       is_visible="true"
       lpeversion="1"
       nodesatellites_param="F,0,0,1,0,2.1166667,0,1 @ F,0,0,1,0,2.1166667,0,1 @ F,0,0,1,0,2.1166667,0,1 @ F,0,0,1,0,2.1166667,0,1"
       unit="px"
       method="auto"
       mode="F"
       radius="8"
       chamfer_steps="1"
       flexible="false"
       use_knot_distance="true"
       apply_no_radius="true"
       apply_with_radius="true"
       only_selected="false"
       hide_knots="false" />
    <rect
       x="-51.782536"
       y="469.13434"
       width="344.70166"
       height="71.104378"
       id="rect6338" />
    <inkscape:path-effect
       effect="fillet_chamfer"
       id="path-effect6506-3"
       is_visible="true"
       lpeversion="1"
       nodesatellites_param="F,0,0,1,0,2.1166667,0,1 @ F,0,0,1,0,2.1166667,0,1 @ F,0,0,1,0,2.1166667,0,1 @ F,0,0,1,0,2.1166667,0,1"
       unit="px"
       method="auto"
       mode="F"
       radius="8"
       chamfer_steps="1"
       flexible="false"
       use_knot_distance="true"
       apply_no_radius="true"
       apply_with_radius="true"
       only_selected="false"
       hide_knots="false" />
    <inkscape:path-effect
       effect="fillet_chamfer"
       id="path-effect6506-9"
       is_visible="true"
       lpeversion="1"
       nodesatellites_param="F,0,0,1,0,2.1166667,0,1 @ F,0,0,1,0,2.1166667,0,1 @ F,0,0,1,0,2.1166667,0,1 @ F,0,0,1,0,2.1166667,0,1"
       unit="px"
       method="auto"
       mode="F"
       radius="8"
       chamfer_steps="1"
       flexible="false"
       use_knot_distance="true"
       apply_no_radius="true"
       apply_with_radius="true"
       only_selected="false"
       hide_knots="false" />
    <inkscape:path-effect
       effect="fillet_chamfer"
       id="path-effect6506-2"
       is_visible="true"
       lpeversion="1"
       nodesatellites_param="F,0,0,1,0,2.1166667,0,1 @ F,0,0,1,0,2.1166667,0,1 @ F,0,0,1,0,2.1166667,0,1 @ F,0,0,1,0,2.1166667,0,1"
       unit="px"
       method="auto"
       mode="F"
       radius="8"
       chamfer_steps="1"
       flexible="false"
       use_knot_distance="true"
       apply_no_radius="true"
       apply_with_radius="true"
       only_selected="false"
       hide_knots="false" />
    <inkscape:path-effect
       effect="fillet_chamfer"
       id="path-effect6506-2-7"
       is_visible="true"
       lpeversion="1"
       nodesatellites_param="F,0,0,1,0,2.1166667,0,1 @ F,0,0,1,0,2.1166667,0,1 @ F,0,0,1,0,2.1166667,0,1 @ F,0,0,1,0,2.1166667,0,1"
       unit="px"
       method="auto"
       mode="F"
       radius="8"
       chamfer_steps="1"
       flexible="false"
       use_knot_distance="true"
       apply_no_radius="true"
       apply_with_radius="true"
       only_selected="false"
       hide_knots="false" />
    <inkscape:path-effect
       effect="fillet_chamfer"
       id="path-effect6506-2-9"
       is_visible="true"
       lpeversion="1"
       nodesatellites_param="F,0,0,1,0,2.1166667,0,1 @ F,0,0,1,0,2.1166667,0,1 @ F,0,0,1,0,2.1166667,0,1 @ F,0,0,1,0,2.1166667,0,1"
       unit="px"
       method="auto"
       mode="F"
       radius="8"
       chamfer_steps="1"
       flexible="false"
       use_knot_distance="true"
       apply_no_radius="true"
       apply_with_radius="true"
       only_selected="false"
       hide_knots="false" />
    <inkscape:path-effect
       effect="fillet_chamfer"
       id="path-effect6506-2-4"
       is_visible="true"
       lpeversion="1"
       nodesatellites_param="F,0,0,1,0,2.1166667,0,1 @ F,0,0,1,0,2.1166667,0,1 @ F,0,0,1,0,2.1166667,0,1 @ F,0,0,1,0,2.1166667,0,1"
       unit="px"
       method="auto"
       mode="F"
       radius="8"
       chamfer_steps="1"
       flexible="false"
       use_knot_distance="true"
       apply_no_radius="true"
       apply_with_radius="true"
       only_selected="false"
       hide_knots="false" />
    <inkscape:path-effect
       effect="fillet_chamfer"
       id="path-effect6506-2-9-2"
       is_visible="true"
       lpeversion="1"
       nodesatellites_param="F,0,0,1,0,2.1166667,0,1 @ F,0,0,1,0,2.1166667,0,1 @ F,0,0,1,0,2.1166667,0,1 @ F,0,0,1,0,2.1166667,0,1"
       unit="px"
       method="auto"
       mode="F"
       radius="8"
       chamfer_steps="1"
       flexible="false"
       use_knot_distance="true"
       apply_no_radius="true"
       apply_with_radius="true"
       only_selected="false"
       hide_knots="false" />
    <inkscape:path-effect
       effect="fillet_chamfer"
       id="path-effect6506-2-9-8"
       is_visible="true"
       lpeversion="1"
       nodesatellites_param="F,0,0,1,0,2.1166667,0,1 @ F,0,0,1,0,2.1166667,0,1 @ F,0,0,1,0,2.1166667,0,1 @ F,0,0,1,0,2.1166667,0,1"
       unit="px"
       method="auto"
       mode="F"
       radius="8"
       chamfer_steps="1"
       flexible="false"
       use_knot_distance="true"
       apply_no_radius="true"
       apply_with_radius="true"
       only_selected="false"
       hide_knots="false" />
    <inkscape:path-effect
       effect="fillet_chamfer"
       id="path-effect6506-2-9-20"
       is_visible="true"
       lpeversion="1"
       nodesatellites_param="F,0,0,1,0,2.1166667,0,1 @ F,0,0,1,0,2.1166667,0,1 @ F,0,0,1,0,2.1166667,0,1 @ F,0,0,1,0,2.1166667,0,1"
       unit="px"
       method="auto"
       mode="F"
       radius="8"
       chamfer_steps="1"
       flexible="false"
       use_knot_distance="true"
       apply_no_radius="true"
       apply_with_radius="true"
       only_selected="false"
       hide_knots="false" />
    <inkscape:path-effect
       effect="fillet_chamfer"
       id="path-effect6506-2-9-8-7"
       is_visible="true"
       lpeversion="1"
       nodesatellites_param="F,0,0,1,0,2.1166667,0,1 @ F,0,0,1,0,2.1166667,0,1 @ F,0,0,1,0,2.1166667,0,1 @ F,0,0,1,0,2.1166667,0,1"
       unit="px"
       method="auto"
       mode="F"
       radius="8"
       chamfer_steps="1"
       flexible="false"
       use_knot_distance="true"
       apply_no_radius="true"
       apply_with_radius="true"
       only_selected="false"
       hide_knots="false" />
    <inkscape:path-effect
       effect="fillet_chamfer"
       id="path-effect6506-2-9-8-5"
       is_visible="true"
       lpeversion="1"
       nodesatellites_param="F,0,0,1,0,2.1166667,0,1 @ F,0,0,1,0,2.1166667,0,1 @ F,0,0,1,0,2.1166667,0,1 @ F,0,0,1,0,2.1166667,0,1"
       unit="px"
       method="auto"
       mode="F"
       radius="8"
       chamfer_steps="1"
       flexible="false"
       use_knot_distance="true"
       apply_no_radius="true"
       apply_with_radius="true"
       only_selected="false"
       hide_knots="false" />
    <inkscape:path-effect
       effect="fillet_chamfer"
       id="path-effect6506-2-9-20-9"
       is_visible="true"
       lpeversion="1"
       nodesatellites_param="F,0,0,1,0,2.1166667,0,1 @ F,0,0,1,0,2.1166667,0,1 @ F,0,0,1,0,2.1166667,0,1 @ F,0,0,1,0,2.1166667,0,1"
       unit="px"
       method="auto"
       mode="F"
       radius="8"
       chamfer_steps="1"
       flexible="false"
       use_knot_distance="true"
       apply_no_radius="true"
       apply_with_radius="true"
       only_selected="false"
       hide_knots="false" />
    <inkscape:path-effect
       effect="fillet_chamfer"
       id="path-effect6506-2-9-8-7-3"
       is_visible="true"
       lpeversion="1"
       nodesatellites_param="F,0,0,1,0,2.1166667,0,1 @ F,0,0,1,0,2.1166667,0,1 @ F,0,0,1,0,2.1166667,0,1 @ F,0,0,1,0,2.1166667,0,1"
       unit="px"
       method="auto"
       mode="F"
       radius="8"
       chamfer_steps="1"
       flexible="false"
       use_knot_distance="true"
       apply_no_radius="true"
       apply_with_radius="true"
       only_selected="false"
       hide_knots="false" />
    <inkscape:path-effect
       effect="fillet_chamfer"
       id="path-effect6506-2-9-8-5-1"
       is_visible="true"
       lpeversion="1"
       nodesatellites_param="F,0,0,1,0,2.1166667,0,1 @ F,0,0,1,0,2.1166667,0,1 @ F,0,0,1,0,2.1166667,0,1 @ F,0,0,1,0,2.1166667,0,1"
       unit="px"
       method="auto"
       mode="F"
       radius="8"
       chamfer_steps="1"
       flexible="false"
       use_knot_distance="true"
       apply_no_radius="true"
       apply_with_radius="true"
       only_selected="false"
       hide_knots="false" />
    <inkscape:path-effect
       effect="fillet_chamfer"
       id="path-effect6506-2-9-8-7-3-2"
       is_visible="true"
       lpeversion="1"
       nodesatellites_param="F,0,0,1,0,2.1166667,0,1 @ F,0,0,1,0,2.1166667,0,1 @ F,0,0,1,0,2.1166667,0,1 @ F,0,0,1,0,2.1166667,0,1"
       unit="px"
       method="auto"
       mode="F"
       radius="8"
       chamfer_steps="1"
       flexible="false"
       use_knot_distance="true"
       apply_no_radius="true"
       apply_with_radius="true"
       only_selected="false"
       hide_knots="false" />
    <inkscape:path-effect
       effect="fillet_chamfer"
       id="path-effect6506-2-9-8-5-1-4"
       is_visible="true"
       lpeversion="1"
       nodesatellites_param="F,0,0,1,0,2.1166667,0,1 @ F,0,0,1,0,2.1166667,0,1 @ F,0,0,1,0,2.1166667,0,1 @ F,0,0,1,0,2.1166667,0,1"
       unit="px"
       method="auto"
       mode="F"
       radius="8"
       chamfer_steps="1"
       flexible="false"
       use_knot_distance="true"
       apply_no_radius="true"
       apply_with_radius="true"
       only_selected="false"
       hide_knots="false" />
    <inkscape:path-effect
       effect="fillet_chamfer"
       id="path-effect6506-2-9-8-5-9"
       is_visible="true"
       lpeversion="1"
       nodesatellites_param="F,0,0,1,0,2.1166667,0,1 @ F,0,0,1,0,2.1166667,0,1 @ F,0,0,1,0,2.1166667,0,1 @ F,0,0,1,0,2.1166667,0,1"
       unit="px"
       method="auto"
       mode="F"
       radius="8"
       chamfer_steps="1"
       flexible="false"
       use_knot_distance="true"
       apply_no_radius="true"
       apply_with_radius="true"
       only_selected="false"
       hide_knots="false" />
    <filter
       style="color-interpolation-filters:sRGB"
       inkscape:label="Noise Fill"
       id="filter90"
       x="0"
       y="0"
       width="1"
       height="1">
      <feTurbulence
         type="fractalNoise"
         baseFrequency="100 100"
         numOctaves="1"
         seed="63"
         result="turbulence"
         id="feTurbulence89" />
      <feComposite
         in="SourceGraphic"
         in2="turbulence"
         operator="out"
         result="composite1"
         id="feComposite89" />
      <feColorMatrix
         values="1 0 0 0 0 0 1 0 0 0 0 0 1 0 0 0 0 0 2.6383 -0.911854 "
         result="color"
         id="feColorMatrix89" />
      <feFlood
         flood-opacity="1"
         flood-color="rgb(48,49,53)"
         result="flood"
         id="feFlood89" />
      <feMerge
         result="merge"
         id="feMerge90">
        <feMergeNode
           in="flood"
           id="feMergeNode89" />
        <feMergeNode
           in="color"
           id="feMergeNode90" />
      </feMerge>
      <feComposite
         in2="SourceGraphic"
         operator="in"
         result="fbSourceGraphic"
         id="feComposite90" />
      <feColorMatrix
         result="fbSourceGraphicAlpha"
         in="fbSourceGraphic"
         values="0 0 0 -1 0 0 0 0 -1 0 0 0 0 -1 0 0 0 0 1 0"
         id="feColorMatrix90" />
      <feTurbulence
         id="feTurbulence90"
         type="fractalNoise"
         baseFrequency="100 100"
         numOctaves="1"
         seed="63"
         result="turbulence" />
      <feComposite
         id="feComposite91"
         in="fbSourceGraphic"
         in2="turbulence"
         operator="out"
         result="composite1" />
      <feColorMatrix
         id="feColorMatrix91"
         values="1 0 0 0 0 0 1 0 0 0 0 0 1 0 0 0 0 0 2.6383 -0.911854 "
         result="color" />
      <feFlood
         id="feFlood91"
         flood-opacity="1"
         flood-color="rgb(48,49,53)"
         result="flood" />
      <feMerge
         id="feMerge91"
         result="merge">
        <feMergeNode
           id="feMergeNode91"
           in="flood" />
        <feMergeNode
           id="feMergeNode92"
           in="color" />
      </feMerge>
      <feComposite
         id="feComposite92"
         in2="fbSourceGraphic"
         operator="in"
         result="fbSourceGraphic" />
      <feColorMatrix
         result="fbSourceGraphicAlpha"
         in="fbSourceGraphic"
         values="0 0 0 -1 0 0 0 0 -1 0 0 0 0 -1 0 0 0 0 1 0"
         id="feColorMatrix92" />
      <feTurbulence
         id="feTurbulence92"
         type="fractalNoise"
         baseFrequency="100 100"
         numOctaves="1"
         seed="63"
         result="turbulence" />
      <feComposite
         id="feComposite93"
         in="fbSourceGraphic"
         in2="turbulence"
         operator="out"
         result="composite1" />
      <feColorMatrix
         id="feColorMatrix93"
         values="1 0 0 0 0 0 1 0 0 0 0 0 1 0 0 0 0 0 2.6383 -0.911854 "
         result="color" />
      <feFlood
         id="feFlood93"
         flood-opacity="1"
         flood-color="rgb(48,49,53)"
         result="flood" />
      <feMerge
         id="feMerge93"
         result="merge">
        <feMergeNode
           id="feMergeNode93"
           in="flood" />
        <feMergeNode
           id="feMergeNode94"
           in="color" />
      </feMerge>
      <feComposite
         id="feComposite94"
         in2="fbSourceGraphic"
         operator="in"
         result="fbSourceGraphic" />
      <feColorMatrix
         result="fbSourceGraphicAlpha"
         in="fbSourceGraphic"
         values="0 0 0 -1 0 0 0 0 -1 0 0 0 0 -1 0 0 0 0 1 0"
         id="feColorMatrix94" />
      <feTurbulence
         id="feTurbulence94"
         type="fractalNoise"
         baseFrequency="100 100"
         numOctaves="1"
         seed="63"
         result="turbulence" />
      <feComposite
         id="feComposite95"
         in="fbSourceGraphic"
         in2="turbulence"
         operator="out"
         result="composite1" />
      <feColorMatrix
         id="feColorMatrix95"
         values="1 0 0 0 0 0 1 0 0 0 0 0 1 0 0 0 0 0 2.6383 -0.911854 "
         result="color" />
      <feFlood
         id="feFlood95"
         flood-opacity="1"
         flood-color="rgb(48,49,53)"
         result="flood" />
      <feMerge
         id="feMerge95"
         result="merge">
        <feMergeNode
           id="feMergeNode95"
           in="flood" />
        <feMergeNode
           id="feMergeNode96"
           in="color" />
      </feMerge>
      <feComposite
         id="feComposite96"
         in2="fbSourceGraphic"
         operator="in"
         result="composite2" />
    </filter>
    <inkscape:path-effect
       effect="fillet_chamfer"
       id="path-effect6506-2-9-8-5-4"
       is_visible="true"
       lpeversion="1"
       nodesatellites_param="F,0,0,1,0,2.1166667,0,1 @ F,0,0,1,0,2.1166667,0,1 @ F,0,0,1,0,2.1166667,0,1 @ F,0,0,1,0,2.1166667,0,1"
       unit="px"
       method="auto"
       mode="F"
       radius="8"
       chamfer_steps="1"
       flexible="false"
       use_knot_distance="true"
       apply_no_radius="true"
       apply_with_radius="true"
       only_selected="false"
       hide_knots="false" />
    <inkscape:path-effect
       effect="fillet_chamfer"
       id="path-effect6506-2-9-8-5-45"
       is_visible="true"
       lpeversion="1"
       nodesatellites_param="F,0,0,1,0,2.1166667,0,1 @ F,0,0,1,0,2.1166667,0,1 @ F,0,0,1,0,2.1166667,0,1 @ F,0,0,1,0,2.1166667,0,1"
       unit="px"
       method="auto"
       mode="F"
       radius="8"
       chamfer_steps="1"
       flexible="false"
       use_knot_distance="true"
       apply_no_radius="true"
       apply_with_radius="true"
       only_selected="false"
       hide_knots="false" />
    <inkscape:path-effect
       effect="fillet_chamfer"
       id="path-effect6506-2-9-8-5-15"
       is_visible="true"
       lpeversion="1"
       nodesatellites_param="F,0,0,1,0,2.1166667,0,1 @ F,0,0,1,0,2.1166667,0,1 @ F,0,0,1,0,2.1166667,0,1 @ F,0,0,1,0,2.1166667,0,1"
       unit="px"
       method="auto"
       mode="F"
       radius="8"
       chamfer_steps="1"
       flexible="false"
       use_knot_distance="true"
       apply_no_radius="true"
       apply_with_radius="true"
       only_selected="false"
       hide_knots="false" />
    <inkscape:path-effect
       effect="fillet_chamfer"
       id="path-effect6506-2-9-8-5-2"
       is_visible="true"
       lpeversion="1"
       nodesatellites_param="F,0,0,1,0,2.1166667,0,1 @ F,0,0,1,0,2.1166667,0,1 @ F,0,0,1,0,2.1166667,0,1 @ F,0,0,1,0,2.1166667,0,1"
       unit="px"
       method="auto"
       mode="F"
       radius="8"
       chamfer_steps="1"
       flexible="false"
       use_knot_distance="true"
       apply_no_radius="true"
       apply_with_radius="true"
       only_selected="false"
       hide_knots="false" />
    <inkscape:path-effect
       effect="fillet_chamfer"
       id="path-effect6506-2-9-8-5-8"
       is_visible="true"
       lpeversion="1"
       nodesatellites_param="F,0,0,1,0,2.1166667,0,1 @ F,0,0,1,0,2.1166667,0,1 @ F,0,0,1,0,2.1166667,0,1 @ F,0,0,1,0,2.1166667,0,1"
       unit="px"
       method="auto"
       mode="F"
       radius="8"
       chamfer_steps="1"
       flexible="false"
       use_knot_distance="true"
       apply_no_radius="true"
       apply_with_radius="true"
       only_selected="false"
       hide_knots="false" />
    <inkscape:path-effect
       effect="fillet_chamfer"
       id="path-effect6506-2-9-8-5-48"
       is_visible="true"
       lpeversion="1"
       nodesatellites_param="F,0,0,1,0,2.1166667,0,1 @ F,0,0,1,0,2.1166667,0,1 @ F,0,0,1,0,2.1166667,0,1 @ F,0,0,1,0,2.1166667,0,1"
       unit="px"
       method="auto"
       mode="F"
       radius="8"
       chamfer_steps="1"
       flexible="false"
       use_knot_distance="true"
       apply_no_radius="true"
       apply_with_radius="true"
       only_selected="false"
       hide_knots="false" />
    <inkscape:path-effect
       effect="fillet_chamfer"
       id="path-effect6506-2-9-8-5-5"
       is_visible="true"
       lpeversion="1"
       nodesatellites_param="F,0,0,1,0,2.1166667,0,1 @ F,0,0,1,0,2.1166667,0,1 @ F,0,0,1,0,2.1166667,0,1 @ F,0,0,1,0,2.1166667,0,1"
       unit="px"
       method="auto"
       mode="F"
       radius="8"
       chamfer_steps="1"
       flexible="false"
       use_knot_distance="true"
       apply_no_radius="true"
       apply_with_radius="true"
       only_selected="false"
       hide_knots="false" />
    <inkscape:path-effect
       effect="fillet_chamfer"
       id="path-effect6506-2-9-8-5-23"
       is_visible="true"
       lpeversion="1"
       nodesatellites_param="F,0,0,1,0,2.1166667,0,1 @ F,0,0,1,0,2.1166667,0,1 @ F,0,0,1,0,2.1166667,0,1 @ F,0,0,1,0,2.1166667,0,1"
       unit="px"
       method="auto"
       mode="F"
       radius="8"
       chamfer_steps="1"
       flexible="false"
       use_knot_distance="true"
       apply_no_radius="true"
       apply_with_radius="true"
       only_selected="false"
       hide_knots="false" />
    <inkscape:path-effect
       effect="fillet_chamfer"
       id="path-effect6506-2-9-8-5-57"
       is_visible="true"
       lpeversion="1"
       nodesatellites_param="F,0,0,1,0,2.1166667,0,1 @ F,0,0,1,0,2.1166667,0,1 @ F,0,0,1,0,2.1166667,0,1 @ F,0,0,1,0,2.1166667,0,1"
       unit="px"
       method="auto"
       mode="F"
       radius="8"
       chamfer_steps="1"
       flexible="false"
       use_knot_distance="true"
       apply_no_radius="true"
       apply_with_radius="true"
       only_selected="false"
       hide_knots="false" />
    <inkscape:path-effect
       effect="fillet_chamfer"
       id="path-effect25245-0"
       is_visible="true"
       lpeversion="1"
       nodesatellites_param="F,0,0,1,0,2.1166667,0,1 @ F,0,0,1,0,2.1166667,0,1 @ F,0,0,1,0,2.1166667,0,1 @ F,0,0,1,0,2.1166667,0,1"
       unit="px"
       method="auto"
       mode="F"
       radius="8"
       chamfer_steps="1"
       flexible="false"
       use_knot_distance="true"
       apply_no_radius="true"
       apply_with_radius="true"
       only_selected="false"
       hide_knots="false" />
    <inkscape:path-effect
       effect="fillet_chamfer"
       id="path-effect25249-9"
       is_visible="true"
       lpeversion="1"
       nodesatellites_param="F,0,0,1,0,2.1166667,0,1 @ F,0,0,1,0,2.1166667,0,1 @ F,0,0,1,0,2.1166667,0,1 @ F,0,0,1,0,2.1166667,0,1"
       unit="px"
       method="auto"
       mode="F"
       radius="8"
       chamfer_steps="1"
       flexible="false"
       use_knot_distance="true"
       apply_no_radius="true"
       apply_with_radius="true"
       only_selected="false"
       hide_knots="false" />
    <inkscape:path-effect
       effect="fillet_chamfer"
       id="path-effect25245-0-9"
       is_visible="true"
       lpeversion="1"
       nodesatellites_param="F,0,0,1,0,2.1166667,0,1 @ F,0,0,1,0,2.1166667,0,1 @ F,0,0,1,0,2.1166667,0,1 @ F,0,0,1,0,2.1166667,0,1"
       unit="px"
       method="auto"
       mode="F"
       radius="8"
       chamfer_steps="1"
       flexible="false"
       use_knot_distance="true"
       apply_no_radius="true"
       apply_with_radius="true"
       only_selected="false"
       hide_knots="false" />
    <inkscape:path-effect
       effect="fillet_chamfer"
       id="path-effect25249-9-5"
       is_visible="true"
       lpeversion="1"
       nodesatellites_param="F,0,0,1,0,2.1166667,0,1 @ F,0,0,1,0,2.1166667,0,1 @ F,0,0,1,0,2.1166667,0,1 @ F,0,0,1,0,2.1166667,0,1"
       unit="px"
       method="auto"
       mode="F"
       radius="8"
       chamfer_steps="1"
       flexible="false"
       use_knot_distance="true"
       apply_no_radius="true"
       apply_with_radius="true"
       only_selected="false"
       hide_knots="false" />
    <inkscape:path-effect
       effect="fillet_chamfer"
       id="path-effect6506-2-9-8-5-13"
       is_visible="true"
       lpeversion="1"
       nodesatellites_param="F,0,0,1,0,2.1166667,0,1 @ F,0,0,1,0,2.1166667,0,1 @ F,0,0,1,0,2.1166667,0,1 @ F,0,0,1,0,2.1166667,0,1"
       unit="px"
       method="auto"
       mode="F"
       radius="8"
       chamfer_steps="1"
       flexible="false"
       use_knot_distance="true"
       apply_no_radius="true"
       apply_with_radius="true"
       only_selected="false"
       hide_knots="false" />
    <linearGradient
       inkscape:collect="always"
       xlink:href="#linearGradient41"
       id="linearGradient42-8"
       x1="40.458382"
       y1="278.36243"
       x2="66.541748"
       y2="289.97546"
       gradientUnits="userSpaceOnUse"
       gradientTransform="translate(2.8704925,104.72091)" />
    <linearGradient
       inkscape:collect="always"
       xlink:href="#linearGradient55"
       id="linearGradient42-1"
       x1="40.458382"
       y1="278.36243"
       x2="66.541748"
       y2="289.97546"
       gradientUnits="userSpaceOnUse"
       gradientTransform="translate(61.626401,148.71866)" />
    <linearGradient
       inkscape:collect="always"
       xlink:href="#linearGradient52"
       id="linearGradient53-3"
       x1="41.950684"
       y1="275.77783"
       x2="65.049446"
       y2="292.56006"
       gradientUnits="userSpaceOnUse"
       gradientTransform="translate(-0.48124837,192.47731)" />
    <linearGradient
       inkscape:collect="always"
       xlink:href="#linearGradient4"
       id="linearGradient5-2"
       gradientUnits="userSpaceOnUse"
       x1="43.977722"
       y1="291.13144"
       x2="57.167992"
       y2="299.6955"
       gradientTransform="translate(2.8709008,104.72035)" />
    <linearGradient
       inkscape:collect="always"
       xlink:href="#linearGradient7"
       id="linearGradient6"
       gradientUnits="userSpaceOnUse"
       x1="45.859604"
       y1="290.57465"
       x2="58.870365"
       y2="300.62689" />
    <linearGradient
       inkscape:collect="always"
       xlink:href="#linearGradient7"
       id="linearGradient6-2"
       gradientUnits="userSpaceOnUse"
       x1="45.859776"
       y1="290.57443"
       x2="58.870193"
       y2="300.62711"
       gradientTransform="translate(2.8704916,104.7209)" />
    <linearGradient
       inkscape:collect="always"
       xlink:href="#linearGradient7"
       id="linearGradient8"
       gradientUnits="userSpaceOnUse"
       x1="48.616386"
       y1="293.00674"
       x2="58.870193"
       y2="300.62711"
       gradientTransform="matrix(0.40792098,0,0,0.40792098,-14.697185,-65.081864)" />
    <linearGradient
       inkscape:collect="always"
       xlink:href="#linearGradient7"
       id="linearGradient9"
       gradientUnits="userSpaceOnUse"
       x1="44.724701"
       y1="290.57443"
       x2="58.870193"
       y2="300.62711"
       gradientTransform="matrix(0.40792098,0,0,0.40792099,16.769589,-65.13139)" />
    <linearGradient
       inkscape:collect="always"
       xlink:href="#linearGradient7"
       id="linearGradient10"
       gradientUnits="userSpaceOnUse"
       x1="44.886852"
       y1="290.25012"
       x2="58.870193"
       y2="300.62711"
       gradientTransform="matrix(0.40792098,0,0,0.40792098,1.7296426,-65.032337)" />
    <linearGradient
       inkscape:collect="always"
       xlink:href="#linearGradient7"
       id="linearGradient8-5"
       gradientUnits="userSpaceOnUse"
       x1="45.859776"
       y1="290.57443"
       x2="58.870193"
       y2="300.62711"
       gradientTransform="matrix(0.40792098,0,0,0.40792098,-12.467918,-22.364008)" />
    <linearGradient
       inkscape:collect="always"
       xlink:href="#linearGradient7"
       id="linearGradient13"
       gradientUnits="userSpaceOnUse"
       gradientTransform="matrix(0.40792098,0,0,0.40792098,-14.697185,-65.081864)"
       x1="122.72057"
       y1="359.32758"
       x2="132.65005"
       y2="388.02786" />
    <linearGradient
       inkscape:collect="always"
       xlink:href="#linearGradient7"
       id="linearGradient13-6"
       gradientUnits="userSpaceOnUse"
       gradientTransform="matrix(0.40792098,0,0,0.40792098,-12.468185,13.896265)"
       x1="125.96363"
       y1="355.11157"
       x2="137.51466"
       y2="389.81155" />
    <linearGradient
       inkscape:collect="always"
       xlink:href="#linearGradient50"
       id="linearGradient42"
       gradientUnits="userSpaceOnUse"
       gradientTransform="matrix(0.40792098,0,0,0.40792098,-14.697185,-65.081864)"
       x1="106.5052"
       y1="411.8653"
       x2="137.83897"
       y2="458.4025" />
    <linearGradient
       inkscape:collect="always"
       xlink:href="#linearGradient7"
       id="linearGradient46"
       gradientUnits="userSpaceOnUse"
       x1="47.156834"
       y1="291.70972"
       x2="58.870365"
       y2="300.62689" />
  </defs>
  <g
     inkscape:groupmode="layer"
     id="Design"
     inkscape:label="Design"
     style="display:inline">
    <rect
       style="display:inline;fill:#26282f;fill-opacity:1;stroke:none;stroke-width:0;stroke-linecap:square;stroke-linejoin:round;stroke-dasharray:none;stroke-opacity:0"
       id="rect6604"
       width="45.547237"
       height="128.32722"
       x="0"
       y="-1.3877788e-17"
       inkscape:label="bg"
       inkscape:highlight-color="#ffffff"
       transform="matrix(1.0977614,0,0,1.0950858,-2.1399989,0)" />
    <rect
       x="2.3612914"
       y="97.8946"
       width="40.995419"
       height="26.452368"
       rx="1.156"
       ry="1.156"
       style="font-variation-settings:normal;display:inline;opacity:1;vector-effect:none;fill:#111111;fill-opacity:1;stroke:url(#linearGradient42);stroke-width:0.264583;stroke-linecap:butt;stroke-linejoin:miter;stroke-miterlimit:4;stroke-dasharray:none;stroke-dashoffset:0;stroke-opacity:1;-inkscape-stroke:none;stop-color:#000000;stop-opacity:1"
       id="rect44-8-89"
       inkscape:label="knobs" />
    <rect
       x="2.3612914"
       y="79.11042"
       width="40.995907"
       height="15.973417"
       rx="1.156"
       style="font-variation-settings:normal;display:inline;opacity:1;vector-effect:none;fill:#111111;fill-opacity:1;stroke:url(#linearGradient13);stroke-width:0.264583;stroke-linecap:butt;stroke-linejoin:miter;stroke-miterlimit:4;stroke-dasharray:none;stroke-dashoffset:0;stroke-opacity:1;-inkscape-stroke:none;stop-color:#000000;stop-opacity:1"
       id="rect44-8-6"
       ry="1.156"
       inkscape:label="faders" />
    <rect
       x="39.224289"
       y="264.59048"
       width="28.55155"
       height="39.15691"
       rx="2.83465"
       ry="2.83465"
       style="font-variation-settings:normal;display:inline;opacity:1;vector-effect:none;fill:#111111;fill-opacity:1;stroke:url(#linearGradient6);stroke-width:0.648614;stroke-linecap:butt;stroke-linejoin:miter;stroke-miterlimit:4;stroke-dasharray:none;stroke-dashoffset:0;stroke-opacity:1;-inkscape-stroke:none;stop-color:#000000;stop-opacity:1"
       id="rect44-8-8"
       transform="matrix(0.40792098,0,0,0.40792098,9.2705833,-47.134256)"
       inkscape:label="mod" />
    <rect
       x="39.224289"
       y="264.59048"
       width="28.55155"
       height="39.15691"
       rx="2.8338821"
       ry="2.83465"
       style="font-variation-settings:normal;display:inline;opacity:1;vector-effect:none;fill:#111111;fill-opacity:1;stroke:url(#linearGradient46);stroke-width:0.648614;stroke-linecap:butt;stroke-linejoin:miter;stroke-miterlimit:4;stroke-dasharray:none;stroke-dashoffset:0;stroke-opacity:1;-inkscape-stroke:none;stop-color:#000000;stop-opacity:1"
       id="rect44-8"
       transform="matrix(0.40792098,0,0,0.40792098,-6.6544166,-47.134256)"
       inkscape:label="bend" />
    <rect
       x="31.711292"
       y="42.800621"
       width="11.646417"
       height="15.972436"
       rx="1.1562775"
       ry="1.1562778"
       style="font-variation-settings:normal;display:inline;opacity:1;vector-effect:none;fill:#111111;fill-opacity:1;stroke:url(#linearGradient9);stroke-width:0.264583;stroke-linecap:butt;stroke-linejoin:miter;stroke-miterlimit:4;stroke-dasharray:none;stroke-dashoffset:0;stroke-opacity:1;-inkscape-stroke:none;stop-color:#000000;stop-opacity:1"
       id="rect44-9-1"
       inkscape:label="vel" />
    <rect
       x="17.036613"
       y="42.899673"
       width="11.646776"
       height="15.972925"
       rx="1.1563132"
       ry="1.1563132"
       style="font-variation-settings:normal;display:inline;opacity:1;vector-effect:none;fill:#111111;fill-opacity:1;stroke:url(#linearGradient10);stroke-width:0.264583;stroke-linecap:butt;stroke-linejoin:miter;stroke-miterlimit:4;stroke-dasharray:none;stroke-dashoffset:0;stroke-opacity:1;-inkscape-stroke:none;stop-color:#000000;stop-opacity:1"
       id="rect44-9"
       inkscape:label="gate" />
    <rect
       x="2.3615587"
       y="42.850147"
       width="11.646776"
       height="15.972925"
       rx="1.156"
       ry="1.1563132"
       style="font-variation-settings:normal;display:inline;opacity:1;vector-effect:none;fill:#111111;fill-opacity:1;stroke:url(#linearGradient8);stroke-width:0.264583;stroke-linecap:butt;stroke-linejoin:miter;stroke-miterlimit:4;stroke-dasharray:none;stroke-dashoffset:0;stroke-opacity:1;-inkscape-stroke:none;stop-color:#000000;stop-opacity:1"
       id="rect44"
       inkscape:label="voct" />
  </g>
  <g
     inkscape:groupmode="layer"
     id="Text"
     inkscape:label="Text"
     style="display:inline">
    <text
       xml:space="preserve"
       style="font-style:normal;font-variant:normal;font-weight:bold;font-stretch:normal;font-size:2.82222px;font-family:Nunito;-inkscape-font-specification:'Nunito Bold';text-align:start;writing-mode:lr-tb;direction:ltr;text-anchor:start;display:inline;fill:#bec510;fill-opacity:1;stroke:#ffffff;stroke-width:0;stroke-linecap:round;stroke-linejoin:round;stroke-dasharray:none;stroke-opacity:1;paint-order:markers fill stroke"
       x="17.905596"
       y="101.91898"
       id="text3-9-5-8-9"
       inkscape:label="knobs"><tspan
         sodipodi:role="line"
         id="tspan3-31-0-6-0"
         style="font-style:normal;font-variant:normal;font-weight:600;font-stretch:normal;font-size:2.82222px;font-family:Nunito;-inkscape-font-specification:'Nunito Semi-Bold';fill:#ffffff;fill-opacity:1;stroke:#ffffff;stroke-width:0;stroke-dasharray:none;stroke-opacity:0"
         x="17.905596"
         y="101.91898">KNOBS</tspan></text>
    <text
       xml:space="preserve"
       style="font-style:normal;font-variant:normal;font-weight:bold;font-stretch:normal;font-size:2.82222px;font-family:Nunito;-inkscape-font-specification:'Nunito Bold';text-align:start;writing-mode:lr-tb;direction:ltr;text-anchor:start;display:inline;fill:#bec510;fill-opacity:1;stroke:#ffffff;stroke-width:0;stroke-linecap:round;stroke-linejoin:round;stroke-dasharray:none;stroke-opacity:1;paint-order:markers fill stroke"
       x="17.332087"
       y="83.22596"
       id="text3-9-5-8"
       inkscape:label="faders"><tspan
         sodipodi:role="line"
         id="tspan3-31-0-6"
         style="font-style:normal;font-variant:normal;font-weight:600;font-stretch:normal;font-size:2.82222px;font-family:Nunito;-inkscape-font-specification:'Nunito Semi-Bold';fill:#ffffff;fill-opacity:1;stroke:#ffffff;stroke-width:0;stroke-dasharray:none;stroke-opacity:0"
         x="17.332087"
         y="83.22596">FADERS</tspan></text>
    <text
       xml:space="preserve"
       style="font-style:normal;font-variant:normal;font-weight:bold;font-stretch:normal;font-size:2.82222px;font-family:Nunito;-inkscape-font-specification:'Nunito Bold';text-align:start;writing-mode:lr-tb;direction:ltr;text-anchor:start;display:inline;fill:#bec510;fill-opacity:1;stroke:#ffffff;stroke-width:0;stroke-linecap:round;stroke-linejoin:round;stroke-dasharray:none;stroke-opacity:1;paint-order:markers fill stroke"
       x="27.687962"
       y="64.820908"
       id="text3-9-5-0"
       inkscape:label="mod"><tspan
         sodipodi:role="line"
         id="tspan3-31-0-2"
         style="font-style:normal;font-variant:normal;font-weight:600;font-stretch:normal;font-size:2.82222px;font-family:Nunito;-inkscape-font-specification:'Nunito Semi-Bold';fill:#ffffff;fill-opacity:1;stroke:#ffffff;stroke-width:0;stroke-dasharray:none;stroke-opacity:0"
         x="27.687962"
         y="64.820908">MOD</tspan></text>
    <text
       xml:space="preserve"
       style="font-style:normal;font-variant:normal;font-weight:bold;font-stretch:normal;font-size:2.82222px;font-family:Nunito;-inkscape-font-specification:'Nunito Bold';text-align:start;writing-mode:lr-tb;direction:ltr;text-anchor:start;display:inline;fill:#bec510;fill-opacity:1;stroke:#ffffff;stroke-width:0;stroke-linecap:round;stroke-linejoin:round;stroke-dasharray:none;stroke-opacity:1;paint-order:markers fill stroke"
       x="11.232386"
       y="64.820908"
       id="text3-9-5"
       inkscape:label="bend"><tspan
         sodipodi:role="line"
         id="tspan3-31-0"
         style="font-style:normal;font-variant:normal;font-weight:600;font-stretch:normal;font-size:2.82222px;font-family:Nunito;-inkscape-font-specification:'Nunito Semi-Bold';fill:#ffffff;fill-opacity:1;stroke:#ffffff;stroke-width:0;stroke-dasharray:none;stroke-opacity:0"
         x="11.232386"
         y="64.820908">BEND</tspan></text>
    <text
       xml:space="preserve"
       style="font-style:normal;font-variant:normal;font-weight:bold;font-stretch:normal;font-size:2.82222px;font-family:Nunito;-inkscape-font-specification:'Nunito Bold';text-align:start;writing-mode:lr-tb;direction:ltr;text-anchor:start;display:inline;fill:#bec510;fill-opacity:1;stroke:#ffffff;stroke-width:0;stroke-linecap:round;stroke-linejoin:round;stroke-dasharray:none;stroke-opacity:1;paint-order:markers fill stroke"
       x="34.929203"
       y="46.77425"
       id="text3-8"
       inkscape:label="vel"><tspan
         sodipodi:role="line"
         id="tspan3-5"
         style="font-style:normal;font-variant:normal;font-weight:600;font-stretch:normal;font-size:2.82222px;font-family:Nunito;-inkscape-font-specification:'Nunito Semi-Bold';fill:#ffffff;fill-opacity:1;stroke:#ffffff;stroke-width:0;stroke-dasharray:none;stroke-opacity:0"
         x="34.929203"
         y="46.77425">VEL</tspan></text>
    <text
       xml:space="preserve"
       style="font-style:normal;font-variant:normal;font-weight:bold;font-stretch:normal;font-size:2.82222px;font-family:Nunito;-inkscape-font-specification:'Nunito Bold';text-align:start;writing-mode:lr-tb;direction:ltr;text-anchor:start;display:inline;opacity:1;fill:#bec510;fill-opacity:1;stroke:#ffffff;stroke-width:0;stroke-linecap:round;stroke-linejoin:round;stroke-dasharray:none;stroke-opacity:1;paint-order:markers fill stroke"
       x="19.184246"
       y="46.873302"
       id="text3"
       inkscape:label="gate"><tspan
         sodipodi:role="line"
         id="tspan3"
         style="font-style:normal;font-variant:normal;font-weight:600;font-stretch:normal;font-size:2.82222px;font-family:Nunito;-inkscape-font-specification:'Nunito Semi-Bold';fill:#ffffff;fill-opacity:1;stroke:#ffffff;stroke-width:0;stroke-dasharray:none;stroke-opacity:0"
         x="19.184246"
         y="46.873302">GATE</tspan></text>
    <text
       xml:space="preserve"
       style="font-style:normal;font-variant:normal;font-weight:bold;font-stretch:normal;font-size:2.82222px;font-family:Nunito;-inkscape-font-specification:'Nunito Bold';text-align:start;writing-mode:lr-tb;direction:ltr;text-anchor:start;display:inline;fill:#bec510;fill-opacity:1;stroke:#ffffff;stroke-width:0;stroke-linecap:round;stroke-linejoin:round;stroke-dasharray:none;stroke-opacity:1;paint-order:markers fill stroke"
       x="3.8970532"
       y="46.873302"
       id="text3-9"
       inkscape:label="voct"><tspan
         sodipodi:role="line"
         id="tspan3-31"
         style="font-style:normal;font-variant:normal;font-weight:600;font-stretch:normal;font-size:2.82222px;font-family:Nunito;-inkscape-font-specification:'Nunito Semi-Bold';fill:#ffffff;fill-opacity:1;stroke:#ffffff;stroke-width:0;stroke-dasharray:none;stroke-opacity:0"
         x="3.8970532"
         y="46.873302">V/OCT</tspan></text>
    <text
       xml:space="preserve"
       style="font-weight:600;font-size:4.50779px;font-family:Nunito;-inkscape-font-specification:'Nunito Semi-Bold';font-variation-settings:normal;text-align:start;writing-mode:lr-tb;direction:ltr;text-anchor:start;opacity:1;fill:#ffffff;fill-opacity:1;stroke:#ffffff;stroke-width:0;stroke-linecap:round;stroke-linejoin:round;stroke-miterlimit:4;stroke-dasharray:none;stroke-dashoffset:0;stroke-opacity:1;paint-order:markers fill stroke"
       x="13.914292"
       y="7.2188201"
       id="text42"
       inkscape:label="title"><tspan
         sodipodi:role="line"
         id="tspan42"
         style="font-size:4.50779px;fill:#ffffff;stroke:#ffffff;stroke-width:0;stroke-linecap:round;stroke-linejoin:round;stroke-dasharray:none;stroke-opacity:1"
         x="13.914292"
         y="7.2188201">minilab3</tspan></text>
  </g>
  <g
     inkscape:groupmode="layer"
     id="Ports"
     inkscape:label="Ports"
     style="display:inline"
     transform="translate(-10.555851,35.326754)">
    <circle
       style="fill:#0000ff"
       id="Fader1"
       cx="18.694008"
       cy="54.415714"
       inkscape:label="Fader1"
       r="1.8404053" />
    <circle
       style="fill:#0000ff"
       id="Fader2"
       cx="28.470861"
       cy="54.415714"
       inkscape:label="Fader2"
       r="1.8404053" />
    <circle
       style="fill:#0000ff"
       id="Fader3"
       cx="38.247715"
       cy="54.415714"
       r="1.8404053"
       inkscape:label="Fader3" />
    <circle
       style="fill:#0000ff"
       id="Knob1"
       cx="18.694008"
       cy="73.220062"
       inkscape:label="Knob1"
       r="1.8404053" />
    <circle
       style="fill:#0000ff"
       id="Knob2"
       cx="28.470861"
       cy="73.220062"
       inkscape:label="Knob2"
       r="1.8404053" />
    <circle
       style="fill:#0000ff"
       id="Knob3"
       cx="38.247715"
       cy="73.220062"
       r="1.8404053"
       inkscape:label="Knob3" />
    <circle
       style="fill:#0000ff"
       id="Knob4"
       cx="48.024567"
       cy="73.220062"
       r="1.8404053"
       inkscape:label="Knob4" />
    <circle
       style="fill:#0000ff"
       id="Knob5"
       cx="18.694008"
       cy="83.35215"
       inkscape:label="Knob5"
       r="1.8404053" />
    <circle
       style="fill:#0000ff"
       id="Knob6"
       cx="28.470861"
       cy="83.35215"
       inkscape:label="Knob6"
       r="1.8404053" />
    <circle
       style="fill:#0000ff"
       id="Knob7"
       cx="38.247715"
       cy="83.35215"
       r="1.8404053"
       inkscape:label="Knob7" />
    <circle
       style="fill:#0000ff"
       id="Knob8"
       cx="48.024567"
       cy="83.35215"
       r="1.8404053"
       inkscape:label="Knob8" />
    <circle
       style="fill:#0000ff"
       id="Fader4"
       cx="48.024567"
       cy="54.415714"
       r="1.8404053"
       inkscape:label="Fader4" />
    <ellipse
       style="fill:#0000ff"
       id="Voct"
       cx="18.760345"
       cy="17.792658"
       inkscape:label="Voct"
       rx="1.84"
       ry="1.8404053" />
    <ellipse
       style="fill:#0000ff;stroke-width:0;stroke-dasharray:none"
       id="Light"
       cx="16.878794"
       cy="-29.69693"
       inkscape:label="Light"
       rx="0.99000001"
       ry="0.99021822" />
    <ellipse
       style="fill:#0000ff"
       id="Gate"
       cx="33.359241"
       cy="17.842184"
       inkscape:label="Gate"
       rx="1.84"
       ry="1.8404053" />
    <ellipse
       style="fill:#0000ff"
       id="Vel"
       cx="48.090904"
       cy="17.743132"
       inkscape:label="Vel"
       rx="1.84"
       ry="1.8404053" />
    <ellipse
       style="fill:#0000ff"
       id="Bend"
       cx="15.169382"
       cy="71.448738"
       inkscape:label="Bend"
       rx="1.84"
       ry="1.8404053"
       transform="translate(10.555851,-35.326754)" />
    <ellipse
       style="fill:#0000ff"
       id="Mod"
       cx="31.100382"
       cy="71.448738"
       inkscape:label="Mod"
       rx="1.84"
       ry="1.8404053"
       transform="translate(10.555851,-35.326754)" />
  </g>
  <g
     inkscape:groupmode="layer"
     id="DesignFinal"
     inkscape:label="DesignFinal"
     style="display:none">
    <rect
       style="fill:#26282f;stroke-width:0;stroke-linecap:square;stroke-linejoin:round;stroke-opacity:0"
       id="rect2"
       width="45.547237"
       height="128.32722"
       x="0"
       y="-1.3877788e-17"
       inkscape:label="bg"
       inkscape:highlight-color="#ffffff"
       transform="matrix(1.0977614,0,0,1.0950858,-2.1399989,0)" />
    <g
       id="rect3"
       inkscape:label="knobs">
      <path
         style="fill:#111111"
         d="M 3.5172914,97.8946 H 42.20071 c 0.640424,0 1.156,0.515576 1.156,1.156 v 24.14037 c 0,0.64042 -0.515576,1.156 -1.156,1.156 H 3.5172914 c -0.640424,0 -1.156,-0.51558 -1.156,-1.156 V 99.0506 c 0,-0.640424 0.515576,-1.156 1.156,-1.156 z"
         id="path10" />
      <path
         style="fill:url(#linearGradient42)"
         d="m 3.5175781,97.761719 c -0.7114252,0 -1.2890625,0.577637 -1.2890625,1.289062 v 24.140629 c 0,0.71142 0.5776373,1.28711 1.2890625,1.28711 H 42.201172 c 0.711425,0 1.287109,-0.57569 1.287109,-1.28711 V 99.050781 c 0,-0.711425 -0.575684,-1.289062 -1.287109,-1.289062 z m 0,0.265625 H 42.201172 c 0.569423,0 1.023437,0.454014 1.023437,1.023437 v 24.140629 c 0,0.56942 -0.454014,1.02343 -1.023437,1.02343 H 3.5175781 c -0.5694228,0 -1.0234375,-0.45401 -1.0234375,-1.02343 V 99.050781 c 0,-0.569423 0.4540147,-1.023437 1.0234375,-1.023437 z"
         id="path11" />
    </g>
    <g
       id="rect4"
       inkscape:label="faders">
      <path
         style="fill:#111111"
         d="M 3.5172914,79.11042 H 42.201198 c 0.640424,0 1.156,0.515576 1.156,1.156 v 13.661417 c 0,0.640425 -0.515576,1.156001 -1.156,1.156001 H 3.5172914 c -0.640424,0 -1.156,-0.515576 -1.156,-1.156001 V 80.26642 c 0,-0.640424 0.515576,-1.156 1.156,-1.156 z"
         id="path12" />
      <path
         style="fill:url(#linearGradient13)"
         d="m 3.5175781,78.978516 c -0.7114252,0 -1.2890625,0.575684 -1.2890625,1.287109 v 13.662109 c 0,0.711426 0.5776373,1.289063 1.2890625,1.289063 H 42.201172 c 0.711425,0 1.289062,-0.577637 1.289062,-1.289063 V 80.265625 c 0,-0.711425 -0.577637,-1.287109 -1.289062,-1.287109 z m 0,0.263671 H 42.201172 c 0.569423,0 1.023437,0.454015 1.023437,1.023438 v 13.662109 c 0,0.569423 -0.454014,1.023438 -1.023437,1.023438 H 3.5175781 c -0.5694228,0 -1.0234375,-0.454015 -1.0234375,-1.023438 V 80.265625 c 0,-0.569423 0.4540147,-1.023438 1.0234375,-1.023438 z"
         id="path13" />
    </g>
    <g
       id="rect5"
       inkscape:label="mod"
       transform="matrix(0.40792098,0,0,0.40792098,9.2705833,-47.134256)">
      <path
         style="fill:#111111"
         d="m 42.058939,264.59048 h 22.88225 c 1.570396,0 2.83465,1.26426 2.83465,2.83465 v 33.48761 c 0,1.5704 -1.264254,2.83465 -2.83465,2.83465 h -22.88225 c -1.570396,0 -2.83465,-1.26425 -2.83465,-2.83465 v -33.48761 c 0,-1.57039 1.264254,-2.83465 2.83465,-2.83465 z"
         id="path14" />
      <path
         style="fill:url(#linearGradient6)"
         d="m 42.058594,264.26562 c -1.744453,0 -3.158203,1.41571 -3.158203,3.16016 v 33.48633 c 0,1.74445 1.41375,3.16016 3.158203,3.16016 h 22.882812 c 1.744453,0 3.158203,-1.41571 3.158203,-3.16016 v -33.48633 c 0,-1.74445 -1.41375,-3.16016 -3.158203,-3.16016 z m 0,0.64844 h 22.882812 c 1.39634,0 2.509766,1.11538 2.509766,2.51172 v 33.48633 c 0,1.39634 -1.113426,2.51172 -2.509766,2.51172 H 42.058594 c -1.39634,0 -2.509766,-1.11538 -2.509766,-2.51172 v -33.48633 c 0,-1.39634 1.113426,-2.51172 2.509766,-2.51172 z"
         id="path15" />
    </g>
    <g
       id="rect6"
       inkscape:label="bend"
       transform="matrix(0.40792098,0,0,0.40792098,-6.6544166,-47.134256)">
      <path
         style="fill:#111111"
         d="m 42.058171,264.59048 h 22.883786 c 1.56997,0 2.833882,1.26426 2.833882,2.83465 v 33.48761 c 0,1.5704 -1.263912,2.83465 -2.833882,2.83465 H 42.058171 c -1.569971,0 -2.833882,-1.26425 -2.833882,-2.83465 v -33.48761 c 0,-1.57039 1.263911,-2.83465 2.833882,-2.83465 z"
         id="path16" />
      <path
         style="fill:url(#linearGradient46)"
         d="m 42.058594,264.26562 c -1.744075,0 -3.158203,1.41576 -3.158203,3.16016 v 33.48633 c 0,1.7444 1.414128,3.16016 3.158203,3.16016 h 22.882812 c 1.744075,0 3.158203,-1.41576 3.158203,-3.16016 v -33.48633 c 0,-1.7444 -1.414128,-3.16016 -3.158203,-3.16016 z m 0,0.64844 h 22.882812 c 1.395867,0 2.509766,1.11533 2.509766,2.51172 v 33.48633 c 0,1.39639 -1.113899,2.51172 -2.509766,2.51172 H 42.058594 c -1.395867,0 -2.509766,-1.11533 -2.509766,-2.51172 v -33.48633 c 0,-1.39639 1.113899,-2.51172 2.509766,-2.51172 z"
         id="path17" />
    </g>
    <g
       id="rect7"
       inkscape:label="vel">
      <path
         style="fill:#111111"
         d="m 32.86757,42.800621 h 9.333861 c 0.640578,0 1.156278,0.5157 1.156278,1.156278 v 13.65988 c 0,0.640578 -0.5157,1.156278 -1.156278,1.156278 H 32.86757 c -0.640578,0 -1.156278,-0.5157 -1.156278,-1.156278 v -13.65988 c 0,-0.640578 0.5157,-1.156278 1.156278,-1.156278 z"
         id="path18" />
      <path
         style="fill:url(#linearGradient9)"
         d="m 32.867187,42.667969 c -0.711578,0 -1.289062,0.577483 -1.289062,1.289062 v 13.660156 c 0,0.71158 0.577484,1.289063 1.289062,1.289063 h 9.333985 c 0.711579,0 1.289062,-0.577483 1.289062,-1.289063 V 43.957031 c 0,-0.711579 -0.577483,-1.289062 -1.289062,-1.289062 z m 0,0.265625 h 9.333985 c 0.569576,0 1.023437,0.453861 1.023437,1.023437 v 13.660156 c 0,0.569577 -0.453861,1.023438 -1.023437,1.023438 h -9.333985 c -0.569576,0 -1.023437,-0.453861 -1.023437,-1.023438 V 43.957031 c 0,-0.569576 0.453861,-1.023437 1.023437,-1.023437 z"
         id="path19" />
    </g>
    <g
       id="rect8"
       inkscape:label="gate">
      <path
         style="fill:#111111"
         d="m 18.192927,42.899673 h 9.334149 c 0.640598,0 1.156314,0.515716 1.156314,1.156314 v 13.660298 c 0,0.640598 -0.515716,1.156314 -1.156314,1.156314 h -9.334149 c -0.640598,0 -1.156314,-0.515716 -1.156314,-1.156314 V 44.055987 c 0,-0.640598 0.515716,-1.156314 1.156314,-1.156314 z"
         id="path20" />
      <path
         style="fill:url(#linearGradient10)"
         d="m 18.193359,42.767578 c -0.711598,0 -1.289062,0.577464 -1.289062,1.289063 v 13.660156 c 0,0.711599 0.577464,1.289062 1.289062,1.289062 h 9.333985 c 0.711598,0 1.289062,-0.577463 1.289062,-1.289062 V 44.056641 c 0,-0.711599 -0.577464,-1.289063 -1.289062,-1.289063 z m 0,0.263672 h 9.333985 c 0.569596,0 1.023437,0.455794 1.023437,1.025391 v 13.660156 c 0,0.569596 -0.453841,1.023437 -1.023437,1.023437 h -9.333985 c -0.569596,0 -1.02539,-0.453841 -1.02539,-1.023437 V 44.056641 c 0,-0.569597 0.455794,-1.025391 1.02539,-1.025391 z"
         id="path21" />
    </g>
    <g
       id="rect9"
       inkscape:label="voct">
      <path
         style="fill:#111111"
         d="m 3.5175587,42.850147 h 9.3347763 c 0.640424,0 1.156,0.515716 1.156,1.156313 v 13.660299 c 0,0.640598 -0.515576,1.156313 -1.156,1.156313 H 3.5175587 c -0.640424,0 -1.156,-0.515715 -1.156,-1.156313 V 44.00646 c 0,-0.640597 0.515576,-1.156313 1.156,-1.156313 z"
         id="path22" />
      <path
         style="fill:url(#linearGradient8)"
         d="m 3.5175781,42.71875 c -0.7114444,0 -1.2890625,0.57553 -1.2890625,1.287109 v 13.660157 c 0,0.711579 0.5776181,1.289062 1.2890625,1.289062 h 9.3339849 c 0.711444,0 1.289062,-0.577483 1.289062,-1.289062 V 44.005859 c 0,-0.711579 -0.577618,-1.287109 -1.289062,-1.287109 z m 0,0.263672 h 9.3339849 c 0.569403,0 1.02539,0.453822 1.02539,1.023437 v 13.660157 c 0,0.569615 -0.455987,1.02539 -1.02539,1.02539 H 3.5175781 c -0.5694035,0 -1.0234375,-0.455775 -1.0234375,-1.02539 V 44.005859 c 0,-0.569615 0.454034,-1.023437 1.0234375,-1.023437 z"
         id="path23" />
    </g>
  </g>
  <g
     inkscape:groupmode="layer"
     id="TextFinal"
     inkscape:label="TextFinal"
     style="display:none">
    <path
       style="font-weight:600;font-size:2.82222px;font-family:Nunito;-inkscape-font-specification:'Nunito Semi-Bold';display:inline;fill:#ffffff;stroke:#ffffff;stroke-width:0;stroke-linecap:round;stroke-linejoin:round;stroke-opacity:0;paint-order:markers fill stroke"
       d="m 18.283773,101.93874 q -0.07055,0 -0.110066,-0.0395 -0.03669,-0.0395 -0.03669,-0.11007 v -1.73284 q 0,-0.07338 0.03669,-0.110068 0.03951,-0.03669 0.110066,-0.03669 0.07056,0 0.107245,0.03669 0.03951,0.03669 0.03951,0.110068 v 0.76764 h 0.0056 l 0.866422,-0.838197 q 0.04233,-0.03951 0.07902,-0.05645 0.03951,-0.01975 0.08749,-0.01975 0.06491,0 0.09313,0.03387 0.03104,0.03105 0.0254,0.0762 -0.0056,0.0451 -0.04798,0.0875 l -0.900288,0.85795 0.0056,-0.14393 0.936978,0.90311 q 0.0508,0.048 0.05362,0.0988 0.0028,0.0508 -0.03104,0.0847 -0.03387,0.031 -0.09596,0.031 -0.05645,0 -0.09031,-0.0226 -0.03387,-0.0226 -0.07902,-0.0649 l -0.903111,-0.86078 h -0.0056 v 0.79869 q 0,0.0706 -0.03669,0.11007 -0.03669,0.0395 -0.110067,0.0395 z m 1.80622,0 q -0.06491,0 -0.1016,-0.0367 -0.03669,-0.0367 -0.03669,-0.10442 v -1.74131 q 0,-0.07056 0.03387,-0.107246 0.03669,-0.03951 0.09596,-0.03951 0.0508,0 0.0762,0.01975 0.02822,0.01693 0.06491,0.06491 l 1.162755,1.532456 h -0.07055 v -1.47884 q 0,-0.06491 0.03387,-0.101593 0.03669,-0.03669 0.1016,-0.03669 0.06773,0 0.1016,0.03669 0.03387,0.03669 0.03387,0.101593 v 1.7526 q 0,0.0649 -0.03387,0.1016 -0.03104,0.0367 -0.08467,0.0367 -0.0508,0 -0.08467,-0.0198 -0.03104,-0.0198 -0.06773,-0.0677 l -1.157111,-1.52964 h 0.06491 v 1.47602 q 0,0.0677 -0.03387,0.10442 -0.03387,0.0367 -0.09878,0.0367 z m 2.82222,0.006 q -0.282222,0 -0.493888,-0.12417 -0.208845,-0.127 -0.324556,-0.3556 -0.112888,-0.23143 -0.112888,-0.54187 0,-0.23424 0.06491,-0.42051 0.06491,-0.18909 0.186266,-0.32173 0.121356,-0.13547 0.293511,-0.206026 0.172156,-0.07056 0.386644,-0.07056 0.285044,0 0.493889,0.124186 0.208844,0.12417 0.321733,0.35277 0.115711,0.2286 0.115711,0.53905 0,0.23424 -0.06491,0.42333 -0.06491,0.18909 -0.189089,0.32456 -0.121355,0.13546 -0.293511,0.20602 -0.172155,0.0705 -0.383822,0.0705 z m 0,-0.254 q 0.197556,0 0.335844,-0.0903 0.141111,-0.0903 0.214489,-0.26246 0.0762,-0.17216 0.0762,-0.41487 0,-0.36407 -0.163689,-0.56444 -0.163688,-0.20038 -0.462844,-0.20038 -0.197555,0 -0.338666,0.0903 -0.138289,0.0875 -0.214489,0.25964 -0.07338,0.17216 -0.07338,0.41487 0,0.36124 0.163689,0.56444 0.166511,0.2032 0.462844,0.2032 z m 1.481665,0.2286 q -0.0762,0 -0.118534,-0.0395 -0.03951,-0.0423 -0.03951,-0.11853 v -1.67358 q 0,-0.0762 0.03951,-0.115708 0.04233,-0.04233 0.118534,-0.04233 h 0.671688 q 0.206022,0 0.349955,0.06209 0.146756,0.06209 0.222956,0.177798 0.07902,0.11571 0.07902,0.2794 0,0.18062 -0.107245,0.3048 -0.107244,0.12417 -0.290688,0.16651 v -0.0423 q 0.208844,0.0282 0.327377,0.15805 0.118534,0.127 0.118534,0.33302 0,0.26529 -0.174978,0.40922 -0.174978,0.14111 -0.491066,0.14111 z m 0.124177,-0.22577 h 0.547511 q 0.211666,0 0.313266,-0.0818 0.1016,-0.0847 0.1016,-0.254 0,-0.16933 -0.1016,-0.25118 -0.1016,-0.0818 -0.313266,-0.0818 h -0.547511 z m 0,-0.89465 h 0.502355 q 0.2032,0 0.307622,-0.0818 0.104423,-0.0818 0.104423,-0.23989 0,-0.15805 -0.104423,-0.23989 -0.104422,-0.0818 -0.307622,-0.0818 h -0.502355 z m 2.305752,1.14582 q -0.129822,0 -0.254,-0.0198 -0.124178,-0.0198 -0.234244,-0.0593 -0.110067,-0.0423 -0.197556,-0.1016 -0.04233,-0.031 -0.05927,-0.0706 -0.01411,-0.0395 -0.0085,-0.0762 0.0085,-0.0395 0.03387,-0.0677 0.0254,-0.0282 0.06209,-0.0339 0.03669,-0.008 0.08184,0.0226 0.127,0.0818 0.268111,0.12136 0.141111,0.0367 0.307622,0.0367 0.239888,0 0.352777,-0.0847 0.115711,-0.0875 0.115711,-0.22578 0,-0.11288 -0.08184,-0.1778 -0.08184,-0.0677 -0.273755,-0.10724 l -0.301978,-0.0621 q -0.268111,-0.0564 -0.400755,-0.18627 -0.129822,-0.12982 -0.129822,-0.34995 0,-0.13265 0.05362,-0.24271 0.05644,-0.11007 0.155222,-0.18909 0.09878,-0.08185 0.237066,-0.124178 0.138289,-0.04233 0.301978,-0.04233 0.174978,0 0.327377,0.04516 0.155223,0.04516 0.276578,0.138288 0.03669,0.0254 0.04798,0.0649 0.01411,0.0367 0.0056,0.0734 -0.0056,0.0367 -0.03104,0.0621 -0.0254,0.0254 -0.06491,0.031 -0.03951,0.003 -0.08749,-0.0282 -0.110067,-0.0734 -0.225778,-0.10442 -0.112888,-0.0339 -0.251177,-0.0339 -0.138289,0 -0.242711,0.0423 -0.1016,0.0423 -0.158045,0.11853 -0.05362,0.0762 -0.05362,0.18062 0,0.11854 0.0762,0.18909 0.0762,0.0706 0.254,0.10725 l 0.299155,0.0621 q 0.282222,0.0593 0.420511,0.18345 0.138289,0.12418 0.138289,0.3302 0,0.13264 -0.05362,0.23989 -0.05362,0.10442 -0.1524,0.18062 -0.09878,0.0762 -0.239889,0.11853 -0.138289,0.0395 -0.313266,0.0395 z"
       id="text1"
       inkscape:label="knobs"
       aria-label="KNOBS" />
    <path
       style="font-weight:600;font-size:2.82222px;font-family:Nunito;-inkscape-font-specification:'Nunito Semi-Bold';display:inline;fill:#ffffff;stroke:#ffffff;stroke-width:0;stroke-linecap:round;stroke-linejoin:round;stroke-opacity:0;paint-order:markers fill stroke"
       d="m 17.718731,83.245715 q -0.07338,0 -0.115711,-0.03951 -0.03951,-0.03951 -0.03951,-0.115711 V 81.39434 q 0,-0.0762 0.03951,-0.115711 0.04233,-0.04233 0.118533,-0.04233 h 1.00471 q 0.06209,0 0.09031,0.03104 0.03105,0.02822 0.03105,0.08467 0,0.05927 -0.03105,0.09031 -0.02822,0.03104 -0.09031,0.03104 h -0.869244 v 0.635 h 0.8128 q 0.05644,0 0.08749,0.03104 0.03387,0.02822 0.03387,0.08467 0,0.05927 -0.03387,0.09031 -0.03104,0.03104 -0.08749,0.03104 h -0.8128 v 0.745066 q 0,0.155222 -0.138288,0.155222 z m 1.237698,0 q -0.05645,0 -0.09031,-0.0254 -0.03387,-0.0254 -0.03951,-0.06773 -0.0056,-0.04233 0.01693,-0.09595 l 0.764822,-1.71591 q 0.02822,-0.06773 0.07055,-0.09596 0.04516,-0.02822 0.09878,-0.02822 0.0508,0 0.09313,0.02822 0.04516,0.02822 0.07338,0.09596 l 0.764822,1.71591 q 0.0254,0.05362 0.01975,0.09878 -0.0056,0.04233 -0.03669,0.06773 -0.03104,0.02258 -0.08749,0.02258 -0.06209,0 -0.09878,-0.03104 -0.03669,-0.03104 -0.06491,-0.09596 l -0.197556,-0.457199 0.132645,0.07902 H 19.17374 l 0.129822,-0.07902 -0.194733,0.457199 q -0.02822,0.06773 -0.06209,0.09878 -0.03387,0.02822 -0.09031,0.02822 z m 0.815621,-1.684865 -0.426155,1.010355 -0.07055,-0.06773 h 0.996243 l -0.06491,0.06773 -0.428977,-1.010355 z m 1.430866,1.66511 q -0.0762,0 -0.118533,-0.03951 -0.03951,-0.04233 -0.03951,-0.118534 V 81.39434 q 0,-0.0762 0.03951,-0.115711 0.04233,-0.04233 0.118533,-0.04233 h 0.544689 q 0.491066,0 0.756355,0.256822 0.268111,0.253999 0.268111,0.736599 0,0.239889 -0.06773,0.426155 -0.06773,0.186267 -0.200377,0.313267 -0.129822,0.124177 -0.318911,0.191911 -0.189089,0.06491 -0.437444,0.06491 z m 0.135467,-0.245533 h 0.392288 q 0.186267,0 0.321733,-0.04516 0.138289,-0.04798 0.231423,-0.141111 0.09313,-0.09313 0.138288,-0.234244 0.04516,-0.141111 0.04516,-0.3302 0,-0.375355 -0.186267,-0.561622 -0.183444,-0.186266 -0.550333,-0.186266 h -0.392288 z m 1.984019,0.245533 q -0.0762,0 -0.118533,-0.03951 -0.03951,-0.04233 -0.03951,-0.118534 V 81.39434 q 0,-0.0762 0.03951,-0.115711 0.04233,-0.04233 0.118533,-0.04233 h 1.03011 q 0.05927,0 0.09031,0.03104 0.03104,0.02822 0.03104,0.08467 0,0.05927 -0.03104,0.09031 -0.03104,0.03104 -0.09031,0.03104 H 23.44658 v 0.623711 h 0.843844 q 0.06209,0 0.09031,0.03104 0.03104,0.03104 0.03104,0.08749 0,0.05927 -0.03104,0.09031 -0.02822,0.02822 -0.09031,0.02822 H 23.44658 v 0.654755 h 0.905932 q 0.05927,0 0.09031,0.03104 0.03104,0.03104 0.03104,0.08749 0,0.05927 -0.03104,0.09031 -0.03104,0.02822 -0.09031,0.02822 z m 1.651001,0.01976 q -0.07056,0 -0.110067,-0.03951 -0.03669,-0.03951 -0.03669,-0.110066 v -1.710266 q 0,-0.07338 0.03951,-0.110066 0.03951,-0.03951 0.110067,-0.03951 h 0.674511 q 0.321733,0 0.49671,0.1524 0.174978,0.152399 0.174978,0.431799 0,0.180622 -0.07902,0.310444 -0.07902,0.129823 -0.231422,0.197556 -0.149578,0.06773 -0.361244,0.06773 l 0.0254,-0.03951 h 0.07338 q 0.112889,0 0.194734,0.05644 0.08467,0.05644 0.152399,0.180622 l 0.242711,0.451556 q 0.02822,0.0508 0.0254,0.09878 0,0.04516 -0.03387,0.07338 -0.03105,0.02822 -0.09031,0.02822 -0.06209,0 -0.1016,-0.0254 -0.03669,-0.02822 -0.06773,-0.08184 L 25.774913,82.59096 q -0.05927,-0.110066 -0.135466,-0.146755 -0.0762,-0.03951 -0.200378,-0.03951 h -0.318911 v 0.691444 q 0,0.07055 -0.03669,0.110066 -0.03669,0.03951 -0.110066,0.03951 z m 0.146755,-1.061154 h 0.4826 q 0.214489,0 0.324555,-0.09031 0.110067,-0.09031 0.110067,-0.268111 0,-0.174978 -0.110067,-0.265289 -0.110066,-0.09031 -0.324555,-0.09031 h -0.4826 z m 2.277156,1.066799 q -0.129822,0 -0.254,-0.01976 -0.124177,-0.01976 -0.234244,-0.05927 -0.110067,-0.04233 -0.197555,-0.1016 -0.04233,-0.03105 -0.05927,-0.07056 -0.01411,-0.03951 -0.0085,-0.0762 0.0085,-0.03951 0.03387,-0.06773 0.0254,-0.02822 0.06209,-0.03387 0.03669,-0.0085 0.08184,0.02258 0.127,0.08184 0.268111,0.121356 0.141111,0.03669 0.307622,0.03669 0.239889,0 0.352778,-0.08467 0.115711,-0.08749 0.115711,-0.225778 0,-0.112889 -0.08185,-0.1778 -0.08184,-0.06773 -0.273755,-0.107244 l -0.301978,-0.06209 q -0.268111,-0.05644 -0.400755,-0.186266 -0.129822,-0.129823 -0.129822,-0.349956 0,-0.132644 0.05362,-0.242711 0.05645,-0.110066 0.155222,-0.189088 0.09878,-0.08184 0.237067,-0.124178 0.138288,-0.04233 0.301977,-0.04233 0.174978,0 0.327378,0.04516 0.155222,0.04516 0.276577,0.138289 0.03669,0.0254 0.04798,0.06491 0.01411,0.03669 0.0056,0.07338 -0.0056,0.03669 -0.03104,0.06209 -0.0254,0.0254 -0.06491,0.03104 -0.03951,0.0028 -0.08749,-0.02822 -0.110066,-0.07338 -0.225777,-0.104422 -0.112889,-0.03387 -0.251178,-0.03387 -0.138289,0 -0.242711,0.04233 -0.1016,0.04233 -0.158044,0.118534 -0.05362,0.0762 -0.05362,0.180622 0,0.118533 0.0762,0.189088 0.0762,0.07056 0.253999,0.107245 l 0.299156,0.06209 q 0.282222,0.05927 0.42051,0.183444 0.138289,0.124178 0.138289,0.3302 0,0.132644 -0.05362,0.239888 -0.05362,0.104422 -0.1524,0.180622 -0.09878,0.0762 -0.239889,0.118534 -0.138288,0.03951 -0.313266,0.03951 z"
       id="text2"
       inkscape:label="faders"
       aria-label="FADERS" />
    <path
       style="font-weight:600;font-size:2.82222px;font-family:Nunito;-inkscape-font-specification:'Nunito Semi-Bold';display:inline;fill:#ffffff;stroke:#ffffff;stroke-width:0;stroke-linecap:round;stroke-linejoin:round;stroke-opacity:0;paint-order:markers fill stroke"
       d="m 28.060495,64.840663 q -0.06491,0 -0.1016,-0.03669 -0.03387,-0.03669 -0.03387,-0.1016 v -1.752598 q 0,-0.06773 0.03669,-0.1016 0.03669,-0.03669 0.09878,-0.03669 0.05927,0 0.09031,0.02258 0.03387,0.01975 0.06209,0.07338 l 0.739421,1.380066 h -0.08749 l 0.7366,-1.380066 q 0.02822,-0.05362 0.05927,-0.07338 0.03105,-0.02258 0.09031,-0.02258 0.06209,0 0.09596,0.03669 0.03387,0.03387 0.03387,0.1016 v 1.752598 q 0,0.06491 -0.03387,0.1016 -0.03104,0.03669 -0.09596,0.03669 -0.06491,0 -0.09878,-0.03669 -0.03387,-0.03669 -0.03387,-0.1016 v -1.456265 h 0.06209 l -0.654755,1.210732 q -0.02258,0.04233 -0.04798,0.06209 -0.0254,0.01976 -0.07056,0.01976 -0.04516,0 -0.07338,-0.01976 -0.02822,-0.02258 -0.0508,-0.06209 l -0.6604,-1.213554 h 0.06773 v 1.459087 q 0,0.06491 -0.03387,0.1016 -0.03104,0.03669 -0.09596,0.03669 z m 3.15242,0.0056 q -0.282222,0 -0.493889,-0.124178 -0.208844,-0.127 -0.324555,-0.3556 -0.112889,-0.231422 -0.112889,-0.541866 0,-0.234244 0.06491,-0.420511 0.06491,-0.189089 0.186267,-0.321733 0.121355,-0.135467 0.29351,-0.206022 0.172156,-0.07056 0.386645,-0.07056 0.285044,0 0.493888,0.124178 0.208844,0.124178 0.321733,0.352778 0.115711,0.228599 0.115711,0.539044 0,0.234244 -0.06491,0.423333 -0.06491,0.189088 -0.189089,0.324555 -0.121355,0.135467 -0.29351,0.206022 -0.172156,0.07056 -0.383822,0.07056 z m 0,-0.254 q 0.197555,0 0.335844,-0.09031 0.141111,-0.09031 0.214489,-0.262467 0.0762,-0.172155 0.0762,-0.414866 0,-0.364066 -0.163688,-0.564444 -0.163689,-0.200378 -0.462844,-0.200378 -0.197556,0 -0.338667,0.09031 -0.138289,0.08749 -0.214489,0.259645 -0.07338,0.172155 -0.07338,0.414866 0,0.361244 0.163689,0.564444 0.166511,0.2032 0.462844,0.2032 z m 1.481664,0.2286 q -0.0762,0 -0.118533,-0.03951 -0.03951,-0.04233 -0.03951,-0.118534 v -1.673576 q 0,-0.0762 0.03951,-0.115711 0.04233,-0.04233 0.118533,-0.04233 h 0.544689 q 0.491066,0 0.756355,0.256822 0.268111,0.254 0.268111,0.7366 0,0.239889 -0.06773,0.426155 -0.06773,0.186267 -0.200377,0.313267 -0.129822,0.124177 -0.318911,0.191911 -0.189089,0.06491 -0.437444,0.06491 z m 0.135467,-0.245534 h 0.392288 q 0.186267,0 0.321733,-0.04515 0.138289,-0.04798 0.231423,-0.141111 0.09313,-0.09313 0.138288,-0.234244 0.04516,-0.141111 0.04516,-0.3302 0,-0.375355 -0.186267,-0.561622 -0.183444,-0.186266 -0.550333,-0.186266 H 32.83005 Z"
       id="text4"
       inkscape:label="mod"
       aria-label="MOD" />
    <path
       style="font-weight:600;font-size:2.82222px;font-family:Nunito;-inkscape-font-specification:'Nunito Semi-Bold';display:inline;fill:#ffffff;stroke:#ffffff;stroke-width:0;stroke-linecap:round;stroke-linejoin:round;stroke-opacity:0;paint-order:markers fill stroke"
       d="m 11.621852,64.820908 q -0.0762,0 -0.118533,-0.03951 -0.03951,-0.04233 -0.03951,-0.118534 v -1.673576 q 0,-0.0762 0.03951,-0.115711 0.04233,-0.04233 0.118533,-0.04233 h 0.671688 q 0.206022,0 0.349956,0.06209 0.146755,0.06209 0.222955,0.1778 0.07902,0.115711 0.07902,0.2794 0,0.180622 -0.107244,0.3048 -0.107244,0.124177 -0.290689,0.166511 v -0.04233 q 0.208844,0.02822 0.327378,0.158045 0.118533,0.127 0.118533,0.333022 0,0.265288 -0.174978,0.409222 -0.174977,0.141111 -0.491066,0.141111 z M 11.74603,64.59513 h 0.54751 q 0.211667,0 0.313267,-0.08184 0.1016,-0.08467 0.1016,-0.254 0,-0.169333 -0.1016,-0.251178 -0.1016,-0.08184 -0.313267,-0.08184 h -0.54751 z m 0,-0.894644 h 0.502355 q 0.2032,0 0.307622,-0.08184 0.104422,-0.08185 0.104422,-0.239889 0,-0.158044 -0.104422,-0.239889 -0.104422,-0.08184 -0.307622,-0.08184 H 11.74603 Z m 1.800574,1.120422 q -0.0762,0 -0.118533,-0.03951 -0.03951,-0.04233 -0.03951,-0.118534 v -1.673576 q 0,-0.0762 0.03951,-0.115711 0.04233,-0.04233 0.118533,-0.04233 h 1.03011 q 0.05927,0 0.09031,0.03104 0.03104,0.02822 0.03104,0.08467 0,0.05927 -0.03104,0.09031 -0.03104,0.03104 -0.09031,0.03104 h -0.905932 v 0.623711 h 0.843843 q 0.06209,0 0.09031,0.03104 0.03104,0.03104 0.03104,0.08749 0,0.05927 -0.03104,0.09031 -0.02822,0.02822 -0.09031,0.02822 h -0.843843 v 0.654755 h 0.905932 q 0.05927,0 0.09031,0.03104 0.03104,0.03104 0.03104,0.08749 0,0.05927 -0.03104,0.09031 -0.03104,0.02822 -0.09031,0.02822 z m 1.642534,0.01976 q -0.06491,0 -0.1016,-0.03669 -0.03669,-0.03669 -0.03669,-0.104422 v -1.74131 q 0,-0.07055 0.03387,-0.107244 0.03669,-0.03951 0.09596,-0.03951 0.0508,0 0.0762,0.01976 0.02822,0.01693 0.06491,0.06491 l 1.162755,1.532466 h -0.07056 v -1.478843 q 0,-0.06491 0.03387,-0.1016 0.03669,-0.03669 0.1016,-0.03669 0.06773,0 0.1016,0.03669 0.03387,0.03669 0.03387,0.1016 v 1.752598 q 0,0.06491 -0.03387,0.1016 -0.03104,0.03669 -0.08467,0.03669 -0.0508,0 -0.08467,-0.01976 -0.03105,-0.01976 -0.06773,-0.06773 l -1.15711,-1.529643 h 0.06491 v 1.476021 q 0,0.06773 -0.03387,0.104422 -0.03387,0.03669 -0.09878,0.03669 z m 2.116665,-0.01976 q -0.0762,0 -0.118533,-0.03951 -0.03951,-0.04233 -0.03951,-0.118534 v -1.673576 q 0,-0.0762 0.03951,-0.115711 0.04233,-0.04233 0.118533,-0.04233 h 0.544688 q 0.491067,0 0.756355,0.256822 0.268111,0.254 0.268111,0.7366 0,0.239889 -0.06773,0.426155 -0.06773,0.186267 -0.200378,0.313267 -0.129822,0.124177 -0.318911,0.191911 -0.189088,0.06491 -0.437444,0.06491 z m 0.135466,-0.245534 h 0.392289 q 0.186267,0 0.321733,-0.04515 0.138289,-0.04798 0.231422,-0.141111 0.09313,-0.09313 0.138289,-0.234244 0.04516,-0.141111 0.04516,-0.3302 0,-0.375355 -0.186267,-0.561622 -0.183444,-0.186266 -0.550333,-0.186266 h -0.392289 z"
       id="text5"
       inkscape:label="bend"
       aria-label="BEND" />
    <path
       style="font-weight:600;font-size:2.82222px;font-family:Nunito;-inkscape-font-specification:'Nunito Semi-Bold';display:inline;fill:#ffffff;stroke:#ffffff;stroke-width:0;stroke-linecap:round;stroke-linejoin:round;stroke-opacity:0;paint-order:markers fill stroke"
       d="m 35.91698,46.794006 q -0.06209,0 -0.104422,-0.02822 -0.03951,-0.03104 -0.06491,-0.09031 L 34.98847,44.95674 q -0.02258,-0.05927 -0.01129,-0.1016 0.01129,-0.04233 0.04516,-0.06491 0.03669,-0.0254 0.08749,-0.0254 0.06491,0 0.09878,0.02822 0.03387,0.02822 0.05644,0.08467 l 0.7112,1.648177 h -0.104422 l 0.705555,-1.650999 q 0.0254,-0.05362 0.05927,-0.08184 0.03669,-0.02822 0.09878,-0.02822 0.0508,0 0.08184,0.0254 0.03387,0.02258 0.04233,0.06491 0.0085,0.04233 -0.01693,0.1016 l -0.756355,1.718732 q -0.0254,0.05927 -0.06491,0.09031 -0.03951,0.02822 -0.104422,0.02822 z m 1.377246,-0.01976 q -0.0762,0 -0.118534,-0.03951 -0.03951,-0.04233 -0.03951,-0.118533 v -1.673577 q 0,-0.0762 0.03951,-0.115711 0.04233,-0.04233 0.118534,-0.04233 h 1.03011 q 0.05927,0 0.09031,0.03104 0.03104,0.02822 0.03104,0.08467 0,0.05927 -0.03104,0.09031 -0.03104,0.03104 -0.09031,0.03104 h -0.905933 v 0.623711 h 0.843844 q 0.06209,0 0.09031,0.03104 0.03104,0.03104 0.03104,0.08749 0,0.05927 -0.03104,0.09031 -0.02822,0.02822 -0.09031,0.02822 h -0.843844 v 0.654756 h 0.905933 q 0.05927,0 0.09031,0.03104 0.03104,0.03104 0.03104,0.08749 0,0.05927 -0.03104,0.09031 -0.03104,0.02822 -0.09031,0.02822 z m 1.653823,0 q -0.07056,0 -0.110067,-0.03951 -0.03951,-0.03951 -0.03951,-0.110067 v -1.701798 q 0,-0.07338 0.03669,-0.110067 0.03951,-0.03951 0.110067,-0.03951 0.07055,0 0.107244,0.03951 0.03951,0.03669 0.03951,0.110067 v 1.600198 h 0.874888 q 0.06209,0 0.09596,0.03387 0.03387,0.03104 0.03387,0.09031 0,0.05927 -0.03387,0.09313 -0.03387,0.03387 -0.09596,0.03387 z"
       id="text6"
       inkscape:label="vel"
       aria-label="VEL" />
    <path
       style="font-weight:600;font-size:2.82222px;font-family:Nunito;-inkscape-font-specification:'Nunito Semi-Bold';display:inline;fill:#ffffff;stroke:#ffffff;stroke-width:0;stroke-linecap:round;stroke-linejoin:round;stroke-opacity:0;paint-order:markers fill stroke"
       d="m 20.347001,46.898702 q -0.324556,0 -0.547511,-0.121355 -0.222955,-0.124178 -0.338666,-0.352778 -0.112889,-0.228599 -0.112889,-0.544688 0,-0.237066 0.06491,-0.423333 0.06773,-0.189089 0.191911,-0.321733 0.127,-0.135467 0.307622,-0.206022 0.183444,-0.07056 0.414866,-0.07056 0.169333,0 0.333022,0.04516 0.163689,0.04233 0.299155,0.141111 0.03951,0.02822 0.0508,0.06491 0.01129,0.03669 0,0.0762 -0.0085,0.03669 -0.03669,0.06491 -0.0254,0.02822 -0.06491,0.03387 -0.03669,0.0056 -0.08184,-0.02258 -0.110066,-0.0762 -0.231422,-0.110067 -0.121355,-0.03669 -0.268111,-0.03669 -0.220133,0 -0.372533,0.09031 -0.149578,0.09031 -0.225777,0.262467 -0.0762,0.169333 -0.0762,0.412044 0,0.375355 0.177799,0.570088 0.1778,0.194734 0.527756,0.194734 0.127,0 0.248355,-0.02258 0.124178,-0.0254 0.237066,-0.07056 l -0.05927,0.146756 v -0.657577 h -0.364067 q -0.05644,0 -0.09031,-0.02822 -0.03104,-0.03104 -0.03104,-0.08467 0,-0.05362 0.03104,-0.07902 0.03387,-0.02822 0.09031,-0.02822 h 0.488245 q 0.05927,0 0.09031,0.03104 0.03104,0.03104 0.03104,0.09031 v 0.711199 q 0,0.0508 -0.01976,0.08749 -0.01693,0.03387 -0.05927,0.0508 -0.121356,0.04798 -0.285044,0.07902 -0.163689,0.02822 -0.318911,0.02822 z m 1.120424,-0.0056 q -0.05645,0 -0.09031,-0.0254 -0.03387,-0.0254 -0.03951,-0.06773 -0.0056,-0.04233 0.01693,-0.09596 l 0.764822,-1.71591 q 0.02822,-0.06773 0.07056,-0.09595 0.04516,-0.02822 0.09878,-0.02822 0.0508,0 0.09313,0.02822 0.04516,0.02822 0.07338,0.09595 l 0.764821,1.71591 q 0.0254,0.05362 0.01976,0.09878 -0.0056,0.04233 -0.03669,0.06773 -0.03104,0.02258 -0.08749,0.02258 -0.06209,0 -0.09878,-0.03104 -0.03669,-0.03104 -0.06491,-0.09596 l -0.197555,-0.4572 0.132644,0.07902 h -1.202265 l 0.129822,-0.07902 -0.194733,0.4572 q -0.02822,0.06773 -0.06209,0.09878 -0.03387,0.02822 -0.09031,0.02822 z m 0.815621,-1.684865 -0.426155,1.010354 -0.07056,-0.06773 h 0.996243 l -0.06491,0.06773 -0.428977,-1.010354 z m 1.687312,1.684865 q -0.07056,0 -0.110066,-0.03951 -0.03669,-0.03951 -0.03669,-0.110067 v -1.61431 h -0.598311 q -0.05927,0 -0.09313,-0.03104 -0.03387,-0.03387 -0.03387,-0.09313 0,-0.05927 0.03387,-0.09031 0.03387,-0.03104 0.09313,-0.03104 h 1.48731 q 0.06209,0 0.09596,0.03104 0.03387,0.03104 0.03387,0.09031 0,0.05927 -0.03387,0.09313 -0.03387,0.03104 -0.09596,0.03104 h -0.59831 v 1.61431 q 0,0.07056 -0.03669,0.110067 -0.03387,0.03951 -0.107245,0.03951 z m 1.250244,-0.01976 q -0.0762,0 -0.118533,-0.03951 -0.03951,-0.04233 -0.03951,-0.118533 v -1.673576 q 0,-0.0762 0.03951,-0.115711 0.04233,-0.04233 0.118533,-0.04233 h 1.03011 q 0.05927,0 0.09031,0.03104 0.03104,0.02822 0.03104,0.08467 0,0.05927 -0.03104,0.09031 -0.03104,0.03105 -0.09031,0.03105 H 25.34478 v 0.62371 h 0.843844 q 0.06209,0 0.09031,0.03104 0.03104,0.03104 0.03104,0.08749 0,0.05927 -0.03104,0.09031 -0.02822,0.02822 -0.09031,0.02822 H 25.34478 v 0.654755 h 0.905932 q 0.05927,0 0.09031,0.03104 0.03104,0.03104 0.03104,0.08749 0,0.05927 -0.03104,0.09031 -0.03104,0.02822 -0.09031,0.02822 z"
       id="text7"
       inkscape:label="gate"
       aria-label="GATE" />
    <path
       style="font-weight:600;font-size:2.82222px;font-family:Nunito;-inkscape-font-specification:'Nunito Semi-Bold';display:inline;fill:#ffffff;stroke:#ffffff;stroke-width:0;stroke-linecap:round;stroke-linejoin:round;stroke-opacity:0;paint-order:markers fill stroke"
       d="m 4.8848303,46.893058 q -0.062089,0 -0.1044222,-0.02822 -0.039511,-0.03104 -0.064911,-0.09031 L 3.9563199,45.055793 q -0.022578,-0.05927 -0.011289,-0.1016 0.011289,-0.04233 0.045155,-0.06491 0.036689,-0.0254 0.087489,-0.0254 0.064911,0 0.098778,0.02822 0.033867,0.02822 0.056444,0.08467 l 0.7111995,1.648176 H 4.8396748 l 0.705555,-1.650999 q 0.0254,-0.05362 0.059267,-0.08184 0.036689,-0.02822 0.098778,-0.02822 0.0508,0 0.081844,0.0254 0.033867,0.02258 0.042333,0.06491 0.00847,0.04233 -0.016933,0.1016 l -0.756355,1.718732 q -0.0254,0.05927 -0.064911,0.09031 -0.039511,0.02822 -0.1044221,0.02822 z m 1.1288889,0.07056 q -0.014111,0.04516 -0.045155,0.06491 -0.031045,0.01975 -0.067733,0.01975 -0.036689,0 -0.067733,-0.01975 -0.028222,-0.01693 -0.039511,-0.0508 -0.014111,-0.03387 0,-0.08185 l 0.6632217,-2.054576 q 0.014111,-0.04516 0.045156,-0.06491 0.031044,-0.02258 0.064911,-0.01976 0.036689,0 0.064911,0.01976 0.031044,0.01693 0.042333,0.0508 0.014111,0.03104 0.00282,0.07902 z m 1.7074449,-0.06491 q -0.282222,0 -0.4938885,-0.124177 -0.2088443,-0.127 -0.3245553,-0.3556 -0.1128888,-0.231422 -0.1128888,-0.541866 0,-0.234244 0.064911,-0.420511 0.064911,-0.189089 0.1862665,-0.321733 0.1213555,-0.135467 0.2935109,-0.206022 0.1721554,-0.07056 0.3866441,-0.07056 0.2850443,0 0.4938885,0.124178 0.2088443,0.124178 0.3217331,0.352778 0.1157111,0.228599 0.1157111,0.539044 0,0.234244 -0.064911,0.423333 -0.064911,0.189088 -0.1890887,0.324555 -0.1213555,0.135466 -0.2935109,0.206022 -0.1721555,0.07055 -0.383822,0.07055 z m 0,-0.253999 q 0.1975554,0 0.3358442,-0.09031 0.141111,-0.09031 0.2144888,-0.262467 0.0762,-0.172155 0.0762,-0.414866 0,-0.364067 -0.1636888,-0.564444 -0.1636887,-0.200378 -0.4628441,-0.200378 -0.1975554,0 -0.3386664,0.09031 -0.1382888,0.08749 -0.2144887,0.259644 -0.073378,0.172156 -0.073378,0.414867 0,0.361244 0.1636887,0.564444 0.166511,0.2032 0.4628443,0.2032 z m 2.2154416,0.253999 q -0.3019775,0 -0.5164663,-0.124177 -0.2144887,-0.124178 -0.3301997,-0.352778 -0.1128888,-0.231422 -0.1128888,-0.544688 0,-0.234244 0.064911,-0.420511 0.064911,-0.189089 0.1862666,-0.321733 0.1241777,-0.135467 0.3019775,-0.206022 0.1806221,-0.07056 0.4063997,-0.07056 0.1665113,0 0.3189113,0.04516 0.155222,0.04516 0.26811,0.129822 0.04798,0.03104 0.06209,0.0762 0.01693,0.04233 0.0056,0.08184 -0.0085,0.03951 -0.03669,0.06773 -0.02822,0.0254 -0.07338,0.02822 -0.04233,0.0028 -0.09313,-0.03105 -0.09313,-0.07055 -0.206022,-0.104422 -0.112889,-0.03387 -0.2370666,-0.03387 -0.2144888,0 -0.3612442,0.09031 -0.1467554,0.08749 -0.2229554,0.256822 -0.0762,0.169333 -0.0762,0.412044 0,0.242711 0.0762,0.414866 0.0762,0.169333 0.2229554,0.259644 0.1467554,0.08749 0.3612442,0.08749 0.1241776,0 0.2370666,-0.03387 0.115711,-0.03669 0.217311,-0.107245 0.0508,-0.03104 0.09031,-0.02822 0.04233,0.0028 0.07056,0.02822 0.02822,0.0254 0.03669,0.06491 0.01129,0.03669 -0.0028,0.07902 -0.01129,0.03951 -0.05362,0.06773 -0.115711,0.09313 -0.273756,0.141111 -0.158044,0.04798 -0.3301993,0.04798 z m 1.6199553,-0.0056 q -0.07056,0 -0.110067,-0.03951 -0.03669,-0.03951 -0.03669,-0.110067 v -1.61431 h -0.598311 q -0.05927,0 -0.09313,-0.03104 -0.03387,-0.03387 -0.03387,-0.09313 0,-0.05927 0.03387,-0.09031 0.03387,-0.03104 0.09313,-0.03104 h 1.48731 q 0.06209,0 0.09596,0.03104 0.03387,0.03104 0.03387,0.09031 0,0.05927 -0.03387,0.09313 -0.03387,0.03104 -0.09596,0.03104 h -0.598311 v 1.61431 q 0,0.07056 -0.03669,0.110067 -0.03387,0.03951 -0.107244,0.03951 z"
       id="text8"
       inkscape:label="voct"
       aria-label="V/OCT" />
    <path
       d="m 14.468751,7.2503746 q -0.108187,0 -0.166789,-0.058601 -0.0586,-0.063109 -0.0586,-0.1712961 v -1.803116 q 0,-0.1126948 0.0586,-0.171296 0.0586,-0.058601 0.162281,-0.058601 0.108187,0 0.16228,0.058601 0.0586,0.058601 0.0586,0.171296 v 0.3696388 l -0.04959,-0.099171 q 0.09016,-0.2389129 0.279483,-0.3741466 0.189327,-0.1352337 0.455287,-0.1352337 0.274975,0 0.446271,0.1307259 0.171296,0.1307259 0.234405,0.4011934 h -0.06311 q 0.08565,-0.2479285 0.293006,-0.38767 0.207358,-0.1442493 0.482334,-0.1442493 0.252436,0 0.414716,0.099171 0.162281,0.094664 0.243421,0.2930064 0.08114,0.1938349 0.08114,0.4913491 v 1.158502 q 0,0.108187 -0.06311,0.1712961 -0.0586,0.058601 -0.166788,0.058601 -0.108187,0 -0.166788,-0.058601 -0.0586,-0.063109 -0.0586,-0.1712961 V 5.8845142 q 0,-0.279483 -0.09917,-0.4102089 -0.09466,-0.1307259 -0.315545,-0.1307259 -0.247929,0 -0.392178,0.171296 -0.144249,0.1712961 -0.144249,0.473318 v 1.0322839 q 0,0.108187 -0.0586,0.1712961 -0.0586,0.058601 -0.166788,0.058601 -0.108187,0 -0.171296,-0.058601 -0.0586,-0.063109 -0.0586,-0.1712961 V 5.8845142 q 0,-0.279483 -0.09466,-0.4102089 -0.09466,-0.1307259 -0.315545,-0.1307259 -0.247928,0 -0.392178,0.171296 -0.139741,0.1712961 -0.139741,0.473318 v 1.0322839 q 0,0.2298973 -0.229897,0.2298973 z m 3.894727,-0.00451 q -0.108187,0 -0.166789,-0.063109 -0.0586,-0.067617 -0.0586,-0.1848194 v -1.758036 q 0,-0.1172025 0.0586,-0.1803116 0.0586,-0.063109 0.166789,-0.063109 0.108187,0 0.166788,0.063109 0.06311,0.063109 0.06311,0.1803116 v 1.7580382 q 0,0.1172025 -0.0586,0.1848194 -0.0586,0.063109 -0.171296,0.063109 z m 0,-2.7181974 q -0.135234,0 -0.211866,-0.067617 -0.07212,-0.067617 -0.07212,-0.1893272 0,-0.1262181 0.07212,-0.1893272 0.07663,-0.067617 0.211866,-0.067617 0.135233,0 0.207358,0.067617 0.07663,0.063109 0.07663,0.1893272 0,0.1217103 -0.07663,0.1893272 -0.07212,0.067617 -0.207358,0.067617 z m 1.095393,2.7227052 q -0.108187,0 -0.166788,-0.058601 -0.0586,-0.063109 -0.0586,-0.1712961 v -1.803116 q 0,-0.1126948 0.0586,-0.171296 0.0586,-0.058601 0.16228,-0.058601 0.108187,0 0.162281,0.058601 0.0586,0.058601 0.0586,0.171296 v 0.3516076 l -0.04959,-0.08114 q 0.09917,-0.2524362 0.311038,-0.3786544 0.211866,-0.1307259 0.486841,-0.1307259 0.261452,0 0.432748,0.099171 0.175804,0.094664 0.261452,0.2930064 0.08565,0.1938349 0.08565,0.4913491 v 1.158502 q 0,0.108187 -0.0586,0.1712961 -0.0586,0.058601 -0.166788,0.058601 -0.112695,0 -0.171296,-0.058601 -0.0586,-0.063109 -0.0586,-0.1712961 V 5.889022 q 0,-0.2839908 -0.112695,-0.4147167 -0.108187,-0.1307259 -0.342592,-0.1307259 -0.274975,0 -0.441763,0.171296 -0.162281,0.1712961 -0.162281,0.4597946 v 1.0458073 q 0,0.2298973 -0.229897,0.2298973 z m 2.596488,-0.00451 q -0.108187,0 -0.166788,-0.063109 -0.0586,-0.067617 -0.0586,-0.1848194 V 5.2399002 q 0,-0.1172025 0.0586,-0.1803116 0.0586,-0.063109 0.166788,-0.063109 0.108187,0 0.166788,0.063109 0.06311,0.063109 0.06311,0.1803116 v 1.7580382 q 0,0.1172025 -0.0586,0.1848194 -0.0586,0.063109 -0.171296,0.063109 z m 0,-2.7181974 q -0.135234,0 -0.211866,-0.067617 -0.07212,-0.067617 -0.07212,-0.1893272 0,-0.1262181 0.07212,-0.1893272 0.07663,-0.067617 0.211866,-0.067617 0.135234,0 0.207358,0.067617 0.07663,0.063109 0.07663,0.1893272 0,0.1217103 -0.07663,0.1893272 -0.07212,0.067617 -0.207358,0.067617 z m 1.577727,2.7317208 q -0.351608,0 -0.53192,-0.2028505 -0.175803,-0.207354 -0.175803,-0.5950239 V 4.2391708 q 0,-0.1126947 0.0586,-0.171296 0.0586,-0.058601 0.166788,-0.058601 0.108187,0 0.166788,0.058601 0.06311,0.058601 0.06311,0.171296 v 2.1952938 q 0,0.2253895 0.09016,0.3380843 0.09466,0.1081869 0.270468,0.1081869 0.04057,0 0.07212,0 0.03156,-0.00451 0.06311,-0.00902 0.05409,-0.00451 0.07663,0.031555 0.02254,0.031554 0.02254,0.1352337 0,0.094664 -0.04057,0.1487571 -0.04057,0.049586 -0.130726,0.063109 -0.04057,0.00451 -0.08565,0.00451 -0.04508,0.00451 -0.08565,0.00451 z m 1.374875,0 q -0.229897,0 -0.414717,-0.090156 -0.180311,-0.090156 -0.283991,-0.2434207 -0.103679,-0.1532648 -0.103679,-0.3470998 0,-0.2434207 0.121711,-0.3831622 0.126218,-0.1442492 0.410209,-0.2028505 0.288498,-0.063109 0.775339,-0.063109 H 25.7247 v 0.279483 h -0.207359 q -0.324561,0 -0.513888,0.031555 -0.189327,0.031555 -0.270467,0.108187 -0.07663,0.072125 -0.07663,0.2028506 0,0.171296 0.117203,0.2794829 0.117202,0.1036792 0.324561,0.1036792 0.166788,0 0.293006,-0.076632 0.126218,-0.08114 0.198343,-0.2163739 0.07663,-0.1352337 0.07663,-0.3110376 V 5.8123896 q 0,-0.256944 -0.108187,-0.3696388 -0.108187,-0.1126948 -0.356115,-0.1126948 -0.144249,0 -0.302022,0.036062 -0.153265,0.036062 -0.320053,0.1217103 -0.07663,0.036062 -0.130726,0.022539 -0.05409,-0.013523 -0.08565,-0.058601 -0.03156,-0.049586 -0.03606,-0.1036792 0,-0.058601 0.02705,-0.1126947 0.03156,-0.054093 0.10368,-0.08114 0.198342,-0.094664 0.392177,-0.1352337 0.193835,-0.04057 0.365131,-0.04057 0.302022,0 0.495857,0.094664 0.198343,0.094664 0.293007,0.2884986 0.09466,0.193835 0.09466,0.5003647 v 1.158502 q 0,0.108187 -0.05409,0.1712961 -0.05409,0.058601 -0.157773,0.058601 -0.09917,0 -0.157773,-0.058601 -0.0586,-0.063109 -0.0586,-0.1712961 V 6.727471 h 0.04057 q -0.03606,0.1667882 -0.135234,0.2884985 -0.09466,0.1172026 -0.238912,0.1803116 -0.14425,0.063109 -0.329069,0.063109 z m 2.898511,0 q -0.288498,0 -0.500364,-0.1442493 -0.211866,-0.148757 -0.283991,-0.3921777 l 0.04959,-0.08114 v 0.3786543 q 0,0.108187 -0.0586,0.1712961 -0.0586,0.058601 -0.16228,0.058601 -0.108187,0 -0.166788,-0.058601 -0.0586,-0.063109 -0.0586,-0.1712961 V 4.2391708 q 0,-0.1126947 0.0586,-0.171296 0.0586,-0.058601 0.166788,-0.058601 0.108187,0 0.166788,0.058601 0.06311,0.058601 0.06311,0.171296 v 1.2621813 h -0.05409 q 0.07212,-0.2389129 0.283991,-0.3786544 0.211866,-0.1442493 0.495856,-0.1442493 0.297515,0 0.513889,0.1397415 0.216373,0.1397415 0.333576,0.3921778 0.12171,0.2524362 0.12171,0.6085516 0,0.3470999 -0.12171,0.6085517 -0.117203,0.256944 -0.338084,0.3966855 -0.216374,0.1352337 -0.509381,0.1352337 z M 27.793778,6.9077826 q 0.189327,0 0.329068,-0.090156 0.139742,-0.090156 0.216374,-0.2659596 0.07663,-0.1758039 0.07663,-0.4327479 0,-0.3876699 -0.171296,-0.5860127 -0.166789,-0.1983428 -0.450779,-0.1983428 -0.18482,0 -0.329069,0.090156 -0.139741,0.085648 -0.216374,0.2614519 -0.07663,0.1758038 -0.07663,0.4327478 0,0.3831622 0.171296,0.5860127 0.171296,0.2028506 0.450779,0.2028506 z m 2.578453,0.3516076 q -0.252436,0 -0.513888,-0.067617 -0.261452,-0.072125 -0.455287,-0.2118662 -0.07212,-0.045078 -0.09917,-0.1081869 -0.02254,-0.067617 -0.009,-0.1217104 0.01352,-0.058601 0.05409,-0.099171 0.04508,-0.04057 0.108187,-0.045078 0.06311,-0.00902 0.139741,0.036062 0.193835,0.1172025 0.378655,0.171296 0.184819,0.049586 0.383162,0.049586 0.216374,0 0.365131,-0.063109 0.148757,-0.063109 0.220882,-0.1848194 0.07663,-0.1217103 0.07663,-0.2930063 0,-0.2569441 -0.171296,-0.3831622 Q 30.68328,5.8078819 30.363227,5.8078819 h -0.30653 q -0.103679,0 -0.157773,-0.049586 -0.05409,-0.054093 -0.05409,-0.1487571 0,-0.090156 0.05409,-0.1397415 0.05409,-0.054093 0.157773,-0.054093 h 0.261452 q 0.193835,0 0.329068,-0.063109 0.135234,-0.067617 0.207359,-0.1848194 0.07663,-0.1217103 0.07663,-0.2930064 0,-0.2298972 -0.153265,-0.3516076 -0.148757,-0.1262181 -0.437255,-0.1262181 -0.18482,0 -0.351608,0.049586 -0.16228,0.049586 -0.338084,0.1758038 -0.06762,0.045078 -0.130726,0.04057 -0.0586,-0.00902 -0.103679,-0.045078 -0.04057,-0.04057 -0.0586,-0.099171 -0.01352,-0.058601 0.009,-0.1217103 0.02254,-0.063109 0.09016,-0.108187 0.189327,-0.1397415 0.42824,-0.2118661 0.238913,-0.076632 0.491349,-0.076632 0.315545,0 0.540935,0.099171 0.229897,0.099171 0.3471,0.2839907 0.12171,0.1848194 0.12171,0.4417635 0,0.1938349 -0.07212,0.3516076 -0.07212,0.1577726 -0.207358,0.2704674 -0.130726,0.108187 -0.320053,0.1532649 v -0.049586 q 0.329069,0.054093 0.50938,0.2704674 0.180312,0.2118661 0.180312,0.5319192 0,0.279483 -0.135234,0.4868413 -0.130726,0.2028506 -0.378654,0.3110375 -0.247929,0.108187 -0.590521,0.108187 z"
       id="text9"
       style="font-weight:600;font-size:4.50779px;font-family:Nunito;-inkscape-font-specification:'Nunito Semi-Bold';display:inline;fill:#ffffff;stroke:#ffffff;stroke-width:0;stroke-linecap:round;stroke-linejoin:round;paint-order:markers fill stroke"
       inkscape:label="title"
       aria-label="minilab3" />
  </g>
</svg>
