<?xml version="1.0" encoding="UTF-8" standalone="no"?>
<!-- Created with Inkscape (http://www.inkscape.org/) -->

<svg
   width="122"
   height="380"
   viewBox="0 0 122 380.00001"
   version="1.1"
   id="svg3819"
   inkscape:version="1.4 (86a8ad7, 2024-10-11)"
   sodipodi:docname="MiniLog.svg"
   xmlns:inkscape="http://www.inkscape.org/namespaces/inkscape"
   xmlns:sodipodi="http://sodipodi.sourceforge.net/DTD/sodipodi-0.dtd"
   xmlns="http://www.w3.org/2000/svg"
   xmlns:svg="http://www.w3.org/2000/svg">
  <sodipodi:namedview
     id="namedview3821"
     pagecolor="#6a6a6a"
     bordercolor="#000000"
     borderopacity="0.25"
     inkscape:showpageshadow="2"
     inkscape:pageopacity="0"
     inkscape:pagecheckerboard="0"
     inkscape:deskcolor="#d1d1d1"
     inkscape:document-units="px"
     showgrid="false"
     inkscape:zoom="32"
     inkscape:cx="14.265625"
     inkscape:cy="381.60937"
     inkscape:window-width="2560"
     inkscape:window-height="1369"
     inkscape:window-x="-8"
     inkscape:window-y="-8"
     inkscape:window-maximized="1"
     inkscape:current-layer="layer1" />
  <g
     inkscape:groupmode="layer"
     id="Design"
     inkscape:label="Design"
     transform="scale(2.9571984)">
    <rect
       style="fill:#262630;fill-opacity:1;stroke:#324d9e;stroke-width:0;stroke-linecap:square;stroke-linejoin:bevel;stroke-dasharray:none;stroke-opacity:0.405556"
       id="rect4511"
       width="41.255264"
       height="128.5"
       x="0"
       y="0" />
    <rect
       style="fill:#111111;stroke:#1d1d1d;stroke-width:0.264996;stroke-dasharray:none;stroke-opacity:1;paint-order:markers fill stroke"
       id="rect2"
       width="39.482006"
       height="116.34836"
       x="0.54847097"
       y="10.715831" />
    <g
       inkscape:groupmode="layer"
       id="layer1"
       inkscape:label="Design 1"
       transform="scale(0.3381579)"
       style="display:none;stroke-width:1;stroke-dasharray:none">
      <path
         style="fill:#787878;fill-opacity:1;stroke:#585858;stroke-width:1.00479;stroke-dasharray:none;stroke-opacity:1;paint-order:markers fill stroke"
         d="M 1.2369512,375.65147 118.7823,375.74807"
         id="path4" />
    </g>
  </g>
  <g
     inkscape:groupmode="layer"
     id="Text"
     inkscape:label="Text"
     transform="scale(2.9571984)">
    <text
       xml:space="preserve"
       style="font-weight:600;font-size:4.50779px;font-family:Nunito;-inkscape-font-specification:'Nunito Semi-Bold';font-variation-settings:normal;text-align:start;writing-mode:lr-tb;direction:ltr;text-anchor:start;display:inline;fill:#ffffff;fill-opacity:1;stroke:#ffffff;stroke-width:0;stroke-linecap:round;stroke-linejoin:round;stroke-miterlimit:4;stroke-dasharray:none;stroke-dashoffset:0;stroke-opacity:1;paint-order:markers fill stroke"
       x="16.998785"
       y="6.8309588"
       id="text42"
       inkscape:label="title"><tspan
         sodipodi:role="line"
         id="tspan42"
         style="font-size:4.50779px;fill:#ffffff;stroke:#ffffff;stroke-width:0;stroke-linecap:round;stroke-linejoin:round;stroke-dasharray:none;stroke-opacity:1"
         x="16.998785"
         y="6.8309588">log</tspan></text>
  </g>
  <defs
     id="defs3816" />
  <g
     inkscape:groupmode="layer"
     id="Ports"
     inkscape:label="Ports"
     style="display:inline"
     transform="scale(2.9571984)">
    <ellipse
       style="fill:#ff00ff;fill-opacity:1;stroke:#ff00ff;stroke-width:0;stroke-linecap:square;stroke-linejoin:bevel;stroke-dasharray:none;stroke-opacity:1"
       id="Light"
       cx="36.319172"
       cy="5.6521716"
       inkscape:label="Light"
       rx="1.012"
       ry="1.0121714" />
  </g>
  <g
     inkscape:groupmode="layer"
     id="DesignFinal"
     inkscape:label="DesignFinal"
     transform="scale(2.9571984)">
    <rect
       style="fill:#262630;stroke:#324d9e;stroke-width:0;stroke-linecap:square;stroke-linejoin:bevel;stroke-opacity:0.405556"
       id="rect1"
       width="41.255264"
       height="128.5"
       x="0"
       y="0" />
    <g
       id="rect3">
      <path
         style="fill:#111111;paint-order:markers fill stroke"
         d="M 0.54847097,10.715831 H 40.030477 V 127.06419 H 0.54847097 Z"
         id="path5" />
      <path
         style="fill:#1d1d1d;paint-order:markers fill stroke"
         d="M 0.41601563,10.583984 V 127.19727 H 40.162109 V 10.583984 Z m 0.26562499,0.263672 H 39.898437 V 126.93164 H 0.68164062 Z"
         id="path6" />
    </g>
    <g
       inkscape:groupmode="layer"
       id="g3"
       inkscape:label="Design 1"
       transform="scale(0.3381579)"
       style="display:none">
      <g
         id="path3">
        <path
           style="fill:#787878;paint-order:markers fill stroke"
           d="M 1.2369512,375.65147 118.7823,375.74807"
           id="path7" />
        <path
           style="fill:#585858;paint-order:markers fill stroke"
           d="m 1.2382812,375.14844 -0.00195,1.00586 117.5449219,0.0957 0.002,-1.00391 z"
           id="path8" />
      </g>
    </g>
  </g>
  <g
     inkscape:groupmode="layer"
     id="TextFinal"
     inkscape:label="TextFinal"
     transform="scale(2.9571984)">
    <path
       d="m 18.026561,6.871529 q -0.351607,0 -0.531919,-0.2028506 Q 17.318838,6.4613201 17.318838,6.0736501 V 3.8513096 q 0,-0.1126948 0.0586,-0.171296 0.0586,-0.058601 0.166789,-0.058601 0.108187,0 0.166788,0.058601 0.06311,0.058601 0.06311,0.171296 v 2.1952938 q 0,0.2253895 0.09016,0.3380842 0.09466,0.108187 0.270467,0.108187 0.04057,0 0.07213,0 0.03155,-0.00451 0.06311,-0.00902 0.05409,-0.00451 0.07663,0.031555 0.02254,0.031555 0.02254,0.1352337 0,0.094664 -0.04057,0.1487571 -0.04057,0.049586 -0.130726,0.063109 -0.04057,0.00451 -0.08565,0.00451 -0.04508,0.00451 -0.08565,0.00451 z m 1.604776,0 q -0.333576,0 -0.576997,-0.1397415 Q 18.815427,6.592046 18.680193,6.3351019 18.54496,6.0781579 18.54496,5.7310581 q 0,-0.2659597 0.07663,-0.473318 0.07663,-0.2073583 0.216374,-0.3561154 0.144249,-0.1532649 0.342592,-0.2298973 0.202851,-0.08114 0.450779,-0.08114 0.329069,0 0.567982,0.1397415 0.24342,0.1397415 0.378654,0.3966855 0.135234,0.2524362 0.135234,0.6040439 0,0.2614518 -0.07663,0.4733179 -0.07663,0.2118662 -0.220881,0.3606232 -0.139742,0.1487571 -0.342592,0.2298973 -0.198343,0.076632 -0.441764,0.076632 z m 0,-0.3516077 q 0.18482,0 0.324561,-0.090156 0.139742,-0.090156 0.216374,-0.2659596 0.08114,-0.1758038 0.08114,-0.4327478 0,-0.38767 -0.171296,-0.5860127 -0.171296,-0.1983428 -0.450779,-0.1983428 -0.189327,0 -0.329069,0.090156 -0.139741,0.085648 -0.220881,0.2614518 -0.07663,0.1758038 -0.07663,0.4327479 0,0.3831621 0.171296,0.5860127 0.171296,0.2028505 0.455287,0.2028505 z m 2.587474,1.1630099 q -0.243421,0 -0.473318,-0.049586 -0.225389,-0.049586 -0.410209,-0.1622805 -0.06762,-0.036062 -0.09016,-0.090156 -0.02254,-0.049586 -0.01352,-0.1036791 0.01352,-0.054093 0.04959,-0.094664 0.03606,-0.04057 0.08565,-0.054094 0.05409,-0.013523 0.112695,0.018031 0.198342,0.108187 0.374146,0.1442493 0.180312,0.04057 0.333577,0.04057 0.315545,0 0.473318,-0.1622804 0.157772,-0.1577727 0.157772,-0.4688102 V 6.2404383 h 0.04057 q -0.06762,0.2479285 -0.28399,0.3921778 -0.216374,0.1442493 -0.500365,0.1442493 -0.297514,0 -0.518396,-0.1352337 -0.220882,-0.1397415 -0.342592,-0.3831622 -0.12171,-0.2479285 -0.12171,-0.5769971 0,-0.2479285 0.06762,-0.4462712 0.07212,-0.1983428 0.198343,-0.3425921 0.130726,-0.1442493 0.311038,-0.2208817 0.184819,-0.08114 0.405701,-0.08114 0.288498,0 0.500365,0.1442493 0.216373,0.1442492 0.279483,0.3921777 l -0.04508,0.076632 V 4.8295 q 0,-0.1126947 0.0586,-0.171296 0.06311,-0.058601 0.166788,-0.058601 0.108187,0 0.166788,0.058601 0.0586,0.058601 0.0586,0.171296 v 1.8166394 q 0,0.5138881 -0.26596,0.7753399 -0.26596,0.2614519 -0.77534,0.2614519 z m -0.03606,-1.2621813 q 0.198343,0 0.338084,-0.090156 0.139742,-0.090156 0.216374,-0.256944 0.07663,-0.1667882 0.07663,-0.3921777 0,-0.3380843 -0.171296,-0.536427 -0.166788,-0.1983428 -0.459794,-0.1983428 -0.193835,0 -0.333577,0.090156 -0.139741,0.090156 -0.220881,0.256944 -0.07663,0.1622805 -0.07663,0.38767 0,0.342592 0.171296,0.5409348 0.171296,0.1983427 0.459795,0.1983427 z"
       id="text1"
       style="font-weight:600;font-size:4.50779px;font-family:Nunito;-inkscape-font-specification:'Nunito Semi-Bold';fill:#ffffff;stroke:#ffffff;stroke-width:0;stroke-linecap:round;stroke-linejoin:round;paint-order:markers fill stroke"
       inkscape:label="title"
       aria-label="log" />
  </g>
</svg>
