<?xml version="1.0" encoding="UTF-8" standalone="no"?>
<!-- Created with Inkscape (http://www.inkscape.org/) -->

<svg
        xmlns:inkscape="http://www.inkscape.org/namespaces/inkscape"
        xmlns:sodipodi="http://sodipodi.sourceforge.net/DTD/sodipodi-0.dtd"
        width="40.639999mm"
        height="128.5mm"
        viewBox="0 0 40.64 128.5"
        version="1.1"
        id="svg3819"
        inkscape:version="1.2.2 (732a01da63, 2022-12-09)"
        sodipodi:docname="MiniLog.svg"
        xmlns="http://www.w3.org/2000/svg"
>
    <g
            inkscape:groupmode="layer"
            id="layer1"
            inkscape:label="design">
        <rect
                style="fill:#00002a;fill-opacity:0.180392;stroke:#324d9e;stroke-width:0;stroke-linecap:square;stroke-linejoin:bevel;stroke-dasharray:none;stroke-opacity:0.405556"
                id="rect4511"
                width="40.249104"
                height="128.15009"
                x="0.19544792"
                y="0.17495018"/>
    </g>
    <g
            inkscape:groupmode="layer"
            id="layer2"
            inkscape:label="text">
        <text
                xml:space="preserve"
                style="font-weight:bold;font-size:7.76111px;font-family:Calibri;-inkscape-font-specification:'Calibri Bold';text-align:center;text-anchor:middle;display:inline;fill:#ffffff;fill-opacity:1;stroke:#000000;stroke-width:0.2;stroke-linecap:square;stroke-linejoin:bevel;stroke-dasharray:none"
                x="20.247997"
                y="10.852129"
                id="text6178"
                inkscape:label="title"><tspan
         sodipodi:role="line"
         id="tspan6176"
         style="font-size:7.76111px;fill:#ffffff;fill-opacity:1;stroke-width:0.2;stroke-dasharray:none"
         x="20.247997"
         y="10.852129">log</tspan></text>
    </g>
    <g
            inkscape:groupmode="layer"
            id="g13374"
            inkscape:label="text copy">
        <g
                aria-label="log"
                id="text13372"
                style="font-weight:bold;font-size:7.76111px;font-family:Calibri;-inkscape-font-specification:'Calibri Bold';text-align:center;text-anchor:middle;display:inline;fill:#ffffff;stroke:#000000;stroke-width:0.2;stroke-linecap:square;stroke-linejoin:bevel"
                inkscape:label="title">
            <path
                    d="m 16.801352,10.723282 q 0,0.0379 -0.02274,0.06821 -0.02274,0.02653 -0.07958,0.04548 -0.05306,0.01895 -0.144005,0.02653 -0.09095,0.01137 -0.231166,0.01137 -0.140215,0 -0.231166,-0.01137 -0.09095,-0.0076 -0.147795,-0.02653 -0.05305,-0.01895 -0.07579,-0.04548 -0.02274,-0.03032 -0.02274,-0.06821 V 5.7399526 q 0,-0.037896 0.02274,-0.068213 0.02274,-0.030317 0.07579,-0.049265 0.05685,-0.022738 0.147795,-0.034106 0.09095,-0.011369 0.231166,-0.011369 0.140215,0 0.231166,0.011369 0.09095,0.011369 0.144005,0.034106 0.05684,0.018948 0.07958,0.049265 0.02274,0.030317 0.02274,0.068213 z"
                    id="path13376"/>
            <path
                    d="m 21.170766,8.9990124 q 0,0.4320149 -0.113688,0.7882377 -0.113688,0.3562229 -0.344854,0.6139159 -0.231166,0.257693 -0.57981,0.397909 -0.348643,0.140215 -0.814765,0.140215 -0.450963,0 -0.784448,-0.125057 -0.333485,-0.125057 -0.553282,-0.363802 -0.219797,-0.238745 -0.325906,-0.5873888 -0.106109,-0.3486436 -0.106109,-0.7958169 0,-0.4320149 0.113688,-0.7882377 0.117478,-0.3600124 0.348644,-0.6139159 0.231166,-0.2576931 0.57602,-0.3979085 0.348643,-0.1402154 0.814765,-0.1402154 0.454752,0 0.788237,0.125057 0.333486,0.1212673 0.549493,0.3600124 0.219797,0.2387451 0.325906,0.5873887 0.106109,0.3486436 0.106109,0.7996065 z m -0.981508,0.037896 q 0,-0.2501139 -0.04168,-0.4585422 -0.0379,-0.2122178 -0.132636,-0.3675916 -0.09474,-0.1553738 -0.253904,-0.2425347 -0.155374,-0.087161 -0.394119,-0.087161 -0.212218,0 -0.371381,0.079582 -0.159163,0.075792 -0.261483,0.2273763 -0.102319,0.1477946 -0.155374,0.3600124 -0.04926,0.2084282 -0.04926,0.4774902 0,0.2501138 0.04169,0.4623317 0.04169,0.2084282 0.132636,0.363802 0.09474,0.1553736 0.253904,0.2425346 0.159163,0.08337 0.394119,0.08337 0.216007,0 0.375171,-0.07579 0.159163,-0.07958 0.261482,-0.227376 0.10232,-0.1477945 0.151585,-0.3562228 0.04926,-0.2122178 0.04926,-0.4812797 z"
                    id="path13378"/>
            <path
                    d="m 24.971739,7.5779108 q 0,0.181901 -0.04169,0.2690619 -0.04169,0.087161 -0.102319,0.087161 h -0.397909 q 0.08337,0.090951 0.117478,0.2084282 0.0379,0.1136882 0.0379,0.2387451 0,0.2955892 -0.09853,0.526755 -0.09853,0.2273763 -0.28422,0.3865397 -0.181901,0.1553738 -0.443384,0.238745 -0.257693,0.079582 -0.57602,0.079582 -0.162952,0 -0.310747,-0.037896 -0.147795,-0.041686 -0.227376,-0.09474 -0.04548,0.049265 -0.08337,0.1174777 -0.03411,0.068213 -0.03411,0.1515842 0,0.1098985 0.09474,0.181901 0.09853,0.068213 0.272852,0.075792 l 0.822344,0.03032 q 0.28801,0.01137 0.511596,0.08337 0.227377,0.06821 0.378961,0.19706 0.155374,0.125057 0.234955,0.303168 0.08337,0.178112 0.08337,0.405488 0,0.250114 -0.109899,0.469911 -0.109899,0.223586 -0.329696,0.386539 -0.219797,0.162953 -0.553282,0.257693 -0.329695,0.09474 -0.773079,0.09474 -0.432015,0 -0.738973,-0.06821 -0.303168,-0.06821 -0.500228,-0.189481 -0.19327,-0.121267 -0.28422,-0.291799 -0.08716,-0.166743 -0.08716,-0.367592 0,-0.125057 0.03032,-0.238745 0.03411,-0.113688 0.09474,-0.219797 0.06442,-0.102319 0.155374,-0.197059 0.09095,-0.09474 0.208428,-0.181901 -0.162953,-0.08716 -0.253904,-0.234956 -0.08716,-0.151584 -0.08716,-0.3296953 0,-0.2235867 0.102319,-0.4054877 0.102319,-0.1856906 0.265272,-0.3334852 -0.132636,-0.1326361 -0.212218,-0.3183267 -0.07958,-0.1856907 -0.07958,-0.4623318 0,-0.2955891 0.102319,-0.526755 0.106109,-0.2349555 0.2918,-0.3941188 0.18569,-0.162953 0.443383,-0.2463243 0.257693,-0.087161 0.568441,-0.087161 0.159163,0 0.303168,0.018948 0.147795,0.018948 0.272852,0.053055 h 1.072458 q 0.06442,0 0.102319,0.083371 0.04169,0.083371 0.04169,0.2804308 z m -1.224042,0.7996065 q 0,-0.2728515 -0.151585,-0.4244357 -0.151584,-0.1515842 -0.428225,-0.1515842 -0.140215,0 -0.246324,0.049265 -0.106109,0.045475 -0.178112,0.1288465 -0.06821,0.079582 -0.102319,0.1894803 -0.03411,0.1061089 -0.03411,0.2235866 0,0.2576931 0.151584,0.4092773 0.151584,0.1477946 0.420646,0.1477946 0.144005,0 0.250114,-0.045475 0.106109,-0.045475 0.174322,-0.1250569 0.072,-0.079582 0.106109,-0.181901 0.0379,-0.106109 0.0379,-0.2197971 z m 0.223586,2.6981987 q 0,-0.170533 -0.136426,-0.261483 -0.136425,-0.09095 -0.37517,-0.09853 l -0.67834,-0.01895 q -0.09853,0.072 -0.159163,0.140216 -0.05684,0.06442 -0.09474,0.125057 -0.03411,0.06063 -0.04547,0.117477 -0.01137,0.05684 -0.01137,0.117478 0,0.18948 0.18948,0.28801 0.19327,0.09853 0.541914,0.09853 0.216007,0 0.363802,-0.04548 0.147794,-0.04169 0.238745,-0.113688 0.09095,-0.072 0.128846,-0.162953 0.0379,-0.08716 0.0379,-0.18569 z"
                    id="path13380"/>
        </g>
    </g>
    <sodipodi:namedview
            id="namedview3821"
            pagecolor="#6a6a6a"
            bordercolor="#000000"
            borderopacity="0.25"
            inkscape:showpageshadow="2"
            inkscape:pageopacity="0"
            inkscape:pagecheckerboard="0"
            inkscape:deskcolor="#d1d1d1"
            inkscape:document-units="mm"
            showgrid="false"
            inkscape:zoom="1.829812"
            inkscape:cx="-4.645286"
            inkscape:cy="213.13665"
            inkscape:window-width="2560"
            inkscape:window-height="1369"
            inkscape:window-x="-8"
            inkscape:window-y="-8"
            inkscape:window-maximized="1"
            inkscape:current-layer="components"/>
    <defs
            id="defs3816"/>
    <g
            inkscape:groupmode="layer"
            id="components"
            inkscape:label="components"
            style="display:none">
        <circle
                style="fill:#ff00ff;fill-opacity:1;stroke:#ff00ff;stroke-width:0;stroke-linecap:square;stroke-linejoin:bevel;stroke-dasharray:none;stroke-opacity:1"
                id="path12635"
                cx="32.244892"
                cy="8.906167"
                r="1.0121714"
                inkscape:label="light"/>
    </g>
</svg>
