<?xml version="1.0" encoding="UTF-8" standalone="no"?>
<!-- Created with Inkscape (http://www.inkscape.org/) -->

<svg
        xmlns:inkscape="http://www.inkscape.org/namespaces/inkscape"
        xmlns:sodipodi="http://sodipodi.sourceforge.net/DTD/sodipodi-0.dtd"
        width="60.959999mm"
        height="128.5mm"
        viewBox="0 0 60.959999 128.5"
        version="1.1"
        id="svg3066"
        inkscape:version="1.2.2 (732a01da63, 2022-12-09)"
        sodipodi:docname="MiniLab3.svg"
        xmlns="http://www.w3.org/2000/svg"
>
    <sodipodi:namedview
            id="namedview3068"
            pagecolor="#4c4c4c"
            bordercolor="#000000"
            borderopacity="0.25"
            inkscape:showpageshadow="2"
            inkscape:pageopacity="0"
            inkscape:pagecheckerboard="0"
            inkscape:deskcolor="#d1d1d1"
            inkscape:document-units="mm"
            showgrid="false"
            inkscape:zoom="1.2938725"
            inkscape:cx="-22.0269"
            inkscape:cy="260.45843"
            inkscape:window-width="2560"
            inkscape:window-height="1369"
            inkscape:window-x="-8"
            inkscape:window-y="-8"
            inkscape:window-maximized="1"
            inkscape:current-layer="g11306"/>
    <defs
            id="defs3063">
        <inkscape:path-effect
                effect="fillet_chamfer"
                id="path-effect6506"
                is_visible="true"
                lpeversion="1"
                nodesatellites_param="F,0,0,1,0,2.1166667,0,1 @ F,0,0,1,0,2.1166667,0,1 @ F,0,0,1,0,2.1166667,0,1 @ F,0,0,1,0,2.1166667,0,1"
                unit="px"
                method="auto"
                mode="F"
                radius="8"
                chamfer_steps="1"
                flexible="false"
                use_knot_distance="true"
                apply_no_radius="true"
                apply_with_radius="true"
                only_selected="false"
                hide_knots="false"/>
        <rect
                x="-51.782536"
                y="469.13434"
                width="344.70166"
                height="71.104378"
                id="rect6338"/>
        <inkscape:path-effect
                effect="fillet_chamfer"
                id="path-effect6506-3"
                is_visible="true"
                lpeversion="1"
                nodesatellites_param="F,0,0,1,0,2.1166667,0,1 @ F,0,0,1,0,2.1166667,0,1 @ F,0,0,1,0,2.1166667,0,1 @ F,0,0,1,0,2.1166667,0,1"
                unit="px"
                method="auto"
                mode="F"
                radius="8"
                chamfer_steps="1"
                flexible="false"
                use_knot_distance="true"
                apply_no_radius="true"
                apply_with_radius="true"
                only_selected="false"
                hide_knots="false"/>
        <inkscape:path-effect
                effect="fillet_chamfer"
                id="path-effect6506-9"
                is_visible="true"
                lpeversion="1"
                nodesatellites_param="F,0,0,1,0,2.1166667,0,1 @ F,0,0,1,0,2.1166667,0,1 @ F,0,0,1,0,2.1166667,0,1 @ F,0,0,1,0,2.1166667,0,1"
                unit="px"
                method="auto"
                mode="F"
                radius="8"
                chamfer_steps="1"
                flexible="false"
                use_knot_distance="true"
                apply_no_radius="true"
                apply_with_radius="true"
                only_selected="false"
                hide_knots="false"/>
        <inkscape:path-effect
                effect="fillet_chamfer"
                id="path-effect6506-2"
                is_visible="true"
                lpeversion="1"
                nodesatellites_param="F,0,0,1,0,2.1166667,0,1 @ F,0,0,1,0,2.1166667,0,1 @ F,0,0,1,0,2.1166667,0,1 @ F,0,0,1,0,2.1166667,0,1"
                unit="px"
                method="auto"
                mode="F"
                radius="8"
                chamfer_steps="1"
                flexible="false"
                use_knot_distance="true"
                apply_no_radius="true"
                apply_with_radius="true"
                only_selected="false"
                hide_knots="false"/>
    </defs>
    <g
            inkscape:groupmode="layer"
            id="layer3"
            inkscape:label="design">
        <rect
                style="fill:#00002a;fill-opacity:0.180328;stroke:#000000;stroke-width:0.199517;stroke-linecap:square;stroke-linejoin:round"
                id="rect6604"
                width="60.760483"
                height="128.30048"
                x="0.099758692"
                y="0.099758692"
                inkscape:label="bg"/>
        <path
                style="fill:#000000;fill-opacity:0.518293;stroke:#000000;stroke-width:0.197253;stroke-linecap:square;stroke-linejoin:round"
                id="rect6502"
                width="59.104752"
                height="9.6182928"
                x="1.0188046"
                y="61.947258"
                inkscape:path-effect="#path-effect6506"
                d="M 3.1354713,61.947258 H 58.006889 a 2.1166667,2.1166667 45 0 1 2.116667,2.116667 l 0,5.384959 a 2.1166667,2.1166667 135 0 1 -2.116667,2.116667 H 3.1354713 A 2.1166667,2.1166667 45 0 1 1.0188046,69.448884 v -5.384959 a 2.1166667,2.1166667 135 0 1 2.1166667,-2.116667 z"
                sodipodi:type="rect"
                inkscape:label="params"/>
        <path
                style="fill:#000000;fill-opacity:0.518293;stroke:#000000;stroke-width:0.197253;stroke-linecap:square;stroke-linejoin:round"
                id="rect6502-4"
                width="59.104752"
                height="9.6182928"
                x="1.0188046"
                y="111.03326"
                inkscape:path-effect="#path-effect6506-9"
                d="M 3.1354713,111.03326 H 58.006889 a 2.1166667,2.1166667 45 0 1 2.116667,2.11666 l 0,5.38496 a 2.1166667,2.1166667 135 0 1 -2.116667,2.11667 H 3.1354713 a 2.1166667,2.1166667 45 0 1 -2.1166667,-2.11667 v -5.38496 a 2.1166667,2.1166667 135 0 1 2.1166667,-2.11666 z"
                sodipodi:type="rect"
                inkscape:label="sliders"/>
        <path
                style="fill:#000000;fill-opacity:0.518293;stroke:#000000;stroke-width:0.197253;stroke-linecap:square;stroke-linejoin:round"
                id="rect6502-0"
                width="59.024551"
                height="21.63929"
                x="1.0589006"
                y="80.543335"
                inkscape:path-effect="#path-effect6506-3"
                d="M 3.1755673,80.543335 H 57.966785 a 2.1166667,2.1166667 45 0 1 2.116667,2.116667 l 0,17.405958 a 2.1166667,2.1166667 135 0 1 -2.116667,2.11666 H 3.1755673 A 2.1166667,2.1166667 45 0 1 1.0589006,100.06596 V 82.660002 a 2.1166667,2.1166667 135 0 1 2.1166667,-2.116667 z"
                sodipodi:type="rect"
                inkscape:label="knobs"/>
        <path
                style="fill:#000000;fill-opacity:0.518293;stroke:#000000;stroke-width:0.197253;stroke-linecap:square;stroke-linejoin:round"
                id="keyboard"
                width="59.104752"
                height="9.6182928"
                x="0.92762375"
                y="46.836258"
                inkscape:path-effect="#path-effect6506-2"
                d="m 3.0442904,46.836258 54.8714186,0 a 2.1166667,2.1166667 45 0 1 2.116666,2.116667 l 0,5.384959 a 2.1166667,2.1166667 135 0 1 -2.116666,2.116667 H 3.0442904 A 2.1166667,2.1166667 45 0 1 0.92762375,54.337884 V 48.952925 A 2.1166667,2.1166667 135 0 1 3.0442904,46.836258 Z"
                sodipodi:type="rect"
                inkscape:label="keyboard"/>
    </g>
    <g
            inkscape:groupmode="layer"
            id="layer2"
            inkscape:label="text"
            style="display:inline">
        <text
                xml:space="preserve"
                style="font-weight:bold;font-size:7.76111px;font-family:Calibri;-inkscape-font-specification:'Calibri Bold';text-align:center;text-anchor:middle;fill:#ffffff;fill-opacity:1;stroke:#000000;stroke-width:0.2;stroke-linecap:square;stroke-linejoin:bevel;stroke-dasharray:none"
                x="30.370445"
                y="10.851689"
                id="text6178"
                inkscape:label="title"><tspan
         sodipodi:role="line"
         id="tspan6176"
         style="font-size:7.76111px;fill:#ffffff;fill-opacity:1;stroke-width:0.2;stroke-dasharray:none"
         x="30.370445"
         y="10.851689">minilab3</tspan></text>
        <text
                xml:space="preserve"
                style="font-weight:bold;font-size:6.35px;font-family:Calibri;-inkscape-font-specification:'Calibri Bold';text-align:center;text-anchor:middle;fill:#ffffff;fill-opacity:1;stroke:#000000;stroke-width:0.2;stroke-linecap:square;stroke-linejoin:bevel"
                x="11.341857"
                y="77.724014"
                id="text6178-0"
                inkscape:label="knobs"><tspan
         sodipodi:role="line"
         id="tspan6176-4"
         style="font-size:6.35px;fill:#ffffff;fill-opacity:1;stroke-width:0.2"
         x="11.341857"
         y="77.724014">knobs</tspan></text>
        <text
                xml:space="preserve"
                style="font-weight:bold;font-size:4.23333px;font-family:Calibri;-inkscape-font-specification:'Calibri Bold';text-align:center;text-anchor:middle;fill:#ffffff;fill-opacity:1;stroke:#000000;stroke-width:0.2;stroke-linecap:square;stroke-linejoin:bevel"
                x="18.28344"
                y="60.632915"
                id="text6178-0-7-3"
                inkscape:label="bend"><tspan
         sodipodi:role="line"
         id="tspan6176-4-9-2"
         style="font-size:4.23333px;fill:#ffffff;fill-opacity:1;stroke-width:0.2"
         x="18.28344"
         y="60.632915">bend</tspan></text>
        <text
                xml:space="preserve"
                style="font-weight:bold;font-size:4.23333px;font-family:Calibri;-inkscape-font-specification:'Calibri Bold';text-align:center;text-anchor:middle;fill:#ffffff;fill-opacity:1;stroke:#000000;stroke-width:0.2;stroke-linecap:square;stroke-linejoin:bevel"
                x="41.67844"
                y="60.629814"
                id="text6178-0-7-3-3"
                inkscape:label="mod"><tspan
         sodipodi:role="line"
         id="tspan6176-4-9-2-5"
         style="font-size:4.23333px;fill:#ffffff;fill-opacity:1;stroke-width:0.2"
         x="41.67844"
         y="60.629814">mod</tspan></text>
        <text
                xml:space="preserve"
                style="font-weight:bold;font-size:6.35px;font-family:Calibri;-inkscape-font-specification:'Calibri Bold';text-align:center;text-anchor:middle;fill:#ffffff;fill-opacity:1;stroke:#000000;stroke-width:0.2;stroke-linecap:square;stroke-linejoin:bevel"
                x="50.206749"
                y="108.19324"
                id="text6178-0-8"
                inkscape:label="sliders"><tspan
         sodipodi:role="line"
         id="tspan6176-4-2"
         style="font-size:6.35px;fill:#ffffff;fill-opacity:1;stroke-width:0.2"
         x="50.206749"
         y="108.19324">sliders</tspan></text>
        <text
                xml:space="preserve"
                style="font-weight:bold;font-size:4.23333px;font-family:Calibri;-inkscape-font-specification:'Calibri Bold';text-align:center;text-anchor:middle;display:inline;fill:#ffffff;fill-opacity:1;stroke:#000000;stroke-width:0.2;stroke-linecap:square;stroke-linejoin:bevel"
                x="30.535812"
                y="45.330711"
                id="text6178-0-7-7-4"
                inkscape:label="gate"><tspan
         sodipodi:role="line"
         id="tspan6176-4-9-7-5"
         style="font-size:4.23333px;fill:#ffffff;fill-opacity:1;stroke-width:0.2"
         x="30.535812"
         y="45.330711">gate</tspan></text>
        <text
                xml:space="preserve"
                style="font-weight:bold;font-size:4.23333px;font-family:Calibri;-inkscape-font-specification:'Calibri Bold';text-align:center;text-anchor:middle;display:inline;fill:#ffffff;fill-opacity:1;stroke:#000000;stroke-width:0.2;stroke-linecap:square;stroke-linejoin:bevel"
                x="9.4176397"
                y="45.518814"
                id="text6178-0-7-3-3-8"
                inkscape:label="v/oct"><tspan
         sodipodi:role="line"
         id="tspan6176-4-9-2-5-5"
         style="font-size:4.23333px;fill:#ffffff;fill-opacity:1;stroke-width:0.2"
         x="9.4176397"
         y="45.518814">v/oct</tspan></text>
        <text
                xml:space="preserve"
                style="font-weight:bold;font-size:4.23333px;font-family:Calibri;-inkscape-font-specification:'Calibri Bold';text-align:center;text-anchor:middle;display:inline;fill:#ffffff;fill-opacity:1;stroke:#000000;stroke-width:0.2;stroke-linecap:square;stroke-linejoin:bevel"
                x="51.683952"
                y="45.521915"
                id="text6178-0-7-4"
                inkscape:label="velocity"><tspan
         sodipodi:role="line"
         id="tspan6176-4-9-1"
         style="font-size:4.23333px;fill:#ffffff;fill-opacity:1;stroke-width:0.2"
         x="51.683952"
         y="45.521915">vel</tspan></text>
    </g>
    <g
            inkscape:groupmode="layer"
            id="g11306"
            inkscape:label="text copy"
            style="display:inline">
        <g
                aria-label="minilab3"
                id="text11276"
                style="font-weight:bold;font-size:7.76111px;font-family:Calibri;-inkscape-font-specification:'Calibri Bold';text-align:center;text-anchor:middle;fill:#ffffff;stroke:#000000;stroke-width:0.2;stroke-linecap:square;stroke-linejoin:bevel"
                inkscape:label="title">
            <path
                    d="m 22.162162,10.722843 q 0,0.0379 -0.02274,0.06821 -0.02274,0.02653 -0.07579,0.04548 -0.05305,0.01895 -0.144005,0.02653 -0.09095,0.01137 -0.231165,0.01137 -0.144005,0 -0.234956,-0.01137 -0.09095,-0.0076 -0.147794,-0.02653 -0.05306,-0.01895 -0.07579,-0.04548 -0.01895,-0.03032 -0.01895,-0.06821 V 8.7181421 q 0,-0.1705322 -0.03411,-0.3107476 -0.03032,-0.1402154 -0.09853,-0.2387451 -0.06442,-0.1023193 -0.166742,-0.1553738 -0.09853,-0.056844 -0.238745,-0.056844 -0.170533,0 -0.344854,0.1326361 -0.174322,0.1326362 -0.378961,0.3865397 v 2.2472356 q 0,0.0379 -0.02274,0.06821 -0.02274,0.02653 -0.07958,0.04548 -0.05305,0.01895 -0.144005,0.02653 -0.09095,0.01137 -0.227376,0.01137 -0.140216,0 -0.231166,-0.01137 -0.09095,-0.0076 -0.147795,-0.02653 -0.05305,-0.01895 -0.07579,-0.04548 -0.02274,-0.03032 -0.02274,-0.06821 V 8.7181421 q 0,-0.1705322 -0.03411,-0.3107476 -0.03032,-0.1402154 -0.09474,-0.2387451 -0.06442,-0.1023193 -0.166743,-0.1553738 -0.102319,-0.056844 -0.238745,-0.056844 -0.174322,0 -0.348643,0.1326361 -0.174322,0.1326362 -0.375171,0.3865397 v 2.2472356 q 0,0.0379 -0.02274,0.06821 -0.02274,0.02653 -0.07958,0.04548 -0.05305,0.01895 -0.144005,0.02653 -0.09095,0.01137 -0.231165,0.01137 -0.140216,0 -0.231166,-0.01137 -0.09095,-0.0076 -0.147795,-0.02653 -0.05305,-0.01895 -0.07579,-0.04548 -0.02274,-0.03032 -0.02274,-0.06821 V 7.3425157 q 0,-0.037896 0.01895,-0.064423 0.01895,-0.030317 0.06821,-0.049265 0.04927,-0.018948 0.125057,-0.026527 0.07958,-0.011369 0.19706,-0.011369 0.121267,0 0.200849,0.011369 0.07958,0.00758 0.121267,0.026527 0.04547,0.018948 0.06442,0.049265 0.01895,0.026527 0.01895,0.064423 v 0.3903292 q 0.280431,-0.3031683 0.557072,-0.4547525 0.280431,-0.1515842 0.583599,-0.1515842 0.208429,0 0.375171,0.045475 0.166743,0.041686 0.295589,0.1250569 0.132636,0.079582 0.227377,0.1932698 0.09474,0.1136882 0.159163,0.2539035 0.151584,-0.162953 0.295589,-0.2804307 0.147795,-0.1174777 0.28801,-0.1894802 0.144005,-0.075792 0.28422,-0.1098986 0.144005,-0.037896 0.2918,-0.037896 0.337275,0 0.568441,0.1136881 0.231165,0.1136882 0.371381,0.3107476 0.144005,0.1932698 0.204638,0.4547525 0.06063,0.2614827 0.06063,0.5532823 z"
                    id="path11308"/>
            <path
                    d="m 24.053175,10.722843 q 0,0.0379 -0.02274,0.06821 -0.02274,0.02653 -0.07958,0.04548 -0.05305,0.01895 -0.144005,0.02653 -0.09095,0.01137 -0.231166,0.01137 -0.140215,0 -0.231165,-0.01137 -0.09095,-0.0076 -0.147795,-0.02653 -0.05305,-0.01895 -0.07579,-0.04548 -0.02274,-0.03032 -0.02274,-0.06821 V 7.3500949 q 0,-0.037896 0.02274,-0.064423 0.02274,-0.030317 0.07579,-0.049265 0.05684,-0.022738 0.147795,-0.034106 0.09095,-0.011369 0.231165,-0.011369 0.140216,0 0.231166,0.011369 0.09095,0.011369 0.144005,0.034106 0.05684,0.018948 0.07958,0.049265 0.02274,0.026527 0.02274,0.064423 z m 0.072,-4.5247879 q 0,0.28801 -0.117478,0.3979085 -0.117477,0.1098985 -0.435804,0.1098985 -0.322117,0 -0.435805,-0.1061089 -0.109898,-0.1061089 -0.109898,-0.3827501 0,-0.2880099 0.113688,-0.3979084 0.117478,-0.1136881 0.439594,-0.1136881 0.318327,0 0.432015,0.1098985 0.113688,0.1061089 0.113688,0.38275 z"
                    id="path11310"/>
            <path
                    d="m 28.233109,10.722843 q 0,0.0379 -0.02274,0.06821 -0.02274,0.02653 -0.07579,0.04548 -0.05305,0.01895 -0.147795,0.02653 -0.09095,0.01137 -0.227376,0.01137 -0.140215,0 -0.234955,-0.01137 -0.09095,-0.0076 -0.144005,-0.02653 -0.05306,-0.01895 -0.07579,-0.04548 -0.02274,-0.03032 -0.02274,-0.06821 V 8.7939341 q 0,-0.2463242 -0.0379,-0.3865396 -0.03411,-0.1402154 -0.102319,-0.2387451 -0.06821,-0.1023193 -0.178112,-0.1553738 -0.106109,-0.056844 -0.250114,-0.056844 -0.181901,0 -0.367591,0.1326361 -0.185691,0.1326362 -0.38654,0.3865397 v 2.2472356 q 0,0.0379 -0.02274,0.06821 -0.02274,0.02653 -0.07958,0.04548 -0.05305,0.01895 -0.144005,0.02653 -0.09095,0.01137 -0.231166,0.01137 -0.140216,0 -0.231166,-0.01137 -0.09095,-0.0076 -0.147795,-0.02653 -0.05305,-0.01895 -0.07579,-0.04548 -0.02274,-0.03032 -0.02274,-0.06821 V 7.3425157 q 0,-0.037896 0.01895,-0.064423 0.01895,-0.030317 0.06821,-0.049265 0.04926,-0.018948 0.125056,-0.026527 0.07958,-0.011369 0.19706,-0.011369 0.121267,0 0.200849,0.011369 0.07958,0.00758 0.121267,0.026527 0.04548,0.018948 0.06442,0.049265 0.01895,0.026527 0.01895,0.064423 v 0.3903292 q 0.28043,-0.3031683 0.56844,-0.4547525 0.2918,-0.1515842 0.606337,-0.1515842 0.344854,0 0.579809,0.1136881 0.238745,0.1136882 0.38275,0.3107476 0.147795,0.1932698 0.212218,0.4547525 0.06442,0.2614827 0.06442,0.6290744 z"
                    id="path11312"/>
            <path
                    d="m 30.124121,10.722843 q 0,0.0379 -0.02274,0.06821 -0.02274,0.02653 -0.07958,0.04548 -0.05306,0.01895 -0.144005,0.02653 -0.09095,0.01137 -0.231166,0.01137 -0.140216,0 -0.231166,-0.01137 -0.09095,-0.0076 -0.147795,-0.02653 -0.05305,-0.01895 -0.07579,-0.04548 -0.02274,-0.03032 -0.02274,-0.06821 V 7.3500949 q 0,-0.037896 0.02274,-0.064423 0.02274,-0.030317 0.07579,-0.049265 0.05684,-0.022738 0.147795,-0.034106 0.09095,-0.011369 0.231166,-0.011369 0.140215,0 0.231166,0.011369 0.09095,0.011369 0.144005,0.034106 0.05684,0.018948 0.07958,0.049265 0.02274,0.026527 0.02274,0.064423 z m 0.072,-4.5247879 q 0,0.28801 -0.117477,0.3979085 -0.117478,0.1098985 -0.435805,0.1098985 -0.322116,0 -0.435804,-0.1061089 -0.109899,-0.1061089 -0.109899,-0.3827501 0,-0.2880099 0.113688,-0.3979084 0.117478,-0.1136881 0.439594,-0.1136881 0.318327,0 0.432015,0.1098985 0.113688,0.1061089 0.113688,0.38275 z"
                    id="path11314"/>
            <path
                    d="m 32.030292,10.722843 q 0,0.0379 -0.02274,0.06821 -0.02274,0.02653 -0.07958,0.04548 -0.05305,0.01895 -0.144005,0.02653 -0.09095,0.01137 -0.231165,0.01137 -0.140216,0 -0.231166,-0.01137 -0.09095,-0.0076 -0.147795,-0.02653 -0.05305,-0.01895 -0.07579,-0.04548 -0.02274,-0.03032 -0.02274,-0.06821 v -4.98333 q 0,-0.037896 0.02274,-0.068213 0.02274,-0.030317 0.07579,-0.049265 0.05684,-0.022738 0.147795,-0.034107 0.09095,-0.011369 0.231166,-0.011369 0.140215,0 0.231165,0.011369 0.09095,0.011369 0.144005,0.034107 0.05684,0.018948 0.07958,0.049265 0.02274,0.030317 0.02274,0.068213 z"
                    id="path11316"/>
            <path
                    d="m 35.861583,10.734212 q 0,0.05305 -0.0379,0.08337 -0.0379,0.03032 -0.121267,0.04169 -0.07958,0.01516 -0.238745,0.01516 -0.170532,0 -0.250114,-0.01516 -0.07579,-0.01137 -0.109898,-0.04169 -0.03032,-0.03032 -0.03032,-0.08337 V 10.46515 q -0.208428,0.223586 -0.47749,0.348643 -0.265273,0.125057 -0.591179,0.125057 -0.269062,0 -0.496438,-0.072 -0.223586,-0.06821 -0.390329,-0.204639 -0.162953,-0.140215 -0.253904,-0.344854 -0.09095,-0.204639 -0.09095,-0.47749 0,-0.2955892 0.113688,-0.5115966 0.117478,-0.2197971 0.344854,-0.3600125 0.231166,-0.1440049 0.57223,-0.2122178 0.341065,-0.068213 0.792028,-0.068213 H 34.92555 V 8.4831866 q 0,-0.1591634 -0.03411,-0.2766411 -0.03032,-0.1212674 -0.106109,-0.2008491 -0.072,-0.079582 -0.19706,-0.1174777 -0.121267,-0.037896 -0.303168,-0.037896 -0.238745,0 -0.428225,0.053055 -0.185691,0.053055 -0.329696,0.1174777 -0.144005,0.064423 -0.242534,0.1174778 -0.09474,0.053054 -0.155374,0.053054 -0.04169,0 -0.07579,-0.026527 -0.03032,-0.026527 -0.05306,-0.075792 -0.01895,-0.049265 -0.03032,-0.1212673 -0.01137,-0.072002 -0.01137,-0.1591634 0,-0.1174777 0.01895,-0.1856906 0.01895,-0.068213 0.072,-0.1212674 0.05306,-0.056844 0.185691,-0.1212673 0.132636,-0.068213 0.310747,-0.1250569 0.178112,-0.056844 0.38654,-0.090951 0.212218,-0.037896 0.435804,-0.037896 0.397909,0 0.67834,0.079582 0.28422,0.075792 0.466121,0.2387451 0.181901,0.1591634 0.265272,0.4130669 0.08337,0.2539035 0.08337,0.6025471 z M 34.92555,9.2865827 h -0.363802 q -0.231166,0 -0.394119,0.034107 -0.162953,0.034106 -0.265272,0.1023193 -0.102319,0.068213 -0.151584,0.1667426 -0.04548,0.09474 -0.04548,0.219797 0,0.2122179 0.132636,0.3334849 0.136426,0.121268 0.375171,0.121268 0.200849,0 0.367591,-0.10232 0.170532,-0.102319 0.344854,-0.2993784 z"
                    id="path11318"/>
            <path
                    d="m 40.215837,8.987204 q 0,0.4509629 -0.09853,0.8109753 -0.09853,0.3600127 -0.28422,0.6139157 -0.18569,0.253904 -0.458542,0.390329 -0.269062,0.136426 -0.613916,0.136426 -0.170532,0 -0.318327,-0.03411 -0.147794,-0.03032 -0.28422,-0.10232 -0.132636,-0.072 -0.265272,-0.181901 -0.128847,-0.109898 -0.265273,-0.265272 v 0.367592 q 0,0.04169 -0.02274,0.072 -0.01895,0.02653 -0.06821,0.04548 -0.04547,0.01895 -0.125057,0.02653 -0.07958,0.0076 -0.19327,0.0076 -0.117478,0 -0.197059,-0.0076 -0.07579,-0.0076 -0.125057,-0.02653 -0.04548,-0.01895 -0.06442,-0.04548 -0.01895,-0.03032 -0.01895,-0.072 v -4.98333 q 0,-0.037896 0.02274,-0.068213 0.02274,-0.030317 0.07579,-0.049265 0.05684,-0.022738 0.147795,-0.034107 0.09095,-0.011369 0.231166,-0.011369 0.140215,0 0.231165,0.011369 0.09095,0.011369 0.144005,0.034107 0.05685,0.018948 0.07958,0.049265 0.02274,0.030317 0.02274,0.068213 v 1.868275 q 0.128846,-0.1288466 0.257693,-0.2197971 0.128846,-0.09095 0.257693,-0.1477946 0.128847,-0.060634 0.265272,-0.087161 0.136426,-0.026527 0.28801,-0.026527 0.375171,0 0.636654,0.1515842 0.261482,0.1477946 0.424435,0.401698 0.166743,0.2539035 0.242535,0.5949679 0.07579,0.3372748 0.07579,0.7124457 z m -0.989087,0.068213 q 0,-0.2160074 -0.03411,-0.4168564 -0.03032,-0.2008491 -0.109899,-0.3562229 -0.07958,-0.1553737 -0.208428,-0.2463242 -0.125057,-0.09474 -0.318327,-0.09474 -0.09474,0 -0.18569,0.026527 -0.09095,0.026527 -0.18948,0.09095 -0.09474,0.064423 -0.19706,0.1667426 -0.102319,0.1023193 -0.216007,0.2539035 v 1.1217229 q 0.200849,0.2576931 0.38275,0.3941188 0.18569,0.1326363 0.386539,0.1326363 0.185691,0 0.314538,-0.09474 0.128846,-0.09474 0.212217,-0.2463245 0.08716,-0.1515842 0.125057,-0.344854 0.0379,-0.1932698 0.0379,-0.3865397 z"
                    id="path11320"/>
            <path
                    d="m 44.100182,9.4154293 q 0,0.3675916 -0.140215,0.6518117 -0.140215,0.284221 -0.390329,0.47749 -0.250114,0.19327 -0.598758,0.29559 -0.348643,0.09853 -0.76171,0.09853 -0.250114,0 -0.469911,-0.0379 -0.219797,-0.03411 -0.390329,-0.08716 -0.166743,-0.05305 -0.276642,-0.109898 -0.109898,-0.05684 -0.144005,-0.08716 -0.03411,-0.03032 -0.05305,-0.06821 -0.01516,-0.0379 -0.03032,-0.08716 -0.01137,-0.05305 -0.01895,-0.128846 -0.0038,-0.07958 -0.0038,-0.189481 0,-0.1819007 0.03032,-0.2501136 0.03032,-0.072002 0.09095,-0.072002 0.0379,0 0.128846,0.053055 0.09474,0.049265 0.238745,0.1098985 0.144005,0.056844 0.337275,0.1098981 0.19327,0.04927 0.439594,0.04927 0.208429,0 0.367592,-0.04927 0.159163,-0.04926 0.269062,-0.1364253 0.113688,-0.09095 0.166743,-0.2160075 0.05684,-0.1288465 0.05684,-0.2842203 0,-0.1705322 -0.06821,-0.3069579 -0.06442,-0.1364258 -0.19706,-0.2311659 -0.128846,-0.09853 -0.329695,-0.1515842 -0.19706,-0.053054 -0.466122,-0.053054 h -0.424435 q -0.04926,0 -0.08337,-0.011369 -0.03411,-0.015158 -0.05684,-0.056844 -0.02274,-0.041686 -0.03411,-0.1136882 -0.0076,-0.075792 -0.0076,-0.1932698 0,-0.1098985 0.0076,-0.1781114 0.01137,-0.072002 0.03032,-0.1098985 0.02274,-0.037896 0.05305,-0.053054 0.03411,-0.015158 0.07958,-0.015158 h 0.428225 q 0.219797,0 0.390329,-0.049265 0.170533,-0.053054 0.284221,-0.1477945 0.117477,-0.09474 0.178111,-0.2273763 0.06063,-0.1364258 0.06063,-0.2993787 0,-0.125057 -0.04169,-0.2349555 -0.04169,-0.1136881 -0.125057,-0.1932698 -0.07958,-0.083371 -0.208428,-0.1288466 -0.128847,-0.049265 -0.303168,-0.049265 -0.19706,0 -0.371382,0.060634 -0.174321,0.056844 -0.314537,0.1288466 -0.136426,0.068213 -0.234955,0.1288465 -0.09474,0.060634 -0.140216,0.060634 -0.03032,0 -0.05305,-0.011369 -0.02274,-0.015158 -0.0379,-0.053055 -0.01516,-0.037896 -0.02274,-0.1098985 -0.0076,-0.072002 -0.0076,-0.1856906 0,-0.09474 0.0038,-0.1553738 0.0038,-0.064423 0.01516,-0.1061089 0.01137,-0.041686 0.02653,-0.072002 0.01895,-0.030317 0.05684,-0.064423 0.0379,-0.037896 0.155374,-0.1098985 0.117478,-0.072002 0.295589,-0.1402154 0.178112,-0.068213 0.409278,-0.1136881 0.234955,-0.049265 0.507807,-0.049265 0.356222,0 0.629074,0.083371 0.276641,0.083371 0.462332,0.2425347 0.18948,0.1553738 0.28422,0.3865397 0.09853,0.2273762 0.09853,0.5153862 0,0.2235866 -0.05684,0.4168564 -0.05684,0.1932699 -0.166743,0.344854 -0.109899,0.1515842 -0.276641,0.2576931 -0.162953,0.106109 -0.378961,0.1591634 v 0.011369 q 0.257694,0.030317 0.462332,0.1326362 0.204639,0.09853 0.344854,0.2501139 0.144005,0.1515842 0.219797,0.344854 0.07579,0.1894802 0.07579,0.4092773 z"
                    id="path11322"/>
        </g>
        <g
                aria-label="knobs"
                id="text11280"
                style="font-weight:bold;font-size:6.35px;font-family:Calibri;-inkscape-font-specification:'Calibri Bold';text-align:center;text-anchor:middle;fill:#ffffff;stroke:#000000;stroke-width:0.2;stroke-linecap:square;stroke-linejoin:bevel"
                inkscape:label="knobs">
            <path
                    d="m 6.4134757,77.621695 q 0,0.03101 -0.018604,0.05581 -0.015503,0.0217 -0.062012,0.03721 -0.043408,0.0124 -0.1209228,0.0186 -0.077515,0.0093 -0.2015381,0.0093 -0.127124,0 -0.2077392,-0.0062 -0.077515,-0.0062 -0.1302246,-0.0186 -0.049609,-0.0155 -0.077515,-0.04031 -0.027905,-0.0248 -0.049609,-0.06511 l -0.920874,-1.457275 v 1.463476 q 0,0.03101 -0.018604,0.05581 -0.018604,0.0217 -0.065112,0.03721 -0.043408,0.0155 -0.1178223,0.0217 -0.074414,0.0093 -0.1891357,0.0093 -0.1147217,0 -0.1891357,-0.0093 -0.074414,-0.0062 -0.1209229,-0.0217 -0.043408,-0.0155 -0.062012,-0.03721 Q 3.84309,77.6496 3.84309,77.618594 v -4.07727 q 0,-0.03101 0.018603,-0.05581 0.018604,-0.0248 0.062012,-0.04031 0.046509,-0.0186 0.1209229,-0.02791 0.074414,-0.0093 0.1891357,-0.0093 0.1147217,0 0.1891357,0.0093 0.074414,0.0093 0.1178223,0.02791 0.046509,0.0155 0.065112,0.04031 0.018604,0.02481 0.018604,0.05581 v 2.427759 l 0.8185547,-1.100708 q 0.024805,-0.03721 0.05581,-0.06511 0.031006,-0.02791 0.080615,-0.04341 0.05271,-0.0155 0.127124,-0.0217 0.077515,-0.0093 0.1953369,-0.0093 0.1147217,0 0.1922363,0.0093 0.080615,0.0062 0.1271241,0.0217 0.049609,0.0155 0.068213,0.04031 0.018604,0.0217 0.018604,0.05581 0,0.04651 -0.024805,0.09922 -0.021704,0.05271 -0.068213,0.111621 l -0.8092529,0.917774 0.9363769,1.447973 q 0.037207,0.06201 0.05271,0.108521 0.018604,0.04341 0.018604,0.08062 z"
                    id="path11325"/>
            <path
                    d="m 9.532665,77.618594 q 0,0.03101 -0.018603,0.05581 -0.018604,0.0217 -0.062012,0.03721 -0.043408,0.0155 -0.1209228,0.0217 -0.074414,0.0093 -0.1860352,0.0093 -0.1147217,0 -0.1922363,-0.0093 -0.074414,-0.0062 -0.1178223,-0.0217 -0.043408,-0.0155 -0.062012,-0.03721 -0.018604,-0.0248 -0.018604,-0.05581 v -1.578198 q 0,-0.201538 -0.031006,-0.31626 -0.027905,-0.114721 -0.083716,-0.195337 -0.055811,-0.08372 -0.1457275,-0.127124 -0.086816,-0.04651 -0.2046387,-0.04651 -0.1488281,0 -0.3007568,0.10852 -0.1519287,0.108521 -0.3162598,0.31626 v 1.838647 q 0,0.03101 -0.018603,0.05581 -0.018604,0.0217 -0.065112,0.03721 -0.043408,0.0155 -0.1178223,0.0217 -0.074414,0.0093 -0.1891357,0.0093 -0.1147217,0 -0.1891358,-0.0093 -0.074414,-0.0062 -0.1209228,-0.0217 -0.043408,-0.0155 -0.062012,-0.03721 -0.018603,-0.0248 -0.018603,-0.05581 v -2.765722 q 0,-0.03101 0.015503,-0.05271 0.015503,-0.02481 0.05581,-0.04031 0.040308,-0.0155 0.1023194,-0.0217 0.065112,-0.0093 0.1612304,-0.0093 0.099219,0 0.1643311,0.0093 0.065112,0.0062 0.099219,0.0217 0.037207,0.0155 0.05271,0.04031 0.015503,0.0217 0.015503,0.05271 v 0.31936 q 0.2294434,-0.248047 0.4650879,-0.37207 0.2387451,-0.124024 0.4960938,-0.124024 0.2821533,0 0.4743896,0.09302 0.1953369,0.09302 0.3131592,0.254248 0.1209228,0.15813 0.1736328,0.37207 0.05271,0.213941 0.05271,0.514698 z"
                    id="path11327"/>
            <path
                    d="m 13.095238,76.207828 q 0,0.353467 -0.09302,0.644922 -0.09302,0.291455 -0.282153,0.502295 -0.189136,0.210839 -0.47439,0.325561 -0.285253,0.114722 -0.666626,0.114722 -0.368969,0 -0.641821,-0.10232 -0.272851,-0.102319 -0.452685,-0.297656 -0.179834,-0.195337 -0.266651,-0.480591 -0.08682,-0.285254 -0.08682,-0.651123 0,-0.353466 0.09302,-0.644922 0.09612,-0.294555 0.285254,-0.502294 0.189136,-0.21084 0.471289,-0.325562 0.285254,-0.114722 0.666626,-0.114722 0.372071,0 0.644922,0.10232 0.272852,0.09922 0.449585,0.294555 0.179834,0.195337 0.266651,0.480591 0.08682,0.285254 0.08682,0.654224 z m -0.803052,0.03101 q 0,-0.204639 -0.03411,-0.375171 -0.03101,-0.173633 -0.108521,-0.300757 -0.07751,-0.127124 -0.207739,-0.198438 -0.127124,-0.07131 -0.322461,-0.07131 -0.173633,0 -0.303857,0.06511 -0.130225,0.06201 -0.213941,0.186035 -0.08372,0.120923 -0.127124,0.294556 -0.04031,0.170532 -0.04031,0.390674 0,0.204639 0.03411,0.378271 0.03411,0.170533 0.108521,0.297657 0.07751,0.127124 0.207739,0.198437 0.130224,0.06821 0.322461,0.06821 0.176733,0 0.306958,-0.06201 0.130224,-0.06511 0.21394,-0.186035 0.08372,-0.120923 0.124024,-0.291455 0.04031,-0.173633 0.04031,-0.393774 z"
                    id="path11329"/>
            <path
                    d="m 16.496582,76.198526 q 0,0.36897 -0.08062,0.663525 -0.08062,0.294556 -0.232544,0.502295 -0.151928,0.20774 -0.375171,0.319361 -0.220141,0.111621 -0.502294,0.111621 -0.139527,0 -0.26045,-0.02791 -0.120923,-0.0248 -0.232544,-0.08371 -0.10852,-0.05891 -0.217041,-0.148828 -0.10542,-0.08992 -0.217041,-0.217041 v 0.300756 q 0,0.03411 -0.0186,0.05891 -0.0155,0.0217 -0.05581,0.03721 -0.03721,0.0155 -0.102319,0.0217 -0.06511,0.0062 -0.15813,0.0062 -0.09612,0 -0.16123,-0.0062 -0.06201,-0.0062 -0.10232,-0.0217 -0.03721,-0.0155 -0.05271,-0.03721 -0.0155,-0.0248 -0.0155,-0.05891 v -4.07727 q 0,-0.03101 0.0186,-0.05581 0.0186,-0.0248 0.06201,-0.04031 0.04651,-0.0186 0.120922,-0.02791 0.07442,-0.0093 0.189136,-0.0093 0.114722,0 0.189136,0.0093 0.07441,0.0093 0.117822,0.02791 0.04651,0.0155 0.06511,0.04031 0.0186,0.02481 0.0186,0.05581 v 1.528589 q 0.10542,-0.10542 0.21084,-0.179834 0.10542,-0.07441 0.21084,-0.120923 0.10542,-0.04961 0.217041,-0.07131 0.111621,-0.0217 0.235644,-0.0217 0.306958,0 0.520899,0.124024 0.21394,0.120923 0.347265,0.328662 0.136426,0.207739 0.198438,0.486792 0.06201,0.275952 0.06201,0.58291 z m -0.809253,0.05581 q 0,-0.176734 -0.02791,-0.341065 -0.0248,-0.164331 -0.08992,-0.291455 -0.06511,-0.127124 -0.170532,-0.201538 -0.102319,-0.07751 -0.260449,-0.07751 -0.07752,0 -0.151929,0.0217 -0.07441,0.0217 -0.155029,0.07441 -0.07752,0.05271 -0.161231,0.136426 -0.08372,0.08372 -0.176733,0.20774 v 0.917773 q 0.164331,0.21084 0.313159,0.322461 0.151929,0.10852 0.31626,0.10852 0.151929,0 0.257349,-0.07751 0.10542,-0.07752 0.173632,-0.201538 0.07131,-0.124024 0.10232,-0.282154 0.03101,-0.15813 0.03101,-0.316259 z"
                    id="path11331"/>
            <path
                    d="m 19.035961,76.837247 q 0,0.235644 -0.08992,0.415478 -0.08682,0.179834 -0.248047,0.300757 -0.161231,0.120923 -0.381372,0.179834 -0.220142,0.06201 -0.47749,0.06201 -0.15503,0 -0.297657,-0.02481 -0.139526,-0.0217 -0.251147,-0.05581 -0.111621,-0.03721 -0.186035,-0.07442 -0.07441,-0.03721 -0.108521,-0.06821 -0.03411,-0.03411 -0.05271,-0.10232 -0.0186,-0.07131 -0.0186,-0.207739 0,-0.08992 0.0062,-0.142627 0.0062,-0.05581 0.0186,-0.08682 0.0124,-0.03411 0.03101,-0.04341 0.0186,-0.0124 0.04651,-0.0124 0.03411,0 0.09922,0.04031 0.06821,0.03721 0.167431,0.08372 0.09922,0.04651 0.229444,0.08682 0.133325,0.04031 0.300757,0.04031 0.105419,0 0.186035,-0.0217 0.08372,-0.0217 0.142627,-0.06201 0.06201,-0.04031 0.09302,-0.10232 0.03101,-0.06201 0.03101,-0.142627 0,-0.09302 -0.05891,-0.158129 -0.05581,-0.06821 -0.151929,-0.117823 -0.09302,-0.04961 -0.21394,-0.09302 -0.117822,-0.04341 -0.244946,-0.09612 -0.124024,-0.05271 -0.244947,-0.120923 -0.117822,-0.06821 -0.21394,-0.167432 -0.09302,-0.09922 -0.151929,-0.238745 -0.05581,-0.139526 -0.05581,-0.334863 0,-0.198438 0.07751,-0.362769 0.07751,-0.167432 0.223242,-0.285254 0.145728,-0.117822 0.353467,-0.182934 0.21084,-0.06511 0.471289,-0.06511 0.130225,0 0.251148,0.0186 0.124023,0.0186 0.223242,0.04651 0.09922,0.0279 0.167432,0.06201 0.06821,0.03101 0.09612,0.05581 0.03101,0.0217 0.04341,0.04651 0.0124,0.0217 0.0186,0.05581 0.0062,0.03101 0.0093,0.08061 0.0062,0.04651 0.0062,0.117823 0,0.08372 -0.0062,0.136426 -0.0031,0.05271 -0.0155,0.08371 -0.0093,0.03101 -0.02791,0.04341 -0.0186,0.0093 -0.04341,0.0093 -0.02791,0 -0.08682,-0.03101 -0.05891,-0.03411 -0.148828,-0.07131 -0.08682,-0.03721 -0.204638,-0.06821 -0.114722,-0.03411 -0.26355,-0.03411 -0.10542,0 -0.182935,0.0217 -0.07751,0.0217 -0.127124,0.06201 -0.04961,0.04031 -0.07441,0.09612 -0.02481,0.05271 -0.02481,0.114721 0,0.09612 0.05891,0.161231 0.05891,0.06511 0.155029,0.114721 0.09612,0.04961 0.217041,0.09302 0.124023,0.04341 0.248047,0.09612 0.127124,0.04961 0.248047,0.117822 0.124023,0.06821 0.220141,0.167432 0.09612,0.09922 0.15503,0.238745 0.05891,0.136426 0.05891,0.325562 z"
                    id="path11333"/>
        </g>
        <g
                aria-label="bend"
                id="text11284"
                style="font-weight:bold;font-size:4.23333px;font-family:Calibri;-inkscape-font-specification:'Calibri Bold';text-align:center;text-anchor:middle;fill:#ffffff;stroke:#000000;stroke-width:0.2;stroke-linecap:square;stroke-linejoin:bevel"
                inkscape:label="bend">
            <path
                    d="m 15.926996,59.615924 q 0,0.24598 -0.05374,0.44235 -0.05374,0.19637 -0.155029,0.334863 -0.101286,0.138493 -0.250114,0.212907 -0.146761,0.07441 -0.334863,0.07441 -0.09302,0 -0.173633,-0.0186 -0.08061,-0.01654 -0.155029,-0.05581 -0.07235,-0.03927 -0.144694,-0.09922 -0.07028,-0.05994 -0.144694,-0.144694 v 0.200505 q 0,0.02274 -0.0124,0.03927 -0.01034,0.01447 -0.03721,0.0248 -0.02481,0.01034 -0.06821,0.01447 -0.04341,0.0041 -0.10542,0.0041 -0.06408,0 -0.107487,-0.0041 -0.04134,-0.0041 -0.06821,-0.01447 -0.02481,-0.01033 -0.03514,-0.0248 -0.01034,-0.01654 -0.01034,-0.03927 v -2.718178 q 0,-0.02067 0.0124,-0.03721 0.0124,-0.01654 0.04134,-0.02687 0.03101,-0.0124 0.08062,-0.0186 0.04961,-0.0062 0.12609,-0.0062 0.07648,0 0.126091,0.0062 0.04961,0.0062 0.07855,0.0186 0.03101,0.01033 0.04341,0.02687 0.0124,0.01654 0.0124,0.03721 v 1.019058 q 0.07028,-0.07028 0.14056,-0.119889 0.07028,-0.04961 0.14056,-0.08061 0.07028,-0.03307 0.144694,-0.04754 0.07441,-0.01447 0.157096,-0.01447 0.204639,0 0.347265,0.08268 0.142627,0.08062 0.231511,0.219108 0.09095,0.138493 0.132291,0.324528 0.04134,0.183968 0.04134,0.388606 z m -0.539501,0.03721 q 0,-0.117822 -0.0186,-0.227376 -0.01654,-0.109554 -0.05994,-0.194303 -0.04341,-0.08475 -0.113688,-0.134359 -0.06821,-0.05168 -0.173633,-0.05168 -0.05168,0 -0.101286,0.01447 -0.04961,0.01447 -0.103353,0.04961 -0.05168,0.03514 -0.107486,0.09095 -0.05581,0.05581 -0.117823,0.138493 v 0.611848 q 0.109554,0.14056 0.208773,0.214974 0.101286,0.07235 0.21084,0.07235 0.101285,0 0.171565,-0.05168 0.07028,-0.05168 0.115755,-0.134358 0.04754,-0.08268 0.06821,-0.188102 0.02067,-0.10542 0.02067,-0.21084 z"
                    id="path11336"/>
            <path
                    d="m 18.045728,59.586985 q 0,0.09509 -0.04341,0.14056 -0.04134,0.04548 -0.115755,0.04548 h -1.122411 q 0,0.117823 0.02687,0.214974 0.02894,0.09508 0.08888,0.163298 0.06201,0.06614 0.157096,0.101285 0.09715,0.03514 0.23151,0.03514 0.136426,0 0.239779,-0.0186 0.103352,-0.02067 0.177766,-0.04341 0.07648,-0.02481 0.126091,-0.04341 0.04961,-0.02067 0.08062,-0.02067 0.0186,0 0.03101,0.0083 0.0124,0.0062 0.02067,0.02481 0.0083,0.0186 0.01034,0.05374 0.0041,0.03307 0.0041,0.08475 0,0.04548 -0.0021,0.07855 -0.0021,0.03101 -0.0062,0.05374 -0.0041,0.02274 -0.0124,0.03927 -0.0083,0.01447 -0.02274,0.02894 -0.0124,0.01447 -0.07235,0.03927 -0.05995,0.02481 -0.152962,0.04961 -0.09302,0.02274 -0.212907,0.03927 -0.119889,0.0186 -0.256315,0.0186 -0.24598,0 -0.432015,-0.06201 -0.183968,-0.06201 -0.307991,-0.188102 -0.124023,-0.12609 -0.186035,-0.318327 -0.05994,-0.192236 -0.05994,-0.450618 0,-0.245979 0.06408,-0.44235 0.06408,-0.198437 0.186035,-0.334863 0.121956,-0.138492 0.295589,-0.210839 0.1757,-0.07235 0.394808,-0.07235 0.23151,0 0.394807,0.06821 0.165365,0.06821 0.270785,0.190169 0.105419,0.119889 0.155029,0.285253 0.04961,0.165365 0.04961,0.359668 z m -0.504361,-0.148828 q 0.0062,-0.219108 -0.08888,-0.343131 -0.09302,-0.12609 -0.289388,-0.12609 -0.09922,0 -0.173632,0.03721 -0.07235,0.03721 -0.121957,0.101285 -0.04754,0.06201 -0.07441,0.148828 -0.0248,0.08475 -0.02894,0.181901 z"
                    id="path11338"/>
            <path
                    d="m 20.23474,60.562636 q 0,0.02067 -0.0124,0.03721 -0.0124,0.01447 -0.04134,0.0248 -0.02894,0.01034 -0.08062,0.01447 -0.04961,0.0062 -0.124023,0.0062 -0.07648,0 -0.128157,-0.0062 -0.04961,-0.0041 -0.07855,-0.01447 -0.02894,-0.01034 -0.04134,-0.0248 -0.0124,-0.01654 -0.0124,-0.03721 v -1.052132 q 0,-0.134358 -0.02067,-0.210839 -0.0186,-0.07648 -0.05581,-0.130225 -0.03721,-0.05581 -0.09715,-0.08475 -0.05788,-0.03101 -0.136425,-0.03101 -0.09922,0 -0.200505,0.07235 -0.101285,0.07235 -0.210839,0.21084 v 1.225764 q 0,0.02067 -0.0124,0.03721 -0.0124,0.01447 -0.04341,0.0248 -0.02894,0.01034 -0.07855,0.01447 -0.04961,0.0062 -0.12609,0.0062 -0.07648,0 -0.126091,-0.0062 -0.04961,-0.0041 -0.08061,-0.01447 -0.02894,-0.01034 -0.04134,-0.0248 -0.0124,-0.01654 -0.0124,-0.03721 v -1.843814 q 0,-0.02067 0.01034,-0.03514 0.01033,-0.01654 0.03721,-0.02687 0.02687,-0.01033 0.06821,-0.01447 0.04341,-0.0062 0.107487,-0.0062 0.06615,0 0.109554,0.0062 0.04341,0.0041 0.06614,0.01447 0.02481,0.01034 0.03514,0.02687 0.01034,0.01447 0.01034,0.03514 v 0.212907 q 0.152962,-0.165365 0.310058,-0.248047 0.159163,-0.08268 0.330729,-0.08268 0.188102,0 0.316259,0.06201 0.130225,0.06201 0.208773,0.169498 0.08061,0.10542 0.115755,0.248047 0.03514,0.142627 0.03514,0.343131 z"
                    id="path11340"/>
            <path
                    d="m 22.494032,60.562636 q 0,0.02274 -0.01034,0.03927 -0.01034,0.01447 -0.03514,0.0248 -0.02481,0.01034 -0.06821,0.01447 -0.04134,0.0041 -0.103353,0.0041 -0.06615,0 -0.107487,-0.0041 -0.04134,-0.0041 -0.06821,-0.01447 -0.0248,-0.01033 -0.03721,-0.0248 -0.01034,-0.01654 -0.01034,-0.03927 v -0.204639 q -0.142627,0.152962 -0.299723,0.237711 -0.155029,0.08475 -0.345198,0.08475 -0.21084,0 -0.357601,-0.08062 -0.144694,-0.08268 -0.237711,-0.221175 -0.09095,-0.138493 -0.132292,-0.322461 -0.04134,-0.186035 -0.04134,-0.390674 0,-0.245979 0.05168,-0.442349 0.05374,-0.196371 0.15503,-0.334863 0.101285,-0.138493 0.25218,-0.212907 0.150895,-0.07441 0.347266,-0.07441 0.155029,0 0.281119,0.06408 0.126091,0.06201 0.250114,0.183968 v -0.998388 q 0,-0.02067 0.01034,-0.03721 0.0124,-0.01654 0.04134,-0.02687 0.03101,-0.0124 0.08062,-0.0186 0.04961,-0.0062 0.126091,-0.0062 0.07648,0 0.12609,0.0062 0.04961,0.0062 0.07855,0.0186 0.02894,0.01033 0.04134,0.02687 0.0124,0.01654 0.0124,0.03721 z M 21.977268,59.33067 q -0.111621,-0.140559 -0.214974,-0.214973 -0.101286,-0.07441 -0.212907,-0.07441 -0.101285,0 -0.175699,0.05168 -0.07235,0.04961 -0.117822,0.134359 -0.04341,0.08475 -0.06615,0.190169 -0.02067,0.103353 -0.02067,0.212907 0,0.115755 0.0186,0.225309 0.0186,0.109554 0.05994,0.19637 0.04341,0.08475 0.113688,0.136426 0.07028,0.05168 0.177767,0.05168 0.05374,0 0.103353,-0.01447 0.05168,-0.01654 0.103353,-0.05168 0.05374,-0.03514 0.109554,-0.09095 0.05581,-0.05788 0.121956,-0.14056 z"
                    id="path11342"/>
        </g>
        <g
                aria-label="mod"
                id="text11288"
                style="font-weight:bold;font-size:4.23333px;font-family:Calibri;-inkscape-font-specification:'Calibri Bold';text-align:center;text-anchor:middle;fill:#ffffff;stroke:#000000;stroke-width:0.2;stroke-linecap:square;stroke-linejoin:bevel"
                inkscape:label="mod">
            <path
                    d="m 40.876423,60.559534 q 0,0.02067 -0.0124,0.03721 -0.0124,0.01447 -0.04134,0.02481 -0.02894,0.01033 -0.07855,0.01447 -0.04961,0.0062 -0.12609,0.0062 -0.07855,0 -0.128158,-0.0062 -0.04961,-0.0041 -0.08062,-0.01447 -0.02894,-0.01034 -0.04134,-0.02481 -0.01034,-0.01654 -0.01034,-0.03721 v -1.093472 q 0,-0.09302 -0.0186,-0.169499 -0.01654,-0.07648 -0.05374,-0.130224 -0.03514,-0.05581 -0.09095,-0.08475 -0.05374,-0.03101 -0.130224,-0.03101 -0.09302,0 -0.188102,0.07235 -0.09508,0.07235 -0.206706,0.210839 v 1.225764 q 0,0.02067 -0.0124,0.03721 -0.0124,0.01447 -0.04341,0.02481 -0.02894,0.01033 -0.07855,0.01447 -0.04961,0.0062 -0.124023,0.0062 -0.07648,0 -0.12609,-0.0062 -0.04961,-0.0041 -0.08062,-0.01447 -0.02894,-0.01034 -0.04134,-0.02481 -0.0124,-0.01654 -0.0124,-0.03721 v -1.093472 q 0,-0.09302 -0.0186,-0.169499 -0.01654,-0.07648 -0.05168,-0.130224 -0.03514,-0.05581 -0.09095,-0.08475 -0.05581,-0.03101 -0.130225,-0.03101 -0.09508,0 -0.190169,0.07235 -0.09508,0.07235 -0.204638,0.210839 v 1.225764 q 0,0.02067 -0.0124,0.03721 -0.0124,0.01447 -0.04341,0.02481 -0.02894,0.01033 -0.07855,0.01447 -0.04961,0.0062 -0.12609,0.0062 -0.07648,0 -0.126091,-0.0062 -0.04961,-0.0041 -0.08062,-0.01447 -0.02894,-0.01034 -0.04134,-0.02481 -0.0124,-0.01654 -0.0124,-0.03721 v -1.843813 q 0,-0.02067 0.01033,-0.03514 0.01033,-0.01654 0.03721,-0.02687 0.02687,-0.01033 0.06821,-0.01447 0.04341,-0.0062 0.107487,-0.0062 0.06614,0 0.109554,0.0062 0.04341,0.0041 0.06615,0.01447 0.0248,0.01033 0.03514,0.02687 0.01034,0.01447 0.01034,0.03514 v 0.212906 q 0.152962,-0.165364 0.303857,-0.248046 0.152962,-0.08268 0.318326,-0.08268 0.113688,0 0.204639,0.0248 0.09095,0.02274 0.16123,0.06821 0.07235,0.04341 0.124024,0.10542 0.05168,0.06201 0.08682,0.138493 0.08268,-0.08888 0.16123,-0.152963 0.08062,-0.06408 0.157096,-0.103352 0.07855,-0.04134 0.15503,-0.05994 0.07855,-0.02067 0.159163,-0.02067 0.183968,0 0.310058,0.06201 0.126091,0.06201 0.202572,0.169499 0.07855,0.10542 0.111621,0.248046 0.03307,0.142627 0.03307,0.301791 z"
                    id="path11345"/>
            <path
                    d="m 43.251469,59.619024 q 0,0.235644 -0.06201,0.429948 -0.06201,0.194303 -0.188102,0.334863 -0.126091,0.140559 -0.31626,0.21704 -0.190169,0.07648 -0.444417,0.07648 -0.245979,0 -0.42788,-0.06821 -0.181901,-0.06821 -0.30179,-0.198438 -0.11989,-0.130224 -0.177767,-0.320393 -0.05788,-0.190169 -0.05788,-0.434082 0,-0.235644 0.06201,-0.429948 0.06408,-0.19637 0.190169,-0.334863 0.12609,-0.140559 0.314193,-0.21704 0.190169,-0.07648 0.444416,-0.07648 0.248047,0 0.429948,0.06821 0.181901,0.06615 0.299723,0.196371 0.119889,0.130224 0.177767,0.320393 0.05788,0.190169 0.05788,0.436149 z m -0.535367,0.02067 q 0,-0.136426 -0.02274,-0.250114 -0.02067,-0.115755 -0.07235,-0.200505 -0.05168,-0.08475 -0.138492,-0.132291 -0.08475,-0.04754 -0.214974,-0.04754 -0.115755,0 -0.202571,0.04341 -0.08682,0.04134 -0.142627,0.124023 -0.05581,0.08062 -0.08475,0.19637 -0.02687,0.113688 -0.02687,0.260449 0,0.136426 0.02274,0.252181 0.02274,0.113688 0.07235,0.198437 0.05168,0.08475 0.138493,0.132292 0.08682,0.04548 0.214974,0.04548 0.117822,0 0.204638,-0.04134 0.08682,-0.04341 0.142627,-0.124023 0.05581,-0.08062 0.08268,-0.194303 0.02687,-0.115756 0.02687,-0.262516 z"
                    id="path11347"/>
            <path
                    d="m 45.411542,60.559534 q 0,0.02274 -0.01033,0.03927 -0.01033,0.01447 -0.03514,0.02481 -0.02481,0.01033 -0.06821,0.01447 -0.04134,0.0041 -0.103353,0.0041 -0.06615,0 -0.107487,-0.0041 -0.04134,-0.0041 -0.06821,-0.01447 -0.02481,-0.01033 -0.03721,-0.02481 -0.01034,-0.01654 -0.01034,-0.03927 v -0.204638 q -0.142626,0.152962 -0.299723,0.237711 -0.155029,0.08475 -0.345198,0.08475 -0.21084,0 -0.357601,-0.08062 -0.144693,-0.08268 -0.237711,-0.221175 -0.09095,-0.138492 -0.132292,-0.32246 -0.04134,-0.186035 -0.04134,-0.390674 0,-0.245979 0.05168,-0.44235 0.05374,-0.19637 0.155029,-0.334863 0.101286,-0.138492 0.252181,-0.212906 0.150895,-0.07441 0.347265,-0.07441 0.155029,0 0.28112,0.06408 0.12609,0.06201 0.250113,0.183968 v -0.998388 q 0,-0.02067 0.01034,-0.03721 0.0124,-0.01654 0.04134,-0.02687 0.03101,-0.0124 0.08062,-0.0186 0.04961,-0.0062 0.12609,-0.0062 0.07648,0 0.126091,0.0062 0.04961,0.0062 0.07855,0.0186 0.02894,0.01033 0.04134,0.02687 0.0124,0.01654 0.0124,0.03721 z m -0.516764,-1.231965 q -0.111621,-0.14056 -0.214973,-0.214974 -0.101286,-0.07441 -0.212907,-0.07441 -0.101286,0 -0.1757,0.05168 -0.07235,0.04961 -0.117822,0.134358 -0.04341,0.08475 -0.06615,0.190169 -0.02067,0.103353 -0.02067,0.212907 0,0.115755 0.0186,0.225309 0.0186,0.109554 0.05994,0.196371 0.04341,0.08475 0.113688,0.136425 0.07028,0.05168 0.177767,0.05168 0.05374,0 0.103352,-0.01447 0.05168,-0.01654 0.103353,-0.05168 0.05374,-0.03514 0.109554,-0.09095 0.05581,-0.05788 0.121956,-0.140559 z"
                    id="path11349"/>
        </g>
        <g
                aria-label="sliders"
                id="text11292"
                style="font-weight:bold;font-size:6.35px;font-family:Calibri;-inkscape-font-specification:'Calibri Bold';text-align:center;text-anchor:middle;fill:#ffffff;stroke:#000000;stroke-width:0.2;stroke-linecap:square;stroke-linejoin:bevel"
                inkscape:label="sliders">
            <path
                    d="m 44.059837,107.30647 q 0,0.23564 -0.08992,0.41548 -0.08682,0.17983 -0.248046,0.30076 -0.161231,0.12092 -0.381372,0.17983 -0.220142,0.062 -0.477491,0.062 -0.155029,0 -0.297656,-0.0248 -0.139526,-0.0217 -0.251147,-0.0558 -0.111622,-0.0372 -0.186036,-0.0744 -0.07441,-0.0372 -0.10852,-0.0682 -0.03411,-0.0341 -0.05271,-0.10232 -0.0186,-0.0713 -0.0186,-0.20774 0,-0.0899 0.0062,-0.14263 0.0062,-0.0558 0.0186,-0.0868 0.0124,-0.0341 0.03101,-0.0434 0.0186,-0.0124 0.04651,-0.0124 0.03411,0 0.09922,0.0403 0.06821,0.0372 0.167431,0.0837 0.09922,0.0465 0.229444,0.0868 0.133325,0.0403 0.300756,0.0403 0.10542,0 0.186036,-0.0217 0.08371,-0.0217 0.142626,-0.062 0.06201,-0.0403 0.09302,-0.10232 0.03101,-0.062 0.03101,-0.14263 0,-0.093 -0.05891,-0.15813 -0.05581,-0.0682 -0.151929,-0.11782 -0.09302,-0.0496 -0.21394,-0.093 -0.117823,-0.0434 -0.244947,-0.0961 -0.124023,-0.0527 -0.244946,-0.12092 -0.117822,-0.0682 -0.21394,-0.16743 -0.09302,-0.0992 -0.151929,-0.23875 -0.05581,-0.13952 -0.05581,-0.33486 0,-0.19844 0.07751,-0.36277 0.07751,-0.16743 0.223242,-0.28525 0.145728,-0.11782 0.353467,-0.18294 0.21084,-0.0651 0.471289,-0.0651 0.130225,0 0.251148,0.0186 0.124023,0.0186 0.223242,0.0465 0.09922,0.0279 0.167431,0.062 0.06821,0.031 0.09612,0.0558 0.03101,0.0217 0.04341,0.0465 0.0124,0.0217 0.0186,0.0558 0.0062,0.031 0.0093,0.0806 0.0062,0.0465 0.0062,0.11782 0,0.0837 -0.0062,0.13643 -0.0031,0.0527 -0.0155,0.0837 -0.0093,0.031 -0.02791,0.0434 -0.0186,0.009 -0.04341,0.009 -0.02791,0 -0.08682,-0.031 -0.05891,-0.0341 -0.148828,-0.0713 -0.08682,-0.0372 -0.204639,-0.0682 -0.114721,-0.0341 -0.263549,-0.0341 -0.10542,0 -0.182935,0.0217 -0.07752,0.0217 -0.127124,0.062 -0.04961,0.0403 -0.07441,0.0961 -0.0248,0.0527 -0.0248,0.11472 0,0.0961 0.05891,0.16123 0.05891,0.0651 0.15503,0.11472 0.09612,0.0496 0.217041,0.093 0.124023,0.0434 0.248047,0.0961 0.127124,0.0496 0.248046,0.11782 0.124024,0.0682 0.220142,0.16743 0.09612,0.0992 0.155029,0.23875 0.05891,0.13642 0.05891,0.32556 z"
                    id="path11352"/>
            <path
                    d="m 45.427196,108.08782 q 0,0.031 -0.0186,0.0558 -0.0186,0.0217 -0.06511,0.0372 -0.04341,0.0155 -0.117822,0.0217 -0.07441,0.009 -0.189136,0.009 -0.114722,0 -0.189136,-0.009 -0.07441,-0.006 -0.120923,-0.0217 -0.04341,-0.0155 -0.06201,-0.0372 -0.0186,-0.0248 -0.0186,-0.0558 v -4.07727 q 0,-0.031 0.0186,-0.0558 0.0186,-0.0248 0.06201,-0.0403 0.04651,-0.0186 0.120923,-0.0279 0.07441,-0.009 0.189136,-0.009 0.114722,0 0.189136,0.009 0.07441,0.009 0.117822,0.0279 0.04651,0.0155 0.06511,0.0403 0.0186,0.0248 0.0186,0.0558 z"
                    id="path11354"/>
            <path
                    d="m 46.986791,108.08782 q 0,0.031 -0.0186,0.0558 -0.0186,0.0217 -0.06511,0.0372 -0.04341,0.0155 -0.117823,0.0217 -0.07441,0.009 -0.189135,0.009 -0.114722,0 -0.189136,-0.009 -0.07441,-0.006 -0.120923,-0.0217 -0.04341,-0.0155 -0.06201,-0.0372 -0.0186,-0.0248 -0.0186,-0.0558 v -2.75952 q 0,-0.031 0.0186,-0.0527 0.0186,-0.0248 0.06201,-0.0403 0.04651,-0.0186 0.120923,-0.0279 0.07441,-0.009 0.189136,-0.009 0.114721,0 0.189135,0.009 0.07442,0.009 0.117823,0.0279 0.04651,0.0155 0.06511,0.0403 0.0186,0.0217 0.0186,0.0527 z m 0.05891,-3.7021 q 0,0.23564 -0.09612,0.32556 -0.09612,0.0899 -0.356568,0.0899 -0.26355,0 -0.356567,-0.0868 -0.08992,-0.0868 -0.08992,-0.31316 0,-0.23564 0.09302,-0.32556 0.09612,-0.093 0.359668,-0.093 0.26045,0 0.353467,0.0899 0.09302,0.0868 0.09302,0.31316 z"
                    id="path11356"/>
            <path
                    d="m 50.388133,108.08782 q 0,0.0341 -0.0155,0.0589 -0.0155,0.0217 -0.05271,0.0372 -0.03721,0.0155 -0.102319,0.0217 -0.06201,0.006 -0.155029,0.006 -0.09922,0 -0.161231,-0.006 -0.06201,-0.006 -0.102319,-0.0217 -0.03721,-0.0155 -0.05581,-0.0372 -0.0155,-0.0248 -0.0155,-0.0589 v -0.30696 q -0.21394,0.22944 -0.449585,0.35657 -0.232543,0.12712 -0.517797,0.12712 -0.31626,0 -0.536402,-0.12092 -0.217041,-0.12403 -0.356567,-0.33176 -0.136426,-0.20774 -0.198438,-0.4837 -0.06201,-0.27905 -0.06201,-0.58601 0,-0.36897 0.07751,-0.66352 0.08062,-0.29456 0.232544,-0.5023 0.151929,-0.20774 0.378272,-0.31936 0.226343,-0.11162 0.520898,-0.11162 0.232544,0 0.42168,0.0961 0.189136,0.093 0.375171,0.27595 v -1.49758 q 0,-0.031 0.0155,-0.0558 0.0186,-0.0248 0.06201,-0.0403 0.04651,-0.0186 0.120923,-0.0279 0.07441,-0.009 0.189136,-0.009 0.114722,0 0.189136,0.009 0.07441,0.009 0.117822,0.0279 0.04341,0.0155 0.06201,0.0403 0.0186,0.0248 0.0186,0.0558 z m -0.775146,-1.84795 q -0.167432,-0.21084 -0.322461,-0.32246 -0.151929,-0.11162 -0.319361,-0.11162 -0.151928,0 -0.263549,0.0775 -0.108521,0.0744 -0.176734,0.20154 -0.06511,0.12712 -0.09922,0.28525 -0.03101,0.15503 -0.03101,0.31936 0,0.17364 0.0279,0.33797 0.02791,0.16433 0.08992,0.29455 0.06511,0.12713 0.170532,0.20464 0.10542,0.0775 0.266651,0.0775 0.08062,0 0.155029,-0.0217 0.07751,-0.0248 0.155029,-0.0775 0.08062,-0.0527 0.164331,-0.13643 0.08372,-0.0868 0.182935,-0.21084 z"
                    id="path11358"/>
            <path
                    d="m 53.727464,106.62434 q 0,0.14263 -0.06511,0.21084 -0.06201,0.0682 -0.173633,0.0682 h -1.683618 q 0,0.17674 0.04031,0.32246 0.04341,0.14263 0.133326,0.24495 0.09302,0.0992 0.235644,0.15193 0.145728,0.0527 0.347266,0.0527 0.204638,0 0.359668,-0.0279 0.155029,-0.031 0.26665,-0.0651 0.114722,-0.0372 0.189136,-0.0651 0.07441,-0.031 0.120923,-0.031 0.0279,0 0.04651,0.0124 0.0186,0.009 0.03101,0.0372 0.0124,0.0279 0.0155,0.0806 0.0062,0.0496 0.0062,0.12712 0,0.0682 -0.0031,0.11782 -0.0031,0.0465 -0.0093,0.0806 -0.0062,0.0341 -0.0186,0.0589 -0.0124,0.0217 -0.03411,0.0434 -0.0186,0.0217 -0.10852,0.0589 -0.08992,0.0372 -0.229444,0.0744 -0.139526,0.0341 -0.31936,0.0589 -0.179834,0.0279 -0.384473,0.0279 -0.368969,0 -0.648022,-0.093 -0.275952,-0.093 -0.461988,-0.28215 -0.186035,-0.18914 -0.279052,-0.47749 -0.08992,-0.28835 -0.08992,-0.67593 0,-0.36897 0.09612,-0.66352 0.09612,-0.29766 0.279053,-0.5023 0.182934,-0.20774 0.443383,-0.31626 0.26355,-0.10852 0.592212,-0.10852 0.347266,0 0.592212,0.10232 0.248047,0.10232 0.406177,0.28525 0.15813,0.17984 0.232544,0.42789 0.07441,0.24804 0.07441,0.5395 z m -0.756543,-0.22324 q 0.0093,-0.32866 -0.133325,-0.5147 -0.139527,-0.18913 -0.434082,-0.18913 -0.148828,0 -0.260449,0.0558 -0.108521,0.0558 -0.182935,0.15192 -0.07131,0.093 -0.111621,0.22325 -0.03721,0.12712 -0.04341,0.27285 z"
                    id="path11360"/>
            <path
                    d="m 56.145922,105.57944 q 0,0.11162 -0.0062,0.18294 -0.0062,0.0713 -0.0186,0.11162 -0.0124,0.0403 -0.03411,0.0558 -0.0186,0.0155 -0.04961,0.0155 -0.0248,0 -0.05581,-0.009 -0.03101,-0.0124 -0.07131,-0.0248 -0.03721,-0.0124 -0.08372,-0.0217 -0.04651,-0.0124 -0.102319,-0.0124 -0.06511,0 -0.130224,0.0279 -0.06511,0.0248 -0.136426,0.0806 -0.06821,0.0558 -0.145728,0.14883 -0.07441,0.093 -0.16123,0.22944 v 1.72393 q 0,0.031 -0.0186,0.0558 -0.0186,0.0217 -0.06511,0.0372 -0.04341,0.0155 -0.117822,0.0217 -0.07441,0.009 -0.189136,0.009 -0.114722,0 -0.189136,-0.009 -0.07441,-0.006 -0.120923,-0.0217 -0.04341,-0.0155 -0.06201,-0.0372 -0.0186,-0.0248 -0.0186,-0.0558 v -2.76573 q 0,-0.031 0.0155,-0.0527 0.0155,-0.0248 0.05581,-0.0403 0.04031,-0.0155 0.102319,-0.0217 0.06511,-0.009 0.16123,-0.009 0.09922,0 0.164331,0.009 0.06511,0.006 0.09922,0.0217 0.03721,0.0155 0.05271,0.0403 0.0155,0.0217 0.0155,0.0527 v 0.34417 q 0.108521,-0.15503 0.204639,-0.25425 0.09612,-0.10232 0.182934,-0.16123 0.08682,-0.0589 0.173633,-0.0806 0.08682,-0.0248 0.173633,-0.0248 0.04031,0 0.08682,0.006 0.04651,0.003 0.09612,0.0155 0.04961,0.009 0.08682,0.0248 0.03721,0.0124 0.05271,0.0279 0.0186,0.0155 0.02481,0.0341 0.0093,0.0186 0.0155,0.0527 0.0062,0.031 0.0093,0.0961 0.0031,0.0651 0.0031,0.17673 z"
                    id="path11362"/>
            <path
                    d="m 58.496165,107.30647 q 0,0.23564 -0.08992,0.41548 -0.08682,0.17983 -0.248046,0.30076 -0.161231,0.12092 -0.381373,0.17983 -0.220141,0.062 -0.47749,0.062 -0.155029,0 -0.297656,-0.0248 -0.139526,-0.0217 -0.251147,-0.0558 -0.111622,-0.0372 -0.186036,-0.0744 -0.07441,-0.0372 -0.10852,-0.0682 -0.03411,-0.0341 -0.05271,-0.10232 -0.0186,-0.0713 -0.0186,-0.20774 0,-0.0899 0.0062,-0.14263 0.0062,-0.0558 0.0186,-0.0868 0.0124,-0.0341 0.03101,-0.0434 0.0186,-0.0124 0.04651,-0.0124 0.03411,0 0.09922,0.0403 0.06821,0.0372 0.167432,0.0837 0.09922,0.0465 0.229443,0.0868 0.133326,0.0403 0.300757,0.0403 0.10542,0 0.186035,-0.0217 0.08372,-0.0217 0.142627,-0.062 0.06201,-0.0403 0.09302,-0.10232 0.03101,-0.062 0.03101,-0.14263 0,-0.093 -0.05891,-0.15813 -0.05581,-0.0682 -0.151929,-0.11782 -0.09302,-0.0496 -0.21394,-0.093 -0.117823,-0.0434 -0.244947,-0.0961 -0.124023,-0.0527 -0.244946,-0.12092 -0.117822,-0.0682 -0.21394,-0.16743 -0.09302,-0.0992 -0.151929,-0.23875 -0.05581,-0.13952 -0.05581,-0.33486 0,-0.19844 0.07752,-0.36277 0.07751,-0.16743 0.223242,-0.28525 0.145728,-0.11782 0.353467,-0.18294 0.21084,-0.0651 0.471289,-0.0651 0.130225,0 0.251147,0.0186 0.124024,0.0186 0.223243,0.0465 0.09922,0.0279 0.167431,0.062 0.06821,0.031 0.09612,0.0558 0.03101,0.0217 0.04341,0.0465 0.0124,0.0217 0.0186,0.0558 0.0062,0.031 0.0093,0.0806 0.0062,0.0465 0.0062,0.11782 0,0.0837 -0.0062,0.13643 -0.0031,0.0527 -0.0155,0.0837 -0.0093,0.031 -0.0279,0.0434 -0.0186,0.009 -0.04341,0.009 -0.0279,0 -0.08682,-0.031 -0.05891,-0.0341 -0.148828,-0.0713 -0.08682,-0.0372 -0.204639,-0.0682 -0.114721,-0.0341 -0.26355,-0.0341 -0.105419,0 -0.182934,0.0217 -0.07751,0.0217 -0.127124,0.062 -0.04961,0.0403 -0.07441,0.0961 -0.02481,0.0527 -0.02481,0.11472 0,0.0961 0.05891,0.16123 0.05891,0.0651 0.15503,0.11472 0.09612,0.0496 0.217041,0.093 0.124023,0.0434 0.248046,0.0961 0.127124,0.0496 0.248047,0.11782 0.124024,0.0682 0.220142,0.16743 0.09612,0.0992 0.155029,0.23875 0.05891,0.13642 0.05891,0.32556 z"
                    id="path11364"/>
        </g>
        <g
                aria-label="gate"
                id="text11296"
                style="font-weight:bold;font-size:4.23333px;font-family:Calibri;-inkscape-font-specification:'Calibri Bold';text-align:center;text-anchor:middle;display:inline;fill:#ffffff;stroke:#000000;stroke-width:0.2;stroke-linecap:square;stroke-linejoin:bevel"
                inkscape:label="gate">
            <path
                    d="m 28.691999,43.544775 q 0,0.09922 -0.02274,0.146761 -0.02274,0.04754 -0.05581,0.04754 H 28.39641 q 0.04547,0.04961 0.06408,0.113688 0.02067,0.06201 0.02067,0.130224 0,0.16123 -0.05374,0.287321 -0.05374,0.124023 -0.155029,0.21084 -0.09922,0.08475 -0.241846,0.130224 -0.14056,0.04341 -0.314192,0.04341 -0.08888,0 -0.169499,-0.02067 -0.08061,-0.02274 -0.124023,-0.05168 -0.02481,0.02687 -0.04548,0.06408 -0.0186,0.03721 -0.0186,0.08268 0,0.05995 0.05168,0.09922 0.05374,0.03721 0.148828,0.04134 l 0.448551,0.01654 q 0.157097,0.0062 0.279053,0.04548 0.124023,0.03721 0.206705,0.107487 0.08475,0.06821 0.128158,0.165364 0.04547,0.09715 0.04547,0.221175 0,0.136426 -0.05994,0.256315 -0.05994,0.121956 -0.179834,0.210839 -0.11989,0.08888 -0.30179,0.14056 -0.179834,0.05168 -0.42168,0.05168 -0.235644,0 -0.403076,-0.03721 -0.165364,-0.03721 -0.272851,-0.103353 -0.10542,-0.06615 -0.155029,-0.159163 -0.04754,-0.09095 -0.04754,-0.200505 0,-0.06821 0.01654,-0.130224 0.0186,-0.06201 0.05168,-0.11989 0.03514,-0.05581 0.08475,-0.107486 0.04961,-0.05168 0.113688,-0.09922 -0.08888,-0.04754 -0.138493,-0.128158 -0.04754,-0.08268 -0.04754,-0.179833 0,-0.121957 0.05581,-0.221175 0.05581,-0.101286 0.144694,-0.181901 -0.07235,-0.07235 -0.115755,-0.173633 -0.04341,-0.101286 -0.04341,-0.252181 0,-0.16123 0.05581,-0.28732 0.05788,-0.128158 0.159164,-0.214974 0.101285,-0.08888 0.241845,-0.134359 0.14056,-0.04754 0.310059,-0.04754 0.08682,0 0.165364,0.01034 0.08061,0.01034 0.148828,0.02894 h 0.584977 q 0.03514,0 0.05581,0.04547 0.02274,0.04548 0.02274,0.152962 z m -0.667659,0.436149 q 0,-0.148828 -0.08268,-0.23151 -0.08268,-0.08268 -0.233578,-0.08268 -0.07648,0 -0.134358,0.02687 -0.05788,0.0248 -0.09715,0.07028 -0.03721,0.04341 -0.05581,0.103353 -0.0186,0.05788 -0.0186,0.121956 0,0.14056 0.08268,0.223242 0.08268,0.08062 0.229444,0.08062 0.07855,0 0.136425,-0.0248 0.05788,-0.02481 0.09509,-0.06821 0.03927,-0.04341 0.05788,-0.09922 0.02067,-0.05788 0.02067,-0.119889 z m 0.121956,1.471744 q 0,-0.09302 -0.07441,-0.142627 -0.07441,-0.04961 -0.204638,-0.05374 l -0.370003,-0.01034 q -0.05374,0.03927 -0.08682,0.07648 -0.03101,0.03514 -0.05168,0.06821 -0.0186,0.03307 -0.0248,0.06408 -0.0062,0.03101 -0.0062,0.06408 0,0.103353 0.103353,0.157097 0.10542,0.05374 0.295589,0.05374 0.117822,0 0.198437,-0.02481 0.08061,-0.02274 0.130225,-0.06201 0.04961,-0.03927 0.07028,-0.08888 0.02067,-0.04754 0.02067,-0.101285 z"
                    id="path11367"/>
            <path
                    d="m 30.535812,45.266633 q 0,0.02894 -0.02067,0.04548 -0.02067,0.01654 -0.06615,0.02274 -0.04341,0.0083 -0.130224,0.0083 -0.09302,0 -0.136426,-0.0083 -0.04134,-0.0062 -0.05994,-0.02274 -0.01654,-0.01654 -0.01654,-0.04548 v -0.146761 q -0.113688,0.121956 -0.260449,0.190169 -0.144694,0.06821 -0.322461,0.06821 -0.146761,0 -0.270784,-0.03927 -0.121956,-0.03721 -0.212907,-0.111621 -0.08888,-0.07648 -0.138493,-0.188102 -0.04961,-0.111621 -0.04961,-0.260449 0,-0.161231 0.06201,-0.279053 0.06408,-0.119889 0.188102,-0.19637 0.12609,-0.07855 0.312125,-0.115755 0.186035,-0.03721 0.432015,-0.03721 h 0.179834 v -0.111621 q 0,-0.08682 -0.0186,-0.150895 -0.01654,-0.06615 -0.05788,-0.109554 -0.03927,-0.04341 -0.107487,-0.06408 -0.06615,-0.02067 -0.165365,-0.02067 -0.130224,0 -0.233577,0.02894 -0.101286,0.02894 -0.179834,0.06408 -0.07855,0.03514 -0.132291,0.06408 -0.05168,0.02894 -0.08475,0.02894 -0.02274,0 -0.04134,-0.01447 -0.01654,-0.01447 -0.02894,-0.04134 -0.01034,-0.02687 -0.01654,-0.06615 -0.0062,-0.03927 -0.0062,-0.08682 0,-0.06408 0.01034,-0.101286 0.01033,-0.03721 0.03927,-0.06615 0.02894,-0.03101 0.101286,-0.06615 0.07235,-0.03721 0.169498,-0.06821 0.09715,-0.03101 0.21084,-0.04961 0.115755,-0.02067 0.237712,-0.02067 0.21704,0 0.370002,0.04341 0.15503,0.04134 0.254248,0.130224 0.09922,0.08682 0.144694,0.225309 0.04547,0.138493 0.04547,0.328662 z M 30.02525,44.477017 h -0.198438 q -0.12609,0 -0.214973,0.0186 -0.08888,0.0186 -0.144694,0.05581 -0.05581,0.03721 -0.08268,0.09095 -0.0248,0.05168 -0.0248,0.119889 0,0.115755 0.07235,0.181901 0.07441,0.06615 0.204638,0.06615 0.109554,0 0.200505,-0.05581 0.09302,-0.05581 0.188102,-0.163297 z"
                    id="path11369"/>
            <path
                    d="m 32.106774,45.078531 q 0,0.09095 -0.0124,0.140559 -0.01033,0.04754 -0.02894,0.06821 -0.0186,0.0186 -0.05581,0.03514 -0.03514,0.01447 -0.08475,0.02481 -0.04754,0.0124 -0.10542,0.0186 -0.05581,0.0062 -0.113688,0.0062 -0.15503,0 -0.268718,-0.03927 -0.113688,-0.03927 -0.188102,-0.119889 -0.07441,-0.08268 -0.109554,-0.206705 -0.03514,-0.124024 -0.03514,-0.293522 v -0.944645 h -0.221174 q -0.03927,0 -0.05995,-0.04754 -0.02067,-0.04961 -0.02067,-0.163297 0,-0.05994 0.0041,-0.101286 0.0062,-0.04134 0.01654,-0.06408 0.01034,-0.0248 0.02481,-0.03514 0.01654,-0.01033 0.03721,-0.01033 h 0.219107 v -0.411344 q 0,-0.02067 0.01034,-0.03721 0.0124,-0.01654 0.04134,-0.02687 0.03101,-0.0124 0.08061,-0.01654 0.05168,-0.0062 0.12609,-0.0062 0.07648,0 0.126091,0.0062 0.05168,0.0041 0.08062,0.01654 0.02894,0.01034 0.04134,0.02687 0.0124,0.01654 0.0124,0.03721 v 0.411344 h 0.401009 q 0.02067,0 0.03514,0.01033 0.01654,0.01034 0.02687,0.03514 0.01033,0.02274 0.01447,0.06408 0.0062,0.04134 0.0062,0.101286 0,0.113688 -0.02067,0.163297 -0.02067,0.04754 -0.05994,0.04754 h -0.403076 v 0.866097 q 0,0.150895 0.04754,0.227376 0.04754,0.07441 0.169498,0.07441 0.04134,0 0.07441,-0.0062 0.03307,-0.0083 0.05788,-0.01654 0.02687,-0.01033 0.04341,-0.01654 0.0186,-0.0083 0.03307,-0.0083 0.0124,0 0.02274,0.0083 0.0124,0.0062 0.0186,0.02894 0.0062,0.02067 0.01033,0.05788 0.0062,0.03721 0.0062,0.09508 z"
                    id="path11371"/>
            <path
                    d="m 34.134556,44.284781 q 0,0.09508 -0.04341,0.14056 -0.04134,0.04547 -0.115755,0.04547 h -1.122411 q 0,0.117822 0.02687,0.214974 0.02894,0.09509 0.08888,0.163297 0.06201,0.06615 0.157096,0.101286 0.09715,0.03514 0.23151,0.03514 0.136426,0 0.239779,-0.0186 0.103352,-0.02067 0.177766,-0.04341 0.07648,-0.0248 0.126091,-0.04341 0.04961,-0.02067 0.08062,-0.02067 0.0186,0 0.03101,0.0083 0.0124,0.0062 0.02067,0.02481 0.0083,0.0186 0.01034,0.05374 0.0041,0.03307 0.0041,0.08475 0,0.04548 -0.0021,0.07855 -0.0021,0.03101 -0.0062,0.05374 -0.0041,0.02274 -0.0124,0.03927 -0.0083,0.01447 -0.02274,0.02894 -0.0124,0.01447 -0.07235,0.03927 -0.05994,0.0248 -0.152963,0.04961 -0.09302,0.02274 -0.212906,0.03927 -0.11989,0.0186 -0.256315,0.0186 -0.24598,0 -0.432015,-0.06201 -0.183968,-0.06201 -0.307991,-0.188102 -0.124023,-0.12609 -0.186035,-0.318327 -0.05994,-0.192236 -0.05994,-0.450618 0,-0.245979 0.06408,-0.44235 0.06408,-0.198437 0.186035,-0.334863 0.121956,-0.138492 0.295589,-0.210839 0.1757,-0.07235 0.394808,-0.07235 0.23151,0 0.394807,0.06821 0.165365,0.06821 0.270784,0.190169 0.10542,0.119889 0.15503,0.285253 0.04961,0.165365 0.04961,0.359668 z m -0.504362,-0.148828 q 0.0062,-0.219108 -0.08888,-0.343131 -0.09302,-0.12609 -0.289388,-0.12609 -0.09922,0 -0.173632,0.03721 -0.07235,0.03721 -0.121957,0.101285 -0.04754,0.06201 -0.07441,0.148828 -0.0248,0.08475 -0.02894,0.181901 z"
                    id="path11373"/>
        </g>
        <g
                aria-label="v/oct"
                id="text11300"
                style="font-weight:bold;font-size:4.23333px;font-family:Calibri;-inkscape-font-specification:'Calibri Bold';text-align:center;text-anchor:middle;display:inline;fill:#ffffff;stroke:#000000;stroke-width:0.2;stroke-linecap:square;stroke-linejoin:bevel"
                inkscape:label="v/oct">
            <path
                    d="m 6.7532051,43.602654 q 0,0.01033 -0.00207,0.0248 0,0.01447 -0.00413,0.03307 -0.00207,0.01654 -0.00827,0.03927 -0.00413,0.02274 -0.012402,0.05168 l -0.5539709,1.668113 q -0.010335,0.03514 -0.028939,0.05788 -0.016536,0.02067 -0.057878,0.03307 -0.039274,0.0124 -0.109554,0.01654 -0.068213,0.0041 -0.1798338,0.0041 -0.1095539,0 -0.1798338,-0.0062 -0.068213,-0.0041 -0.1074869,-0.01654 -0.039274,-0.0124 -0.057878,-0.03307 -0.016536,-0.02274 -0.026872,-0.05581 L 4.8701175,43.751482 q -0.012402,-0.04134 -0.020671,-0.07441 -0.0062,-0.03307 -0.00827,-0.04754 0,-0.01447 0,-0.02687 0,-0.02067 0.010335,-0.03514 0.012402,-0.01654 0.041341,-0.02687 0.028939,-0.01033 0.078548,-0.01447 0.051676,-0.0041 0.1281575,-0.0041 0.084749,0 0.1364256,0.0062 0.051676,0.0041 0.080615,0.01447 0.031006,0.0083 0.043408,0.02687 0.012402,0.01654 0.02067,0.04134 l 0.4196123,1.353921 0.012402,0.05168 0.012402,-0.05168 0.4134111,-1.353921 q 0.0062,-0.02481 0.018603,-0.04134 0.014469,-0.0186 0.043408,-0.02687 0.028939,-0.01034 0.076481,-0.01447 0.049609,-0.0062 0.1281575,-0.0062 0.076481,0 0.1240233,0.0041 0.049609,0.0041 0.076481,0.01447 0.026872,0.01034 0.037207,0.02687 0.010335,0.01447 0.010335,0.03514 z"
                    id="path11376"/>
            <path
                    d="m 7.3195784,46.054181 q -0.010335,0.02687 -0.026872,0.04341 -0.016536,0.01654 -0.047542,0.02687 -0.028939,0.01034 -0.074414,0.01447 -0.043408,0.0062 -0.111621,0.0062 -0.084749,0 -0.1384927,-0.0083 -0.053744,-0.0083 -0.082682,-0.02481 -0.026872,-0.01654 -0.031006,-0.04341 -0.00413,-0.02481 0.00827,-0.05995 L 8.0513161,42.53812 q 0.00827,-0.02687 0.024805,-0.04341 0.016536,-0.0186 0.045475,-0.02894 0.028939,-0.01033 0.074414,-0.01447 0.047542,-0.0062 0.113688,-0.0062 0.086816,0 0.1384927,0.0083 0.053744,0.0083 0.080615,0.0248 0.026872,0.01654 0.031006,0.04341 0.00413,0.0248 -0.0062,0.05994 z"
                    id="path11378"/>
            <path
                    d="m 10.649605,44.508024 q 0,0.235644 -0.06201,0.429947 -0.06201,0.194304 -0.188102,0.334863 -0.12609,0.14056 -0.316259,0.217041 -0.1901696,0.07648 -0.4444174,0.07648 -0.2459796,0 -0.4278805,-0.06821 -0.1819009,-0.06821 -0.3017901,-0.198438 -0.1198892,-0.130224 -0.1777668,-0.320393 -0.057878,-0.19017 -0.057878,-0.434082 0,-0.235644 0.062012,-0.429948 0.064079,-0.19637 0.1901691,-0.334863 0.1260904,-0.140559 0.3141925,-0.21704 0.1901691,-0.07648 0.4444169,-0.07648 0.2480467,0 0.4299472,0.06821 0.181901,0.06615 0.299723,0.196371 0.11989,0.130224 0.177767,0.320393 0.05788,0.190169 0.05788,0.436149 z m -0.535368,0.02067 q 0,-0.136425 -0.02274,-0.250113 -0.02067,-0.115755 -0.07235,-0.200505 -0.051677,-0.08475 -0.1384929,-0.132291 -0.084749,-0.04754 -0.2149738,-0.04754 -0.1157551,0 -0.2025714,0.04341 -0.086816,0.04134 -0.1426269,0.124023 -0.05581,0.08062 -0.084749,0.19637 -0.026872,0.113688 -0.026872,0.260449 0,0.136426 0.022738,0.252181 0.022738,0.113688 0.072347,0.198437 0.051676,0.08475 0.1384927,0.132292 0.086816,0.04547 0.2149738,0.04547 0.1178222,0 0.2046385,-0.04134 0.086816,-0.04341 0.1426264,-0.124023 0.05581,-0.08062 0.08268,-0.194303 0.02687,-0.115756 0.02687,-0.262517 z"
                    id="path11380"/>
            <path
                    d="m 12.456212,45.155012 q 0,0.05374 -0.0041,0.09095 -0.0021,0.03514 -0.0083,0.05994 -0.0041,0.02481 -0.0124,0.04134 -0.0062,0.01447 -0.03101,0.03927 -0.02481,0.02274 -0.08475,0.05788 -0.05995,0.03307 -0.136426,0.05994 -0.07648,0.02687 -0.167431,0.04341 -0.08888,0.01654 -0.183968,0.01654 -0.212907,0 -0.378272,-0.06614 -0.163297,-0.06615 -0.274918,-0.194304 -0.111621,-0.130224 -0.169498,-0.316259 -0.05581,-0.186035 -0.05581,-0.425814 0,-0.276985 0.06821,-0.477489 0.07028,-0.202572 0.194303,-0.334863 0.124023,-0.132292 0.293522,-0.196371 0.169499,-0.06408 0.37207,-0.06408 0.08268,0 0.16123,0.01447 0.08062,0.01447 0.148828,0.03927 0.07028,0.02481 0.124024,0.05581 0.05581,0.03101 0.07855,0.05374 0.02274,0.02274 0.03101,0.03927 0.01033,0.01447 0.01447,0.03927 0.0062,0.02481 0.0083,0.06201 0.0041,0.03514 0.0041,0.08682 0,0.119889 -0.02067,0.169499 -0.02067,0.04754 -0.05374,0.04754 -0.03514,0 -0.07441,-0.02894 -0.03927,-0.02894 -0.09302,-0.06408 -0.05374,-0.03514 -0.128158,-0.06408 -0.07441,-0.02894 -0.177766,-0.02894 -0.202572,0 -0.310059,0.157096 -0.107487,0.155029 -0.107487,0.456819 0,0.148828 0.02687,0.262516 0.02687,0.113688 0.07855,0.19017 0.05374,0.07648 0.132292,0.115755 0.08061,0.03721 0.186035,0.03721 0.107487,0 0.183968,-0.03101 0.07855,-0.03307 0.136425,-0.07235 0.05788,-0.03927 0.09715,-0.07028 0.03927,-0.03307 0.06615,-0.03307 0.0186,0 0.03101,0.01033 0.0124,0.01034 0.0186,0.03927 0.0083,0.02687 0.0124,0.07028 0.0041,0.04341 0.0041,0.111621 z"
                    id="path11382"/>
            <path
                    d="m 13.923821,45.266633 q 0,0.09095 -0.0124,0.14056 -0.01034,0.04754 -0.02894,0.06821 -0.0186,0.0186 -0.05581,0.03514 -0.03514,0.01447 -0.08475,0.02481 -0.04754,0.0124 -0.10542,0.0186 -0.05581,0.0062 -0.113688,0.0062 -0.155029,0 -0.268717,-0.03927 -0.113688,-0.03927 -0.188102,-0.119889 -0.07441,-0.08268 -0.109554,-0.206706 -0.03514,-0.124023 -0.03514,-0.293522 V 43.95612 h -0.221175 q -0.03927,0 -0.05994,-0.04754 -0.02067,-0.04961 -0.02067,-0.163298 0,-0.05994 0.0041,-0.101285 0.0062,-0.04134 0.01654,-0.06408 0.01033,-0.02481 0.0248,-0.03514 0.01654,-0.01033 0.03721,-0.01033 h 0.219108 v -0.411344 q 0,-0.02067 0.01034,-0.03721 0.0124,-0.01654 0.04134,-0.02687 0.03101,-0.0124 0.08062,-0.01654 0.05168,-0.0062 0.12609,-0.0062 0.07648,0 0.12609,0.0062 0.05168,0.0041 0.08062,0.01654 0.02894,0.01033 0.04134,0.02687 0.0124,0.01654 0.0124,0.03721 v 0.411344 h 0.401009 q 0.02067,0 0.03514,0.01033 0.01654,0.01033 0.02687,0.03514 0.01034,0.02274 0.01447,0.06408 0.0062,0.04134 0.0062,0.101285 0,0.113688 -0.02067,0.163298 -0.02067,0.04754 -0.05994,0.04754 H 13.44013 v 0.866096 q 0,0.150895 0.04754,0.227376 0.04754,0.07441 0.169499,0.07441 0.04134,0 0.07441,-0.0062 0.03307,-0.0083 0.05788,-0.01654 0.02687,-0.01034 0.04341,-0.01654 0.0186,-0.0083 0.03307,-0.0083 0.0124,0 0.02274,0.0083 0.0124,0.0062 0.0186,0.02894 0.0062,0.02067 0.01033,0.05788 0.0062,0.03721 0.0062,0.09508 z"
                    id="path11384"/>
        </g>
        <g
                aria-label="vel"
                id="text11304"
                style="font-weight:bold;font-size:4.23333px;font-family:Calibri;-inkscape-font-specification:'Calibri Bold';text-align:center;text-anchor:middle;display:inline;fill:#ffffff;stroke:#000000;stroke-width:0.2;stroke-linecap:square;stroke-linejoin:bevel"
                inkscape:label="velocity">
            <path
                    d="m 51.074171,43.605755 q 0,0.01033 -0.0021,0.02481 0,0.01447 -0.0041,0.03307 -0.0021,0.01654 -0.0083,0.03928 -0.0041,0.02274 -0.0124,0.05168 l -0.553971,1.668114 q -0.01033,0.03514 -0.02894,0.05788 -0.01654,0.02067 -0.05788,0.03307 -0.03927,0.0124 -0.109554,0.01654 -0.06821,0.0041 -0.179834,0.0041 -0.109554,0 -0.179834,-0.0062 -0.06821,-0.0041 -0.107486,-0.01654 -0.03928,-0.0124 -0.05788,-0.03307 -0.01654,-0.02274 -0.02687,-0.05581 l -0.553971,-1.668114 q -0.0124,-0.04134 -0.02067,-0.07441 -0.0062,-0.03307 -0.0083,-0.04754 0,-0.01447 0,-0.02687 0,-0.02067 0.01033,-0.03514 0.0124,-0.01654 0.04134,-0.02687 0.02894,-0.01033 0.07855,-0.01447 0.05168,-0.0041 0.128158,-0.0041 0.08475,0 0.136425,0.0062 0.05168,0.0041 0.08061,0.01447 0.03101,0.0083 0.04341,0.02687 0.0124,0.01654 0.02067,0.04134 l 0.419612,1.353922 0.0124,0.05168 0.0124,-0.05168 0.413411,-1.353922 q 0.0062,-0.02481 0.0186,-0.04134 0.01447,-0.0186 0.04341,-0.02687 0.02894,-0.01034 0.07648,-0.01447 0.04961,-0.0062 0.128157,-0.0062 0.07648,0 0.124024,0.0041 0.04961,0.0041 0.07648,0.01447 0.02687,0.01034 0.03721,0.02687 0.01033,0.01447 0.01033,0.03514 z"
                    id="path11387"/>
            <path
                    d="m 53.044075,44.475985 q 0,0.09508 -0.04341,0.14056 -0.04134,0.04547 -0.115755,0.04547 H 51.7625 q 0,0.117822 0.02687,0.214974 0.02894,0.09508 0.08888,0.163297 0.06201,0.06615 0.157096,0.101286 0.09715,0.03514 0.23151,0.03514 0.136426,0 0.239778,-0.0186 0.103353,-0.02067 0.177767,-0.04341 0.07648,-0.0248 0.126091,-0.04341 0.04961,-0.02067 0.08061,-0.02067 0.0186,0 0.03101,0.0083 0.0124,0.0062 0.02067,0.02481 0.0083,0.0186 0.01034,0.05374 0.0041,0.03307 0.0041,0.08475 0,0.04548 -0.0021,0.07855 -0.0021,0.03101 -0.0062,0.05374 -0.0041,0.02274 -0.0124,0.03927 -0.0083,0.01447 -0.02274,0.02894 -0.0124,0.01447 -0.07235,0.03927 -0.05994,0.0248 -0.152962,0.04961 -0.09302,0.02274 -0.212906,0.03927 -0.11989,0.0186 -0.256315,0.0186 -0.24598,0 -0.432015,-0.06201 -0.183968,-0.06201 -0.307991,-0.188102 -0.124023,-0.12609 -0.186035,-0.318327 -0.05994,-0.192236 -0.05994,-0.450618 0,-0.245979 0.06408,-0.44235 0.06408,-0.198437 0.186035,-0.334863 0.121956,-0.138492 0.295589,-0.210839 0.1757,-0.07235 0.394808,-0.07235 0.23151,0 0.394807,0.06821 0.165365,0.06821 0.270784,0.190169 0.10542,0.119889 0.15503,0.285253 0.04961,0.165365 0.04961,0.359668 z m -0.504362,-0.148828 q 0.0062,-0.219108 -0.08888,-0.343131 -0.09302,-0.12609 -0.289388,-0.12609 -0.09922,0 -0.173632,0.03721 -0.07235,0.03721 -0.121957,0.101285 -0.04754,0.06201 -0.07441,0.148828 -0.0248,0.08475 -0.02894,0.181901 z"
                    id="path11389"/>
            <path
                    d="m 53.992854,45.451636 q 0,0.02067 -0.0124,0.03721 -0.0124,0.01447 -0.04341,0.0248 -0.02894,0.01033 -0.07855,0.01447 -0.04961,0.0062 -0.12609,0.0062 -0.07648,0 -0.126091,-0.0062 -0.04961,-0.0041 -0.08061,-0.01447 -0.02894,-0.01033 -0.04134,-0.0248 -0.0124,-0.01654 -0.0124,-0.03721 v -2.718179 q 0,-0.02067 0.0124,-0.03721 0.0124,-0.01654 0.04134,-0.02687 0.03101,-0.0124 0.08061,-0.0186 0.04961,-0.0062 0.126091,-0.0062 0.07648,0 0.12609,0.0062 0.04961,0.0062 0.07855,0.0186 0.03101,0.01033 0.04341,0.02687 0.0124,0.01654 0.0124,0.03721 z"
                    id="path11391"/>
        </g>
    </g>
    <g
            id="components">
        <circle
                style="fill:#0000ff"
                id="Knob1"
                cx="6.4445949"
                cy="84.750008"
                r="1.8404053"/>
        <circle
                style="fill:#0000ff"
                id="Knob2"
                cx="22.118723"
                cy="84.750008"
                r="1.8404053"/>
        <circle
                style="fill:#0000ff"
                id="Knob3"
                cx="38.767872"
                cy="84.750008"
                r="1.8404053"
                inkscape:label="Knob3"/>
        <circle
                style="fill:#0000ff"
                id="Knob4"
                cx="56.030121"
                cy="84.750008"
                r="1.8404053"
                inkscape:label="Knob4"/>
        <circle
                style="fill:#0000ff"
                id="Knob5"
                cx="6.4445949"
                cy="97.364426"
                r="1.8404053"
                inkscape:label="Knob5"/>
        <circle
                style="fill:#0000ff"
                id="Knob6"
                cx="22.118723"
                cy="97.364426"
                r="1.8404053"
                inkscape:label="Knob6"/>
        <circle
                style="fill:#0000ff"
                id="Knob7"
                cx="38.767872"
                cy="97.364426"
                r="1.8404053"
                inkscape:label="Knob7"/>
        <circle
                style="fill:#0000ff"
                id="Knob8"
                cx="55.427715"
                cy="97.364426"
                r="1.8404053"
                inkscape:label="Knob8"/>
        <circle
                style="fill:#0000ff"
                id="Slider1"
                cx="6.4445949"
                cy="115.84241"
                r="1.8404053"
                inkscape:label="Slider1"/>
        <circle
                style="fill:#0000ff"
                id="Slider2"
                cx="22.118723"
                cy="115.84241"
                r="1.8404053"
                inkscape:label="Slider2"/>
        <circle
                style="fill:#0000ff"
                id="Slider3"
                cx="38.767872"
                cy="115.84241"
                r="1.8404053"
                inkscape:label="Slider3"/>
        <circle
                style="fill:#0000ff"
                id="Slider4"
                cx="55.72892"
                cy="115.84241"
                r="1.8404053"
                inkscape:label="Slider4"/>
        <circle
                style="fill:#0000ff"
                id="Bend"
                cx="18.282406"
                cy="66.756393"
                r="1.8404053"
                inkscape:label="Bend"/>
        <circle
                style="fill:#0000ff"
                id="Mod"
                cx="41.677406"
                cy="66.756393"
                r="1.8404053"
                inkscape:label="Mod"/>
        <circle
                style="fill:#0000ff"
                id="Note"
                cx="9.3824997"
                cy="51.64539"
                r="1.8404053"
                inkscape:label="Note"/>
        <circle
                style="fill:#0000ff"
                id="Gate"
                cx="30.480001"
                cy="51.64539"
                r="1.8404053"
                inkscape:label="Gate"/>
        <circle
                style="fill:#0000ff"
                id="Velocity"
                cx="51.577499"
                cy="51.64539"
                r="1.8404053"
                inkscape:label="Velocity"/>
    </g>
</svg>
