<?xml version="1.0" encoding="UTF-8" standalone="no"?>
<!-- Created with Inkscape (http://www.inkscape.org/) -->

<svg
        xmlns:inkscape="http://www.inkscape.org/namespaces/inkscape"
        xmlns:sodipodi="http://sodipodi.sourceforge.net/DTD/sodipodi-0.dtd"
        width="60.959999mm"
        height="128.5mm"
        viewBox="0 0 60.959999 128.5"
        version="1.1"
        id="svg3066"
        inkscape:version="1.2.2 (732a01da63, 2022-12-09)"
        sodipodi:docname="MiniLab3.svg"
        xmlns="http://www.w3.org/2000/svg"
>
    <sodipodi:namedview
            id="namedview3068"
            pagecolor="#4c4c4c"
            bordercolor="#000000"
            borderopacity="0.25"
            inkscape:showpageshadow="2"
            inkscape:pageopacity="0"
            inkscape:pagecheckerboard="0"
            inkscape:deskcolor="#d1d1d1"
            inkscape:document-units="mm"
            showgrid="false"
            inkscape:zoom="1.2938725"
            inkscape:cx="42.121616"
            inkscape:cy="260.45843"
            inkscape:window-width="2560"
            inkscape:window-height="1369"
            inkscape:window-x="-8"
            inkscape:window-y="-8"
            inkscape:window-maximized="1"
            inkscape:current-layer="components"/>
    <defs
            id="defs3063">
        <inkscape:path-effect
                effect="fillet_chamfer"
                id="path-effect6506"
                is_visible="true"
                lpeversion="1"
                nodesatellites_param="F,0,0,1,0,2.1166667,0,1 @ F,0,0,1,0,2.1166667,0,1 @ F,0,0,1,0,2.1166667,0,1 @ F,0,0,1,0,2.1166667,0,1"
                unit="px"
                method="auto"
                mode="F"
                radius="8"
                chamfer_steps="1"
                flexible="false"
                use_knot_distance="true"
                apply_no_radius="true"
                apply_with_radius="true"
                only_selected="false"
                hide_knots="false"/>
        <rect
                x="-51.782536"
                y="469.13434"
                width="344.70166"
                height="71.104378"
                id="rect6338"/>
        <inkscape:path-effect
                effect="fillet_chamfer"
                id="path-effect6506-3"
                is_visible="true"
                lpeversion="1"
                nodesatellites_param="F,0,0,1,0,2.1166667,0,1 @ F,0,0,1,0,2.1166667,0,1 @ F,0,0,1,0,2.1166667,0,1 @ F,0,0,1,0,2.1166667,0,1"
                unit="px"
                method="auto"
                mode="F"
                radius="8"
                chamfer_steps="1"
                flexible="false"
                use_knot_distance="true"
                apply_no_radius="true"
                apply_with_radius="true"
                only_selected="false"
                hide_knots="false"/>
        <inkscape:path-effect
                effect="fillet_chamfer"
                id="path-effect6506-9"
                is_visible="true"
                lpeversion="1"
                nodesatellites_param="F,0,0,1,0,2.1166667,0,1 @ F,0,0,1,0,2.1166667,0,1 @ F,0,0,1,0,2.1166667,0,1 @ F,0,0,1,0,2.1166667,0,1"
                unit="px"
                method="auto"
                mode="F"
                radius="8"
                chamfer_steps="1"
                flexible="false"
                use_knot_distance="true"
                apply_no_radius="true"
                apply_with_radius="true"
                only_selected="false"
                hide_knots="false"/>
    </defs>
    <g
            inkscape:groupmode="layer"
            id="layer3"
            inkscape:label="design">
        <rect
                style="fill:#00002a;fill-opacity:0.18032783;stroke:#000000;stroke-width:0.199517;stroke-linecap:square;stroke-linejoin:round"
                id="rect6604"
                width="60.760483"
                height="128.30048"
                x="0.099758692"
                y="0.099758692"
                inkscape:label="bg"/>
        <path
                style="fill:#000000;fill-opacity:1;stroke:#000000;stroke-width:0.197253;stroke-linecap:square;stroke-linejoin:round"
                id="rect6502"
                width="59.104752"
                height="9.6182928"
                x="1.0188046"
                y="53.947258"
                inkscape:path-effect="#path-effect6506"
                d="m 3.1354713,53.947258 54.8714177,0 a 2.1166667,2.1166667 45 0 1 2.116667,2.116667 l 0,5.384959 a 2.1166667,2.1166667 135 0 1 -2.116667,2.116667 H 3.1354713 A 2.1166667,2.1166667 45 0 1 1.0188046,61.448884 v -5.384959 a 2.1166667,2.1166667 135 0 1 2.1166667,-2.116667 z"
                sodipodi:type="rect"
                inkscape:label="params"/>
        <path
                style="fill:#000000;fill-opacity:1;stroke:#000000;stroke-width:0.197253;stroke-linecap:square;stroke-linejoin:round"
                id="rect6502-4"
                width="59.104752"
                height="9.6182928"
                x="1.0188046"
                y="111.03326"
                inkscape:path-effect="#path-effect6506-9"
                d="M 3.1354713,111.03326 H 58.006889 a 2.1166667,2.1166667 45 0 1 2.116667,2.11666 l 0,5.38496 a 2.1166667,2.1166667 135 0 1 -2.116667,2.11667 H 3.1354713 a 2.1166667,2.1166667 45 0 1 -2.1166667,-2.11667 v -5.38496 a 2.1166667,2.1166667 135 0 1 2.1166667,-2.11666 z"
                sodipodi:type="rect"
                inkscape:label="sliders"/>
        <path
                style="fill:#000000;fill-opacity:1;stroke:#000000;stroke-width:0.197253;stroke-linecap:square;stroke-linejoin:round"
                id="rect6502-0"
                width="59.024551"
                height="21.63929"
                x="1.0589006"
                y="76.343315"
                inkscape:path-effect="#path-effect6506-3"
                d="M 3.1755673,76.343315 H 57.966785 a 2.1166667,2.1166667 45 0 1 2.116667,2.116667 l 0,17.405956 a 2.1166667,2.1166667 135 0 1 -2.116667,2.116667 H 3.1755673 A 2.1166667,2.1166667 45 0 1 1.0589006,95.865938 V 78.459982 a 2.1166667,2.1166667 135 0 1 2.1166667,-2.116667 z"
                sodipodi:type="rect"
                inkscape:label="knobs"/>
    </g>
    <g
            inkscape:groupmode="layer"
            id="layer2"
            inkscape:label="text"
            style="display:inline">
        <text
                xml:space="preserve"
                style="font-weight:bold;font-size:8.46667px;font-family:Calibri;-inkscape-font-specification:'Calibri Bold';text-align:center;text-anchor:middle;fill:#ffffff;fill-opacity:1;stroke:#000000;stroke-width:0.2;stroke-linecap:square;stroke-linejoin:bevel"
                x="30.370445"
                y="11.451411"
                id="text6178"
                inkscape:label="title"><tspan
         sodipodi:role="line"
         id="tspan6176"
         style="font-size:8.46667px;fill:#ffffff;fill-opacity:1;stroke-width:0.2"
         x="30.370445"
         y="11.451411">Minilab3</tspan></text>
        <text
                xml:space="preserve"
                style="font-weight:bold;font-size:6.35px;font-family:Calibri;-inkscape-font-specification:'Calibri Bold';text-align:center;text-anchor:middle;fill:#ffffff;fill-opacity:1;stroke:#000000;stroke-width:0.2;stroke-linecap:square;stroke-linejoin:bevel"
                x="11.341857"
                y="73.523994"
                id="text6178-0"
                inkscape:label="knobs"><tspan
         sodipodi:role="line"
         id="tspan6176-4"
         style="font-size:6.35px;fill:#ffffff;fill-opacity:1;stroke-width:0.2"
         x="11.341857"
         y="73.523994">knobs</tspan></text>
        <text
                xml:space="preserve"
                style="font-weight:bold;font-size:4.23333px;font-family:Calibri;-inkscape-font-specification:'Calibri Bold';text-align:center;text-anchor:middle;fill:#ffffff;fill-opacity:1;stroke:#000000;stroke-width:0.2;stroke-linecap:square;stroke-linejoin:bevel"
                x="55.523476"
                y="52.632915"
                id="text6178-0-7"
                inkscape:label="velocity"><tspan
         sodipodi:role="line"
         id="tspan6176-4-9"
         style="font-size:4.23333px;fill:#ffffff;fill-opacity:1;stroke-width:0.2"
         x="55.523476"
         y="52.632915">vel</tspan></text>
        <text
                xml:space="preserve"
                style="font-weight:bold;font-size:4.23333px;font-family:Calibri;-inkscape-font-specification:'Calibri Bold';text-align:center;text-anchor:middle;fill:#ffffff;fill-opacity:1;stroke:#000000;stroke-width:0.2;stroke-linecap:square;stroke-linejoin:bevel"
                x="5.9164615"
                y="52.632915"
                id="text6178-0-7-3"
                inkscape:label="bend"><tspan
         sodipodi:role="line"
         id="tspan6176-4-9-2"
         style="font-size:4.23333px;fill:#ffffff;fill-opacity:1;stroke-width:0.2"
         x="5.9164615"
         y="52.632915">bend</tspan></text>
        <text
                xml:space="preserve"
                style="font-weight:bold;font-size:4.23333px;font-family:Calibri;-inkscape-font-specification:'Calibri Bold';text-align:center;text-anchor:middle;fill:#ffffff;fill-opacity:1;stroke:#000000;stroke-width:0.2;stroke-linecap:square;stroke-linejoin:bevel"
                x="22.119757"
                y="52.629814"
                id="text6178-0-7-3-3"
                inkscape:label="mod"><tspan
         sodipodi:role="line"
         id="tspan6176-4-9-2-5"
         style="font-size:4.23333px;fill:#ffffff;fill-opacity:1;stroke-width:0.2"
         x="22.119757"
         y="52.629814">mod</tspan></text>
        <text
                xml:space="preserve"
                style="font-weight:bold;font-size:4.23333px;font-family:Calibri;-inkscape-font-specification:'Calibri Bold';text-align:center;text-anchor:middle;fill:#ffffff;fill-opacity:1;stroke:#000000;stroke-width:0.2;stroke-linecap:square;stroke-linejoin:bevel"
                x="38.803013"
                y="52.441711"
                id="text6178-0-7-7"
                inkscape:label="v/oct"><tspan
         sodipodi:role="line"
         id="tspan6176-4-9-7"
         style="font-size:4.23333px;fill:#ffffff;fill-opacity:1;stroke-width:0.2"
         x="38.803013"
         y="52.441711">v/oct</tspan></text>
        <text
                xml:space="preserve"
                style="font-weight:bold;font-size:6.35px;font-family:Calibri;-inkscape-font-specification:'Calibri Bold';text-align:center;text-anchor:middle;fill:#ffffff;fill-opacity:1;stroke:#000000;stroke-width:0.2;stroke-linecap:square;stroke-linejoin:bevel"
                x="50.206749"
                y="108.19324"
                id="text6178-0-8"
                inkscape:label="sliders"><tspan
         sodipodi:role="line"
         id="tspan6176-4-2"
         style="font-size:6.35px;fill:#ffffff;fill-opacity:1;stroke-width:0.2"
         x="50.206749"
         y="108.19324">sliders</tspan></text>
    </g>
    <g
            inkscape:groupmode="layer"
            id="g8621"
            inkscape:label="text copy"
            style="display:inline">
        <g
                aria-label="Minilab3"
                id="text8595"
                style="font-weight:bold;font-size:8.46667px;font-family:Calibri;-inkscape-font-specification:'Calibri Bold';text-align:center;text-anchor:middle;fill:#ffffff;stroke:#000000;stroke-width:0.2;stroke-linecap:square;stroke-linejoin:bevel"
                inkscape:label="title">
            <path
                    d="m 21.589582,11.302583 q 0,0.04134 -0.0248,0.07441 -0.02067,0.03307 -0.08268,0.05374 -0.05788,0.02067 -0.157096,0.03307 -0.09922,0.0124 -0.252181,0.0124 -0.148828,0 -0.248047,-0.0124 -0.09922,-0.0124 -0.157097,-0.03307 -0.05788,-0.02067 -0.08268,-0.05374 -0.02481,-0.03307 -0.02481,-0.07441 V 6.9493587 h -0.0083 l -1.550293,4.3490903 q -0.01654,0.05374 -0.05374,0.09095 -0.03721,0.03307 -0.103353,0.05374 -0.06201,0.02067 -0.16123,0.02481 -0.09922,0.0083 -0.239779,0.0083 -0.14056,0 -0.239779,-0.0124 -0.09922,-0.0083 -0.165364,-0.02894 -0.06201,-0.02481 -0.09922,-0.05788 -0.03721,-0.03307 -0.04961,-0.07855 l -1.49655,-4.3490903 h -0.0083 v 4.3532243 q 0,0.04134 -0.02481,0.07441 -0.02067,0.03307 -0.08268,0.05374 -0.06201,0.02067 -0.161231,0.03307 -0.09508,0.0124 -0.248046,0.0124 -0.148829,0 -0.248047,-0.0124 -0.09922,-0.0124 -0.161231,-0.03307 -0.05788,-0.02067 -0.08268,-0.05374 -0.02067,-0.03307 -0.02067,-0.07441 V 6.5359471 q 0,-0.21084 0.111621,-0.3224611 0.111621,-0.1116212 0.297657,-0.1116212 h 0.711068 q 0.190169,0 0.326595,0.033073 0.136426,0.028939 0.235644,0.1033529 0.09922,0.07028 0.165365,0.1901693 0.06615,0.1157553 0.115755,0.2893882 l 1.157553,3.1874036 h 0.01654 l 1.198894,-3.1791354 q 0.05374,-0.1736329 0.115755,-0.2935223 0.06615,-0.1198893 0.148828,-0.1943034 0.08682,-0.074414 0.202572,-0.1033529 0.115755,-0.033073 0.268718,-0.033073 h 0.731738 q 0.111621,0 0.19017,0.028939 0.08268,0.028939 0.132291,0.086816 0.05374,0.053743 0.07855,0.1364258 0.02894,0.078548 0.02894,0.1819012 z"
                    id="path8623"/>
            <path
                    d="m 23.735189,11.310851 q 0,0.04134 -0.0248,0.07441 -0.0248,0.02894 -0.08682,0.04961 -0.05788,0.02067 -0.157097,0.02894 -0.09922,0.0124 -0.252181,0.0124 -0.152962,0 -0.252181,-0.0124 -0.09922,-0.0083 -0.16123,-0.02894 -0.05788,-0.02067 -0.08268,-0.04961 -0.0248,-0.03307 -0.0248,-0.07441 V 7.6314879 q 0,-0.041341 0.0248,-0.07028 0.02481,-0.033073 0.08268,-0.053744 0.06201,-0.024805 0.16123,-0.037207 0.09922,-0.012402 0.252181,-0.012402 0.152963,0 0.252181,0.012402 0.09922,0.012402 0.157097,0.037207 0.06201,0.020671 0.08682,0.053744 0.0248,0.028939 0.0248,0.07028 z m 0.07855,-4.9361345 q 0,0.3141929 -0.128157,0.4340822 -0.128158,0.1198894 -0.475424,0.1198894 -0.3514,0 -0.475423,-0.1157553 -0.11989,-0.1157552 -0.11989,-0.4175457 0,-0.3141928 0.124024,-0.4340822 0.128158,-0.1240235 0.479557,-0.1240235 0.347266,0 0.47129,0.1198894 0.124023,0.1157552 0.124023,0.4175457 z"
                    id="path8625"/>
            <path
                    d="m 28.295119,11.310851 q 0,0.04134 -0.02481,0.07441 -0.02481,0.02894 -0.08268,0.04961 -0.05788,0.02067 -0.161231,0.02894 -0.09922,0.0124 -0.248047,0.0124 -0.152962,0 -0.256315,-0.0124 -0.09922,-0.0083 -0.157096,-0.02894 -0.05788,-0.02067 -0.08268,-0.04961 -0.0248,-0.03307 -0.0248,-0.07441 V 9.2065861 q 0,-0.2687175 -0.04134,-0.4216798 Q 27.178907,8.631944 27.104493,8.524457 27.030079,8.4128358 26.91019,8.3549582 q -0.115755,-0.062012 -0.272852,-0.062012 -0.198437,0 -0.401009,0.1446941 -0.202572,0.1446941 -0.42168,0.4216799 v 2.4515306 q 0,0.04134 -0.02481,0.07441 -0.0248,0.02894 -0.08682,0.04961 -0.05788,0.02067 -0.157096,0.02894 -0.09922,0.0124 -0.252182,0.0124 -0.152962,0 -0.252181,-0.0124 -0.09922,-0.0083 -0.16123,-0.02894 -0.05788,-0.02067 -0.08268,-0.04961 -0.0248,-0.03307 -0.0248,-0.07441 V 7.6232196 q 0,-0.041341 0.02067,-0.07028 0.02067,-0.033073 0.07441,-0.053744 0.05374,-0.02067 0.136426,-0.028939 0.08682,-0.012402 0.214974,-0.012402 0.132292,0 0.219109,0.012402 0.08682,0.00827 0.132291,0.028939 0.04961,0.020671 0.07028,0.053744 0.02067,0.028939 0.02067,0.07028 v 0.425814 q 0.305924,-0.3307293 0.620117,-0.496094 0.318327,-0.1653646 0.661459,-0.1653646 0.376204,0 0.63252,0.1240235 0.260449,0.1240235 0.417545,0.3389975 0.161231,0.2108399 0.231511,0.496094 0.07028,0.285254 0.07028,0.6862633 z"
                    id="path8627"/>
            <path
                    d="m 30.358043,11.310851 q 0,0.04134 -0.0248,0.07441 -0.0248,0.02894 -0.08682,0.04961 -0.05788,0.02067 -0.157096,0.02894 -0.09922,0.0124 -0.252181,0.0124 -0.152963,0 -0.252182,-0.0124 -0.09922,-0.0083 -0.16123,-0.02894 -0.05788,-0.02067 -0.08268,-0.04961 -0.02481,-0.03307 -0.02481,-0.07441 V 7.6314879 q 0,-0.041341 0.02481,-0.07028 0.0248,-0.033073 0.08268,-0.053744 0.06201,-0.024805 0.16123,-0.037207 0.09922,-0.012402 0.252182,-0.012402 0.152962,0 0.252181,0.012402 0.09922,0.012402 0.157096,0.037207 0.06201,0.020671 0.08682,0.053744 0.0248,0.028939 0.0248,0.07028 z m 0.07855,-4.9361345 q 0,0.3141929 -0.128157,0.4340822 -0.128158,0.1198894 -0.475424,0.1198894 -0.351399,0 -0.475423,-0.1157553 -0.119889,-0.1157552 -0.119889,-0.4175457 0,-0.3141928 0.124023,-0.4340822 0.128158,-0.1240235 0.479558,-0.1240235 0.347265,0 0.471289,0.1198894 0.124023,0.1157552 0.124023,0.4175457 z"
                    id="path8629"/>
            <path
                    d="m 32.437503,11.310851 q 0,0.04134 -0.0248,0.07441 -0.02481,0.02894 -0.08682,0.04961 -0.05788,0.02067 -0.157096,0.02894 -0.09922,0.0124 -0.252181,0.0124 -0.152963,0 -0.252181,-0.0124 -0.09922,-0.0083 -0.161231,-0.02894 -0.05788,-0.02067 -0.08268,-0.04961 -0.02481,-0.03307 -0.02481,-0.07441 V 5.8744885 q 0,-0.041341 0.02481,-0.074414 0.0248,-0.033073 0.08268,-0.053743 0.06201,-0.024805 0.161231,-0.037207 0.09922,-0.012402 0.252181,-0.012402 0.152962,0 0.252181,0.012402 0.09922,0.012402 0.157096,0.037207 0.06201,0.02067 0.08682,0.053743 0.0248,0.033073 0.0248,0.074414 z"
                    id="path8631"/>
            <path
                    d="m 36.617095,11.323254 q 0,0.05788 -0.04134,0.09095 -0.04134,0.03307 -0.132291,0.04547 -0.08682,0.01654 -0.26045,0.01654 -0.186035,0 -0.272851,-0.01654 -0.08268,-0.0124 -0.11989,-0.04547 -0.03307,-0.03307 -0.03307,-0.09095 v -0.293523 q -0.227376,0.243913 -0.520898,0.380339 -0.289388,0.136426 -0.644922,0.136426 -0.293523,0 -0.54157,-0.07855 -0.243913,-0.07441 -0.425814,-0.223243 -0.177767,-0.152962 -0.276985,-0.376204 -0.09922,-0.223242 -0.09922,-0.520899 0,-0.322461 0.124023,-0.5581055 0.128158,-0.2397787 0.376205,-0.392741 0.252181,-0.1570964 0.624251,-0.2315105 0.372071,-0.074414 0.864031,-0.074414 h 0.359668 V 8.8675886 q 0,-0.1736329 -0.03721,-0.3017905 -0.03307,-0.1322917 -0.115756,-0.2191081 -0.07855,-0.086817 -0.214974,-0.1281576 -0.132291,-0.041341 -0.330729,-0.041341 -0.260449,0 -0.467155,0.057878 -0.202572,0.057878 -0.359668,0.1281576 -0.157097,0.07028 -0.264584,0.1281576 -0.103352,0.057878 -0.169498,0.057878 -0.04548,0 -0.08268,-0.028939 -0.03307,-0.028939 -0.05788,-0.082682 -0.02067,-0.053744 -0.03307,-0.1322917 -0.0124,-0.078548 -0.0124,-0.1736329 0,-0.1281576 0.02067,-0.2025717 0.02067,-0.074414 0.07855,-0.1322917 0.05788,-0.062012 0.202572,-0.1322917 0.144694,-0.074414 0.338997,-0.1364259 0.194304,-0.062012 0.42168,-0.099219 0.231511,-0.041341 0.475424,-0.041341 0.434082,0 0.740007,0.086816 0.310058,0.082682 0.508496,0.2604494 0.198437,0.1736328 0.289388,0.4506186 0.09095,0.2769858 0.09095,0.6573245 z M 35.595968,9.7440212 h -0.396875 q -0.252181,0 -0.429948,0.037207 -0.177767,0.037207 -0.289389,0.1116211 -0.111621,0.074414 -0.165364,0.1819016 -0.04961,0.103352 -0.04961,0.239778 0,0.231511 0.144694,0.363803 0.148829,0.132291 0.409278,0.132291 0.219108,0 0.401009,-0.111621 0.186035,-0.111621 0.376205,-0.326595 z"
                    id="path8633"/>
            <path
                    d="m 41.367195,9.4174261 q 0,0.4919598 -0.107487,0.8847009 -0.107487,0.392741 -0.310059,0.669727 -0.202572,0.276986 -0.500228,0.425814 -0.293522,0.148828 -0.669727,0.148828 -0.186035,0 -0.347266,-0.03721 -0.16123,-0.03307 -0.310058,-0.111621 -0.144695,-0.07855 -0.289389,-0.198438 -0.14056,-0.119889 -0.289388,-0.289388 v 0.401009 q 0,0.04548 -0.0248,0.07855 -0.02067,0.02894 -0.07441,0.04961 -0.04961,0.02067 -0.136426,0.02894 -0.08682,0.0083 -0.21084,0.0083 -0.128158,0 -0.214974,-0.0083 -0.08268,-0.0083 -0.136426,-0.02894 -0.04961,-0.02067 -0.07028,-0.04961 -0.02067,-0.03307 -0.02067,-0.07855 V 5.8744885 q 0,-0.041341 0.02481,-0.074414 0.02481,-0.033073 0.08268,-0.053743 0.06201,-0.024805 0.161231,-0.037207 0.09922,-0.012402 0.252181,-0.012402 0.152962,0 0.252181,0.012402 0.09922,0.012402 0.157096,0.037207 0.06201,0.02067 0.08682,0.053743 0.02481,0.033073 0.02481,0.074414 v 2.0381193 q 0.14056,-0.14056 0.281119,-0.2397788 0.14056,-0.099219 0.28112,-0.1612305 0.14056,-0.066146 0.289389,-0.095085 0.148828,-0.028939 0.314192,-0.028939 0.409278,0 0.694532,0.1653646 0.285254,0.1612306 0.463021,0.4382164 0.181901,0.2769858 0.264583,0.6490562 0.08268,0.3679364 0.08268,0.7772139 z m -1.079005,0.074414 q 0,-0.2356447 -0.03721,-0.4547528 Q 40.21791,8.8179792 40.131094,8.6484804 40.044277,8.4789817 39.903718,8.3797629 39.767292,8.27641 39.556452,8.27641 q -0.103353,0 -0.202572,0.028939 -0.09922,0.028939 -0.206706,0.099219 -0.103353,0.07028 -0.214974,0.1819011 -0.111621,0.1116211 -0.235644,0.2769858 v 1.2236985 q 0.219108,0.28112 0.417545,0.429948 0.202572,0.144694 0.42168,0.144694 0.202572,0 0.343132,-0.103353 0.14056,-0.103353 0.23151,-0.268717 0.09509,-0.165365 0.136426,-0.376205 0.04134,-0.2108399 0.04134,-0.4216798 z"
                    id="path8635"/>
            <path
                    d="m 45.604664,9.8845812 q 0,0.4010088 -0.152962,0.7110678 -0.152962,0.310059 -0.425814,0.520899 -0.272852,0.21084 -0.65319,0.322461 -0.380339,0.107487 -0.830958,0.107487 -0.272852,0 -0.51263,-0.04134 -0.239779,-0.03721 -0.425814,-0.09509 -0.181901,-0.05788 -0.301791,-0.119889 -0.119889,-0.06201 -0.157096,-0.09509 -0.03721,-0.03307 -0.05788,-0.07441 -0.01654,-0.04134 -0.03307,-0.09509 -0.0124,-0.05788 -0.02067,-0.14056 -0.0041,-0.08682 -0.0041,-0.206705 0,-0.198438 0.03307,-0.272852 0.03307,-0.07855 0.09922,-0.07855 0.04134,0 0.14056,0.05788 0.103353,0.05374 0.26045,0.11989 0.157096,0.06201 0.367936,0.119889 0.21084,0.05374 0.479557,0.05374 0.227377,0 0.40101,-0.05374 0.173633,-0.05374 0.293522,-0.148828 0.124023,-0.09922 0.181901,-0.235645 0.06201,-0.14056 0.06201,-0.3100585 0,-0.1860353 -0.07441,-0.3348634 Q 44.203199,9.4463649 44.058505,9.343012 43.917945,9.2355249 43.698837,9.1776473 43.483863,9.1197697 43.19034,9.1197697 h -0.463021 q -0.05374,0 -0.09095,-0.012402 -0.03721,-0.016536 -0.06201,-0.062012 -0.02481,-0.045475 -0.03721,-0.1240235 -0.0083,-0.082682 -0.0083,-0.2108399 0,-0.1198894 0.0083,-0.1943035 0.0124,-0.078548 0.03307,-0.1198893 0.02481,-0.041341 0.05788,-0.057878 0.03721,-0.016536 0.08682,-0.016536 h 0.467155 q 0.239779,0 0.425814,-0.053743 0.186035,-0.057878 0.310059,-0.1612306 0.128157,-0.1033529 0.194303,-0.248047 0.06615,-0.1488281 0.06615,-0.3265951 0,-0.1364259 -0.04547,-0.2563152 -0.04548,-0.1240235 -0.136426,-0.21084 -0.08682,-0.09095 -0.227376,-0.1405599 -0.14056,-0.053743 -0.33073,-0.053743 -0.214974,0 -0.405143,0.066146 -0.190169,0.062012 -0.343132,0.14056 -0.148828,0.074414 -0.256315,0.1405599 -0.103353,0.066146 -0.152962,0.066146 -0.03307,0 -0.05788,-0.012402 -0.02481,-0.016536 -0.04134,-0.057878 -0.01654,-0.041341 -0.02481,-0.1198894 -0.0083,-0.078548 -0.0083,-0.2025717 0,-0.1033529 0.0041,-0.1694987 0.0041,-0.07028 0.01654,-0.1157553 0.0124,-0.045475 0.02894,-0.078548 0.02067,-0.033073 0.06201,-0.07028 0.04134,-0.041341 0.169499,-0.1198893 0.128158,-0.078548 0.322461,-0.1529623 0.194303,-0.074414 0.446485,-0.1240235 0.256315,-0.053744 0.553971,-0.053744 0.388607,0 0.686263,0.09095 0.301791,0.090951 0.504363,0.2645835 0.206705,0.1694987 0.310058,0.4216798 0.107487,0.248047 0.107487,0.5622398 0,0.2439129 -0.06201,0.4547528 -0.06201,0.2108399 -0.181902,0.3762046 -0.119889,0.1653646 -0.30179,0.2811199 -0.177767,0.1157553 -0.413412,0.1736329 v 0.012402 q 0.28112,0.033073 0.504363,0.1446941 0.223242,0.107487 0.376204,0.2728517 0.157097,0.1653646 0.239779,0.3762045 0.08268,0.2067059 0.08268,0.4464846 z"
                    id="path8637"/>
        </g>
        <g
                aria-label="knobs"
                id="text8599"
                style="font-weight:bold;font-size:6.35px;font-family:Calibri;-inkscape-font-specification:'Calibri Bold';text-align:center;text-anchor:middle;fill:#ffffff;stroke:#000000;stroke-width:0.2;stroke-linecap:square;stroke-linejoin:bevel"
                inkscape:label="knobs">
            <path
                    d="m 6.4134757,73.421675 q 0,0.03101 -0.018604,0.05581 -0.015503,0.0217 -0.062012,0.03721 -0.043408,0.0124 -0.1209228,0.0186 -0.077515,0.0093 -0.2015381,0.0093 -0.127124,0 -0.2077392,-0.0062 -0.077515,-0.0062 -0.1302246,-0.0186 -0.049609,-0.0155 -0.077515,-0.04031 -0.027905,-0.02481 -0.049609,-0.06511 l -0.920874,-1.457275 v 1.463477 q 0,0.031 -0.018604,0.05581 -0.018604,0.0217 -0.065112,0.03721 -0.043408,0.0155 -0.1178223,0.0217 -0.074414,0.0093 -0.1891357,0.0093 -0.1147217,0 -0.1891357,-0.0093 -0.074414,-0.0062 -0.1209229,-0.0217 -0.043408,-0.0155 -0.062012,-0.03721 Q 3.84309,73.44958 3.84309,73.418575 v -4.077271 q 0,-0.03101 0.018603,-0.05581 0.018604,-0.02481 0.062012,-0.04031 0.046509,-0.0186 0.1209229,-0.02791 0.074414,-0.0093 0.1891357,-0.0093 0.1147217,0 0.1891357,0.0093 0.074414,0.0093 0.1178223,0.02791 0.046509,0.0155 0.065112,0.04031 0.018604,0.0248 0.018604,0.05581 v 2.427759 l 0.8185547,-1.100708 q 0.024805,-0.03721 0.05581,-0.06511 0.031006,-0.02791 0.080615,-0.04341 0.05271,-0.0155 0.127124,-0.0217 0.077515,-0.0093 0.1953369,-0.0093 0.1147217,0 0.1922363,0.0093 0.080615,0.0062 0.1271241,0.0217 0.049609,0.0155 0.068213,0.04031 0.018604,0.0217 0.018604,0.05581 0,0.04651 -0.024805,0.09922 -0.021704,0.05271 -0.068213,0.111621 l -0.8092529,0.917774 0.9363769,1.447973 q 0.037207,0.06201 0.05271,0.108521 0.018604,0.04341 0.018604,0.08061 z"
                    id="path8640"/>
            <path
                    d="m 9.532665,73.418575 q 0,0.031 -0.018603,0.05581 -0.018604,0.0217 -0.062012,0.03721 -0.043408,0.0155 -0.1209228,0.0217 -0.074414,0.0093 -0.1860352,0.0093 -0.1147217,0 -0.1922363,-0.0093 -0.074414,-0.0062 -0.1178223,-0.0217 -0.043408,-0.0155 -0.062012,-0.03721 -0.018604,-0.02481 -0.018604,-0.05581 v -1.578199 q 0,-0.201538 -0.031006,-0.316259 -0.027905,-0.114722 -0.083716,-0.195337 -0.055811,-0.08372 -0.1457275,-0.127124 -0.086816,-0.04651 -0.2046387,-0.04651 -0.1488281,0 -0.3007568,0.10852 -0.1519287,0.108521 -0.3162598,0.31626 v 1.838648 q 0,0.031 -0.018603,0.05581 -0.018604,0.0217 -0.065112,0.03721 -0.043408,0.0155 -0.1178223,0.0217 -0.074414,0.0093 -0.1891357,0.0093 -0.1147217,0 -0.1891358,-0.0093 -0.074414,-0.0062 -0.1209228,-0.0217 -0.043408,-0.0155 -0.062012,-0.03721 -0.018603,-0.02481 -0.018603,-0.05581 v -2.765723 q 0,-0.03101 0.015503,-0.05271 0.015503,-0.02481 0.05581,-0.04031 0.040308,-0.0155 0.1023194,-0.0217 0.065112,-0.0093 0.1612304,-0.0093 0.099219,0 0.1643311,0.0093 0.065112,0.0062 0.099219,0.0217 0.037207,0.0155 0.05271,0.04031 0.015503,0.0217 0.015503,0.05271 v 0.31936 q 0.2294434,-0.248047 0.4650879,-0.37207 0.2387451,-0.124023 0.4960938,-0.124023 0.2821533,0 0.4743896,0.09302 0.1953369,0.09302 0.3131592,0.254248 0.1209228,0.15813 0.1736328,0.37207 0.05271,0.213941 0.05271,0.514698 z"
                    id="path8642"/>
            <path
                    d="m 13.095238,72.007808 q 0,0.353467 -0.09302,0.644922 -0.09302,0.291455 -0.282153,0.502295 -0.189136,0.21084 -0.47439,0.325561 -0.285253,0.114722 -0.666626,0.114722 -0.368969,0 -0.641821,-0.102319 -0.272851,-0.10232 -0.452685,-0.297657 -0.179834,-0.195337 -0.266651,-0.48059 -0.08682,-0.285254 -0.08682,-0.651124 0,-0.353466 0.09302,-0.644921 0.09612,-0.294556 0.285254,-0.502295 0.189136,-0.21084 0.471289,-0.325562 0.285254,-0.114721 0.666626,-0.114721 0.372071,0 0.644922,0.102319 0.272852,0.09922 0.449585,0.294556 0.179834,0.195336 0.266651,0.48059 0.08682,0.285254 0.08682,0.654224 z m -0.803052,0.03101 q 0,-0.204639 -0.03411,-0.375171 -0.03101,-0.173633 -0.108521,-0.300757 -0.07751,-0.127124 -0.207739,-0.198437 -0.127124,-0.07131 -0.322461,-0.07131 -0.173633,0 -0.303857,0.06511 -0.130225,0.06201 -0.213941,0.186036 -0.08372,0.120922 -0.127124,0.294555 -0.04031,0.170532 -0.04031,0.390674 0,0.204639 0.03411,0.378272 0.03411,0.170532 0.108521,0.297656 0.07751,0.127124 0.207739,0.198437 0.130224,0.06821 0.322461,0.06821 0.176733,0 0.306958,-0.06201 0.130224,-0.06511 0.21394,-0.186035 0.08372,-0.120923 0.124024,-0.291455 0.04031,-0.173633 0.04031,-0.393774 z"
                    id="path8644"/>
            <path
                    d="m 16.496582,71.998506 q 0,0.36897 -0.08062,0.663526 -0.08062,0.294555 -0.232544,0.502294 -0.151928,0.20774 -0.375171,0.319361 -0.220141,0.111621 -0.502294,0.111621 -0.139527,0 -0.26045,-0.02791 -0.120923,-0.02481 -0.232544,-0.08372 -0.10852,-0.05891 -0.217041,-0.148828 -0.10542,-0.08992 -0.217041,-0.217041 v 0.300757 q 0,0.03411 -0.0186,0.05891 -0.0155,0.0217 -0.05581,0.03721 -0.03721,0.0155 -0.102319,0.0217 -0.06511,0.0062 -0.15813,0.0062 -0.09612,0 -0.16123,-0.0062 -0.06201,-0.0062 -0.10232,-0.0217 -0.03721,-0.0155 -0.05271,-0.03721 -0.0155,-0.02481 -0.0155,-0.05891 v -4.077271 q 0,-0.03101 0.0186,-0.05581 0.0186,-0.02481 0.06201,-0.04031 0.04651,-0.0186 0.120922,-0.02791 0.07442,-0.0093 0.189136,-0.0093 0.114722,0 0.189136,0.0093 0.07441,0.0093 0.117822,0.02791 0.04651,0.0155 0.06511,0.04031 0.0186,0.0248 0.0186,0.05581 v 1.528589 q 0.10542,-0.10542 0.21084,-0.179834 0.10542,-0.07441 0.21084,-0.120923 0.10542,-0.04961 0.217041,-0.07131 0.111621,-0.0217 0.235644,-0.0217 0.306958,0 0.520899,0.124023 0.21394,0.120923 0.347265,0.328662 0.136426,0.207739 0.198438,0.486792 0.06201,0.275952 0.06201,0.58291 z m -0.809253,0.05581 q 0,-0.176734 -0.02791,-0.341065 -0.0248,-0.164331 -0.08992,-0.291455 -0.06511,-0.127124 -0.170532,-0.201538 -0.102319,-0.07752 -0.260449,-0.07752 -0.07752,0 -0.151929,0.02171 -0.07441,0.0217 -0.155029,0.07441 -0.07752,0.05271 -0.161231,0.136425 -0.08372,0.08372 -0.176733,0.20774 v 0.917773 q 0.164331,0.21084 0.313159,0.322461 0.151929,0.108521 0.31626,0.108521 0.151929,0 0.257349,-0.07751 0.10542,-0.07752 0.173632,-0.201538 0.07131,-0.124024 0.10232,-0.282154 0.03101,-0.158129 0.03101,-0.316259 z"
                    id="path8646"/>
            <path
                    d="m 19.035961,72.637227 q 0,0.235644 -0.08992,0.415478 -0.08682,0.179834 -0.248047,0.300757 -0.161231,0.120923 -0.381372,0.179834 -0.220142,0.06201 -0.47749,0.06201 -0.15503,0 -0.297657,-0.02481 -0.139526,-0.0217 -0.251147,-0.05581 -0.111621,-0.03721 -0.186035,-0.07441 -0.07441,-0.03721 -0.108521,-0.06821 -0.03411,-0.03411 -0.05271,-0.10232 -0.0186,-0.07131 -0.0186,-0.207739 0,-0.08992 0.0062,-0.142627 0.0062,-0.05581 0.0186,-0.08682 0.0124,-0.03411 0.03101,-0.04341 0.0186,-0.0124 0.04651,-0.0124 0.03411,0 0.09922,0.04031 0.06821,0.03721 0.167431,0.08372 0.09922,0.04651 0.229444,0.08682 0.133325,0.04031 0.300757,0.04031 0.105419,0 0.186035,-0.0217 0.08372,-0.0217 0.142627,-0.06201 0.06201,-0.04031 0.09302,-0.102319 0.03101,-0.06201 0.03101,-0.142627 0,-0.09302 -0.05891,-0.15813 -0.05581,-0.06821 -0.151929,-0.117823 -0.09302,-0.04961 -0.21394,-0.09302 -0.117822,-0.04341 -0.244946,-0.09612 -0.124024,-0.05271 -0.244947,-0.120923 -0.117822,-0.06821 -0.21394,-0.167432 -0.09302,-0.09922 -0.151929,-0.238745 -0.05581,-0.139526 -0.05581,-0.334863 0,-0.198438 0.07751,-0.362769 0.07751,-0.167431 0.223242,-0.285254 0.145728,-0.117822 0.353467,-0.182934 0.21084,-0.06511 0.471289,-0.06511 0.130225,0 0.251148,0.0186 0.124023,0.0186 0.223242,0.04651 0.09922,0.02791 0.167432,0.06201 0.06821,0.031 0.09612,0.05581 0.03101,0.0217 0.04341,0.04651 0.0124,0.0217 0.0186,0.05581 0.0062,0.03101 0.0093,0.08062 0.0062,0.04651 0.0062,0.117822 0,0.08372 -0.0062,0.136426 -0.0031,0.05271 -0.0155,0.08372 -0.0093,0.031 -0.02791,0.04341 -0.0186,0.0093 -0.04341,0.0093 -0.02791,0 -0.08682,-0.031 -0.05891,-0.03411 -0.148828,-0.07131 -0.08682,-0.03721 -0.204638,-0.06821 -0.114722,-0.03411 -0.26355,-0.03411 -0.10542,0 -0.182935,0.0217 -0.07751,0.0217 -0.127124,0.06201 -0.04961,0.04031 -0.07441,0.09612 -0.02481,0.05271 -0.02481,0.114721 0,0.09612 0.05891,0.161231 0.05891,0.06511 0.155029,0.114722 0.09612,0.04961 0.217041,0.09302 0.124023,0.04341 0.248047,0.09612 0.127124,0.04961 0.248047,0.117823 0.124023,0.06821 0.220141,0.167431 0.09612,0.09922 0.15503,0.238745 0.05891,0.136426 0.05891,0.325562 z"
                    id="path8648"/>
        </g>
        <g
                aria-label="vel"
                id="text8603"
                style="font-weight:bold;font-size:4.23333px;font-family:Calibri;-inkscape-font-specification:'Calibri Bold';text-align:center;text-anchor:middle;fill:#ffffff;stroke:#000000;stroke-width:0.2;stroke-linecap:square;stroke-linejoin:bevel"
                inkscape:label="velocity">
            <path
                    d="m 54.913694,50.716755 q 0,0.01033 -0.0021,0.02481 0,0.01447 -0.0041,0.03307 -0.0021,0.01654 -0.0083,0.03927 -0.0041,0.02274 -0.0124,0.05168 l -0.553971,1.668114 q -0.01034,0.03514 -0.02894,0.05788 -0.01654,0.02067 -0.05788,0.03307 -0.03927,0.0124 -0.109554,0.01654 -0.06821,0.0041 -0.179833,0.0041 -0.109554,0 -0.179834,-0.0062 -0.06821,-0.0041 -0.107487,-0.01654 -0.03927,-0.0124 -0.05788,-0.03307 -0.01654,-0.02274 -0.02687,-0.05581 l -0.553971,-1.668114 q -0.0124,-0.04134 -0.02067,-0.07441 -0.0062,-0.03307 -0.0083,-0.04754 0,-0.01447 0,-0.02687 0,-0.02067 0.01033,-0.03514 0.0124,-0.01654 0.04134,-0.02687 0.02894,-0.01034 0.07855,-0.01447 0.05168,-0.0041 0.128158,-0.0041 0.08475,0 0.136425,0.0062 0.05168,0.0041 0.08062,0.01447 0.03101,0.0083 0.04341,0.02687 0.0124,0.01654 0.02067,0.04134 l 0.419613,1.353922 0.0124,0.05168 0.0124,-0.05168 0.413411,-1.353922 q 0.0062,-0.0248 0.0186,-0.04134 0.01447,-0.0186 0.04341,-0.02687 0.02894,-0.01033 0.07648,-0.01447 0.04961,-0.0062 0.128158,-0.0062 0.07648,0 0.124023,0.0041 0.04961,0.0041 0.07648,0.01447 0.02687,0.01034 0.03721,0.02687 0.01033,0.01447 0.01033,0.03514 z"
                    id="path8651"/>
            <path
                    d="m 56.883598,51.586985 q 0,0.09509 -0.04341,0.14056 -0.04134,0.04548 -0.115755,0.04548 h -1.122411 q 0,0.117823 0.02687,0.214974 0.02894,0.09508 0.08888,0.163298 0.06201,0.06614 0.157096,0.101285 0.09715,0.03514 0.23151,0.03514 0.136426,0 0.239779,-0.0186 0.103353,-0.02067 0.177767,-0.04341 0.07648,-0.02481 0.12609,-0.04341 0.04961,-0.02067 0.08061,-0.02067 0.0186,0 0.03101,0.0083 0.0124,0.0062 0.02067,0.02481 0.0083,0.0186 0.01033,0.05374 0.0041,0.03307 0.0041,0.08475 0,0.04548 -0.0021,0.07855 -0.0021,0.03101 -0.0062,0.05374 -0.0041,0.02274 -0.0124,0.03927 -0.0083,0.01447 -0.02274,0.02894 -0.0124,0.01447 -0.07235,0.03927 -0.05994,0.02481 -0.152962,0.04961 -0.09302,0.02274 -0.212907,0.03927 -0.119889,0.0186 -0.256315,0.0186 -0.24598,0 -0.432015,-0.06201 -0.183967,-0.06201 -0.307991,-0.188102 -0.124023,-0.12609 -0.186035,-0.318327 -0.05994,-0.192236 -0.05994,-0.450618 0,-0.245979 0.06408,-0.44235 0.06408,-0.198437 0.186035,-0.334863 0.121957,-0.138492 0.295589,-0.210839 0.1757,-0.07235 0.394808,-0.07235 0.23151,0 0.394807,0.06821 0.165365,0.06821 0.270785,0.190169 0.10542,0.119889 0.155029,0.285253 0.04961,0.165365 0.04961,0.359668 z m -0.504361,-0.148828 q 0.0062,-0.219108 -0.08888,-0.343131 -0.09302,-0.12609 -0.289387,-0.12609 -0.09922,0 -0.173633,0.03721 -0.07235,0.03721 -0.121956,0.101285 -0.04754,0.06201 -0.07441,0.148828 -0.02481,0.08475 -0.02894,0.181901 z"
                    id="path8653"/>
            <path
                    d="m 57.832377,52.562636 q 0,0.02067 -0.0124,0.03721 -0.0124,0.01447 -0.04341,0.0248 -0.02894,0.01034 -0.07855,0.01447 -0.04961,0.0062 -0.12609,0.0062 -0.07648,0 -0.126091,-0.0062 -0.04961,-0.0041 -0.08061,-0.01447 -0.02894,-0.01034 -0.04134,-0.0248 -0.0124,-0.01654 -0.0124,-0.03721 v -2.718178 q 0,-0.02067 0.0124,-0.03721 0.0124,-0.01654 0.04134,-0.02687 0.03101,-0.0124 0.08061,-0.0186 0.04961,-0.0062 0.126091,-0.0062 0.07648,0 0.12609,0.0062 0.04961,0.0062 0.07855,0.0186 0.03101,0.01033 0.04341,0.02687 0.0124,0.01654 0.0124,0.03721 z"
                    id="path8655"/>
        </g>
        <g
                aria-label="bend"
                id="text8607"
                style="font-weight:bold;font-size:4.23333px;font-family:Calibri;-inkscape-font-specification:'Calibri Bold';text-align:center;text-anchor:middle;fill:#ffffff;stroke:#000000;stroke-width:0.2;stroke-linecap:square;stroke-linejoin:bevel"
                inkscape:label="bend">
            <path
                    d="m 3.5600181,51.615924 q 0,0.24598 -0.053743,0.44235 -0.053743,0.19637 -0.1550292,0.334863 -0.1012857,0.138493 -0.2501137,0.212907 -0.1467609,0.07441 -0.334863,0.07441 -0.093018,0 -0.1736327,-0.0186 Q 2.512021,52.645318 2.437607,52.606044 2.36526,52.56677 2.2929131,52.506825 2.2226332,52.44688 2.1482192,52.362131 v 0.200505 q 0,0.02274 -0.012402,0.03927 -0.010335,0.01447 -0.037207,0.0248 -0.024805,0.01034 -0.068213,0.01447 -0.043408,0.0041 -0.1054198,0.0041 -0.064079,0 -0.1074869,-0.0041 -0.041341,-0.0041 -0.068213,-0.01447 -0.024805,-0.01033 -0.03514,-0.0248 -0.010335,-0.01654 -0.010335,-0.03927 v -2.718178 q 0,-0.02067 0.012402,-0.03721 0.012402,-0.01654 0.041341,-0.02687 0.031006,-0.0124 0.080615,-0.0186 0.049609,-0.0062 0.1260904,-0.0062 0.076481,0 0.1260903,0.0062 0.049609,0.0062 0.078548,0.0186 0.031006,0.01033 0.043408,0.02687 0.012402,0.01654 0.012402,0.03721 v 1.019058 q 0.07028,-0.07028 0.1405598,-0.119889 0.07028,-0.04961 0.1405598,-0.08061 0.07028,-0.03307 0.1446939,-0.04754 0.074414,-0.01447 0.1570962,-0.01447 0.2046385,0 0.3472653,0.08268 0.1426269,0.08062 0.2315103,0.219108 0.09095,0.138493 0.1322915,0.324528 0.041341,0.183968 0.041341,0.388606 z m -0.5395015,0.03721 q 0,-0.117822 -0.018604,-0.227376 -0.016536,-0.109554 -0.059945,-0.194303 -0.043408,-0.08475 -0.113688,-0.134359 -0.068213,-0.05168 -0.1736327,-0.05168 -0.051676,0 -0.1012857,0.01447 -0.049609,0.01447 -0.1033528,0.04961 -0.051676,0.03514 -0.1074869,0.09095 -0.055811,0.05581 -0.1178222,0.138493 v 0.611848 q 0.109554,0.14056 0.2087727,0.214974 0.1012857,0.07235 0.2108396,0.07235 0.1012857,0 0.1715656,-0.05168 0.07028,-0.05168 0.1157551,-0.134358 0.047542,-0.08268 0.068213,-0.188102 0.020671,-0.10542 0.020671,-0.21084 z"
                    id="path8658"/>
            <path
                    d="m 5.67875,51.586985 q 0,0.09509 -0.043408,0.14056 -0.041341,0.04548 -0.1157551,0.04548 H 4.3971755 q 0,0.117823 0.026872,0.214974 0.028939,0.09508 0.088883,0.163298 0.062012,0.06614 0.1570963,0.101285 0.097152,0.03514 0.2315102,0.03514 0.1364256,0 0.2397784,-0.0186 0.1033528,-0.02067 0.1777668,-0.04341 0.076481,-0.02481 0.1260904,-0.04341 0.049609,-0.02067 0.080615,-0.02067 0.018604,0 0.031006,0.0083 0.012402,0.0062 0.02067,0.02481 0.00827,0.0186 0.010335,0.05374 0.00413,0.03307 0.00413,0.08475 0,0.04548 -0.00207,0.07855 -0.00207,0.03101 -0.0062,0.05374 -0.00413,0.02274 -0.012402,0.03927 -0.00827,0.01447 -0.022738,0.02894 -0.012402,0.01447 -0.072347,0.03927 -0.059945,0.02481 -0.1529621,0.04961 -0.093017,0.02274 -0.2129067,0.03927 -0.1198892,0.0186 -0.2563149,0.0186 -0.2459796,0 -0.4320146,-0.06201 -0.1839679,-0.06201 -0.3079913,-0.188102 -0.1240233,-0.12609 -0.186035,-0.318327 -0.059945,-0.192236 -0.059945,-0.450618 0,-0.245979 0.064079,-0.44235 0.064079,-0.198437 0.186035,-0.334863 0.1219563,-0.138492 0.295589,-0.210839 0.1756997,-0.07235 0.3948076,-0.07235 0.2315102,0 0.3948076,0.06821 0.1653644,0.06821 0.2707843,0.190169 0.1054198,0.119889 0.1550291,0.285253 Q 5.67875,51.31 5.67875,51.504303 Z M 5.1743884,51.438157 q 0.0062,-0.219108 -0.088883,-0.343131 -0.093018,-0.12609 -0.2893878,-0.12609 -0.099219,0 -0.1736326,0.03721 -0.072347,0.03721 -0.1219563,0.101285 -0.047542,0.06201 -0.074414,0.148828 -0.024805,0.08475 -0.028939,0.181901 z"
                    id="path8660"/>
            <path
                    d="m 7.8677618,52.562636 q 0,0.02067 -0.012402,0.03721 -0.012402,0.01447 -0.041341,0.0248 -0.028939,0.01034 -0.080615,0.01447 -0.049609,0.0062 -0.1240233,0.0062 -0.076481,0 -0.1281575,-0.0062 -0.049609,-0.0041 -0.078548,-0.01447 -0.028939,-0.01034 -0.041341,-0.0248 -0.012402,-0.01654 -0.012402,-0.03721 v -1.052132 q 0,-0.134358 -0.020671,-0.210839 -0.018604,-0.07648 -0.05581,-0.130225 -0.037207,-0.05581 -0.097152,-0.08475 -0.057878,-0.03101 -0.1364257,-0.03101 -0.099219,0 -0.2005044,0.07235 -0.1012857,0.07235 -0.2108396,0.21084 v 1.225764 q 0,0.02067 -0.012402,0.03721 -0.012402,0.01447 -0.043408,0.0248 -0.028939,0.01034 -0.078548,0.01447 -0.049609,0.0062 -0.1260904,0.0062 -0.076481,0 -0.1260904,-0.0062 -0.049609,-0.0041 -0.080615,-0.01447 -0.028939,-0.01034 -0.041341,-0.0248 -0.012402,-0.01654 -0.012402,-0.03721 v -1.843814 q 0,-0.02067 0.010335,-0.03514 0.010335,-0.01654 0.037207,-0.02687 0.026872,-0.01033 0.068213,-0.01447 0.043408,-0.0062 0.1074869,-0.0062 0.066146,0 0.1095539,0.0062 0.043408,0.0041 0.066146,0.01447 0.024805,0.01034 0.03514,0.02687 0.010335,0.01447 0.010335,0.03514 v 0.212907 Q 6.7040095,50.766364 6.8611057,50.683682 7.020269,50.601 7.1918346,50.601 q 0.1881021,0 0.3162595,0.06201 0.1302245,0.06201 0.2087726,0.169498 0.080615,0.10542 0.1157552,0.248047 0.03514,0.142627 0.03514,0.343131 z"
                    id="path8662"/>
            <path
                    d="m 10.127054,52.562636 q 0,0.02274 -0.01034,0.03927 -0.01034,0.01447 -0.03514,0.0248 -0.0248,0.01034 -0.06821,0.01447 -0.041341,0.0041 -0.1033532,0.0041 -0.066146,0 -0.1074869,-0.0041 -0.041341,-0.0041 -0.068213,-0.01447 -0.024805,-0.01033 -0.037207,-0.0248 -0.010335,-0.01654 -0.010335,-0.03927 v -0.204639 q -0.1426268,0.152962 -0.299723,0.237711 -0.1550292,0.08475 -0.3451983,0.08475 -0.2108397,0 -0.3576006,-0.08062 -0.1446939,-0.08268 -0.2377114,-0.221175 -0.09095,-0.138493 -0.1322916,-0.322461 -0.041341,-0.186035 -0.041341,-0.390674 0,-0.245979 0.051676,-0.442349 0.053743,-0.196371 0.1550292,-0.334863 0.1012857,-0.138493 0.2521807,-0.212907 0.1508951,-0.07441 0.3472654,-0.07441 0.1550291,0 0.2811195,0.06408 0.1260904,0.06201 0.2501138,0.183968 v -0.998388 q 0,-0.02067 0.010335,-0.03721 0.012402,-0.01654 0.041341,-0.02687 0.031006,-0.0124 0.080615,-0.0186 0.049609,-0.0062 0.1260904,-0.0062 0.076481,0 0.1260904,0.0062 0.049609,0.0062 0.078548,0.0186 0.02894,0.01033 0.04134,0.02687 0.0124,0.01654 0.0124,0.03721 z M 9.6102898,51.33067 q -0.111621,-0.140559 -0.2149738,-0.214973 -0.1012857,-0.07441 -0.2129067,-0.07441 -0.1012858,0 -0.1756998,0.05168 -0.072347,0.04961 -0.1178221,0.134359 -0.043408,0.08475 -0.066146,0.190169 -0.020671,0.103353 -0.020671,0.212907 0,0.115755 0.018604,0.225309 0.018603,0.109554 0.059945,0.19637 0.043408,0.08475 0.1136881,0.136426 0.07028,0.05168 0.1777668,0.05168 0.053743,0 0.1033528,-0.01447 0.051676,-0.01654 0.1033527,-0.05168 0.053743,-0.03514 0.109554,-0.09095 0.05581,-0.05788 0.1219563,-0.14056 z"
                    id="path8664"/>
        </g>
        <g
                aria-label="mod"
                id="text8611"
                style="font-weight:bold;font-size:4.23333px;font-family:Calibri;-inkscape-font-specification:'Calibri Bold';text-align:center;text-anchor:middle;fill:#ffffff;stroke:#000000;stroke-width:0.2;stroke-linecap:square;stroke-linejoin:bevel"
                inkscape:label="mod">
            <path
                    d="m 21.317739,52.559534 q 0,0.02067 -0.0124,0.03721 -0.0124,0.01447 -0.04134,0.02481 -0.02894,0.01033 -0.07855,0.01447 -0.04961,0.0062 -0.126091,0.0062 -0.07855,0 -0.128157,-0.0062 -0.04961,-0.0041 -0.08062,-0.01447 -0.02894,-0.01034 -0.04134,-0.02481 -0.01033,-0.01654 -0.01033,-0.03721 v -1.093472 q 0,-0.09302 -0.0186,-0.169499 -0.01654,-0.07648 -0.05374,-0.130224 -0.03514,-0.05581 -0.09095,-0.08475 -0.05374,-0.03101 -0.130225,-0.03101 -0.09302,0 -0.188102,0.07235 -0.09508,0.07235 -0.206705,0.210839 v 1.225764 q 0,0.02067 -0.0124,0.03721 -0.0124,0.01447 -0.04341,0.02481 -0.02894,0.01033 -0.07855,0.01447 -0.04961,0.0062 -0.124023,0.0062 -0.07648,0 -0.126091,-0.0062 -0.04961,-0.0041 -0.08062,-0.01447 -0.02894,-0.01034 -0.04134,-0.02481 -0.0124,-0.01654 -0.0124,-0.03721 v -1.093472 q 0,-0.09302 -0.0186,-0.169499 -0.01654,-0.07648 -0.05168,-0.130224 -0.03514,-0.05581 -0.09095,-0.08475 -0.05581,-0.03101 -0.130224,-0.03101 -0.09509,0 -0.190169,0.07235 -0.09508,0.07235 -0.204639,0.210839 v 1.225764 q 0,0.02067 -0.0124,0.03721 -0.0124,0.01447 -0.04341,0.02481 -0.02894,0.01033 -0.07855,0.01447 -0.04961,0.0062 -0.126091,0.0062 -0.07648,0 -0.12609,-0.0062 -0.04961,-0.0041 -0.08061,-0.01447 -0.02894,-0.01034 -0.04134,-0.02481 -0.0124,-0.01654 -0.0124,-0.03721 v -1.843813 q 0,-0.02067 0.01034,-0.03514 0.01034,-0.01654 0.03721,-0.02687 0.02687,-0.01033 0.06821,-0.01447 0.04341,-0.0062 0.107487,-0.0062 0.06615,0 0.109554,0.0062 0.04341,0.0041 0.06615,0.01447 0.0248,0.01033 0.03514,0.02687 0.01034,0.01447 0.01034,0.03514 v 0.212906 q 0.152962,-0.165364 0.303857,-0.248046 0.152963,-0.08268 0.318327,-0.08268 0.113688,0 0.204638,0.0248 0.09095,0.02274 0.161231,0.06821 0.07235,0.04341 0.124023,0.10542 0.05168,0.06201 0.08682,0.138493 0.08268,-0.08888 0.161231,-0.152963 0.08062,-0.06408 0.157096,-0.103352 0.07855,-0.04134 0.155029,-0.05994 0.07855,-0.02067 0.159163,-0.02067 0.183968,0 0.310059,0.06201 0.12609,0.06201 0.202571,0.169499 0.07855,0.10542 0.111621,0.248046 0.03307,0.142627 0.03307,0.301791 z"
                    id="path8667"/>
            <path
                    d="m 23.692786,51.619024 q 0,0.235644 -0.06201,0.429948 -0.06201,0.194303 -0.188102,0.334863 -0.12609,0.140559 -0.316259,0.21704 -0.190169,0.07648 -0.444417,0.07648 -0.24598,0 -0.427881,-0.06821 -0.181901,-0.06821 -0.30179,-0.198438 -0.119889,-0.130224 -0.177767,-0.320393 -0.05788,-0.190169 -0.05788,-0.434082 0,-0.235644 0.06201,-0.429948 0.06408,-0.19637 0.190169,-0.334863 0.12609,-0.140559 0.314192,-0.21704 0.190169,-0.07648 0.444417,-0.07648 0.248047,0 0.429948,0.06821 0.181901,0.06615 0.299723,0.196371 0.119889,0.130224 0.177766,0.320393 0.05788,0.190169 0.05788,0.436149 z m -0.535367,0.02067 q 0,-0.136426 -0.02274,-0.250114 -0.02067,-0.115755 -0.07235,-0.200505 -0.05168,-0.08475 -0.138493,-0.132291 -0.08475,-0.04754 -0.214973,-0.04754 -0.115756,0 -0.202572,0.04341 -0.08682,0.04134 -0.142627,0.124023 -0.05581,0.08062 -0.08475,0.19637 -0.02687,0.113688 -0.02687,0.260449 0,0.136426 0.02274,0.252181 0.02274,0.113688 0.07235,0.198437 0.05168,0.08475 0.138493,0.132292 0.08682,0.04548 0.214973,0.04548 0.117823,0 0.204639,-0.04134 0.08682,-0.04341 0.142627,-0.124023 0.05581,-0.08062 0.08268,-0.194303 0.02687,-0.115756 0.02687,-0.262516 z"
                    id="path8669"/>
            <path
                    d="m 25.852859,52.559534 q 0,0.02274 -0.01033,0.03927 -0.01034,0.01447 -0.03514,0.02481 -0.02481,0.01033 -0.06821,0.01447 -0.04134,0.0041 -0.103353,0.0041 -0.06615,0 -0.107487,-0.0041 -0.04134,-0.0041 -0.06821,-0.01447 -0.0248,-0.01033 -0.03721,-0.02481 -0.01033,-0.01654 -0.01033,-0.03927 v -0.204638 q -0.142627,0.152962 -0.299723,0.237711 -0.155029,0.08475 -0.345198,0.08475 -0.21084,0 -0.357601,-0.08062 -0.144694,-0.08268 -0.237711,-0.221175 -0.09095,-0.138492 -0.132292,-0.32246 -0.04134,-0.186035 -0.04134,-0.390674 0,-0.245979 0.05168,-0.44235 0.05374,-0.19637 0.15503,-0.334863 0.101285,-0.138492 0.25218,-0.212906 0.150895,-0.07441 0.347266,-0.07441 0.155029,0 0.281119,0.06408 0.126091,0.06201 0.250114,0.183968 v -0.998388 q 0,-0.02067 0.01034,-0.03721 0.0124,-0.01654 0.04134,-0.02687 0.03101,-0.0124 0.08061,-0.0186 0.04961,-0.0062 0.126091,-0.0062 0.07648,0 0.12609,0.0062 0.04961,0.0062 0.07855,0.0186 0.02894,0.01033 0.04134,0.02687 0.0124,0.01654 0.0124,0.03721 z m -0.516764,-1.231965 q -0.111621,-0.14056 -0.214974,-0.214974 -0.101286,-0.07441 -0.212907,-0.07441 -0.101285,0 -0.175699,0.05168 -0.07235,0.04961 -0.117822,0.134358 -0.04341,0.08475 -0.06615,0.190169 -0.02067,0.103353 -0.02067,0.212907 0,0.115755 0.0186,0.225309 0.0186,0.109554 0.05994,0.196371 0.04341,0.08475 0.113688,0.136425 0.07028,0.05168 0.177767,0.05168 0.05374,0 0.103353,-0.01447 0.05168,-0.01654 0.103353,-0.05168 0.05374,-0.03514 0.109554,-0.09095 0.05581,-0.05788 0.121956,-0.140559 z"
                    id="path8671"/>
        </g>
        <g
                aria-label="v/oct"
                id="text8615"
                style="font-weight:bold;font-size:4.23333px;font-family:Calibri;-inkscape-font-specification:'Calibri Bold';text-align:center;text-anchor:middle;fill:#ffffff;stroke:#000000;stroke-width:0.2;stroke-linecap:square;stroke-linejoin:bevel"
                inkscape:label="v/oct">
            <path
                    d="m 36.138578,50.525551 q 0,0.01033 -0.0021,0.02481 0,0.01447 -0.0041,0.03307 -0.0021,0.01654 -0.0083,0.03928 -0.0041,0.02274 -0.0124,0.05168 l -0.553971,1.668114 q -0.01034,0.03514 -0.02894,0.05788 -0.01654,0.02067 -0.05788,0.03307 -0.03927,0.0124 -0.109554,0.01654 -0.06821,0.0041 -0.179833,0.0041 -0.109554,0 -0.179834,-0.0062 -0.06821,-0.0041 -0.107487,-0.01654 -0.03927,-0.0124 -0.05788,-0.03307 -0.01654,-0.02274 -0.02687,-0.05581 l -0.553971,-1.668114 q -0.0124,-0.04134 -0.02067,-0.07441 -0.0062,-0.03307 -0.0083,-0.04754 0,-0.01447 0,-0.02687 0,-0.02067 0.01034,-0.03514 0.0124,-0.01654 0.04134,-0.02687 0.02894,-0.01033 0.07855,-0.01447 0.05168,-0.0041 0.128158,-0.0041 0.08475,0 0.136425,0.0062 0.05168,0.0041 0.08062,0.01447 0.03101,0.0083 0.04341,0.02687 0.0124,0.01654 0.02067,0.04134 l 0.419613,1.353922 0.0124,0.05168 0.0124,-0.05168 0.413411,-1.353922 q 0.0062,-0.02481 0.0186,-0.04134 0.01447,-0.0186 0.04341,-0.02687 0.02894,-0.01033 0.07648,-0.01447 0.04961,-0.0062 0.128158,-0.0062 0.07648,0 0.124023,0.0041 0.04961,0.0041 0.07648,0.01447 0.02687,0.01034 0.03721,0.02687 0.01034,0.01447 0.01034,0.03514 z"
                    id="path8674"/>
            <path
                    d="m 36.704952,52.977079 q -0.01034,0.02687 -0.02687,0.04341 -0.01654,0.01654 -0.04754,0.02687 -0.02894,0.01033 -0.07441,0.01447 -0.04341,0.0062 -0.111621,0.0062 -0.08475,0 -0.138493,-0.0083 -0.05374,-0.0083 -0.08268,-0.02481 -0.02687,-0.01654 -0.03101,-0.04341 -0.0041,-0.0248 0.0083,-0.05994 l 1.236099,-3.470587 q 0.0083,-0.02687 0.02481,-0.04341 0.01654,-0.0186 0.04547,-0.02894 0.02894,-0.01033 0.07441,-0.01447 0.04754,-0.0062 0.113688,-0.0062 0.08682,0 0.138493,0.0083 0.05374,0.0083 0.08061,0.0248 0.02687,0.01654 0.03101,0.04341 0.0041,0.0248 -0.0062,0.05994 z"
                    id="path8676"/>
            <path
                    d="m 40.034978,51.430921 q 0,0.235645 -0.06201,0.429948 -0.06201,0.194303 -0.188102,0.334863 -0.12609,0.14056 -0.316259,0.217041 -0.190169,0.07648 -0.444417,0.07648 -0.24598,0 -0.427881,-0.06821 -0.181901,-0.06821 -0.30179,-0.198437 -0.119889,-0.130225 -0.177767,-0.320394 -0.05788,-0.190169 -0.05788,-0.434082 0,-0.235644 0.06201,-0.429947 0.06408,-0.196371 0.19017,-0.334863 0.12609,-0.14056 0.314192,-0.217041 0.190169,-0.07648 0.444417,-0.07648 0.248047,0 0.429947,0.06821 0.181901,0.06614 0.299724,0.19637 0.119889,0.130224 0.177766,0.320394 0.05788,0.190169 0.05788,0.436148 z m -0.535368,0.02067 q 0,-0.136426 -0.02274,-0.250114 -0.02067,-0.115755 -0.07235,-0.200504 -0.05168,-0.08475 -0.138493,-0.132292 -0.08475,-0.04754 -0.214974,-0.04754 -0.115755,0 -0.202571,0.04341 -0.08682,0.04134 -0.142627,0.124023 -0.05581,0.08062 -0.08475,0.196371 -0.02687,0.113688 -0.02687,0.260449 0,0.136425 0.02274,0.25218 0.02274,0.113688 0.07235,0.198438 0.05168,0.08475 0.138492,0.132291 0.08682,0.04548 0.214974,0.04548 0.117822,0 0.204639,-0.04134 0.08682,-0.04341 0.142627,-0.124023 0.05581,-0.08062 0.08268,-0.194303 0.02687,-0.115755 0.02687,-0.262516 z"
                    id="path8678"/>
            <path
                    d="m 41.841585,52.07791 q 0,0.05374 -0.0041,0.09095 -0.0021,0.03514 -0.0083,0.05994 -0.0041,0.0248 -0.0124,0.04134 -0.0062,0.01447 -0.03101,0.03927 -0.02481,0.02274 -0.08475,0.05788 -0.05994,0.03307 -0.136426,0.05994 -0.07648,0.02687 -0.167431,0.04341 -0.08888,0.01654 -0.183968,0.01654 -0.212907,0 -0.378271,-0.06615 -0.163298,-0.06615 -0.274919,-0.194303 -0.111621,-0.130225 -0.169498,-0.31626 -0.05581,-0.186035 -0.05581,-0.425813 0,-0.276986 0.06821,-0.47749 0.07028,-0.202572 0.194303,-0.334863 0.124024,-0.132292 0.293522,-0.19637 0.169499,-0.06408 0.37207,-0.06408 0.08268,0 0.16123,0.01447 0.08062,0.01447 0.148828,0.03927 0.07028,0.02481 0.124024,0.05581 0.05581,0.03101 0.07855,0.05374 0.02274,0.02274 0.03101,0.03927 0.01034,0.01447 0.01447,0.03927 0.0062,0.02481 0.0083,0.06201 0.0041,0.03514 0.0041,0.08682 0,0.11989 -0.02067,0.169499 -0.02067,0.04754 -0.05374,0.04754 -0.03514,0 -0.07441,-0.02894 -0.03927,-0.02894 -0.09302,-0.06408 -0.05374,-0.03514 -0.128158,-0.06408 -0.07441,-0.02894 -0.177766,-0.02894 -0.202572,0 -0.310059,0.157096 -0.107487,0.15503 -0.107487,0.45682 0,0.148828 0.02687,0.262516 0.02687,0.113688 0.07855,0.190169 0.05374,0.07648 0.132292,0.115755 0.08062,0.03721 0.186035,0.03721 0.107487,0 0.183968,-0.03101 0.07855,-0.03307 0.136425,-0.07235 0.05788,-0.03927 0.09715,-0.07028 0.03927,-0.03307 0.06615,-0.03307 0.0186,0 0.03101,0.01034 0.0124,0.01033 0.0186,0.03927 0.0083,0.02687 0.0124,0.07028 0.0041,0.04341 0.0041,0.111621 z"
                    id="path8680"/>
            <path
                    d="m 43.309194,52.189531 q 0,0.09095 -0.0124,0.140559 -0.01034,0.04754 -0.02894,0.06821 -0.0186,0.0186 -0.05581,0.03514 -0.03514,0.01447 -0.08475,0.02481 -0.04754,0.0124 -0.10542,0.0186 -0.05581,0.0062 -0.113688,0.0062 -0.155029,0 -0.268717,-0.03927 -0.113688,-0.03927 -0.188102,-0.119889 -0.07441,-0.08268 -0.109554,-0.206705 -0.03514,-0.124024 -0.03514,-0.293522 v -0.944645 h -0.221175 q -0.03927,0 -0.05994,-0.04754 -0.02067,-0.04961 -0.02067,-0.163297 0,-0.05994 0.0041,-0.101286 0.0062,-0.04134 0.01654,-0.06408 0.01033,-0.0248 0.0248,-0.03514 0.01654,-0.01033 0.03721,-0.01033 h 0.219108 v -0.411344 q 0,-0.02067 0.01034,-0.03721 0.0124,-0.01654 0.04134,-0.02687 0.03101,-0.0124 0.08062,-0.01654 0.05168,-0.0062 0.12609,-0.0062 0.07648,0 0.126091,0.0062 0.05168,0.0041 0.08062,0.01654 0.02894,0.01034 0.04134,0.02687 0.0124,0.01654 0.0124,0.03721 v 0.411344 h 0.401009 q 0.02067,0 0.03514,0.01033 0.01654,0.01034 0.02687,0.03514 0.01033,0.02274 0.01447,0.06408 0.0062,0.04134 0.0062,0.101286 0,0.113688 -0.02067,0.163297 -0.02067,0.04754 -0.05994,0.04754 h -0.403076 v 0.866097 q 0,0.150895 0.04754,0.227376 0.04754,0.07441 0.169499,0.07441 0.04134,0 0.07441,-0.0062 0.03307,-0.0083 0.05788,-0.01654 0.02687,-0.01033 0.04341,-0.01654 0.0186,-0.0083 0.03307,-0.0083 0.0124,0 0.02274,0.0083 0.0124,0.0062 0.0186,0.02894 0.0062,0.02067 0.01033,0.05788 0.0062,0.03721 0.0062,0.09509 z"
                    id="path8682"/>
        </g>
        <g
                aria-label="sliders"
                id="text8619"
                style="font-weight:bold;font-size:6.35px;font-family:Calibri;-inkscape-font-specification:'Calibri Bold';text-align:center;text-anchor:middle;fill:#ffffff;stroke:#000000;stroke-width:0.2;stroke-linecap:square;stroke-linejoin:bevel"
                inkscape:label="sliders">
            <path
                    d="m 44.059837,107.30647 q 0,0.23564 -0.08992,0.41548 -0.08682,0.17983 -0.248046,0.30076 -0.161231,0.12092 -0.381372,0.17983 -0.220142,0.062 -0.477491,0.062 -0.155029,0 -0.297656,-0.0248 -0.139526,-0.0217 -0.251147,-0.0558 -0.111622,-0.0372 -0.186036,-0.0744 -0.07441,-0.0372 -0.10852,-0.0682 -0.03411,-0.0341 -0.05271,-0.10232 -0.0186,-0.0713 -0.0186,-0.20774 0,-0.0899 0.0062,-0.14263 0.0062,-0.0558 0.0186,-0.0868 0.0124,-0.0341 0.03101,-0.0434 0.0186,-0.0124 0.04651,-0.0124 0.03411,0 0.09922,0.0403 0.06821,0.0372 0.167431,0.0837 0.09922,0.0465 0.229444,0.0868 0.133325,0.0403 0.300756,0.0403 0.10542,0 0.186036,-0.0217 0.08371,-0.0217 0.142626,-0.062 0.06201,-0.0403 0.09302,-0.10232 0.03101,-0.062 0.03101,-0.14263 0,-0.093 -0.05891,-0.15813 -0.05581,-0.0682 -0.151929,-0.11782 -0.09302,-0.0496 -0.21394,-0.093 -0.117823,-0.0434 -0.244947,-0.0961 -0.124023,-0.0527 -0.244946,-0.12092 -0.117822,-0.0682 -0.21394,-0.16743 -0.09302,-0.0992 -0.151929,-0.23875 -0.05581,-0.13952 -0.05581,-0.33486 0,-0.19844 0.07751,-0.36277 0.07751,-0.16743 0.223242,-0.28525 0.145728,-0.11782 0.353467,-0.18294 0.21084,-0.0651 0.471289,-0.0651 0.130225,0 0.251148,0.0186 0.124023,0.0186 0.223242,0.0465 0.09922,0.0279 0.167431,0.062 0.06821,0.031 0.09612,0.0558 0.03101,0.0217 0.04341,0.0465 0.0124,0.0217 0.0186,0.0558 0.0062,0.031 0.0093,0.0806 0.0062,0.0465 0.0062,0.11782 0,0.0837 -0.0062,0.13643 -0.0031,0.0527 -0.0155,0.0837 -0.0093,0.031 -0.02791,0.0434 -0.0186,0.009 -0.04341,0.009 -0.02791,0 -0.08682,-0.031 -0.05891,-0.0341 -0.148828,-0.0713 -0.08682,-0.0372 -0.204639,-0.0682 -0.114721,-0.0341 -0.263549,-0.0341 -0.10542,0 -0.182935,0.0217 -0.07752,0.0217 -0.127124,0.062 -0.04961,0.0403 -0.07441,0.0961 -0.0248,0.0527 -0.0248,0.11472 0,0.0961 0.05891,0.16123 0.05891,0.0651 0.15503,0.11472 0.09612,0.0496 0.217041,0.093 0.124023,0.0434 0.248047,0.0961 0.127124,0.0496 0.248046,0.11782 0.124024,0.0682 0.220142,0.16743 0.09612,0.0992 0.155029,0.23875 0.05891,0.13642 0.05891,0.32556 z"
                    id="path8685"/>
            <path
                    d="m 45.427196,108.08782 q 0,0.031 -0.0186,0.0558 -0.0186,0.0217 -0.06511,0.0372 -0.04341,0.0155 -0.117822,0.0217 -0.07441,0.009 -0.189136,0.009 -0.114722,0 -0.189136,-0.009 -0.07441,-0.006 -0.120923,-0.0217 -0.04341,-0.0155 -0.06201,-0.0372 -0.0186,-0.0248 -0.0186,-0.0558 v -4.07727 q 0,-0.031 0.0186,-0.0558 0.0186,-0.0248 0.06201,-0.0403 0.04651,-0.0186 0.120923,-0.0279 0.07441,-0.009 0.189136,-0.009 0.114722,0 0.189136,0.009 0.07441,0.009 0.117822,0.0279 0.04651,0.0155 0.06511,0.0403 0.0186,0.0248 0.0186,0.0558 z"
                    id="path8687"/>
            <path
                    d="m 46.986791,108.08782 q 0,0.031 -0.0186,0.0558 -0.0186,0.0217 -0.06511,0.0372 -0.04341,0.0155 -0.117823,0.0217 -0.07441,0.009 -0.189135,0.009 -0.114722,0 -0.189136,-0.009 -0.07441,-0.006 -0.120923,-0.0217 -0.04341,-0.0155 -0.06201,-0.0372 -0.0186,-0.0248 -0.0186,-0.0558 v -2.75952 q 0,-0.031 0.0186,-0.0527 0.0186,-0.0248 0.06201,-0.0403 0.04651,-0.0186 0.120923,-0.0279 0.07441,-0.009 0.189136,-0.009 0.114721,0 0.189135,0.009 0.07442,0.009 0.117823,0.0279 0.04651,0.0155 0.06511,0.0403 0.0186,0.0217 0.0186,0.0527 z m 0.05891,-3.7021 q 0,0.23564 -0.09612,0.32556 -0.09612,0.0899 -0.356568,0.0899 -0.26355,0 -0.356567,-0.0868 -0.08992,-0.0868 -0.08992,-0.31316 0,-0.23564 0.09302,-0.32556 0.09612,-0.093 0.359668,-0.093 0.26045,0 0.353467,0.0899 0.09302,0.0868 0.09302,0.31316 z"
                    id="path8689"/>
            <path
                    d="m 50.388133,108.08782 q 0,0.0341 -0.0155,0.0589 -0.0155,0.0217 -0.05271,0.0372 -0.03721,0.0155 -0.102319,0.0217 -0.06201,0.006 -0.155029,0.006 -0.09922,0 -0.161231,-0.006 -0.06201,-0.006 -0.102319,-0.0217 -0.03721,-0.0155 -0.05581,-0.0372 -0.0155,-0.0248 -0.0155,-0.0589 v -0.30696 q -0.21394,0.22944 -0.449585,0.35657 -0.232543,0.12712 -0.517797,0.12712 -0.31626,0 -0.536402,-0.12092 -0.217041,-0.12403 -0.356567,-0.33176 -0.136426,-0.20774 -0.198438,-0.4837 -0.06201,-0.27905 -0.06201,-0.58601 0,-0.36897 0.07751,-0.66352 0.08062,-0.29456 0.232544,-0.5023 0.151929,-0.20774 0.378272,-0.31936 0.226343,-0.11162 0.520898,-0.11162 0.232544,0 0.42168,0.0961 0.189136,0.093 0.375171,0.27595 v -1.49758 q 0,-0.031 0.0155,-0.0558 0.0186,-0.0248 0.06201,-0.0403 0.04651,-0.0186 0.120923,-0.0279 0.07441,-0.009 0.189136,-0.009 0.114722,0 0.189136,0.009 0.07441,0.009 0.117822,0.0279 0.04341,0.0155 0.06201,0.0403 0.0186,0.0248 0.0186,0.0558 z m -0.775146,-1.84795 q -0.167432,-0.21084 -0.322461,-0.32246 -0.151929,-0.11162 -0.319361,-0.11162 -0.151928,0 -0.263549,0.0775 -0.108521,0.0744 -0.176734,0.20154 -0.06511,0.12712 -0.09922,0.28525 -0.03101,0.15503 -0.03101,0.31936 0,0.17364 0.0279,0.33797 0.02791,0.16433 0.08992,0.29455 0.06511,0.12713 0.170532,0.20464 0.10542,0.0775 0.266651,0.0775 0.08062,0 0.155029,-0.0217 0.07751,-0.0248 0.155029,-0.0775 0.08062,-0.0527 0.164331,-0.13643 0.08372,-0.0868 0.182935,-0.21084 z"
                    id="path8691"/>
            <path
                    d="m 53.727464,106.62434 q 0,0.14263 -0.06511,0.21084 -0.06201,0.0682 -0.173633,0.0682 h -1.683618 q 0,0.17674 0.04031,0.32246 0.04341,0.14263 0.133326,0.24495 0.09302,0.0992 0.235644,0.15193 0.145728,0.0527 0.347266,0.0527 0.204638,0 0.359668,-0.0279 0.155029,-0.031 0.26665,-0.0651 0.114722,-0.0372 0.189136,-0.0651 0.07441,-0.031 0.120923,-0.031 0.0279,0 0.04651,0.0124 0.0186,0.009 0.03101,0.0372 0.0124,0.0279 0.0155,0.0806 0.0062,0.0496 0.0062,0.12712 0,0.0682 -0.0031,0.11782 -0.0031,0.0465 -0.0093,0.0806 -0.0062,0.0341 -0.0186,0.0589 -0.0124,0.0217 -0.03411,0.0434 -0.0186,0.0217 -0.10852,0.0589 -0.08992,0.0372 -0.229444,0.0744 -0.139526,0.0341 -0.31936,0.0589 -0.179834,0.0279 -0.384473,0.0279 -0.368969,0 -0.648022,-0.093 -0.275952,-0.093 -0.461988,-0.28215 -0.186035,-0.18914 -0.279052,-0.47749 -0.08992,-0.28835 -0.08992,-0.67593 0,-0.36897 0.09612,-0.66352 0.09612,-0.29766 0.279053,-0.5023 0.182934,-0.20774 0.443383,-0.31626 0.26355,-0.10852 0.592212,-0.10852 0.347266,0 0.592212,0.10232 0.248047,0.10232 0.406177,0.28525 0.15813,0.17984 0.232544,0.42789 0.07441,0.24804 0.07441,0.5395 z m -0.756543,-0.22324 q 0.0093,-0.32866 -0.133325,-0.5147 -0.139527,-0.18913 -0.434082,-0.18913 -0.148828,0 -0.260449,0.0558 -0.108521,0.0558 -0.182935,0.15192 -0.07131,0.093 -0.111621,0.22325 -0.03721,0.12712 -0.04341,0.27285 z"
                    id="path8693"/>
            <path
                    d="m 56.145922,105.57944 q 0,0.11162 -0.0062,0.18294 -0.0062,0.0713 -0.0186,0.11162 -0.0124,0.0403 -0.03411,0.0558 -0.0186,0.0155 -0.04961,0.0155 -0.0248,0 -0.05581,-0.009 -0.03101,-0.0124 -0.07131,-0.0248 -0.03721,-0.0124 -0.08372,-0.0217 -0.04651,-0.0124 -0.102319,-0.0124 -0.06511,0 -0.130224,0.0279 -0.06511,0.0248 -0.136426,0.0806 -0.06821,0.0558 -0.145728,0.14883 -0.07441,0.093 -0.16123,0.22944 v 1.72393 q 0,0.031 -0.0186,0.0558 -0.0186,0.0217 -0.06511,0.0372 -0.04341,0.0155 -0.117822,0.0217 -0.07441,0.009 -0.189136,0.009 -0.114722,0 -0.189136,-0.009 -0.07441,-0.006 -0.120923,-0.0217 -0.04341,-0.0155 -0.06201,-0.0372 -0.0186,-0.0248 -0.0186,-0.0558 v -2.76573 q 0,-0.031 0.0155,-0.0527 0.0155,-0.0248 0.05581,-0.0403 0.04031,-0.0155 0.102319,-0.0217 0.06511,-0.009 0.16123,-0.009 0.09922,0 0.164331,0.009 0.06511,0.006 0.09922,0.0217 0.03721,0.0155 0.05271,0.0403 0.0155,0.0217 0.0155,0.0527 v 0.34417 q 0.108521,-0.15503 0.204639,-0.25425 0.09612,-0.10232 0.182934,-0.16123 0.08682,-0.0589 0.173633,-0.0806 0.08682,-0.0248 0.173633,-0.0248 0.04031,0 0.08682,0.006 0.04651,0.003 0.09612,0.0155 0.04961,0.009 0.08682,0.0248 0.03721,0.0124 0.05271,0.0279 0.0186,0.0155 0.02481,0.0341 0.0093,0.0186 0.0155,0.0527 0.0062,0.031 0.0093,0.0961 0.0031,0.0651 0.0031,0.17673 z"
                    id="path8695"/>
            <path
                    d="m 58.496165,107.30647 q 0,0.23564 -0.08992,0.41548 -0.08682,0.17983 -0.248046,0.30076 -0.161231,0.12092 -0.381373,0.17983 -0.220141,0.062 -0.47749,0.062 -0.155029,0 -0.297656,-0.0248 -0.139526,-0.0217 -0.251147,-0.0558 -0.111622,-0.0372 -0.186036,-0.0744 -0.07441,-0.0372 -0.10852,-0.0682 -0.03411,-0.0341 -0.05271,-0.10232 -0.0186,-0.0713 -0.0186,-0.20774 0,-0.0899 0.0062,-0.14263 0.0062,-0.0558 0.0186,-0.0868 0.0124,-0.0341 0.03101,-0.0434 0.0186,-0.0124 0.04651,-0.0124 0.03411,0 0.09922,0.0403 0.06821,0.0372 0.167432,0.0837 0.09922,0.0465 0.229443,0.0868 0.133326,0.0403 0.300757,0.0403 0.10542,0 0.186035,-0.0217 0.08372,-0.0217 0.142627,-0.062 0.06201,-0.0403 0.09302,-0.10232 0.03101,-0.062 0.03101,-0.14263 0,-0.093 -0.05891,-0.15813 -0.05581,-0.0682 -0.151929,-0.11782 -0.09302,-0.0496 -0.21394,-0.093 -0.117823,-0.0434 -0.244947,-0.0961 -0.124023,-0.0527 -0.244946,-0.12092 -0.117822,-0.0682 -0.21394,-0.16743 -0.09302,-0.0992 -0.151929,-0.23875 -0.05581,-0.13952 -0.05581,-0.33486 0,-0.19844 0.07752,-0.36277 0.07751,-0.16743 0.223242,-0.28525 0.145728,-0.11782 0.353467,-0.18294 0.21084,-0.0651 0.471289,-0.0651 0.130225,0 0.251147,0.0186 0.124024,0.0186 0.223243,0.0465 0.09922,0.0279 0.167431,0.062 0.06821,0.031 0.09612,0.0558 0.03101,0.0217 0.04341,0.0465 0.0124,0.0217 0.0186,0.0558 0.0062,0.031 0.0093,0.0806 0.0062,0.0465 0.0062,0.11782 0,0.0837 -0.0062,0.13643 -0.0031,0.0527 -0.0155,0.0837 -0.0093,0.031 -0.0279,0.0434 -0.0186,0.009 -0.04341,0.009 -0.0279,0 -0.08682,-0.031 -0.05891,-0.0341 -0.148828,-0.0713 -0.08682,-0.0372 -0.204639,-0.0682 -0.114721,-0.0341 -0.26355,-0.0341 -0.105419,0 -0.182934,0.0217 -0.07751,0.0217 -0.127124,0.062 -0.04961,0.0403 -0.07441,0.0961 -0.02481,0.0527 -0.02481,0.11472 0,0.0961 0.05891,0.16123 0.05891,0.0651 0.15503,0.11472 0.09612,0.0496 0.217041,0.093 0.124023,0.0434 0.248046,0.0961 0.127124,0.0496 0.248047,0.11782 0.124024,0.0682 0.220142,0.16743 0.09612,0.0992 0.155029,0.23875 0.05891,0.13642 0.05891,0.32556 z"
                    id="path8697"/>
        </g>
    </g>
    <g
            id="components">
        <circle
                style="fill:#0000ff"
                id="Knob1"
                cx="6.4445949"
                cy="80.549988"
                r="1.8404053"/>
        <circle
                style="display:inline;fill:#0000ff;fill-opacity:1;stroke:#000000;stroke-width:0;stroke-linecap:square;stroke-linejoin:bevel;stroke-dasharray:none"
                id="Knob2"
                cx="22.118723"
                cy="80.549988"
                r="1.8404053"
                inkscape:label="Knob2"/>
        <circle
                style="display:inline;fill:#0000ff;fill-opacity:1;stroke:#000000;stroke-width:0;stroke-linecap:square;stroke-linejoin:bevel;stroke-dasharray:none"
                id="Knob3"
                cx="38.767872"
                cy="80.549988"
                r="1.8404053"
                inkscape:label="Knob3"/>
        <circle
                style="display:inline;fill:#0000ff;fill-opacity:1;stroke:#000000;stroke-width:0;stroke-linecap:square;stroke-linejoin:bevel;stroke-dasharray:none"
                id="Knob4"
                cx="56.030121"
                cy="80.549988"
                r="1.8404053"
                inkscape:label="Knob4"/>
        <circle
                style="display:inline;fill:#0000ff;fill-opacity:1;stroke:#000000;stroke-width:0;stroke-linecap:square;stroke-linejoin:bevel;stroke-dasharray:none"
                id="Knob5"
                cx="6.4445949"
                cy="93.164406"
                r="1.8404053"
                inkscape:label="Knob5"/>
        <circle
                style="display:inline;fill:#0000ff;fill-opacity:1;stroke:#000000;stroke-width:0;stroke-linecap:square;stroke-linejoin:bevel;stroke-dasharray:none"
                id="Knob6"
                cx="22.118723"
                cy="93.164406"
                r="1.8404053"
                inkscape:label="Knob6"/>
        <circle
                style="display:inline;fill:#0000ff;fill-opacity:1;stroke:#000000;stroke-width:0;stroke-linecap:square;stroke-linejoin:bevel;stroke-dasharray:none"
                id="Knob7"
                cx="38.767872"
                cy="93.164406"
                r="1.8404053"
                inkscape:label="Knob7"/>
        <circle
                style="display:inline;fill:#0000ff;fill-opacity:1;stroke:#000000;stroke-width:0;stroke-linecap:square;stroke-linejoin:bevel;stroke-dasharray:none"
                id="Knob8"
                cx="55.427715"
                cy="93.164406"
                r="1.8404053"
                inkscape:label="Knob8"/>
        <circle
                style="display:inline;fill:#0000ff;fill-opacity:1;stroke:#000000;stroke-width:0;stroke-linecap:square;stroke-linejoin:bevel;stroke-dasharray:none"
                id="Slider1"
                cx="6.4445949"
                cy="115.84241"
                r="1.8404053"
                inkscape:label="Slider1"/>
        <circle
                style="display:inline;fill:#0000ff;fill-opacity:1;stroke:#000000;stroke-width:0;stroke-linecap:square;stroke-linejoin:bevel;stroke-dasharray:none"
                id="Slider2"
                cx="22.118723"
                cy="115.84241"
                r="1.8404053"
                inkscape:label="Slider2"/>
        <circle
                style="display:inline;fill:#0000ff;fill-opacity:1;stroke:#000000;stroke-width:0;stroke-linecap:square;stroke-linejoin:bevel;stroke-dasharray:none"
                id="Slider3"
                cx="38.767872"
                cy="115.84241"
                r="1.8404053"
                inkscape:label="Slider3"/>
        <circle
                style="display:inline;fill:#0000ff;fill-opacity:1;stroke:#000000;stroke-width:0;stroke-linecap:square;stroke-linejoin:bevel;stroke-dasharray:none"
                id="Slider4"
                cx="55.72892"
                cy="115.84241"
                r="1.8404053"
                inkscape:label="Slider4"/>
        <circle
                style="fill:#0000ff;display:inline;"
                id="Bend"
                cx="5.4695721"
                cy="58.756405"
                r="1.8404053"
                inkscape:label="Bend"/>
        <circle
                style="display:inline;fill:#0000ff;fill-opacity:1;stroke:#000000;stroke-width:0;stroke-linecap:square;stroke-linejoin:bevel;stroke-dasharray:none"
                id="Mod"
                cx="22.118723"
                cy="58.756405"
                r="1.8404053"
                inkscape:label="Mod"/>
        <circle
                style="display:inline;fill:#0000ff;fill-opacity:1;stroke:#000000;stroke-width:0;stroke-linecap:square;stroke-linejoin:bevel;stroke-dasharray:none"
                id="Note"
                cx="38.767872"
                cy="58.756405"
                r="1.8404053"
                inkscape:label="Note"/>
        <circle
                style="display:inline;fill:#0000ff;fill-opacity:1;stroke:#000000;stroke-width:0;stroke-linecap:square;stroke-linejoin:bevel;stroke-dasharray:none"
                id="Velocity"
                cx="55.417023"
                cy="58.756405"
                r="1.8404053"
                inkscape:label="Velocity"/>
    </g>
</svg>
