<?xml version="1.0" encoding="UTF-8" standalone="no"?>
<svg
   width="15.24mm"
   height="128.5mm"
   viewBox="0 0 15.24 128.5"
   version="1.1"
   id="svg77"
   sodipodi:docname="SimpleSlew.svg"
   inkscape:version="1.2.2 (732a01da63, 2022-12-09)"
   xmlns:inkscape="http://www.inkscape.org/namespaces/inkscape"
   xmlns:sodipodi="http://sodipodi.sourceforge.net/DTD/sodipodi-0.dtd"
   xmlns="http://www.w3.org/2000/svg"
   xmlns:svg="http://www.w3.org/2000/svg"
   xmlns:rdf="http://www.w3.org/1999/02/22-rdf-syntax-ns#"
   xmlns:cc="http://creativecommons.org/ns#"
   xmlns:dc="http://purl.org/dc/elements/1.1/">
  <metadata
     id="metadata81">
    <rdf:RDF>
      <cc:Work
         rdf:about="">
        <dc:format>image/svg+xml</dc:format>
        <dc:type
           rdf:resource="http://purl.org/dc/dcmitype/StillImage" />
      </cc:Work>
    </rdf:RDF>
  </metadata>
  <sodipodi:namedview
     pagecolor="#ffffff"
     bordercolor="#666666"
     borderopacity="1"
     objecttolerance="10"
     gridtolerance="10"
     guidetolerance="10"
     inkscape:pageopacity="0"
     inkscape:pageshadow="2"
     inkscape:window-width="2560"
     inkscape:window-height="1369"
     id="namedview79"
     showgrid="false"
     inkscape:zoom="1.7566021"
     inkscape:cx="1.9924831"
     inkscape:cy="214.04961"
     inkscape:window-x="-8"
     inkscape:window-y="-8"
     inkscape:window-maximized="1"
     inkscape:current-layer="svg77"
     inkscape:showpageshadow="2"
     inkscape:pagecheckerboard="0"
     inkscape:deskcolor="#d1d1d1"
     inkscape:document-units="mm" />
  <defs
     id="defs7">
    <inkscape:path-effect
       effect="bspline"
       id="path-effect9545"
       is_visible="true"
       lpeversion="1"
       weight="33.333333"
       steps="2"
       helper_size="0"
       apply_no_weight="true"
       apply_with_weight="true"
       only_selected="false" />
    <rect
       x="2.8464043"
       y="2.8464043"
       width="109.30193"
       height="44.97319"
       id="rect3655" />
    <inkscape:path-effect
       effect="bspline"
       id="path-effect4941"
       is_visible="true"
       lpeversion="1"
       weight="33.333333"
       steps="2"
       helper_size="0"
       apply_no_weight="true"
       apply_with_weight="true"
       only_selected="false" />
    <rect
       x="10.531696"
       y="12.239539"
       width="117.84114"
       height="29.602606"
       id="rect2547" />
    <rect
       x="1.4088984"
       y="349.40677"
       width="41.461864"
       height="15.497881"
       id="rect2283" />
    <linearGradient
       id="ac8d1727-7c79-4228-b8d5-555b51dac3b3"
       x1="22.5"
       x2="22.5"
       y2="380"
       gradientUnits="userSpaceOnUse"
       gradientTransform="scale(0.11288889,0.33815791)">
      <stop
         offset="0"
         stop-color="#ebebeb"
         id="stop2" />
      <stop
         offset="1"
         stop-color="#e1e1e1"
         id="stop4" />
    </linearGradient>
    <inkscape:path-effect
       effect="bspline"
       id="path-effect4941-8"
       is_visible="true"
       lpeversion="1"
       weight="33.333333"
       steps="2"
       helper_size="0"
       apply_no_weight="true"
       apply_with_weight="true"
       only_selected="false" />
    <rect
       x="1.4088984"
       y="349.40677"
       width="41.461864"
       height="15.497881"
       id="rect5439" />
    <rect
       x="10.531696"
       y="12.239539"
       width="117.84114"
       height="29.602606"
       id="rect5441" />
    <rect
       x="2.8464043"
       y="2.8464043"
       width="109.30193"
       height="44.97319"
       id="rect6571" />
    <inkscape:path-effect
       effect="bspline"
       id="path-effect9545-6"
       is_visible="true"
       lpeversion="1"
       weight="33.333333"
       steps="2"
       helper_size="0"
       apply_no_weight="true"
       apply_with_weight="true"
       only_selected="false" />
    <rect
       x="2.8464043"
       y="2.8464043"
       width="109.30193"
       height="44.97319"
       id="rect11399" />
    <rect
       x="2.8464043"
       y="2.8464043"
       width="109.30193"
       height="44.97319"
       id="rect2142" />
  </defs>
  <g
     id="e971151b-56b5-4702-8bc4-71e0018dd9aa"
     data-name="FND BG"
     transform="scale(3,1)"
     inkscape:label="design">
    <rect
       width="5.0799999"
       height="128.5"
       fill="url(#ac8d1727-7c79-4228-b8d5-555b51dac3b3)"
       id="rect9"
       x="0"
       y="0"
       style="fill:url(#ac8d1727-7c79-4228-b8d5-555b51dac3b3);stroke-width:0.195384"
       inkscape:label="background" />
    <rect
       x="1.04"
       y="99.407028"
       width="3"
       height="17.809584"
       rx="0.29784545"
       fill="#1f1f1f"
       id="rect24-8"
       style="stroke-width:0.0779452"
       inkscape:label="out-box" />
  </g>
  <g
     id="g6569"
     inkscape:label="text-editable"
     style="display:none">
    <text
       xml:space="preserve"
       transform="matrix(0.26458333,0,0,0.26458333,-7.5974173,4.6002961)"
       id="text6551"
       style="font-weight:bold;font-size:24px;font-family:Calibri;-inkscape-font-specification:'Calibri Bold';text-align:center;white-space:pre;shape-inside:url(#rect6571);display:inline;fill:#000000;fill-opacity:1;stroke:#000000;stroke-width:0;stroke-dasharray:none"
       inkscape:label="title"><tspan
         x="46.15332"
         y="23.845703"
         id="tspan2325">SS</tspan></text>
    <text
       xml:space="preserve"
       style="font-weight:bold;font-size:3.52778px;font-family:Calibri;-inkscape-font-specification:'Calibri Bold';text-align:center;text-anchor:middle;display:inline;fill:#ffffff;fill-opacity:1;stroke:#000000;stroke-width:0;stroke-dasharray:none"
       x="7.6320577"
       y="104.52922"
       id="text6555-4"
       inkscape:label="out"><tspan
         sodipodi:role="line"
         id="tspan6553-4"
         style="font-size:3.52778px;fill:#ffffff;fill-opacity:1;stroke-width:0"
         x="7.6320577"
         y="104.52922">out</tspan></text>
    <text
       xml:space="preserve"
       style="font-style:normal;font-variant:normal;font-weight:300;font-stretch:normal;font-size:2.82222px;font-family:Calibri;-inkscape-font-specification:'Calibri Light';text-align:center;text-anchor:middle;fill:#000000;fill-opacity:1;stroke:#ff00ff;stroke-width:0;stroke-dasharray:none;stroke-opacity:1"
       x="7.5366282"
       y="123.15298"
       id="text10243"
       inkscape:label="brand"><tspan
         sodipodi:role="line"
         id="tspan10241"
         style="font-style:normal;font-variant:normal;font-weight:300;font-stretch:normal;font-size:2.82222px;font-family:Calibri;-inkscape-font-specification:'Calibri Light';fill:#000000;fill-opacity:1;stroke-width:0;stroke-dasharray:none"
         x="7.5366287"
         y="123.15298">ldlework</tspan></text>
    <text
       xml:space="preserve"
       style="font-weight:bold;font-size:3.52778px;font-family:Calibri;-inkscape-font-specification:'Calibri Bold';text-align:center;text-anchor:middle;display:inline;fill:#000000;fill-opacity:1;stroke:#000000;stroke-width:0;stroke-dasharray:none"
       x="7.6320577"
       y="23.213226"
       id="text6555-8"
       inkscape:label="speed"
       transform="translate(5.5762943e-8,39.387775)"><tspan
         sodipodi:role="line"
         id="tspan6553-9"
         style="font-size:3.52778px;stroke-width:0"
         x="7.6320577"
         y="23.213226">speed</tspan></text>
    <text
       xml:space="preserve"
       style="font-weight:bold;font-size:3.52778px;font-family:Calibri;-inkscape-font-specification:'Calibri Bold';text-align:center;text-anchor:middle;display:inline;fill:#000000;fill-opacity:1;stroke:#000000;stroke-width:0;stroke-dasharray:none"
       x="7.6320577"
       y="23.213226"
       id="text6555"
       inkscape:label="in"
       transform="translate(0,2.899995)"><tspan
         sodipodi:role="line"
         id="tspan6553"
         style="font-size:3.52778px;stroke-width:0"
         x="7.6320577"
         y="23.213226">in</tspan></text>
  </g>
  <g
     id="components">
    <circle
       style="fill:#0000ff;fill-opacity:1"
       id="Velocity-2-2-2-5-6"
       cx="7.6199999"
       cy="109.74687"
       r="1"
       inkscape:label="CV" />
    <circle
       style="fill:#ff0000;fill-opacity:1"
       id="Gate-5"
       cx="7.6199999"
       cy="70.737999"
       r="1"
       inkscape:label="Speed" />
    <circle
       style="fill:#00ff00"
       id="Gate"
       cx="7.6199999"
       cy="30.750441"
       r="1"
       inkscape:label="CV" />
  </g>
  <g
     id="g2140"
     inkscape:label="text-paths"
     style="display:inline">
    <g
       aria-label="SS"
       transform="matrix(0.26458333,0,0,0.26458333,-7.5974173,4.6002961)"
       id="text2122"
       style="font-weight:bold;font-size:24px;font-family:Calibri;-inkscape-font-specification:'Calibri Bold';text-align:center;white-space:pre;shape-inside:url(#rect2142);display:inline;stroke:#000000;stroke-width:0"
       inkscape:label="title">
      <path
         d="m 56.793945,19.298828 q 0,1.195313 -0.445312,2.097656 -0.445313,0.902344 -1.207031,1.511719 -0.761719,0.597656 -1.78125,0.902344 -1.019532,0.304687 -2.179688,0.304687 -0.785156,0 -1.464844,-0.128906 -0.667968,-0.128906 -1.183593,-0.304687 -0.515625,-0.1875 -0.867188,-0.386719 -0.339844,-0.199219 -0.492187,-0.351563 -0.152344,-0.152343 -0.222657,-0.433593 -0.05859,-0.292969 -0.05859,-0.832032 0,-0.363281 0.02344,-0.609375 0.02344,-0.246093 0.07031,-0.398437 0.05859,-0.152344 0.140625,-0.210938 0.09375,-0.07031 0.210937,-0.07031 0.164063,0 0.457031,0.199219 0.304688,0.1875 0.773438,0.421875 0.46875,0.234375 1.113281,0.433593 0.65625,0.1875 1.511719,0.1875 0.5625,0 1.007812,-0.128906 0.445313,-0.140625 0.75,-0.386719 0.316407,-0.246093 0.480469,-0.609375 0.164063,-0.363281 0.164063,-0.808593 0,-0.515625 -0.28125,-0.878907 -0.28125,-0.375 -0.738282,-0.65625 -0.445312,-0.292968 -1.019531,-0.539062 -0.574219,-0.257813 -1.183594,-0.539063 -0.609375,-0.28125 -1.183593,-0.632812 -0.574219,-0.363281 -1.03125,-0.855469 -0.445313,-0.503906 -0.726563,-1.183594 -0.28125,-0.679687 -0.28125,-1.628906 0,-1.089844 0.398438,-1.910156 0.410156,-0.832031 1.089843,-1.3710939 0.691407,-0.5507812 1.617188,-0.8203125 0.9375,-0.2695312 1.980469,-0.2695312 0.539062,0 1.078125,0.082031 0.539062,0.082031 1.007812,0.2226563 0.46875,0.140625 0.832031,0.3164062 0.363282,0.1757813 0.480469,0.2929688 0.117188,0.1171875 0.152344,0.1992187 0.04687,0.082031 0.07031,0.2226563 0.03516,0.1289062 0.04687,0.3398441 0.01172,0.199218 0.01172,0.503906 0,0.339844 -0.02344,0.574219 -0.01172,0.234375 -0.05859,0.386718 -0.03516,0.152344 -0.117188,0.222657 -0.07031,0.07031 -0.199218,0.07031 -0.128907,0 -0.410157,-0.164062 -0.28125,-0.164063 -0.691406,-0.351563 -0.410156,-0.199219 -0.949219,-0.351562 -0.539062,-0.164063 -1.183593,-0.164063 -0.503907,0 -0.878907,0.128906 -0.375,0.117188 -0.632812,0.339844 -0.246094,0.210938 -0.375,0.515625 -0.117188,0.304688 -0.117188,0.644531 0,0.503907 0.269532,0.878907 0.28125,0.363281 0.738281,0.65625 0.46875,0.28125 1.054687,0.539062 0.585938,0.246094 1.195313,0.527344 0.609375,0.28125 1.195312,0.644531 0.585938,0.351563 1.042969,0.855469 0.457031,0.492187 0.738281,1.171875 0.28125,0.667969 0.28125,1.582031 z"
         id="path2144" />
      <path
         d="m 68.137695,19.298828 q 0,1.195313 -0.445312,2.097656 -0.445313,0.902344 -1.207031,1.511719 -0.761719,0.597656 -1.78125,0.902344 -1.019532,0.304687 -2.179688,0.304687 -0.785156,0 -1.464844,-0.128906 -0.667968,-0.128906 -1.183593,-0.304687 -0.515625,-0.1875 -0.867188,-0.386719 -0.339844,-0.199219 -0.492187,-0.351563 -0.152344,-0.152343 -0.222657,-0.433593 -0.05859,-0.292969 -0.05859,-0.832032 0,-0.363281 0.02344,-0.609375 0.02344,-0.246093 0.07031,-0.398437 0.05859,-0.152344 0.140625,-0.210938 0.09375,-0.07031 0.210937,-0.07031 0.164063,0 0.457031,0.199219 0.304688,0.1875 0.773438,0.421875 0.46875,0.234375 1.113281,0.433593 0.65625,0.1875 1.511719,0.1875 0.5625,0 1.007812,-0.128906 0.445313,-0.140625 0.75,-0.386719 0.316407,-0.246093 0.480469,-0.609375 0.164063,-0.363281 0.164063,-0.808593 0,-0.515625 -0.28125,-0.878907 -0.28125,-0.375 -0.738282,-0.65625 -0.445312,-0.292968 -1.019531,-0.539062 -0.574219,-0.257813 -1.183594,-0.539063 -0.609375,-0.28125 -1.183593,-0.632812 -0.574219,-0.363281 -1.03125,-0.855469 -0.445313,-0.503906 -0.726563,-1.183594 -0.28125,-0.679687 -0.28125,-1.628906 0,-1.089844 0.398438,-1.910156 0.410156,-0.832031 1.089843,-1.3710939 0.691407,-0.5507812 1.617188,-0.8203125 0.9375,-0.2695312 1.980469,-0.2695312 0.539062,0 1.078125,0.082031 0.539062,0.082031 1.007812,0.2226563 0.46875,0.140625 0.832031,0.3164062 0.363282,0.1757813 0.480469,0.2929688 0.117188,0.1171875 0.152344,0.1992187 0.04687,0.082031 0.07031,0.2226563 0.03516,0.1289062 0.04687,0.3398441 0.01172,0.199218 0.01172,0.503906 0,0.339844 -0.02344,0.574219 -0.01172,0.234375 -0.05859,0.386718 -0.03516,0.152344 -0.117188,0.222657 -0.07031,0.07031 -0.199218,0.07031 -0.128907,0 -0.410157,-0.164062 -0.28125,-0.164063 -0.691406,-0.351563 -0.410156,-0.199219 -0.949219,-0.351562 -0.539062,-0.164063 -1.183593,-0.164063 -0.503907,0 -0.878907,0.128906 -0.375,0.117188 -0.632812,0.339844 -0.246094,0.210938 -0.375,0.515625 -0.117188,0.304688 -0.117188,0.644531 0,0.503907 0.269532,0.878907 0.28125,0.363281 0.738281,0.65625 0.46875,0.28125 1.054687,0.539062 0.585938,0.246094 1.195313,0.527344 0.609375,0.28125 1.195312,0.644531 0.585938,0.351563 1.042969,0.855469 0.457031,0.492187 0.738281,1.171875 0.28125,0.667969 0.28125,1.582031 z"
         id="path2146" />
    </g>
    <g
       aria-label="out"
       id="text2126"
       style="font-weight:bold;font-size:3.52778px;font-family:Calibri;-inkscape-font-specification:'Calibri Bold';text-align:center;text-anchor:middle;display:inline;fill:#ffffff;stroke:#000000;stroke-width:0"
       inkscape:label="out">
      <path
         d="m 6.8965293,103.68689 q 0,0.19637 -0.051677,0.35829 -0.051676,0.16192 -0.1567519,0.27906 -0.1050755,0.11713 -0.26355,0.18086 -0.1584745,0.0637 -0.370348,0.0637 -0.2049833,0 -0.3565676,-0.0568 -0.1515843,-0.0568 -0.2514921,-0.16537 -0.099908,-0.10852 -0.1481392,-0.26699 -0.048231,-0.15848 -0.048231,-0.36174 0,-0.19637 0.051677,-0.35829 0.053399,-0.16364 0.1584745,-0.27905 0.1050754,-0.11714 0.2618274,-0.18087 0.1584745,-0.0637 0.370348,-0.0637 0.2067059,0 0.3582902,0.0568 0.1515843,0.0551 0.2497695,0.16364 0.099908,0.10852 0.1481392,0.267 0.048231,0.15847 0.048231,0.36345 z m -0.4461401,0.0172 q 0,-0.11369 -0.018948,-0.20843 -0.017225,-0.0965 -0.060289,-0.16709 -0.043064,-0.0706 -0.1154108,-0.11024 -0.070625,-0.0396 -0.179145,-0.0396 -0.096463,0 -0.1688098,0.0362 -0.072347,0.0344 -0.1188559,0.10335 -0.046509,0.0672 -0.070625,0.16364 -0.022393,0.0947 -0.022393,0.21704 0,0.11369 0.018948,0.21015 0.018948,0.0947 0.060289,0.16537 0.043064,0.0706 0.1154108,0.11024 0.072347,0.0379 0.1791451,0.0379 0.098185,0 0.1705323,-0.0345 0.072347,-0.0362 0.1188559,-0.10336 0.046509,-0.0672 0.068902,-0.16192 0.022393,-0.0965 0.022393,-0.21876 z"
         id="path2149" />
      <path
         d="m 8.6965929,104.47065 q 0,0.0172 -0.00861,0.031 -0.00861,0.0121 -0.031006,0.0207 -0.020671,0.009 -0.056844,0.0121 -0.034451,0.005 -0.08785,0.005 -0.056844,0 -0.093018,-0.005 -0.034451,-0.003 -0.055122,-0.0121 -0.020671,-0.009 -0.029283,-0.0207 -0.00861,-0.0138 -0.00861,-0.031 v -0.17742 q -0.1274686,0.13781 -0.2601049,0.20671 -0.1309137,0.0689 -0.2721627,0.0689 -0.1584745,0 -0.2669951,-0.0517 -0.106798,-0.0517 -0.1739774,-0.14125 -0.065457,-0.0896 -0.09474,-0.2067 -0.027561,-0.11886 -0.027561,-0.29456 v -0.94051 q 0,-0.0172 0.00861,-0.0293 0.010335,-0.0138 0.034451,-0.0224 0.025838,-0.009 0.067179,-0.012 0.043064,-0.005 0.1050754,-0.005 0.063734,0 0.1050755,0.005 0.041341,0.003 0.065457,0.012 0.025838,0.009 0.036173,0.0224 0.010335,0.0121 0.010335,0.0293 v 0.86816 q 0,0.12058 0.015503,0.18432 0.015503,0.0637 0.046509,0.11024 0.032728,0.0448 0.08096,0.0706 0.049954,0.0241 0.1154108,0.0241 0.082682,0 0.1653647,-0.0603 0.084405,-0.0603 0.1791451,-0.1757 v -1.02147 q 0,-0.0172 0.00861,-0.0293 0.010335,-0.0138 0.034451,-0.0224 0.025838,-0.009 0.067179,-0.012 0.041341,-0.005 0.1050755,-0.005 0.063734,0 0.1050755,0.005 0.041341,0.003 0.065457,0.012 0.024116,0.009 0.034451,0.0224 0.010335,0.0121 0.010335,0.0293 z"
         id="path2151" />
      <path
         d="m 10.041904,104.31907 q 0,0.0758 -0.01034,0.11713 -0.0086,0.0396 -0.02412,0.0568 -0.015503,0.0155 -0.046509,0.0293 -0.029283,0.0121 -0.070625,0.0207 -0.039619,0.0103 -0.08785,0.0155 -0.046509,0.005 -0.09474,0.005 -0.1291912,0 -0.2239314,-0.0327 -0.09474,-0.0327 -0.1567519,-0.0999 -0.062012,-0.0689 -0.091295,-0.17226 -0.029283,-0.10335 -0.029283,-0.2446 v -0.78721 H 9.0221546 q -0.032728,0 -0.049954,-0.0396 -0.017226,-0.0413 -0.017226,-0.13609 0,-0.0499 0.00345,-0.0844 0.00517,-0.0345 0.01378,-0.0534 0.00861,-0.0207 0.020671,-0.0293 0.01378,-0.009 0.031006,-0.009 h 0.1825902 v -0.34278 q 0,-0.0172 0.00861,-0.031 0.010335,-0.0138 0.034451,-0.0224 0.025838,-0.0103 0.067179,-0.0138 0.043064,-0.005 0.1050755,-0.005 0.063734,0 0.1050755,0.005 0.043064,0.003 0.067179,0.0138 0.024116,0.009 0.034451,0.0224 0.010335,0.0138 0.010335,0.031 v 0.34278 h 0.3341745 q 0.017226,0 0.029283,0.009 0.01378,0.009 0.02239,0.0293 0.0086,0.0189 0.01206,0.0534 0.0052,0.0345 0.0052,0.0844 0,0.0947 -0.01723,0.13609 -0.01722,0.0396 -0.049954,0.0396 H 9.6388271 v 0.72175 q 0,0.12575 0.039619,0.18948 0.039619,0.062 0.1412491,0.062 0.034451,0 0.062012,-0.005 0.027561,-0.007 0.048231,-0.0138 0.022393,-0.009 0.036174,-0.0138 0.015503,-0.007 0.027561,-0.007 0.010335,0 0.018948,0.007 0.01034,0.005 0.0155,0.0241 0.0052,0.0172 0.0086,0.0482 0.0052,0.031 0.0052,0.0792 z"
         id="path2153" />
    </g>
    <g
       aria-label="ldlework"
       id="text2130"
       style="font-weight:300;font-size:2.82222px;font-family:Calibri;-inkscape-font-specification:'Calibri Light';text-align:center;text-anchor:middle;stroke:#ff00ff;stroke-width:0"
       inkscape:label="brand">
      <path
         d="m 3.0676538,123.12542 q 0,0.008 -0.00413,0.0151 -0.00413,0.007 -0.01378,0.011 -0.00827,0.004 -0.024805,0.007 -0.015158,0.003 -0.039963,0.003 -0.023427,0 -0.039963,-0.003 -0.015159,-0.003 -0.024805,-0.007 -0.00965,-0.004 -0.01378,-0.011 -0.00276,-0.007 -0.00276,-0.0151 v -1.8576 q 0,-0.008 0.00276,-0.0152 0.00413,-0.007 0.01378,-0.011 0.00965,-0.006 0.024805,-0.007 0.016536,-0.003 0.039963,-0.003 0.024805,0 0.039963,0.003 0.016536,0.001 0.024805,0.007 0.00965,0.004 0.01378,0.011 0.00413,0.007 0.00413,0.0152 z"
         id="path2156" />
      <path
         d="m 4.5325072,123.12542 q 0,0.01 -0.00413,0.0165 -0.00276,0.007 -0.012402,0.011 -0.00827,0.004 -0.022049,0.006 -0.01378,0.003 -0.034451,0.003 -0.022049,0 -0.037207,-0.003 -0.01378,-0.001 -0.023427,-0.006 -0.00827,-0.004 -0.01378,-0.011 -0.00413,-0.007 -0.00413,-0.0165 v -0.17915 q -0.099219,0.10749 -0.2053275,0.1695 -0.1061089,0.0606 -0.2315102,0.0606 -0.1350477,0 -0.2301322,-0.0524 -0.095085,-0.0524 -0.1557182,-0.14194 -0.059256,-0.0896 -0.086816,-0.20946 -0.027561,-0.12127 -0.027561,-0.25632 0,-0.15847 0.034451,-0.28525 0.034451,-0.12816 0.1019748,-0.21773 0.067524,-0.0896 0.1667425,-0.1378 0.099219,-0.0482 0.2301322,-0.0482 0.112999,0 0.2067055,0.051 0.093707,0.0496 0.184657,0.14745 v -0.75103 q 0,-0.008 0.00276,-0.0152 0.00413,-0.007 0.01378,-0.011 0.00965,-0.004 0.024805,-0.007 0.016536,-0.003 0.039963,-0.003 0.024805,0 0.039963,0.003 0.016536,0.003 0.024805,0.007 0.00965,0.004 0.01378,0.011 0.00413,0.007 0.00413,0.0152 z m -0.1639864,-0.89986 q -0.1033528,-0.1254 -0.1998154,-0.19155 -0.095085,-0.0661 -0.1998154,-0.0661 -0.095085,0 -0.1626083,0.0455 -0.067524,0.0455 -0.110243,0.11989 -0.042719,0.0744 -0.062012,0.16812 -0.019293,0.0937 -0.019293,0.19017 0,0.10335 0.016536,0.20119 0.016536,0.0978 0.0565,0.17501 0.039963,0.0758 0.1061088,0.12265 0.066146,0.0455 0.1653645,0.0455 0.049609,0 0.096463,-0.0138 0.046853,-0.0138 0.096463,-0.0455 0.049609,-0.0317 0.1019747,-0.0813 0.053743,-0.051 0.1143771,-0.1254 z"
         id="path2158" />
      <path
         d="m 5.1567582,123.12542 q 0,0.008 -0.00413,0.0151 -0.00413,0.007 -0.01378,0.011 -0.00827,0.004 -0.024805,0.007 -0.015158,0.003 -0.039963,0.003 -0.023427,0 -0.039963,-0.003 -0.015158,-0.003 -0.024805,-0.007 -0.00965,-0.004 -0.01378,-0.011 -0.00276,-0.007 -0.00276,-0.0151 v -1.8576 q 0,-0.008 0.00276,-0.0152 0.00413,-0.007 0.01378,-0.011 0.00965,-0.006 0.024805,-0.007 0.016536,-0.003 0.039963,-0.003 0.024805,0 0.039963,0.003 0.016536,0.001 0.024805,0.007 0.00965,0.004 0.01378,0.011 0.00413,0.007 0.00413,0.0152 z"
         id="path2160" />
      <path
         d="m 6.6326358,122.43778 q 0,0.0496 -0.026183,0.0689 -0.026183,0.0179 -0.050987,0.0179 H 5.7052168 q 0,0.11576 0.022049,0.20946 0.023427,0.0937 0.075792,0.16123 0.052365,0.0661 0.1364257,0.10198 0.08406,0.0358 0.2067056,0.0358 0.086816,0 0.1557181,-0.0152 0.068902,-0.0152 0.1185112,-0.0331 0.050987,-0.0193 0.082682,-0.0344 0.033073,-0.0152 0.046853,-0.0152 0.00827,0 0.015158,0.004 0.00689,0.004 0.011024,0.0138 0.00413,0.008 0.00551,0.0221 0.00276,0.0138 0.00276,0.0344 0,0.01 -0.00138,0.0193 -0.00138,0.008 -0.00413,0.0165 -0.00138,0.007 -0.00551,0.0138 -0.00413,0.007 -0.011024,0.0138 -0.00689,0.007 -0.042719,0.0248 -0.035829,0.0165 -0.093707,0.0345 -0.057878,0.0165 -0.1350476,0.0303 -0.075792,0.0138 -0.1639865,0.0138 -0.1446939,0 -0.2563149,-0.0427 -0.111621,-0.0441 -0.187413,-0.12815 -0.075792,-0.0854 -0.1157552,-0.21084 -0.038585,-0.1254 -0.038585,-0.29077 0,-0.15847 0.039963,-0.28387 0.041341,-0.12541 0.1171331,-0.21222 0.075792,-0.0882 0.1819009,-0.13367 0.1074869,-0.0469 0.2384005,-0.0469 0.1405598,0 0.2397784,0.0469 0.099219,0.0468 0.1626084,0.12678 0.064768,0.0786 0.093707,0.18328 0.030317,0.10473 0.030317,0.22048 z m -0.1694986,-0.0482 q 0.00413,-0.19843 -0.09095,-0.31005 -0.095085,-0.11162 -0.2769854,-0.11162 -0.093707,0 -0.1653645,0.0358 -0.07028,0.0344 -0.1198892,0.0923 -0.048231,0.0579 -0.074414,0.13505 -0.026183,0.0758 -0.030317,0.15847 z"
         id="path2162" />
      <path
         d="m 8.6514605,121.87554 q 0,0.007 -0.00276,0.0165 -0.00138,0.008 -0.00413,0.0193 l -0.3858505,1.21405 q -0.00276,0.011 -0.011024,0.0179 -0.00689,0.007 -0.019293,0.011 -0.012402,0.004 -0.033073,0.006 -0.019293,0.001 -0.046853,0.001 -0.028939,0 -0.049609,-0.003 -0.02067,-0.001 -0.034451,-0.006 -0.012402,-0.004 -0.020671,-0.011 -0.00689,-0.007 -0.00965,-0.0165 l -0.2893878,-0.98392 -0.00276,-0.011 -0.00276,0.011 -0.2700952,0.98392 q -0.00276,0.011 -0.011024,0.0179 -0.00827,0.007 -0.023427,0.011 -0.01378,0.004 -0.034451,0.006 -0.020671,0.001 -0.046853,0.001 -0.027561,0 -0.046853,-0.003 -0.019292,-0.001 -0.033073,-0.006 -0.012402,-0.004 -0.019293,-0.011 -0.00689,-0.007 -0.00965,-0.0165 l -0.3830943,-1.21405 q -0.00413,-0.01 -0.00689,-0.0193 -0.00138,-0.01 -0.00138,-0.0165 0,-0.01 0.00413,-0.0165 0.00413,-0.007 0.01378,-0.01 0.00965,-0.004 0.024805,-0.006 0.015158,-0.001 0.037207,-0.001 0.028939,0 0.046853,0.003 0.017914,0.001 0.026183,0.006 0.00965,0.004 0.01378,0.011 0.00413,0.007 0.00689,0.0165 l 0.3293509,1.08865 0.00276,0.01 0.00276,-0.01 0.299034,-1.08865 q 0.00276,-0.01 0.00689,-0.0165 0.00551,-0.007 0.01378,-0.011 0.00965,-0.004 0.024805,-0.006 0.016536,-0.003 0.041341,-0.003 0.023427,0 0.038585,0.003 0.015158,0.001 0.024805,0.006 0.00965,0.004 0.01378,0.011 0.00413,0.007 0.00689,0.0165 l 0.3224607,1.08865 0.00276,0.01 0.00138,-0.01 0.3279729,-1.08865 q 0.00276,-0.01 0.00689,-0.0165 0.00551,-0.007 0.015158,-0.011 0.00965,-0.004 0.026183,-0.006 0.017914,-0.003 0.045475,-0.003 0.022049,0 0.035829,0.001 0.01378,0.001 0.022049,0.006 0.00827,0.004 0.011024,0.011 0.00276,0.006 0.00276,0.0152 z"
         id="path2164" />
      <path
         d="m 10.044656,122.48876 q 0,0.14883 -0.03858,0.27423 -0.038585,0.1254 -0.1157552,0.21773 -0.075792,0.0923 -0.1901691,0.1447 -0.1143771,0.051 -0.2659612,0.051 -0.1460719,0 -0.2563149,-0.0455 -0.1088649,-0.0469 -0.1832789,-0.13229 -0.073036,-0.0868 -0.110243,-0.20946 -0.035829,-0.12265 -0.035829,-0.27699 0,-0.14883 0.037207,-0.27423 0.038585,-0.1254 0.114377,-0.21635 0.07717,-0.0923 0.1915472,-0.14332 0.1143771,-0.051 0.2673392,-0.051 0.1460719,0 0.2549369,0.0455 0.110243,0.0455 0.1832789,0.13229 0.073036,0.0854 0.110243,0.20809 0.03721,0.12264 0.03721,0.2756 z m -0.1736327,0.0152 q 0,-0.10611 -0.02067,-0.20257 -0.020671,-0.0965 -0.068902,-0.1695 -0.048231,-0.0744 -0.1295355,-0.11713 -0.081304,-0.0441 -0.2025714,-0.0441 -0.1116211,0 -0.1929252,0.04 -0.081304,0.04 -0.1336697,0.11163 -0.050987,0.0703 -0.075792,0.16674 -0.024805,0.0965 -0.024805,0.20808 0,0.10749 0.020671,0.20533 0.02067,0.0965 0.068902,0.1695 0.048231,0.073 0.1295355,0.11575 0.081304,0.0427 0.2025715,0.0427 0.111621,0 0.1929252,-0.04 0.081304,-0.04 0.1322916,-0.11024 0.052365,-0.0703 0.07717,-0.16675 0.024805,-0.0965 0.024805,-0.20946 z"
         id="path2166" />
      <path
         d="m 11.104366,121.94168 q 0,0.0207 -0.0014,0.0358 -0.0014,0.0138 -0.0055,0.0234 -0.0028,0.008 -0.0083,0.0138 -0.0041,0.004 -0.0124,0.004 -0.0124,0 -0.02894,-0.006 -0.01654,-0.007 -0.03858,-0.0138 -0.02205,-0.007 -0.04823,-0.0124 -0.02618,-0.007 -0.05788,-0.007 -0.03721,0 -0.07304,0.0165 -0.03583,0.0152 -0.07579,0.051 -0.03859,0.0344 -0.08268,0.0923 -0.04272,0.0579 -0.09509,0.14194 v 0.84336 q 0,0.008 -0.0041,0.0151 -0.0041,0.007 -0.01378,0.011 -0.0083,0.004 -0.02481,0.007 -0.01516,0.003 -0.03996,0.003 -0.02343,0 -0.03996,-0.003 -0.01516,-0.003 -0.0248,-0.007 -0.0096,-0.004 -0.01378,-0.011 -0.0028,-0.007 -0.0028,-0.0151 v -1.24713 q 0,-0.008 0.0028,-0.0152 0.0041,-0.007 0.01378,-0.011 0.0096,-0.006 0.02343,-0.007 0.01516,-0.003 0.03858,-0.003 0.02343,0 0.03858,0.003 0.01516,0.001 0.02343,0.007 0.0083,0.004 0.01102,0.011 0.0041,0.007 0.0041,0.0152 v 0.19706 q 0.05374,-0.0786 0.09922,-0.12678 0.04547,-0.0482 0.08682,-0.0744 0.04134,-0.0276 0.07993,-0.0372 0.03996,-0.01 0.0813,-0.01 0.01792,0 0.04134,0.003 0.02343,0.001 0.04961,0.007 0.02756,0.006 0.04823,0.0138 0.02205,0.007 0.03032,0.0138 0.0083,0.006 0.01102,0.011 0.0028,0.004 0.0041,0.0124 0.0028,0.007 0.0028,0.0207 0.0014,0.0124 0.0014,0.0331 z"
         id="path2168" />
      <path
         d="m 12.336332,123.12266 q 0,0.01 -0.0041,0.0165 -0.0041,0.007 -0.01378,0.0124 -0.0096,0.004 -0.02618,0.007 -0.01654,0.003 -0.04272,0.003 -0.02756,0 -0.04547,-0.003 -0.01792,-0.001 -0.0317,-0.006 -0.0124,-0.004 -0.02205,-0.011 -0.0083,-0.007 -0.01654,-0.0165 l -0.584288,-0.70831 v 0.70831 q 0,0.008 -0.0041,0.0151 -0.0041,0.007 -0.01378,0.011 -0.0083,0.004 -0.0248,0.007 -0.01516,0.003 -0.03996,0.003 -0.02343,0 -0.03996,-0.003 -0.01516,-0.003 -0.02481,-0.007 -0.0096,-0.004 -0.01378,-0.011 -0.0028,-0.007 -0.0028,-0.0151 v -1.8576 q 0,-0.008 0.0028,-0.0152 0.0041,-0.007 0.01378,-0.011 0.0096,-0.006 0.02481,-0.007 0.01654,-0.003 0.03996,-0.003 0.0248,0 0.03996,0.003 0.01654,0.001 0.0248,0.007 0.0096,0.004 0.01378,0.011 0.0041,0.007 0.0041,0.0152 v 1.14653 l 0.525032,-0.53055 q 0.01102,-0.0124 0.02205,-0.0193 0.0124,-0.008 0.02618,-0.0124 0.01378,-0.006 0.0317,-0.007 0.01791,-0.003 0.04134,-0.003 0.02343,0 0.03996,0.001 0.01792,0.001 0.02894,0.006 0.01102,0.004 0.01654,0.011 0.0055,0.006 0.0055,0.0152 0,0.0138 -0.0083,0.0276 -0.0083,0.0124 -0.02894,0.0331 l -0.49885,0.47129 0.553971,0.66146 q 0.01792,0.0207 0.02481,0.0317 0.0069,0.011 0.0069,0.022 z"
         id="path2170" />
    </g>
    <g
       aria-label="speed"
       transform="translate(5.5762943e-8,39.387775)"
       id="text2134"
       style="font-weight:bold;font-size:3.52778px;font-family:Calibri;-inkscape-font-specification:'Calibri Bold';text-align:center;text-anchor:middle;display:inline;stroke:#000000;stroke-width:0"
       inkscape:label="speed">
      <path
         d="m 4.5581692,22.720577 q 0,0.130914 -0.049954,0.230822 -0.048231,0.09991 -0.1378039,0.167087 -0.089573,0.06718 -0.2118735,0.09991 -0.122301,0.03445 -0.2652725,0.03445 -0.086128,0 -0.1653647,-0.01378 -0.077515,-0.01206 -0.1395265,-0.03101 -0.062012,-0.02067 -0.1033529,-0.04134 -0.041341,-0.02067 -0.060289,-0.0379 -0.018948,-0.01895 -0.029283,-0.05684 -0.010335,-0.03962 -0.010335,-0.11541 0,-0.04995 0.00345,-0.07924 0.00345,-0.03101 0.010335,-0.04823 0.00689,-0.01895 0.017225,-0.02412 0.010335,-0.0069 0.025838,-0.0069 0.018948,0 0.055122,0.02239 0.037896,0.02067 0.093018,0.04651 0.055121,0.02584 0.1274686,0.04823 0.07407,0.02239 0.1670872,0.02239 0.058567,0 0.103353,-0.01206 0.046509,-0.01206 0.079237,-0.03445 0.034451,-0.02239 0.051677,-0.05684 0.017226,-0.03445 0.017226,-0.07924 0,-0.05168 -0.032729,-0.08785 -0.031006,-0.0379 -0.084405,-0.06546 -0.051676,-0.02756 -0.1188558,-0.05168 -0.065457,-0.02412 -0.1360814,-0.0534 -0.068902,-0.02928 -0.1360813,-0.06718 -0.065457,-0.0379 -0.1188559,-0.09302 -0.051677,-0.05512 -0.084405,-0.132636 -0.031006,-0.07752 -0.031006,-0.186036 0,-0.110243 0.043064,-0.201538 0.043064,-0.09302 0.1240235,-0.158474 0.08096,-0.06546 0.1963706,-0.101631 0.1171333,-0.03617 0.2618274,-0.03617 0.072347,0 0.1395265,0.01034 0.068902,0.01034 0.1240235,0.02584 0.055122,0.0155 0.093018,0.03445 0.037896,0.01723 0.053399,0.03101 0.017225,0.01206 0.024116,0.02584 0.00689,0.01206 0.010335,0.03101 0.00345,0.01723 0.00517,0.04479 0.00345,0.02584 0.00345,0.06546 0,0.04651 -0.00345,0.07579 -0.00172,0.02928 -0.00861,0.04651 -0.00517,0.01723 -0.015503,0.02412 -0.010335,0.0052 -0.024116,0.0052 -0.015503,0 -0.048231,-0.01723 -0.032729,-0.01895 -0.082682,-0.03962 -0.048231,-0.02067 -0.1136882,-0.0379 -0.063734,-0.01895 -0.1464167,-0.01895 -0.058567,0 -0.1016303,0.01206 -0.043064,0.01206 -0.070625,0.03445 -0.027561,0.02239 -0.041341,0.0534 -0.01378,0.02928 -0.01378,0.06374 0,0.0534 0.032728,0.08957 0.032728,0.03617 0.086127,0.06373 0.053399,0.02756 0.1205784,0.05168 0.068902,0.02412 0.1378039,0.0534 0.070625,0.02756 0.1378039,0.06546 0.068902,0.0379 0.122301,0.09302 0.053399,0.05512 0.086127,0.132637 0.032728,0.07579 0.032728,0.180867 z"
         id="path2173" />
      <path
         d="m 6.4305798,22.36401 q 0,0.204983 -0.044786,0.370348 -0.043064,0.163642 -0.1274687,0.279053 -0.084405,0.11541 -0.2101509,0.177422 -0.1257461,0.06201 -0.2876657,0.06201 -0.067179,0 -0.1240235,-0.01378 -0.055122,-0.01206 -0.1085206,-0.0379 -0.051676,-0.02756 -0.1033529,-0.06718 -0.051676,-0.03962 -0.106798,-0.09302 v 0.723471 q 0,0.01722 -0.010335,0.03101 -0.010335,0.01378 -0.036173,0.02239 -0.024116,0.01033 -0.065457,0.0155 -0.041341,0.0052 -0.1050755,0.0052 -0.063734,0 -0.1050755,-0.0052 -0.041341,-0.0052 -0.067179,-0.0155 -0.024116,-0.0086 -0.034451,-0.02239 -0.010335,-0.01378 -0.010335,-0.03101 v -2.146296 q 0,-0.01722 0.00861,-0.02928 0.00861,-0.01378 0.029283,-0.02239 0.022393,-0.0086 0.056844,-0.01206 0.036174,-0.0052 0.089573,-0.0052 0.051677,0 0.086127,0.0052 0.036174,0.0034 0.056844,0.01206 0.022393,0.0086 0.031006,0.02239 0.00861,0.01206 0.00861,0.02928 v 0.180868 q 0.067179,-0.0689 0.1309137,-0.120579 0.065457,-0.0534 0.1326362,-0.08785 0.067179,-0.03617 0.1378039,-0.0534 0.072347,-0.01722 0.1533069,-0.01722 0.1688098,0 0.2876657,0.06718 0.1188558,0.06546 0.1929254,0.180868 0.075792,0.115411 0.1102432,0.268717 0.034451,0.153307 0.034451,0.327285 z m -0.4513078,0.03101 q 0,-0.09819 -0.015503,-0.187758 -0.01378,-0.09129 -0.049954,-0.16192 -0.034451,-0.07062 -0.093018,-0.111965 -0.056844,-0.04306 -0.1429715,-0.04306 -0.043064,0 -0.086127,0.01378 -0.041341,0.01206 -0.086127,0.04134 -0.043064,0.02928 -0.089573,0.07579 -0.046509,0.04651 -0.098185,0.11541 v 0.50643 q 0.091295,0.11541 0.1739774,0.179145 0.082682,0.06201 0.1722549,0.06201 0.084405,0 0.1429715,-0.04306 0.060289,-0.04306 0.098185,-0.111966 0.037896,-0.07062 0.055122,-0.158474 0.018948,-0.08785 0.018948,-0.1757 z"
         id="path2175" />
      <path
         d="m 8.1961924,22.341617 q 0,0.07924 -0.036173,0.117133 -0.034451,0.0379 -0.096463,0.0379 h -0.935344 q 0,0.09819 0.022393,0.179145 0.024116,0.07924 0.07407,0.136081 0.051676,0.05512 0.1309137,0.08441 0.08096,0.02928 0.1929254,0.02928 0.1136883,0 0.1998157,-0.0155 0.086127,-0.01723 0.1481392,-0.03617 0.063734,-0.02067 0.1050755,-0.03617 0.041341,-0.01723 0.067179,-0.01723 0.015503,0 0.025838,0.0069 0.010335,0.0052 0.017226,0.02067 0.00689,0.0155 0.00861,0.04479 0.00345,0.02756 0.00345,0.07062 0,0.0379 -0.00172,0.06546 -0.00172,0.02584 -0.00517,0.04479 -0.00345,0.01895 -0.010335,0.03273 -0.00689,0.01206 -0.018948,0.02412 -0.010335,0.01206 -0.060289,0.03273 -0.049954,0.02067 -0.1274686,0.04134 -0.077515,0.01895 -0.1774225,0.03273 -0.099908,0.0155 -0.2135961,0.0155 -0.2049833,0 -0.3600127,-0.05168 Q 6.9955759,23.149492 6.8922229,23.044417 6.78887,22.939341 6.7371935,22.779144 q -0.049954,-0.160197 -0.049954,-0.375516 0,-0.204983 0.053399,-0.368625 0.053399,-0.165365 0.1550294,-0.279053 0.1016304,-0.115411 0.2463245,-0.1757 0.1464167,-0.06029 0.3290068,-0.06029 0.1929255,0 0.3290069,0.05684 0.1378039,0.05684 0.2256539,0.158474 0.08785,0.09991 0.1291911,0.237712 0.041341,0.137804 0.041341,0.299724 z M 7.7758905,22.217593 q 0.00517,-0.18259 -0.07407,-0.285943 -0.077515,-0.105076 -0.2411569,-0.105076 -0.082682,0 -0.1446941,0.03101 -0.060289,0.03101 -0.1016303,0.08441 -0.039619,0.05168 -0.062012,0.124024 -0.020671,0.07062 -0.024116,0.151584 z"
         id="path2177" />
      <path
         d="m 9.9721405,22.341617 q 0,0.07924 -0.036174,0.117133 -0.034451,0.0379 -0.096463,0.0379 h -0.935344 q 0,0.09819 0.022393,0.179145 0.024116,0.07924 0.07407,0.136081 0.051677,0.05512 0.1309137,0.08441 0.08096,0.02928 0.1929255,0.02928 0.1136882,0 0.1998157,-0.0155 0.086127,-0.01723 0.1481392,-0.03617 0.063734,-0.02067 0.1050754,-0.03617 0.041341,-0.01723 0.067179,-0.01723 0.015503,0 0.025838,0.0069 0.010335,0.0052 0.017225,0.02067 0.00689,0.0155 0.00861,0.04479 0.00345,0.02756 0.00345,0.07062 0,0.0379 -0.00172,0.06546 -0.00172,0.02584 -0.00517,0.04479 -0.00345,0.01895 -0.010335,0.03273 -0.00689,0.01206 -0.018948,0.02412 -0.010335,0.01206 -0.060289,0.03273 -0.049954,0.02067 -0.1274687,0.04134 -0.077515,0.01895 -0.1774225,0.03273 -0.099908,0.0155 -0.213596,0.0155 -0.2049834,0 -0.3600128,-0.05168 -0.1533068,-0.05168 -0.2566597,-0.156751 -0.103353,-0.105076 -0.1550294,-0.265273 -0.049954,-0.160197 -0.049954,-0.375516 0,-0.204983 0.053399,-0.368625 0.053399,-0.165365 0.1550294,-0.279053 0.1016303,-0.115411 0.2463245,-0.1757 0.1464166,-0.06029 0.3290068,-0.06029 0.1929255,0 0.3290068,0.05684 0.1378039,0.05684 0.2256539,0.158474 0.08785,0.09991 0.1291912,0.237712 0.041341,0.137804 0.041341,0.299724 z m -0.420302,-0.124024 q 0.00517,-0.18259 -0.07407,-0.285943 -0.077515,-0.105076 -0.2411568,-0.105076 -0.082682,0 -0.1446941,0.03101 -0.060289,0.03101 -0.1016304,0.08441 -0.039619,0.05168 -0.062012,0.124024 -0.02067,0.07062 -0.024116,0.151584 z"
         id="path2179" />
      <path
         d="m 11.785985,23.15466 q 0,0.01895 -0.0086,0.03273 -0.0086,0.01206 -0.02928,0.02067 -0.02067,0.0086 -0.05685,0.01206 -0.03445,0.0034 -0.08613,0.0034 -0.05512,0 -0.08957,-0.0034 -0.03445,-0.0034 -0.05684,-0.01206 -0.02067,-0.0086 -0.03101,-0.02067 -0.0086,-0.01378 -0.0086,-0.03273 v -0.170533 q -0.118856,0.127469 -0.24977,0.198093 -0.129191,0.07062 -0.287666,0.07062 -0.1757,0 -0.298001,-0.06718 -0.120578,-0.0689 -0.198093,-0.184313 -0.07579,-0.115411 -0.110243,-0.268718 -0.03445,-0.155029 -0.03445,-0.325562 0,-0.204983 0.04306,-0.368625 0.04479,-0.163642 0.129191,-0.279053 0.08441,-0.115411 0.210151,-0.177422 0.125746,-0.06201 0.289388,-0.06201 0.129191,0 0.234267,0.0534 0.105075,0.05168 0.208428,0.153307 v -0.831991 q 0,-0.01723 0.0086,-0.03101 0.01033,-0.01378 0.03445,-0.02239 0.02584,-0.01034 0.06718,-0.0155 0.04134,-0.0052 0.105076,-0.0052 0.06373,0 0.105075,0.0052 0.04134,0.0052 0.06546,0.0155 0.02412,0.0086 0.03445,0.02239 0.01034,0.01378 0.01034,0.03101 z m -0.430638,-1.026639 q -0.09302,-0.117134 -0.179145,-0.179146 -0.08441,-0.06201 -0.177422,-0.06201 -0.08441,0 -0.146417,0.04306 -0.06029,0.04134 -0.09819,0.111966 -0.03617,0.07062 -0.05512,0.158475 -0.01722,0.08613 -0.01722,0.177422 0,0.09646 0.0155,0.187758 0.0155,0.09129 0.04995,0.163642 0.03617,0.07062 0.09474,0.113688 0.05857,0.04306 0.148139,0.04306 0.04479,0 0.08613,-0.01206 0.04306,-0.01378 0.08613,-0.04306 0.04479,-0.02928 0.0913,-0.07579 0.04651,-0.04823 0.10163,-0.117133 z"
         id="path2181" />
    </g>
    <g
       aria-label="in"
       transform="translate(0,2.899995)"
       id="text2138"
       style="font-weight:bold;font-size:3.52778px;font-family:Calibri;-inkscape-font-specification:'Calibri Bold';text-align:center;text-anchor:middle;display:inline;stroke:#000000;stroke-width:0"
       inkscape:label="in">
      <path
         d="m 6.9034195,23.15466 q 0,0.01722 -0.010335,0.03101 -0.010335,0.01206 -0.036173,0.02067 -0.024116,0.0086 -0.065457,0.01206 -0.041341,0.0052 -0.1050755,0.0052 -0.063734,0 -0.1050754,-0.0052 -0.041341,-0.0034 -0.067179,-0.01206 -0.024116,-0.0086 -0.034451,-0.02067 -0.010335,-0.01378 -0.010335,-0.03101 v -1.533069 q 0,-0.01722 0.010335,-0.02928 0.010335,-0.01378 0.034451,-0.02239 0.025838,-0.01034 0.067179,-0.0155 0.041341,-0.0052 0.1050754,-0.0052 0.063734,0 0.1050755,0.0052 0.041341,0.0052 0.065457,0.0155 0.025838,0.0086 0.036173,0.02239 0.010335,0.01206 0.010335,0.02928 z m 0.032728,-2.056724 q 0,0.130914 -0.053399,0.180868 -0.053399,0.04995 -0.1980931,0.04995 -0.1464167,0 -0.1980931,-0.04823 -0.049954,-0.04823 -0.049954,-0.173978 0,-0.130914 0.051676,-0.180868 0.053399,-0.05168 0.1998157,-0.05168 0.1446941,0 0.1963706,0.04995 0.051676,0.04823 0.051676,0.173977 z"
         id="path2184" />
      <path
         d="m 8.8033909,23.15466 q 0,0.01722 -0.010335,0.03101 -0.010335,0.01206 -0.034451,0.02067 -0.024116,0.0086 -0.067179,0.01206 -0.041341,0.0052 -0.1033529,0.0052 -0.063734,0 -0.106798,-0.0052 -0.041341,-0.0034 -0.065457,-0.01206 -0.024116,-0.0086 -0.034451,-0.02067 -0.010335,-0.01378 -0.010335,-0.03101 v -0.876778 q 0,-0.111965 -0.017226,-0.1757 -0.015503,-0.06373 -0.046509,-0.10852 -0.031006,-0.04651 -0.08096,-0.07062 -0.048231,-0.02584 -0.1136882,-0.02584 -0.082682,0 -0.1670872,0.06029 -0.084405,0.06029 -0.1757,0.1757 v 1.021472 q 0,0.01722 -0.010335,0.03101 -0.010335,0.01206 -0.036174,0.02067 -0.024116,0.0086 -0.065457,0.01206 -0.041341,0.0052 -0.1050755,0.0052 -0.063734,0 -0.1050755,-0.0052 -0.041341,-0.0034 -0.067179,-0.01206 -0.024116,-0.0086 -0.034451,-0.02067 -0.010335,-0.01378 -0.010335,-0.03101 v -1.536514 q 0,-0.01722 0.00861,-0.02928 0.00861,-0.01378 0.031006,-0.02239 0.022393,-0.0086 0.056844,-0.01206 0.036174,-0.0052 0.089573,-0.0052 0.055122,0 0.091295,0.0052 0.036174,0.0034 0.055122,0.01206 0.020671,0.0086 0.029283,0.02239 0.00861,0.01206 0.00861,0.02928 v 0.177423 q 0.1274686,-0.137804 0.2583823,-0.206706 0.1326363,-0.0689 0.2756078,-0.0689 0.156752,0 0.26355,0.05168 0.1085206,0.05168 0.1739774,0.141249 0.067179,0.08785 0.096463,0.206706 0.029283,0.118856 0.029283,0.285943 z"
         id="path2186" />
    </g>
  </g>
</svg>
